<svg width="346" height="30" viewBox="0 0 346 30" fill="none" xmlns="http://www.w3.org/2000/svg">
<path d="M4.5 25.06H16.92V27.37H21.33V20.35H19.14L11.7 3.73H9.39L2.19 20.35H0.06V27.37H4.5V25.06ZM10.53 12.7L13.56 20.29H7.62L10.53 12.7ZM44.2774 14.53C44.2774 0.00999808 22.7374 0.00999808 22.7374 14.53C22.7374 29.08 44.2774 29.08 44.2774 14.53ZM28.2574 14.53C28.2574 6.97 38.7874 6.97 38.7874 14.53C38.7874 22.15 28.2574 22.15 28.2574 14.53ZM57.6863 8.35V20.62H54.5663V25H66.0863V20.62H62.9063V4H54.8363V8.35H57.6863ZM76.4095 3.61C72.1495 3.61 68.5795 6.25 68.5795 10.84C68.5795 13.18 68.5795 15.85 68.5795 18.19C68.5795 22.78 72.1495 25.42 76.4095 25.42C80.7595 25.42 84.2995 22.78 84.2995 18.19C84.2995 15.85 84.2995 13.18 84.2995 10.84C84.2995 6.25 80.7595 3.61 76.4095 3.61ZM76.4095 20.65C74.8795 20.65 73.6795 19.78 73.6795 18.07C73.6795 15.82 73.6795 13.21 73.6795 10.93C73.6795 9.28 74.8795 8.41 76.4095 8.41C77.9995 8.41 79.2295 9.28 79.2295 10.93C79.2295 13.21 79.2295 15.82 79.2295 18.07C79.2295 19.78 77.9995 20.65 76.4095 20.65ZM113.162 25V4H107.702V12.58H106.652C102.482 12.58 102.212 10.15 102.212 6.58V4H96.6919V6.58C96.6919 13.96 99.3319 17.68 106.622 17.68H107.702V25H113.162ZM131.86 25H137.11V24.22L127.63 3.73H125.32L115.87 24.22V25H121.12L122.35 22.36H130.63L131.86 25ZM128.89 17.77H124.09L126.46 12.25L128.89 17.77ZM138.607 14.5C138.637 21.64 144.037 25.24 149.377 25.21C153.847 25.21 158.557 22.87 159.337 16.93C157.507 16.93 155.857 16.93 154.057 16.93C153.487 19.18 151.657 20.32 149.377 20.32C146.197 20.29 144.157 17.59 144.157 14.5C144.157 11.02 146.227 8.65 149.377 8.65C151.627 8.65 153.217 9.61 153.967 11.74C155.797 11.74 157.417 11.74 159.247 11.74C158.437 6.13 153.727 3.76 149.377 3.76C144.037 3.76 138.637 7.36 138.607 14.5ZM183.701 14.53C183.701 0.00999808 162.161 0.00999808 162.161 14.53C162.161 29.08 183.701 29.08 183.701 14.53ZM167.681 14.53C167.681 6.97 178.211 6.97 178.211 14.53C178.211 22.15 167.681 22.15 167.681 14.53ZM203.248 10.45C203.248 6.82 200.338 4 196.708 4H187.738V25H197.578C201.868 25 204.088 22.03 204.118 18.37C204.118 16.51 203.308 14.95 201.598 14.08C202.618 13.24 203.248 11.71 203.248 10.45ZM197.188 16.66C199.348 16.66 199.378 20.23 197.218 20.23H192.928V16.66H197.188ZM196.288 8.8C198.448 8.8 198.448 12.19 196.318 12.19H192.928V8.8H196.288ZM221.936 25V19.63H225.806C235.856 19.63 235.856 4.03 225.806 4C222.716 4 219.596 4 216.566 4C216.566 11.02 216.566 18.01 216.566 25C218.336 25 220.136 25 221.936 25ZM225.776 14.8H221.936C221.936 13.09 221.936 10.51 221.936 8.8C223.166 8.8 224.516 8.77 225.776 8.8C228.896 8.83 228.716 14.8 225.776 14.8ZM249.487 25H254.737V24.22L245.257 3.73H242.947L233.497 24.22V25H238.747L239.977 22.36H248.257L249.487 25ZM246.517 17.77H241.717L244.087 12.25L246.517 17.77ZM266.704 16.09C269.644 16.09 269.674 20.2 266.704 20.2C265.444 20.2 264.094 20.2 262.864 20.2V16.09H266.704ZM262.864 11.35V8.8H272.584V4H257.494V25H266.734C276.784 24.97 276.784 11.35 266.734 11.35H262.864ZM298.574 14.53C298.574 0.00999808 277.034 0.00999808 277.034 14.53C277.034 29.08 298.574 29.08 298.574 14.53ZM282.554 14.53C282.554 6.97 293.084 6.97 293.084 14.53C293.084 22.15 282.554 22.15 282.554 14.53ZM305.701 8.8V25C307.471 25 309.241 25 311.011 25V8.8H316.141C316.141 7.18 316.141 5.59 316.141 4H300.541C300.541 5.59 300.541 7.18 300.541 8.8H305.701ZM319.457 4V25H328.697C338.747 24.97 338.747 10.27 328.697 10.27H324.827V4H319.457ZM328.667 15.1C331.607 15.1 331.787 20.17 328.667 20.2C327.407 20.23 326.057 20.2 324.827 20.2V15.1H328.667ZM340.187 25H345.557V4H340.187V25Z" fill="black"/>
</svg>
