<svg width="338" height="149" viewBox="0 0 338 149" fill="none" xmlns="http://www.w3.org/2000/svg">
<path d="M0.751953 16V15.1504L2.34375 15.0234V2.76758L0.751953 2.64062V1.78125H5.11719V2.64062L3.52539 2.76758V15.0234H9.22852V2.76758L7.63672 2.64062V1.78125H11.9922V2.64062L10.4004 2.76758V15.0234H16.0938V2.76758L14.502 2.64062V1.78125H18.8574V2.64062L17.2656 2.76758V15.0234L18.8574 15.1504V16H0.751953ZM20.5566 16L20.5664 14.9648L20.9375 14.9551C21.4193 14.9551 21.8099 14.8021 22.1094 14.4961C22.4089 14.1836 22.627 13.6725 22.7637 12.9629C22.9069 12.2533 22.9785 11.2995 22.9785 10.1016V6.41992L21.3867 6.29297V5.43359H31.3965V6.29297L29.8047 6.41992V15.0234L31.3965 15.1504V16H27.0312V15.1504L28.623 15.0234V6.42969H24.1504V10.1016C24.1504 12.1784 23.9095 13.6823 23.4277 14.6133C22.946 15.5378 22.1289 16 20.9766 16H20.5566ZM38.0566 16.2051C37.1517 16.2051 36.3542 15.987 35.6641 15.5508C34.974 15.1081 34.4336 14.4993 34.043 13.7246C33.6523 12.9434 33.457 12.0449 33.457 11.0293V10.4922C33.457 9.48307 33.6523 8.58464 34.043 7.79688C34.4336 7.0026 34.9609 6.3776 35.625 5.92188C36.2956 5.46615 37.041 5.23828 37.8613 5.23828C39.1569 5.23828 40.1693 5.64844 40.8984 6.46875C41.6276 7.28255 41.9922 8.37305 41.9922 9.74023V10.7363H34.668L34.6484 11.166C34.6549 11.9473 34.7982 12.6439 35.0781 13.2559C35.3646 13.8678 35.7617 14.3496 36.2695 14.7012C36.7839 15.0527 37.3796 15.2285 38.0566 15.2285C38.7207 15.2285 39.3034 15.1243 39.8047 14.916C40.3125 14.7077 40.7585 14.418 41.1426 14.0469L41.6406 14.8477C41.237 15.2448 40.7422 15.5703 40.1562 15.8242C39.5703 16.0781 38.8704 16.2051 38.0566 16.2051ZM34.7461 9.75977H40.8203V9.4668C40.8203 8.53581 40.5566 7.76432 40.0293 7.15234C39.5085 6.53385 38.7858 6.22461 37.8613 6.22461C37.3014 6.22461 36.7969 6.3776 36.3477 6.68359C35.8984 6.98307 35.5306 7.39648 35.2441 7.92383C34.9642 8.44466 34.7917 9.03711 34.7266 9.70117L34.7461 9.75977ZM43.9551 16V15.1504L45.5469 15.0234V6.41992L43.9551 6.29297V5.43359H47.0801L51.2305 14.3691L51.2793 14.4082L55.459 5.43359H58.5059V6.29297L56.9141 6.41992V15.0234L58.5059 15.1504V16H54.1504V15.1504L55.7422 15.0234V7.54297L55.6836 7.52344L51.6895 16H50.8496L46.7773 7.32812L46.7188 7.33789V15.0234L48.3105 15.1504V16H43.9551ZM65.0488 20.0625V19.2031L66.6016 19.0762V6.41992L65.0098 6.29297V5.43359H67.5781L67.7246 7.04492C68.0762 6.47201 68.5286 6.0293 69.082 5.7168C69.6419 5.39779 70.2995 5.23828 71.0547 5.23828C71.9076 5.23828 72.6367 5.4694 73.2422 5.93164C73.8477 6.38737 74.3099 7.0319 74.6289 7.86523C74.9544 8.69857 75.1172 9.67839 75.1172 10.8047V11.0098C75.1172 12.5853 74.7591 13.8451 74.043 14.7891C73.3268 15.7331 72.3405 16.2051 71.084 16.2051C70.3353 16.2051 69.681 16.0651 69.1211 15.7852C68.5677 15.5052 68.1185 15.1146 67.7734 14.6133V19.0762L69.4043 19.2031V20.0625H65.0488ZM70.8105 15.2285C71.8327 15.2285 72.6074 14.8444 73.1348 14.0762C73.6686 13.3014 73.9355 12.2793 73.9355 11.0098V10.8047C73.9355 9.45703 73.6686 8.36003 73.1348 7.51367C72.6009 6.66732 71.8197 6.24414 70.791 6.24414C69.9902 6.24414 69.3457 6.43945 68.8574 6.83008C68.3757 7.2207 68.0143 7.71549 67.7734 8.31445V13.3535C68.0208 13.9329 68.3984 14.3919 68.9062 14.7305C69.4141 15.0625 70.0488 15.2285 70.8105 15.2285ZM80.3125 16.2051C79.3099 16.2051 78.5254 15.9382 77.959 15.4043C77.3926 14.8704 77.1094 14.1478 77.1094 13.2363C77.1094 12.2598 77.5228 11.472 78.3496 10.873C79.1829 10.2676 80.3158 9.96484 81.748 9.96484H83.9355V8.75391C83.9355 7.98568 83.7077 7.37044 83.252 6.9082C82.7962 6.44596 82.1159 6.21484 81.2109 6.21484C80.6966 6.21484 80.2344 6.29948 79.8242 6.46875C79.4206 6.63151 79.069 6.83984 78.7695 7.09375L78.6719 8.70508H77.7051V6.49805C78.1608 6.10091 78.6784 5.79167 79.2578 5.57031C79.8372 5.34896 80.4948 5.23828 81.2305 5.23828C82.474 5.23828 83.431 5.55078 84.1016 6.17578C84.7721 6.80078 85.1074 7.66667 85.1074 8.77344V13.8711C85.1074 14.0794 85.1139 14.2878 85.127 14.4961C85.14 14.6979 85.1628 14.8997 85.1953 15.1016L86.4551 15.1504V16H84.1504C84.0788 15.6159 84.0267 15.3066 83.9941 15.0723C83.9616 14.8379 83.9421 14.5742 83.9355 14.2812C83.5514 14.8477 83.0436 15.3099 82.4121 15.668C81.7806 16.026 81.0807 16.2051 80.3125 16.2051ZM80.4492 15.1797C81.1719 15.1797 81.8555 14.9909 82.5 14.6133C83.151 14.2292 83.6296 13.7214 83.9355 13.0898V10.8633H81.7383C80.6576 10.8633 79.8112 11.0977 79.1992 11.5664C78.5872 12.0286 78.2812 12.5983 78.2812 13.2754C78.2812 13.8418 78.4733 14.3008 78.8574 14.6523C79.248 15.0039 79.7786 15.1797 80.4492 15.1797ZM92.9004 16.2051C91.9564 16.2051 91.1328 15.9935 90.4297 15.5703C89.7331 15.1406 89.1895 14.5482 88.7988 13.793C88.4147 13.0378 88.2227 12.1686 88.2227 11.1855V9.65234C88.2227 7.60807 88.6458 5.96745 89.4922 4.73047C90.3451 3.48698 91.5007 2.74805 92.959 2.51367C93.9551 2.35742 94.6549 2.1556 95.0586 1.9082C95.4622 1.66081 95.6641 1.30273 95.6641 0.833984H96.5723L96.5918 0.892578C96.6178 1.77148 96.3509 2.39323 95.791 2.75781C95.2311 3.1224 94.3717 3.38281 93.2129 3.53906C92.1712 3.66927 91.3053 4.11198 90.6152 4.86719C89.9316 5.61589 89.5247 6.625 89.3945 7.89453L89.4336 7.94336C89.7786 7.39648 90.2702 6.96029 90.9082 6.63477C91.5527 6.30273 92.2721 6.13672 93.0664 6.13672C93.9714 6.13672 94.7591 6.33854 95.4297 6.74219C96.1068 7.14583 96.6309 7.70247 97.002 8.41211C97.3796 9.12174 97.5684 9.9388 97.5684 10.8633V11.1855C97.5684 12.1686 97.373 13.0378 96.9824 13.793C96.5983 14.5482 96.0547 15.1406 95.3516 15.5703C94.6549 15.9935 93.8379 16.2051 92.9004 16.2051ZM92.9004 15.2285C93.6296 15.2285 94.2546 15.0495 94.7754 14.6914C95.2962 14.3333 95.6966 13.8516 95.9766 13.2461C96.2565 12.6341 96.3965 11.9473 96.3965 11.1855V10.8633C96.3965 10.1667 96.2533 9.53516 95.9668 8.96875C95.6868 8.40234 95.2832 7.95312 94.7559 7.62109C94.235 7.28255 93.61 7.11328 92.8809 7.11328C92.1517 7.11328 91.5267 7.28255 91.0059 7.62109C90.485 7.95312 90.0846 8.40234 89.8047 8.96875C89.5312 9.53516 89.3945 10.1667 89.3945 10.8633V11.1855C89.3945 11.9473 89.5312 12.6341 89.8047 13.2461C90.0846 13.8581 90.485 14.3431 91.0059 14.7012C91.5332 15.0527 92.1647 15.2285 92.9004 15.2285ZM104.121 16.2051C103.177 16.2051 102.354 15.9805 101.65 15.5312C100.947 15.0755 100.4 14.4473 100.01 13.6465C99.6257 12.8457 99.4336 11.9245 99.4336 10.8828V10.5605C99.4336 9.52539 99.6257 8.60742 100.01 7.80664C100.4 7.00586 100.944 6.3776 101.641 5.92188C102.344 5.46615 103.164 5.23828 104.102 5.23828C105.039 5.23828 105.859 5.46615 106.562 5.92188C107.266 6.3776 107.809 7.00586 108.193 7.80664C108.584 8.60742 108.779 9.52539 108.779 10.5605V10.8828C108.779 11.9245 108.584 12.8457 108.193 13.6465C107.809 14.4473 107.266 15.0755 106.562 15.5312C105.866 15.9805 105.052 16.2051 104.121 16.2051ZM104.121 15.2285C104.844 15.2285 105.465 15.0365 105.986 14.6523C106.507 14.2682 106.908 13.7507 107.188 13.0996C107.467 12.4421 107.607 11.7031 107.607 10.8828V10.5605C107.607 9.75326 107.464 9.02409 107.178 8.37305C106.898 7.71549 106.494 7.19466 105.967 6.81055C105.446 6.41992 104.824 6.22461 104.102 6.22461C103.366 6.22461 102.738 6.41992 102.217 6.81055C101.696 7.19466 101.296 7.71549 101.016 8.37305C100.742 9.02409 100.605 9.75326 100.605 10.5605V10.8828C100.605 11.7031 100.742 12.4421 101.016 13.0996C101.296 13.7507 101.696 14.2682 102.217 14.6523C102.744 15.0365 103.379 15.2285 104.121 15.2285ZM112.773 16V15.1504L114.365 15.0234V6.41016H111.504L111.436 8.42188H110.391V5.43359H119.648V8.42188H118.604L118.535 6.41016H115.537V15.0234L117.129 15.1504V16H112.773ZM124.57 16.2051C123.568 16.2051 122.783 15.9382 122.217 15.4043C121.65 14.8704 121.367 14.1478 121.367 13.2363C121.367 12.2598 121.781 11.472 122.607 10.873C123.441 10.2676 124.574 9.96484 126.006 9.96484H128.193V8.75391C128.193 7.98568 127.965 7.37044 127.51 6.9082C127.054 6.44596 126.374 6.21484 125.469 6.21484C124.954 6.21484 124.492 6.29948 124.082 6.46875C123.678 6.63151 123.327 6.83984 123.027 7.09375L122.93 8.70508H121.963V6.49805C122.419 6.10091 122.936 5.79167 123.516 5.57031C124.095 5.34896 124.753 5.23828 125.488 5.23828C126.732 5.23828 127.689 5.55078 128.359 6.17578C129.03 6.80078 129.365 7.66667 129.365 8.77344V13.8711C129.365 14.0794 129.372 14.2878 129.385 14.4961C129.398 14.6979 129.421 14.8997 129.453 15.1016L130.713 15.1504V16H128.408C128.337 15.6159 128.285 15.3066 128.252 15.0723C128.219 14.8379 128.2 14.5742 128.193 14.2812C127.809 14.8477 127.301 15.3099 126.67 15.668C126.038 16.026 125.339 16.2051 124.57 16.2051ZM124.707 15.1797C125.43 15.1797 126.113 14.9909 126.758 14.6133C127.409 14.2292 127.887 13.7214 128.193 13.0898V10.8633H125.996C124.915 10.8633 124.069 11.0977 123.457 11.5664C122.845 12.0286 122.539 12.5983 122.539 13.2754C122.539 13.8418 122.731 14.3008 123.115 14.6523C123.506 15.0039 124.036 15.1797 124.707 15.1797ZM136.963 16.2051C136.058 16.2051 135.26 15.987 134.57 15.5508C133.88 15.1081 133.34 14.4993 132.949 13.7246C132.559 12.9434 132.363 12.0449 132.363 11.0293V10.4922C132.363 9.48307 132.559 8.58464 132.949 7.79688C133.34 7.0026 133.867 6.3776 134.531 5.92188C135.202 5.46615 135.947 5.23828 136.768 5.23828C138.063 5.23828 139.076 5.64844 139.805 6.46875C140.534 7.28255 140.898 8.37305 140.898 9.74023V10.7363H133.574L133.555 11.166C133.561 11.9473 133.704 12.6439 133.984 13.2559C134.271 13.8678 134.668 14.3496 135.176 14.7012C135.69 15.0527 136.286 15.2285 136.963 15.2285C137.627 15.2285 138.21 15.1243 138.711 14.916C139.219 14.7077 139.665 14.418 140.049 14.0469L140.547 14.8477C140.143 15.2448 139.648 15.5703 139.062 15.8242C138.477 16.0781 137.777 16.2051 136.963 16.2051ZM133.652 9.75977H139.727V9.4668C139.727 8.53581 139.463 7.76432 138.936 7.15234C138.415 6.53385 137.692 6.22461 136.768 6.22461C136.208 6.22461 135.703 6.3776 135.254 6.68359C134.805 6.98307 134.437 7.39648 134.15 7.92383C133.87 8.44466 133.698 9.03711 133.633 9.70117L133.652 9.75977ZM145 16V15.1504L146.592 15.0234V6.41016H143.73L143.662 8.42188H142.617V5.43359H151.875V8.42188H150.83L150.762 6.41016H147.764V15.0234L149.355 15.1504V16H145ZM163.447 16.2051C162.503 16.2051 161.68 15.9935 160.977 15.5703C160.28 15.1406 159.736 14.5482 159.346 13.793C158.962 13.0378 158.77 12.1686 158.77 11.1855V9.65234C158.77 7.60807 159.193 5.96745 160.039 4.73047C160.892 3.48698 162.048 2.74805 163.506 2.51367C164.502 2.35742 165.202 2.1556 165.605 1.9082C166.009 1.66081 166.211 1.30273 166.211 0.833984H167.119L167.139 0.892578C167.165 1.77148 166.898 2.39323 166.338 2.75781C165.778 3.1224 164.919 3.38281 163.76 3.53906C162.718 3.66927 161.852 4.11198 161.162 4.86719C160.479 5.61589 160.072 6.625 159.941 7.89453L159.98 7.94336C160.326 7.39648 160.817 6.96029 161.455 6.63477C162.1 6.30273 162.819 6.13672 163.613 6.13672C164.518 6.13672 165.306 6.33854 165.977 6.74219C166.654 7.14583 167.178 7.70247 167.549 8.41211C167.926 9.12174 168.115 9.9388 168.115 10.8633V11.1855C168.115 12.1686 167.92 13.0378 167.529 13.793C167.145 14.5482 166.602 15.1406 165.898 15.5703C165.202 15.9935 164.385 16.2051 163.447 16.2051ZM163.447 15.2285C164.176 15.2285 164.801 15.0495 165.322 14.6914C165.843 14.3333 166.243 13.8516 166.523 13.2461C166.803 12.6341 166.943 11.9473 166.943 11.1855V10.8633C166.943 10.1667 166.8 9.53516 166.514 8.96875C166.234 8.40234 165.83 7.95312 165.303 7.62109C164.782 7.28255 164.157 7.11328 163.428 7.11328C162.699 7.11328 162.074 7.28255 161.553 7.62109C161.032 7.95312 160.632 8.40234 160.352 8.96875C160.078 9.53516 159.941 10.1667 159.941 10.8633V11.1855C159.941 11.9473 160.078 12.6341 160.352 13.2461C160.632 13.8581 161.032 14.3431 161.553 14.7012C162.08 15.0527 162.712 15.2285 163.447 15.2285ZM174.6 16.2051C173.695 16.2051 172.897 15.987 172.207 15.5508C171.517 15.1081 170.977 14.4993 170.586 13.7246C170.195 12.9434 170 12.0449 170 11.0293V10.4922C170 9.48307 170.195 8.58464 170.586 7.79688C170.977 7.0026 171.504 6.3776 172.168 5.92188C172.839 5.46615 173.584 5.23828 174.404 5.23828C175.7 5.23828 176.712 5.64844 177.441 6.46875C178.171 7.28255 178.535 8.37305 178.535 9.74023V10.7363H171.211L171.191 11.166C171.198 11.9473 171.341 12.6439 171.621 13.2559C171.908 13.8678 172.305 14.3496 172.812 14.7012C173.327 15.0527 173.923 15.2285 174.6 15.2285C175.264 15.2285 175.846 15.1243 176.348 14.916C176.855 14.7077 177.301 14.418 177.686 14.0469L178.184 14.8477C177.78 15.2448 177.285 15.5703 176.699 15.8242C176.113 16.0781 175.413 16.2051 174.6 16.2051ZM171.289 9.75977H177.363V9.4668C177.363 8.53581 177.1 7.76432 176.572 7.15234C176.051 6.53385 175.329 6.22461 174.404 6.22461C173.844 6.22461 173.34 6.3776 172.891 6.68359C172.441 6.98307 172.074 7.39648 171.787 7.92383C171.507 8.44466 171.335 9.03711 171.27 9.70117L171.289 9.75977ZM184.443 16.1758C183.714 16.1758 183.04 16.0553 182.422 15.8145C181.803 15.5671 181.309 15.2122 180.938 14.75C180.573 14.2812 180.4 13.7083 180.42 13.0312L180.439 12.9727H181.523C181.523 13.6042 181.797 14.1348 182.344 14.5645C182.897 14.9941 183.597 15.209 184.443 15.209C185.355 15.209 186.055 15.0202 186.543 14.6426C187.038 14.2585 187.285 13.7507 187.285 13.1191C187.285 12.4225 187.054 11.9147 186.592 11.5957C186.136 11.2702 185.433 11.1074 184.482 11.1074H182.871V10.1016H184.482C185.407 10.1016 186.074 9.94206 186.484 9.62305C186.895 9.29753 187.1 8.83203 187.1 8.22656C187.1 7.64062 186.882 7.16211 186.445 6.79102C186.016 6.41992 185.348 6.23438 184.443 6.23438C183.682 6.23438 183.034 6.42969 182.5 6.82031C181.966 7.20443 181.699 7.69271 181.699 8.28516H180.615L180.596 8.22656C180.57 7.64714 180.726 7.13607 181.064 6.69336C181.41 6.24414 181.875 5.89583 182.461 5.64844C183.053 5.39453 183.714 5.26758 184.443 5.26758C185.648 5.26758 186.589 5.52474 187.266 6.03906C187.943 6.55339 188.281 7.28581 188.281 8.23633C188.281 8.75716 188.118 9.22591 187.793 9.64258C187.474 10.0527 187.018 10.3652 186.426 10.5801C187.793 10.9642 188.477 11.804 188.477 13.0996C188.477 14.0632 188.105 14.8184 187.363 15.3652C186.628 15.9056 185.654 16.1758 184.443 16.1758ZM195.518 16V15.1504L197.109 15.0234V6.41992L195.518 6.29297V5.43359H206.738V6.29297L205.146 6.41992V15.0234L206.738 15.1504V16H202.383V15.1504L203.975 15.0234V6.42969H198.281V15.0234L199.873 15.1504V16H195.518ZM208.506 20.0625V19.2031L210.059 19.0762V6.41992L208.467 6.29297V5.43359H211.035L211.182 7.04492C211.533 6.47201 211.986 6.0293 212.539 5.7168C213.099 5.39779 213.757 5.23828 214.512 5.23828C215.365 5.23828 216.094 5.4694 216.699 5.93164C217.305 6.38737 217.767 7.0319 218.086 7.86523C218.411 8.69857 218.574 9.67839 218.574 10.8047V11.0098C218.574 12.5853 218.216 13.8451 217.5 14.7891C216.784 15.7331 215.798 16.2051 214.541 16.2051C213.792 16.2051 213.138 16.0651 212.578 15.7852C212.025 15.5052 211.576 15.1146 211.23 14.6133V19.0762L212.861 19.2031V20.0625H208.506ZM214.268 15.2285C215.29 15.2285 216.064 14.8444 216.592 14.0762C217.126 13.3014 217.393 12.2793 217.393 11.0098V10.8047C217.393 9.45703 217.126 8.36003 216.592 7.51367C216.058 6.66732 215.277 6.24414 214.248 6.24414C213.447 6.24414 212.803 6.43945 212.314 6.83008C211.833 7.2207 211.471 7.71549 211.23 8.31445V13.3535C211.478 13.9329 211.855 14.3919 212.363 14.7305C212.871 15.0625 213.506 15.2285 214.268 15.2285ZM225.43 16.2051C224.486 16.2051 223.662 15.9805 222.959 15.5312C222.256 15.0755 221.709 14.4473 221.318 13.6465C220.934 12.8457 220.742 11.9245 220.742 10.8828V10.5605C220.742 9.52539 220.934 8.60742 221.318 7.80664C221.709 7.00586 222.253 6.3776 222.949 5.92188C223.652 5.46615 224.473 5.23828 225.41 5.23828C226.348 5.23828 227.168 5.46615 227.871 5.92188C228.574 6.3776 229.118 7.00586 229.502 7.80664C229.893 8.60742 230.088 9.52539 230.088 10.5605V10.8828C230.088 11.9245 229.893 12.8457 229.502 13.6465C229.118 14.4473 228.574 15.0755 227.871 15.5312C227.174 15.9805 226.361 16.2051 225.43 16.2051ZM225.43 15.2285C226.152 15.2285 226.774 15.0365 227.295 14.6523C227.816 14.2682 228.216 13.7507 228.496 13.0996C228.776 12.4421 228.916 11.7031 228.916 10.8828V10.5605C228.916 9.75326 228.773 9.02409 228.486 8.37305C228.206 7.71549 227.803 7.19466 227.275 6.81055C226.755 6.41992 226.133 6.22461 225.41 6.22461C224.674 6.22461 224.046 6.41992 223.525 6.81055C223.005 7.19466 222.604 7.71549 222.324 8.37305C222.051 9.02409 221.914 9.75326 221.914 10.5605V10.8828C221.914 11.7031 222.051 12.4421 222.324 13.0996C222.604 13.7507 223.005 14.2682 223.525 14.6523C224.053 15.0365 224.688 15.2285 225.43 15.2285ZM232.041 16V15.1504L233.633 15.0234V6.41992L232.041 6.29297V5.43359H237.51C238.831 5.43359 239.854 5.66797 240.576 6.13672C241.305 6.60547 241.67 7.30859 241.67 8.24609C241.67 8.79297 241.501 9.27474 241.162 9.69141C240.83 10.1016 240.361 10.3945 239.756 10.5703C240.452 10.6875 241.016 10.9805 241.445 11.4492C241.882 11.918 242.1 12.4583 242.1 13.0703C242.1 14.0273 241.748 14.7565 241.045 15.2578C240.348 15.7526 239.395 16 238.184 16H232.041ZM234.805 10.1602H237.617C239.538 10.1602 240.498 9.5319 240.498 8.27539C240.498 7.0319 239.502 6.41016 237.51 6.41016H234.805V10.1602ZM234.805 15.0332H238.184C239.056 15.0332 239.73 14.8639 240.205 14.5254C240.687 14.1803 240.928 13.6888 240.928 13.0508C240.928 12.4648 240.684 11.9993 240.195 11.6543C239.714 11.3027 239.043 11.127 238.184 11.127H234.805V15.0332ZM248.887 16.2051C247.943 16.2051 247.119 15.9805 246.416 15.5312C245.713 15.0755 245.166 14.4473 244.775 13.6465C244.391 12.8457 244.199 11.9245 244.199 10.8828V10.5605C244.199 9.52539 244.391 8.60742 244.775 7.80664C245.166 7.00586 245.71 6.3776 246.406 5.92188C247.109 5.46615 247.93 5.23828 248.867 5.23828C249.805 5.23828 250.625 5.46615 251.328 5.92188C252.031 6.3776 252.575 7.00586 252.959 7.80664C253.35 8.60742 253.545 9.52539 253.545 10.5605V10.8828C253.545 11.9245 253.35 12.8457 252.959 13.6465C252.575 14.4473 252.031 15.0755 251.328 15.5312C250.632 15.9805 249.818 16.2051 248.887 16.2051ZM248.887 15.2285C249.609 15.2285 250.231 15.0365 250.752 14.6523C251.273 14.2682 251.673 13.7507 251.953 13.0996C252.233 12.4421 252.373 11.7031 252.373 10.8828V10.5605C252.373 9.75326 252.23 9.02409 251.943 8.37305C251.663 7.71549 251.26 7.19466 250.732 6.81055C250.212 6.41992 249.59 6.22461 248.867 6.22461C248.132 6.22461 247.503 6.41992 246.982 6.81055C246.462 7.19466 246.061 7.71549 245.781 8.37305C245.508 9.02409 245.371 9.75326 245.371 10.5605V10.8828C245.371 11.7031 245.508 12.4421 245.781 13.0996C246.061 13.7507 246.462 14.2682 246.982 14.6523C247.51 15.0365 248.145 15.2285 248.887 15.2285ZM254.58 19.1055L254.492 15.0234H255.254C255.638 14.5417 255.96 14.0632 256.221 13.5879C256.488 13.1061 256.699 12.5299 256.855 11.8594C257.018 11.1888 257.132 10.3164 257.197 9.24219L257.334 6.41016L255.781 6.29297V5.43359H265.205V6.29297L263.613 6.41992V15.0234H264.717L264.629 19.1055H263.545V16H255.605V19.1055H254.58ZM256.631 15.0234H262.441V6.50781H258.496L258.369 9.24219C258.291 10.6289 258.099 11.7878 257.793 12.7188C257.493 13.6497 257.106 14.418 256.631 15.0234ZM271.914 16.2051C270.97 16.2051 270.146 15.9805 269.443 15.5312C268.74 15.0755 268.193 14.4473 267.803 13.6465C267.419 12.8457 267.227 11.9245 267.227 10.8828V10.5605C267.227 9.52539 267.419 8.60742 267.803 7.80664C268.193 7.00586 268.737 6.3776 269.434 5.92188C270.137 5.46615 270.957 5.23828 271.895 5.23828C272.832 5.23828 273.652 5.46615 274.355 5.92188C275.059 6.3776 275.602 7.00586 275.986 7.80664C276.377 8.60742 276.572 9.52539 276.572 10.5605V10.8828C276.572 11.9245 276.377 12.8457 275.986 13.6465C275.602 14.4473 275.059 15.0755 274.355 15.5312C273.659 15.9805 272.845 16.2051 271.914 16.2051ZM271.914 15.2285C272.637 15.2285 273.258 15.0365 273.779 14.6523C274.3 14.2682 274.701 13.7507 274.98 13.0996C275.26 12.4421 275.4 11.7031 275.4 10.8828V10.5605C275.4 9.75326 275.257 9.02409 274.971 8.37305C274.691 7.71549 274.287 7.19466 273.76 6.81055C273.239 6.41992 272.617 6.22461 271.895 6.22461C271.159 6.22461 270.531 6.41992 270.01 6.81055C269.489 7.19466 269.089 7.71549 268.809 8.37305C268.535 9.02409 268.398 9.75326 268.398 10.5605V10.8828C268.398 11.7031 268.535 12.4421 268.809 13.0996C269.089 13.7507 269.489 14.2682 270.01 14.6523C270.537 15.0365 271.172 15.2285 271.914 15.2285ZM278.525 16V15.1504L280.117 15.0234V6.41992L278.525 6.29297V5.43359H283.994C285.316 5.43359 286.338 5.66797 287.061 6.13672C287.79 6.60547 288.154 7.30859 288.154 8.24609C288.154 8.79297 287.985 9.27474 287.646 9.69141C287.314 10.1016 286.846 10.3945 286.24 10.5703C286.937 10.6875 287.5 10.9805 287.93 11.4492C288.366 11.918 288.584 12.4583 288.584 13.0703C288.584 14.0273 288.232 14.7565 287.529 15.2578C286.833 15.7526 285.879 16 284.668 16H278.525ZM281.289 10.1602H284.102C286.022 10.1602 286.982 9.5319 286.982 8.27539C286.982 7.0319 285.986 6.41016 283.994 6.41016H281.289V10.1602ZM281.289 15.0332H284.668C285.54 15.0332 286.214 14.8639 286.689 14.5254C287.171 14.1803 287.412 13.6888 287.412 13.0508C287.412 12.4648 287.168 11.9993 286.68 11.6543C286.198 11.3027 285.527 11.127 284.668 11.127H281.289V15.0332ZM291.201 16V14.4082H292.539V16H291.201ZM0.742188 48V47.1504L2.33398 47.0234V34.7676L0.742188 34.6406V33.7812H5.09766V34.6406L3.50586 34.7676V40.4609H11.5332V34.7676L9.94141 34.6406V33.7812H14.2969V34.6406L12.7051 34.7676V47.0234L14.2969 47.1504V48H9.94141V47.1504L11.5332 47.0234V41.4473H3.50586V47.0234L5.09766 47.1504V48H0.742188ZM20.5566 48.2051C19.6517 48.2051 18.8542 47.987 18.1641 47.5508C17.474 47.1081 16.9336 46.4993 16.543 45.7246C16.1523 44.9434 15.957 44.0449 15.957 43.0293V42.4922C15.957 41.4831 16.1523 40.5846 16.543 39.7969C16.9336 39.0026 17.4609 38.3776 18.125 37.9219C18.7956 37.4661 19.541 37.2383 20.3613 37.2383C21.6569 37.2383 22.6693 37.6484 23.3984 38.4688C24.1276 39.2826 24.4922 40.373 24.4922 41.7402V42.7363H17.168L17.1484 43.166C17.1549 43.9473 17.2982 44.6439 17.5781 45.2559C17.8646 45.8678 18.2617 46.3496 18.7695 46.7012C19.2839 47.0527 19.8796 47.2285 20.5566 47.2285C21.2207 47.2285 21.8034 47.1243 22.3047 46.916C22.8125 46.7077 23.2585 46.418 23.6426 46.0469L24.1406 46.8477C23.737 47.2448 23.2422 47.5703 22.6562 47.8242C22.0703 48.0781 21.3704 48.2051 20.5566 48.2051ZM17.2461 41.7598H23.3203V41.4668C23.3203 40.5358 23.0566 39.7643 22.5293 39.1523C22.0085 38.5339 21.2858 38.2246 20.3613 38.2246C19.8014 38.2246 19.2969 38.3776 18.8477 38.6836C18.3984 38.9831 18.0306 39.3965 17.7441 39.9238C17.4642 40.4447 17.2917 41.0371 17.2266 41.7012L17.2461 41.7598ZM31.3379 48V47.1504L32.9297 47.0234V38.4199L31.3379 38.293V37.4336H35.6934V38.293L34.1016 38.4199V42.1699H39.7852V38.4199L38.1934 38.293V37.4336H42.5586V38.293L40.9668 38.4199V47.0234L42.5586 47.1504V48H38.1934V47.1504L39.7852 47.0234V43.1465H34.1016V47.0234L35.6934 47.1504V48H31.3379ZM46.6699 52.2676C46.5332 52.2676 46.3672 52.2513 46.1719 52.2188C45.9831 52.1927 45.8398 52.1667 45.7422 52.1406L45.8789 51.1738C45.9701 51.1868 46.097 51.1999 46.2598 51.2129C46.429 51.2324 46.5527 51.2422 46.6309 51.2422C47.1387 51.2422 47.5423 51.0729 47.8418 50.7344C48.1413 50.4023 48.4147 49.9271 48.6621 49.3086L49.209 47.873L45.332 38.3613L44.1895 38.293V37.4336H47.9102V38.293L46.5723 38.3809L49.2871 45.1973L49.7266 46.3984H49.7852L52.8027 38.3809L51.4258 38.293V37.4336H55.1172V38.293L53.9941 38.3613L49.6582 49.6992C49.3652 50.4479 49.0039 51.0632 48.5742 51.5449C48.1445 52.0267 47.5098 52.2676 46.6699 52.2676ZM55.957 48V47.1504L57.373 47.0527L61.1035 42.502L58.7891 39.416C58.4831 39.0124 58.2161 38.7357 57.9883 38.5859C57.7604 38.4297 57.4967 38.3516 57.1973 38.3516C57.0671 38.3516 56.9661 38.3613 56.8945 38.3809C56.8229 38.4004 56.6992 38.4362 56.5234 38.4883L56.2793 37.6387C56.4486 37.5215 56.6178 37.4336 56.7871 37.375C56.9629 37.3164 57.1582 37.2871 57.373 37.2871C57.8027 37.2871 58.1966 37.4043 58.5547 37.6387C58.9193 37.873 59.3034 38.2702 59.707 38.8301L62.1094 42.1211H63.4473V38.4199L61.8555 38.293V37.4336H66.2109V38.293L64.6191 38.4199V42.1211H66.0449L68.4473 38.8301C68.8444 38.2702 69.222 37.873 69.5801 37.6387C69.9382 37.4043 70.3385 37.2871 70.7812 37.2871C70.9896 37.2871 71.1784 37.3197 71.3477 37.3848C71.5234 37.4434 71.6992 37.528 71.875 37.6387L71.6309 38.4883C71.4551 38.4362 71.3281 38.4004 71.25 38.3809C71.1784 38.3613 71.0807 38.3516 70.957 38.3516C70.651 38.3516 70.3841 38.4297 70.1562 38.5859C69.9284 38.7357 69.6647 39.0124 69.3652 39.416L67.0117 42.5605L70.7129 47.0527L72.1191 47.1504V48H69.9316L66.0352 43.1465H64.6191V47.0234L66.2109 47.1504V48H61.8555V47.1504L63.4473 47.0234V43.1465H62.041L58.1543 48H55.957ZM77.9785 48.2051C77.0736 48.2051 76.276 47.987 75.5859 47.5508C74.8958 47.1081 74.3555 46.4993 73.9648 45.7246C73.5742 44.9434 73.3789 44.0449 73.3789 43.0293V42.4922C73.3789 41.4831 73.5742 40.5846 73.9648 39.7969C74.3555 39.0026 74.8828 38.3776 75.5469 37.9219C76.2174 37.4661 76.9629 37.2383 77.7832 37.2383C79.0788 37.2383 80.0911 37.6484 80.8203 38.4688C81.5495 39.2826 81.9141 40.373 81.9141 41.7402V42.7363H74.5898L74.5703 43.166C74.5768 43.9473 74.7201 44.6439 75 45.2559C75.2865 45.8678 75.6836 46.3496 76.1914 46.7012C76.7057 47.0527 77.3014 47.2285 77.9785 47.2285C78.6426 47.2285 79.2253 47.1243 79.7266 46.916C80.2344 46.7077 80.6803 46.418 81.0645 46.0469L81.5625 46.8477C81.1589 47.2448 80.6641 47.5703 80.0781 47.8242C79.4922 48.0781 78.7923 48.2051 77.9785 48.2051ZM74.668 41.7598H80.7422V41.4668C80.7422 40.5358 80.4785 39.7643 79.9512 39.1523C79.4303 38.5339 78.7077 38.2246 77.7832 38.2246C77.2233 38.2246 76.7188 38.3776 76.2695 38.6836C75.8203 38.9831 75.4525 39.3965 75.166 39.9238C74.8861 40.4447 74.7135 41.0371 74.6484 41.7012L74.668 41.7598ZM83.877 48V47.1504L85.4688 47.0234V38.4199L83.877 38.293V37.4336H88.2324V38.293L86.6406 38.4199V42.1699H92.3242V38.4199L90.7324 38.293V37.4336H95.0977V38.293L93.5059 38.4199V47.0234L95.0977 47.1504V48H90.7324V47.1504L92.3242 47.0234V43.1465H86.6406V47.0234L88.2324 47.1504V48H83.877ZM102.158 48V47.1504L103.75 47.0234V38.4199L102.158 38.293V37.4336H106.514V38.293L104.922 38.4199V42.1699H110.605V38.4199L109.014 38.293V37.4336H113.379V38.293L111.787 38.4199V47.0234L113.379 47.1504V48H109.014V47.1504L110.605 47.0234V43.1465H104.922V47.0234L106.514 47.1504V48H102.158ZM115.557 48V47.1504L117.148 47.0234V38.4199L115.557 38.293V37.4336H119.912V38.293L118.32 38.4199V46.0176L118.379 46.0371L124.014 37.4336H126.777V38.293L125.186 38.4199V47.0234L126.777 47.1504V48H122.422V47.1504L124.014 47.0234V39.416L123.955 39.3965L118.32 48H115.557ZM133.838 48V47.1504L135.43 47.0234V38.4199L133.838 38.293V37.4336H138.203V38.293L136.611 38.4199V42.1211H138.174L140.752 38.8301C141.182 38.2637 141.569 37.8665 141.914 37.6387C142.266 37.4043 142.653 37.2871 143.076 37.2871C143.285 37.2871 143.473 37.3164 143.643 37.375C143.818 37.4336 143.997 37.5215 144.18 37.6387L143.926 38.4883C143.75 38.4362 143.626 38.4004 143.555 38.3809C143.483 38.3613 143.385 38.3516 143.262 38.3516C142.969 38.3516 142.705 38.4329 142.471 38.5957C142.236 38.7585 141.966 39.0319 141.66 39.416L139.199 42.541L143.213 47.0332L144.57 47.1504V48H142.5L138.223 43.1465H136.611V47.0234L138.203 47.1504V48H133.838ZM150.137 48.2051C149.193 48.2051 148.369 47.9805 147.666 47.5312C146.963 47.0755 146.416 46.4473 146.025 45.6465C145.641 44.8457 145.449 43.9245 145.449 42.8828V42.5605C145.449 41.5254 145.641 40.6074 146.025 39.8066C146.416 39.0059 146.96 38.3776 147.656 37.9219C148.359 37.4661 149.18 37.2383 150.117 37.2383C151.055 37.2383 151.875 37.4661 152.578 37.9219C153.281 38.3776 153.825 39.0059 154.209 39.8066C154.6 40.6074 154.795 41.5254 154.795 42.5605V42.8828C154.795 43.9245 154.6 44.8457 154.209 45.6465C153.825 46.4473 153.281 47.0755 152.578 47.5312C151.882 47.9805 151.068 48.2051 150.137 48.2051ZM150.137 47.2285C150.859 47.2285 151.481 47.0365 152.002 46.6523C152.523 46.2682 152.923 45.7507 153.203 45.0996C153.483 44.4421 153.623 43.7031 153.623 42.8828V42.5605C153.623 41.7533 153.48 41.0241 153.193 40.373C152.913 39.7155 152.51 39.1947 151.982 38.8105C151.462 38.4199 150.84 38.2246 150.117 38.2246C149.382 38.2246 148.753 38.4199 148.232 38.8105C147.712 39.1947 147.311 39.7155 147.031 40.373C146.758 41.0241 146.621 41.7533 146.621 42.5605V42.8828C146.621 43.7031 146.758 44.4421 147.031 45.0996C147.311 45.7507 147.712 46.2682 148.232 46.6523C148.76 47.0365 149.395 47.2285 150.137 47.2285ZM156.748 48V47.1504L158.34 47.0234V38.4199L156.748 38.293V37.4336H159.873L164.023 46.3691L164.072 46.4082L168.252 37.4336H171.299V38.293L169.707 38.4199V47.0234L171.299 47.1504V48H166.943V47.1504L168.535 47.0234V39.543L168.477 39.5234L164.482 48H163.643L159.57 39.3281L159.512 39.3379V47.0234L161.104 47.1504V48H156.748ZM173.369 48V47.1504L174.961 47.0234V38.4199L173.369 38.293V37.4336H184.59V38.293L182.998 38.4199V47.0234L184.59 47.1504V48H180.234V47.1504L181.826 47.0234V38.4297H176.133V47.0234L177.725 47.1504V48H173.369ZM192.549 41.2812C193.766 41.2812 194.714 41.5905 195.391 42.209C196.074 42.8275 196.416 43.6315 196.416 44.6211C196.416 45.6172 196.074 46.431 195.391 47.0625C194.714 47.6875 193.766 48 192.549 48H186.768V47.1504L188.359 47.0234V38.4199L186.768 38.293V37.4336H191.123V38.293L189.531 38.4199V41.2812H192.549ZM192.549 47.0234C193.454 47.0234 194.128 46.7988 194.57 46.3496C195.02 45.8939 195.244 45.3242 195.244 44.6406C195.244 43.9831 195.02 43.4232 194.57 42.9609C194.121 42.4922 193.447 42.2578 192.549 42.2578H189.531V47.0234H192.549ZM208.467 48.2051C207.562 48.2051 206.764 47.9967 206.074 47.5801C205.391 47.1569 204.85 46.571 204.453 45.8223C204.056 45.0736 203.835 44.2109 203.789 43.2344H201.006V47.0234L202.598 47.1504V48H198.242V47.1504L199.834 47.0234V38.4199L198.242 38.293V37.4336H201.006V42.2578H203.799C203.838 41.2617 204.056 40.3893 204.453 39.6406C204.85 38.8854 205.391 38.2962 206.074 37.873C206.758 37.4499 207.549 37.2383 208.447 37.2383C209.391 37.2383 210.212 37.4661 210.908 37.9219C211.611 38.3776 212.155 39.0059 212.539 39.8066C212.93 40.6009 213.125 41.5189 213.125 42.5605V42.8828C213.125 43.9245 212.93 44.8457 212.539 45.6465C212.155 46.4473 211.615 47.0755 210.918 47.5312C210.221 47.9805 209.404 48.2051 208.467 48.2051ZM208.467 47.2285C209.189 47.2285 209.811 47.0365 210.332 46.6523C210.853 46.2682 211.253 45.7507 211.533 45.0996C211.813 44.4421 211.953 43.7031 211.953 42.8828V42.5605C211.953 41.7533 211.813 41.0241 211.533 40.373C211.253 39.7155 210.85 39.1947 210.322 38.8105C209.801 38.4199 209.176 38.2246 208.447 38.2246C207.718 38.2246 207.093 38.4199 206.572 38.8105C206.051 39.1947 205.651 39.7155 205.371 40.373C205.091 41.0241 204.951 41.7533 204.951 42.5605V42.8828C204.951 43.7031 205.091 44.4421 205.371 45.0996C205.651 45.7507 206.051 46.2682 206.572 46.6523C207.1 47.0365 207.731 47.2285 208.467 47.2285ZM217.617 48V47.1504L219.209 47.0234V38.4102H216.348L216.279 40.4219H215.234V37.4336H224.492V40.4219H223.447L223.379 38.4102H220.381V47.0234L221.973 47.1504V48H217.617ZM230.205 48.2051C229.3 48.2051 228.503 47.987 227.812 47.5508C227.122 47.1081 226.582 46.4993 226.191 45.7246C225.801 44.9434 225.605 44.0449 225.605 43.0293V42.4922C225.605 41.4831 225.801 40.5846 226.191 39.7969C226.582 39.0026 227.109 38.3776 227.773 37.9219C228.444 37.4661 229.189 37.2383 230.01 37.2383C231.305 37.2383 232.318 37.6484 233.047 38.4688C233.776 39.2826 234.141 40.373 234.141 41.7402V42.7363H226.816L226.797 43.166C226.803 43.9473 226.947 44.6439 227.227 45.2559C227.513 45.8678 227.91 46.3496 228.418 46.7012C228.932 47.0527 229.528 47.2285 230.205 47.2285C230.869 47.2285 231.452 47.1243 231.953 46.916C232.461 46.7077 232.907 46.418 233.291 46.0469L233.789 46.8477C233.385 47.2448 232.891 47.5703 232.305 47.8242C231.719 48.0781 231.019 48.2051 230.205 48.2051ZM226.895 41.7598H232.969V41.4668C232.969 40.5358 232.705 39.7643 232.178 39.1523C231.657 38.5339 230.934 38.2246 230.01 38.2246C229.45 38.2246 228.945 38.3776 228.496 38.6836C228.047 38.9831 227.679 39.3965 227.393 39.9238C227.113 40.4447 226.94 41.0371 226.875 41.7012L226.895 41.7598ZM235.693 52.0625V51.2031L237.246 51.0762V38.4199L235.654 38.293V37.4336H238.223L238.369 39.0449C238.721 38.472 239.173 38.0293 239.727 37.7168C240.286 37.3978 240.944 37.2383 241.699 37.2383C242.552 37.2383 243.281 37.4694 243.887 37.9316C244.492 38.3874 244.954 39.0319 245.273 39.8652C245.599 40.6986 245.762 41.6784 245.762 42.8047V43.0098C245.762 44.5853 245.404 45.8451 244.688 46.7891C243.971 47.7331 242.985 48.2051 241.729 48.2051C240.98 48.2051 240.326 48.0651 239.766 47.7852C239.212 47.5052 238.763 47.1146 238.418 46.6133V51.0762L240.049 51.2031V52.0625H235.693ZM241.455 47.2285C242.477 47.2285 243.252 46.8444 243.779 46.0762C244.313 45.3014 244.58 44.2793 244.58 43.0098V42.8047C244.58 41.457 244.313 40.36 243.779 39.5137C243.245 38.6673 242.464 38.2441 241.436 38.2441C240.635 38.2441 239.99 38.4395 239.502 38.8301C239.02 39.2207 238.659 39.7155 238.418 40.3145V45.3535C238.665 45.9329 239.043 46.3919 239.551 46.7305C240.059 47.0625 240.693 47.2285 241.455 47.2285ZM248.135 50.7441L247.441 50.2363C247.747 49.8066 247.972 49.3802 248.115 48.957C248.265 48.5339 248.34 48.0684 248.34 47.5605V46.1641H249.512V47.5312C249.512 48.1367 249.388 48.7227 249.141 49.2891C248.9 49.8555 248.564 50.3405 248.135 50.7441ZM0.947266 80V79.1504L2.53906 79.0234V70.4199L0.947266 70.293V69.4336H5.30273V70.293L3.71094 70.4199V74.1699H9.39453V70.4199L7.80273 70.293V69.4336H12.168V70.293L10.5762 70.4199V79.0234L12.168 79.1504V80H7.80273V79.1504L9.39453 79.0234V75.1465H3.71094V79.0234L5.30273 79.1504V80H0.947266ZM14.3457 80V79.1504L15.9375 79.0234V70.4199L14.3457 70.293V69.4336H18.7012V70.293L17.1094 70.4199V78.0176L17.168 78.0371L22.8027 69.4336H25.5664V70.293L23.9746 70.4199V79.0234L25.5664 79.1504V80H21.2109V79.1504L22.8027 79.0234V71.416L22.7441 71.3965L17.1094 80H14.3457ZM32.627 80V79.1504L34.2188 79.0234V70.4199L32.627 70.293V69.4336H38.0957C39.4173 69.4336 40.4395 69.668 41.1621 70.1367C41.8913 70.6055 42.2559 71.3086 42.2559 72.2461C42.2559 72.793 42.0866 73.2747 41.748 73.6914C41.416 74.1016 40.9473 74.3945 40.3418 74.5703C41.0384 74.6875 41.6016 74.9805 42.0312 75.4492C42.4674 75.918 42.6855 76.4583 42.6855 77.0703C42.6855 78.0273 42.334 78.7565 41.6309 79.2578C40.9342 79.7526 39.9805 80 38.7695 80H32.627ZM35.3906 74.1602H38.2031C40.1237 74.1602 41.084 73.5319 41.084 72.2754C41.084 71.0319 40.0879 70.4102 38.0957 70.4102H35.3906V74.1602ZM35.3906 79.0332H38.7695C39.6419 79.0332 40.3158 78.8639 40.791 78.5254C41.2728 78.1803 41.5137 77.6888 41.5137 77.0508C41.5137 76.4648 41.2695 75.9993 40.7812 75.6543C40.2995 75.3027 39.6289 75.127 38.7695 75.127H35.3906V79.0332ZM44.834 80V79.1504L46.4258 79.0234V70.4199L44.834 70.293V69.4336H49.1895V70.293L47.5977 70.4199V74.1699H53.2812V70.4199L51.6895 70.293V69.4336H56.0547V70.293L54.4629 70.4199V79.0234L56.0547 79.1504V80H51.6895V79.1504L53.2812 79.0234V75.1465H47.5977V79.0234L49.1895 79.1504V80H44.834ZM62.8027 80.2051C61.8978 80.2051 61.1003 79.987 60.4102 79.5508C59.7201 79.1081 59.1797 78.4993 58.7891 77.7246C58.3984 76.9434 58.2031 76.0449 58.2031 75.0293V74.4922C58.2031 73.4831 58.3984 72.5846 58.7891 71.7969C59.1797 71.0026 59.707 70.3776 60.3711 69.9219C61.0417 69.4661 61.7871 69.2383 62.6074 69.2383C63.903 69.2383 64.9154 69.6484 65.6445 70.4688C66.3737 71.2826 66.7383 72.373 66.7383 73.7402V74.7363H59.4141L59.3945 75.166C59.401 75.9473 59.5443 76.6439 59.8242 77.2559C60.1107 77.8678 60.5078 78.3496 61.0156 78.7012C61.5299 79.0527 62.1257 79.2285 62.8027 79.2285C63.4668 79.2285 64.0495 79.1243 64.5508 78.916C65.0586 78.7077 65.5046 78.418 65.8887 78.0469L66.3867 78.8477C65.9831 79.2448 65.4883 79.5703 64.9023 79.8242C64.3164 80.0781 63.6165 80.2051 62.8027 80.2051ZM59.4922 73.7598H65.5664V73.4668C65.5664 72.5358 65.3027 71.7643 64.7754 71.1523C64.2546 70.5339 63.5319 70.2246 62.6074 70.2246C62.0475 70.2246 61.543 70.3776 61.0938 70.6836C60.6445 70.9831 60.2767 71.3965 59.9902 71.9238C59.7103 72.4447 59.5378 73.0371 59.4727 73.7012L59.4922 73.7598ZM68.7012 80V79.1504L70.293 79.0234V70.4199L68.7012 70.293V69.4336H73.0566V70.293L71.4648 70.4199V79.0234H76.1621V69.4336H77.334V79.0234H81.9922V70.4199L80.4004 70.293V69.4336H84.7559V70.293L83.1641 70.4199V79.0234L84.7559 79.1504V80H68.7012ZM86.8262 80V79.1504L88.418 79.0234V70.4199L86.8262 70.293V69.4336H91.1816V70.293L89.5898 70.4199V74.1699H95.2734V70.4199L93.6816 70.293V69.4336H98.0469V70.293L96.4551 70.4199V79.0234L98.0469 79.1504V80H93.6816V79.1504L95.2734 79.0234V75.1465H89.5898V79.0234L91.1816 79.1504V80H86.8262ZM104.795 80.2051C103.89 80.2051 103.092 79.987 102.402 79.5508C101.712 79.1081 101.172 78.4993 100.781 77.7246C100.391 76.9434 100.195 76.0449 100.195 75.0293V74.4922C100.195 73.4831 100.391 72.5846 100.781 71.7969C101.172 71.0026 101.699 70.3776 102.363 69.9219C103.034 69.4661 103.779 69.2383 104.6 69.2383C105.895 69.2383 106.908 69.6484 107.637 70.4688C108.366 71.2826 108.73 72.373 108.73 73.7402V74.7363H101.406L101.387 75.166C101.393 75.9473 101.536 76.6439 101.816 77.2559C102.103 77.8678 102.5 78.3496 103.008 78.7012C103.522 79.0527 104.118 79.2285 104.795 79.2285C105.459 79.2285 106.042 79.1243 106.543 78.916C107.051 78.7077 107.497 78.418 107.881 78.0469L108.379 78.8477C107.975 79.2448 107.48 79.5703 106.895 79.8242C106.309 80.0781 105.609 80.2051 104.795 80.2051ZM101.484 73.7598H107.559V73.4668C107.559 72.5358 107.295 71.7643 106.768 71.1523C106.247 70.5339 105.524 70.2246 104.6 70.2246C104.04 70.2246 103.535 70.3776 103.086 70.6836C102.637 70.9831 102.269 71.3965 101.982 71.9238C101.702 72.4447 101.53 73.0371 101.465 73.7012L101.484 73.7598ZM115.439 80.2051C114.535 80.2051 113.737 79.987 113.047 79.5508C112.357 79.1081 111.816 78.4993 111.426 77.7246C111.035 76.9434 110.84 76.0449 110.84 75.0293V74.4922C110.84 73.4831 111.035 72.5846 111.426 71.7969C111.816 71.0026 112.344 70.3776 113.008 69.9219C113.678 69.4661 114.424 69.2383 115.244 69.2383C116.54 69.2383 117.552 69.6484 118.281 70.4688C119.01 71.2826 119.375 72.373 119.375 73.7402V74.7363H112.051L112.031 75.166C112.038 75.9473 112.181 76.6439 112.461 77.2559C112.747 77.8678 113.145 78.3496 113.652 78.7012C114.167 79.0527 114.762 79.2285 115.439 79.2285C116.104 79.2285 116.686 79.1243 117.188 78.916C117.695 78.7077 118.141 78.418 118.525 78.0469L119.023 78.8477C118.62 79.2448 118.125 79.5703 117.539 79.8242C116.953 80.0781 116.253 80.2051 115.439 80.2051ZM112.129 73.7598H118.203V73.4668C118.203 72.5358 117.939 71.7643 117.412 71.1523C116.891 70.5339 116.169 70.2246 115.244 70.2246C114.684 70.2246 114.18 70.3776 113.73 70.6836C113.281 70.9831 112.913 71.3965 112.627 71.9238C112.347 72.4447 112.174 73.0371 112.109 73.7012L112.129 73.7598ZM126.221 80V79.1504L127.812 79.0234V70.4199L126.221 70.293V69.4336H137.441V70.293L135.85 70.4199V79.0234L137.441 79.1504V80H133.086V79.1504L134.678 79.0234V70.4297H128.984V79.0234L130.576 79.1504V80H126.221ZM139.619 80V79.1504L141.211 79.0234V70.4199L139.619 70.293V69.4336H143.975V70.293L142.383 70.4199V78.0176L142.441 78.0371L148.076 69.4336H150.84V70.293L149.248 70.4199V79.0234L150.84 79.1504V80H146.484V79.1504L148.076 79.0234V71.416L148.018 71.3965L142.383 80H139.619ZM155.273 80V79.1504L156.865 79.0234V70.4102H154.004L153.936 72.4219H152.891V69.4336H162.148V72.4219H161.104L161.035 70.4102H158.037V79.0234L159.629 79.1504V80H155.273ZM167.07 80.2051C166.068 80.2051 165.283 79.9382 164.717 79.4043C164.15 78.8704 163.867 78.1478 163.867 77.2363C163.867 76.2598 164.281 75.472 165.107 74.873C165.941 74.2676 167.074 73.9648 168.506 73.9648H170.693V72.7539C170.693 71.9857 170.465 71.3704 170.01 70.9082C169.554 70.446 168.874 70.2148 167.969 70.2148C167.454 70.2148 166.992 70.2995 166.582 70.4688C166.178 70.6315 165.827 70.8398 165.527 71.0938L165.43 72.7051H164.463V70.498C164.919 70.1009 165.436 69.7917 166.016 69.5703C166.595 69.349 167.253 69.2383 167.988 69.2383C169.232 69.2383 170.189 69.5508 170.859 70.1758C171.53 70.8008 171.865 71.6667 171.865 72.7734V77.8711C171.865 78.0794 171.872 78.2878 171.885 78.4961C171.898 78.6979 171.921 78.8997 171.953 79.1016L173.213 79.1504V80H170.908C170.837 79.6159 170.785 79.3066 170.752 79.0723C170.719 78.8379 170.7 78.5742 170.693 78.2812C170.309 78.8477 169.801 79.3099 169.17 79.668C168.538 80.026 167.839 80.2051 167.07 80.2051ZM167.207 79.1797C167.93 79.1797 168.613 78.9909 169.258 78.6133C169.909 78.2292 170.387 77.7214 170.693 77.0898V74.8633H168.496C167.415 74.8633 166.569 75.0977 165.957 75.5664C165.345 76.0286 165.039 76.5983 165.039 77.2754C165.039 77.8418 165.231 78.3008 165.615 78.6523C166.006 79.0039 166.536 79.1797 167.207 79.1797ZM174.893 80V79.1504L176.484 79.0234V70.4199L174.893 70.293V69.4336H179.248V70.293L177.656 70.4199V74.1699H183.34V70.4199L181.748 70.293V69.4336H186.113V70.293L184.521 70.4199V79.0234L186.113 79.1504V80H181.748V79.1504L183.34 79.0234V75.1465H177.656V79.0234L179.248 79.1504V80H174.893ZM188.291 80V79.1504L189.883 79.0234V70.4199L188.291 70.293V69.4336H192.646V70.293L191.055 70.4199V78.0176L191.113 78.0371L196.748 69.4336H199.512V70.293L197.92 70.4199V79.0234L199.512 79.1504V80H195.156V79.1504L196.748 79.0234V71.416L196.689 71.3965L191.055 80H188.291ZM206.26 80.2051C205.355 80.2051 204.557 79.987 203.867 79.5508C203.177 79.1081 202.637 78.4993 202.246 77.7246C201.855 76.9434 201.66 76.0449 201.66 75.0293V74.4922C201.66 73.4831 201.855 72.5846 202.246 71.7969C202.637 71.0026 203.164 70.3776 203.828 69.9219C204.499 69.4661 205.244 69.2383 206.064 69.2383C207.36 69.2383 208.372 69.6484 209.102 70.4688C209.831 71.2826 210.195 72.373 210.195 73.7402V74.7363H202.871L202.852 75.166C202.858 75.9473 203.001 76.6439 203.281 77.2559C203.568 77.8678 203.965 78.3496 204.473 78.7012C204.987 79.0527 205.583 79.2285 206.26 79.2285C206.924 79.2285 207.507 79.1243 208.008 78.916C208.516 78.7077 208.962 78.418 209.346 78.0469L209.844 78.8477C209.44 79.2448 208.945 79.5703 208.359 79.8242C207.773 80.0781 207.074 80.2051 206.26 80.2051ZM202.949 73.7598H209.023V73.4668C209.023 72.5358 208.76 71.7643 208.232 71.1523C207.712 70.5339 206.989 70.2246 206.064 70.2246C205.505 70.2246 205 70.3776 204.551 70.6836C204.102 70.9831 203.734 71.3965 203.447 71.9238C203.167 72.4447 202.995 73.0371 202.93 73.7012L202.949 73.7598ZM212.49 82.7441L211.797 82.2363C212.103 81.8066 212.327 81.3802 212.471 80.957C212.62 80.5339 212.695 80.0684 212.695 79.5605V78.1641H213.867V79.5312C213.867 80.1367 213.743 80.7227 213.496 81.2891C213.255 81.8555 212.92 82.3405 212.49 82.7441ZM220.889 80V79.1504L222.48 79.0234V70.4199L220.889 70.293V69.4336H225.244V70.293L223.652 70.4199V74.1699H229.336V70.4199L227.744 70.293V69.4336H232.109V70.293L230.518 70.4199V79.0234L232.109 79.1504V80H227.744V79.1504L229.336 79.0234V75.1465H223.652V79.0234L225.244 79.1504V80H220.889ZM234.287 80V79.1504L235.879 79.0234V70.4199L234.287 70.293V69.4336H238.643V70.293L237.051 70.4199V78.0176L237.109 78.0371L242.744 69.4336H245.508V70.293L243.916 70.4199V79.0234L245.508 79.1504V80H241.152V79.1504L242.744 79.0234V71.416L242.686 71.3965L237.051 80H234.287ZM257.334 80.2051C256.39 80.2051 255.566 79.9935 254.863 79.5703C254.167 79.1406 253.623 78.5482 253.232 77.793C252.848 77.0378 252.656 76.1686 252.656 75.1855V73.6523C252.656 71.6081 253.079 69.9674 253.926 68.7305C254.779 67.487 255.934 66.748 257.393 66.5137C258.389 66.3574 259.089 66.1556 259.492 65.9082C259.896 65.6608 260.098 65.3027 260.098 64.834H261.006L261.025 64.8926C261.051 65.7715 260.785 66.3932 260.225 66.7578C259.665 67.1224 258.805 67.3828 257.646 67.5391C256.605 67.6693 255.739 68.112 255.049 68.8672C254.365 69.6159 253.958 70.625 253.828 71.8945L253.867 71.9434C254.212 71.3965 254.704 70.9603 255.342 70.6348C255.986 70.3027 256.706 70.1367 257.5 70.1367C258.405 70.1367 259.193 70.3385 259.863 70.7422C260.54 71.1458 261.064 71.7025 261.436 72.4121C261.813 73.1217 262.002 73.9388 262.002 74.8633V75.1855C262.002 76.1686 261.807 77.0378 261.416 77.793C261.032 78.5482 260.488 79.1406 259.785 79.5703C259.089 79.9935 258.271 80.2051 257.334 80.2051ZM257.334 79.2285C258.063 79.2285 258.688 79.0495 259.209 78.6914C259.73 78.3333 260.13 77.8516 260.41 77.2461C260.69 76.6341 260.83 75.9473 260.83 75.1855V74.8633C260.83 74.1667 260.687 73.5352 260.4 72.9688C260.12 72.4023 259.717 71.9531 259.189 71.6211C258.669 71.2826 258.044 71.1133 257.314 71.1133C256.585 71.1133 255.96 71.2826 255.439 71.6211C254.919 71.9531 254.518 72.4023 254.238 72.9688C253.965 73.5352 253.828 74.1667 253.828 74.8633V75.1855C253.828 75.9473 253.965 76.6341 254.238 77.2461C254.518 77.8581 254.919 78.3431 255.439 78.7012C255.967 79.0527 256.598 79.2285 257.334 79.2285ZM268.555 80.2051C267.611 80.2051 266.787 79.9805 266.084 79.5312C265.381 79.0755 264.834 78.4473 264.443 77.6465C264.059 76.8457 263.867 75.9245 263.867 74.8828V74.5605C263.867 73.5254 264.059 72.6074 264.443 71.8066C264.834 71.0059 265.378 70.3776 266.074 69.9219C266.777 69.4661 267.598 69.2383 268.535 69.2383C269.473 69.2383 270.293 69.4661 270.996 69.9219C271.699 70.3776 272.243 71.0059 272.627 71.8066C273.018 72.6074 273.213 73.5254 273.213 74.5605V74.8828C273.213 75.9245 273.018 76.8457 272.627 77.6465C272.243 78.4473 271.699 79.0755 270.996 79.5312C270.299 79.9805 269.486 80.2051 268.555 80.2051ZM268.555 79.2285C269.277 79.2285 269.899 79.0365 270.42 78.6523C270.941 78.2682 271.341 77.7507 271.621 77.0996C271.901 76.4421 272.041 75.7031 272.041 74.8828V74.5605C272.041 73.7533 271.898 73.0241 271.611 72.373C271.331 71.7155 270.928 71.1947 270.4 70.8105C269.88 70.4199 269.258 70.2246 268.535 70.2246C267.799 70.2246 267.171 70.4199 266.65 70.8105C266.13 71.1947 265.729 71.7155 265.449 72.373C265.176 73.0241 265.039 73.7533 265.039 74.5605V74.8828C265.039 75.7031 265.176 76.4421 265.449 77.0996C265.729 77.7507 266.13 78.2682 266.65 78.6523C267.178 79.0365 267.812 79.2285 268.555 79.2285ZM274.736 80L274.746 78.9648L275.117 78.9551C275.599 78.9551 275.99 78.8021 276.289 78.4961C276.589 78.1836 276.807 77.6725 276.943 76.9629C277.087 76.2533 277.158 75.2995 277.158 74.1016V70.4199L275.566 70.293V69.4336H285.576V70.293L283.984 70.4199V79.0234L285.576 79.1504V80H281.211V79.1504L282.803 79.0234V70.4297H278.33V74.1016C278.33 76.1784 278.089 77.6823 277.607 78.6133C277.126 79.5378 276.309 80 275.156 80H274.736ZM293.447 73.2812C294.665 73.2812 295.612 73.5905 296.289 74.209C296.973 74.8275 297.314 75.6315 297.314 76.6211C297.314 77.6172 296.973 78.431 296.289 79.0625C295.612 79.6875 294.665 80 293.447 80H287.666V79.1504L289.258 79.0234V70.4199L287.666 70.293V69.4336H292.021V70.293L290.43 70.4199V73.2812H293.447ZM293.447 79.0234C294.352 79.0234 295.026 78.7988 295.469 78.3496C295.918 77.8939 296.143 77.3242 296.143 76.6406C296.143 75.9831 295.918 75.4232 295.469 74.9609C295.02 74.4922 294.346 74.2578 293.447 74.2578H290.43V79.0234H293.447ZM299.307 80V79.1504L300.898 79.0234V70.4199L299.307 70.293V69.4336H303.662V70.293L302.07 70.4199V79.0234H306.768V69.4336H307.939V79.0234H312.598V70.4199L311.006 70.293V69.4336H315.361V70.293L313.77 70.4199V79.0234L315.361 79.1504V80H299.307ZM322.07 80.2051C321.126 80.2051 320.303 79.9805 319.6 79.5312C318.896 79.0755 318.35 78.4473 317.959 77.6465C317.575 76.8457 317.383 75.9245 317.383 74.8828V74.5605C317.383 73.5254 317.575 72.6074 317.959 71.8066C318.35 71.0059 318.893 70.3776 319.59 69.9219C320.293 69.4661 321.113 69.2383 322.051 69.2383C322.988 69.2383 323.809 69.4661 324.512 69.9219C325.215 70.3776 325.758 71.0059 326.143 71.8066C326.533 72.6074 326.729 73.5254 326.729 74.5605V74.8828C326.729 75.9245 326.533 76.8457 326.143 77.6465C325.758 78.4473 325.215 79.0755 324.512 79.5312C323.815 79.9805 323.001 80.2051 322.07 80.2051ZM322.07 79.2285C322.793 79.2285 323.415 79.0365 323.936 78.6523C324.456 78.2682 324.857 77.7507 325.137 77.0996C325.417 76.4421 325.557 75.7031 325.557 74.8828V74.5605C325.557 73.7533 325.413 73.0241 325.127 72.373C324.847 71.7155 324.443 71.1947 323.916 70.8105C323.395 70.4199 322.773 70.2246 322.051 70.2246C321.315 70.2246 320.687 70.4199 320.166 70.8105C319.645 71.1947 319.245 71.7155 318.965 72.373C318.691 73.0241 318.555 73.7533 318.555 74.5605V74.8828C318.555 75.7031 318.691 76.4421 318.965 77.0996C319.245 77.7507 319.645 78.2682 320.166 78.6523C320.693 79.0365 321.328 79.2285 322.07 79.2285ZM333.408 80.2051C332.503 80.2051 331.706 79.987 331.016 79.5508C330.326 79.1081 329.785 78.4993 329.395 77.7246C329.004 76.9434 328.809 76.0449 328.809 75.0293V74.4922C328.809 73.4831 329.004 72.5846 329.395 71.7969C329.785 71.0026 330.312 70.3776 330.977 69.9219C331.647 69.4661 332.393 69.2383 333.213 69.2383C334.508 69.2383 335.521 69.6484 336.25 70.4688C336.979 71.2826 337.344 72.373 337.344 73.7402V74.7363H330.02L330 75.166C330.007 75.9473 330.15 76.6439 330.43 77.2559C330.716 77.8678 331.113 78.3496 331.621 78.7012C332.135 79.0527 332.731 79.2285 333.408 79.2285C334.072 79.2285 334.655 79.1243 335.156 78.916C335.664 78.7077 336.11 78.418 336.494 78.0469L336.992 78.8477C336.589 79.2448 336.094 79.5703 335.508 79.8242C334.922 80.0781 334.222 80.2051 333.408 80.2051ZM330.098 73.7598H336.172V73.4668C336.172 72.5358 335.908 71.7643 335.381 71.1523C334.86 70.5339 334.137 70.2246 333.213 70.2246C332.653 70.2246 332.148 70.3776 331.699 70.6836C331.25 70.9831 330.882 71.3965 330.596 71.9238C330.316 72.4447 330.143 73.0371 330.078 73.7012L330.098 73.7598ZM0.947266 112V111.15L2.53906 111.023V102.42L0.947266 102.293V101.434H12.168V102.293L10.5762 102.42V111.023L12.168 111.15V112H7.8125V111.15L9.4043 111.023V102.43H3.71094V111.023L5.30273 111.15V112H0.947266ZM18.9844 112.205C18.0404 112.205 17.2168 111.98 16.5137 111.531C15.8105 111.076 15.2637 110.447 14.873 109.646C14.4889 108.846 14.2969 107.924 14.2969 106.883V106.561C14.2969 105.525 14.4889 104.607 14.873 103.807C15.2637 103.006 15.8073 102.378 16.5039 101.922C17.207 101.466 18.0273 101.238 18.9648 101.238C19.9023 101.238 20.7227 101.466 21.4258 101.922C22.1289 102.378 22.6725 103.006 23.0566 103.807C23.4473 104.607 23.6426 105.525 23.6426 106.561V106.883C23.6426 107.924 23.4473 108.846 23.0566 109.646C22.6725 110.447 22.1289 111.076 21.4258 111.531C20.7292 111.98 19.9154 112.205 18.9844 112.205ZM18.9844 111.229C19.707 111.229 20.3288 111.036 20.8496 110.652C21.3704 110.268 21.7708 109.751 22.0508 109.1C22.3307 108.442 22.4707 107.703 22.4707 106.883V106.561C22.4707 105.753 22.3275 105.024 22.041 104.373C21.7611 103.715 21.3574 103.195 20.8301 102.811C20.3092 102.42 19.6875 102.225 18.9648 102.225C18.2292 102.225 17.6009 102.42 17.0801 102.811C16.5592 103.195 16.1589 103.715 15.8789 104.373C15.6055 105.024 15.4688 105.753 15.4688 106.561V106.883C15.4688 107.703 15.6055 108.442 15.8789 109.1C16.1589 109.751 16.5592 110.268 17.0801 110.652C17.6074 111.036 18.2422 111.229 18.9844 111.229ZM25.5957 112V111.15L27.1875 111.023V102.42L25.5957 102.293V101.434H28.7207L32.8711 110.369L32.9199 110.408L37.0996 101.434H40.1465V102.293L38.5547 102.42V111.023L40.1465 111.15V112H35.791V111.15L37.3828 111.023V103.543L37.3242 103.523L33.3301 112H32.4902L28.418 103.328L28.3594 103.338V111.023L29.9512 111.15V112H25.5957ZM46.7871 112.205C45.8822 112.205 45.0846 111.987 44.3945 111.551C43.7044 111.108 43.1641 110.499 42.7734 109.725C42.3828 108.943 42.1875 108.045 42.1875 107.029V106.492C42.1875 105.483 42.3828 104.585 42.7734 103.797C43.1641 103.003 43.6914 102.378 44.3555 101.922C45.026 101.466 45.7715 101.238 46.5918 101.238C47.8874 101.238 48.8997 101.648 49.6289 102.469C50.3581 103.283 50.7227 104.373 50.7227 105.74V106.736H43.3984L43.3789 107.166C43.3854 107.947 43.5286 108.644 43.8086 109.256C44.0951 109.868 44.4922 110.35 45 110.701C45.5143 111.053 46.11 111.229 46.7871 111.229C47.4512 111.229 48.0339 111.124 48.5352 110.916C49.043 110.708 49.4889 110.418 49.873 110.047L50.3711 110.848C49.9674 111.245 49.4727 111.57 48.8867 111.824C48.3008 112.078 47.6009 112.205 46.7871 112.205ZM43.4766 105.76H49.5508V105.467C49.5508 104.536 49.2871 103.764 48.7598 103.152C48.2389 102.534 47.5163 102.225 46.5918 102.225C46.0319 102.225 45.5273 102.378 45.0781 102.684C44.6289 102.983 44.2611 103.396 43.9746 103.924C43.6947 104.445 43.5221 105.037 43.457 105.701L43.4766 105.76ZM67.5684 115.135V112H52.627V111.15L54.2188 111.023V102.42L52.627 102.293V101.434H56.9824V102.293L55.3906 102.42V111.023H60.0879V101.434H61.2695V111.023H65.918V102.42L64.3262 102.293V101.434H68.6816V102.293L67.0898 102.42V111.014H68.7305L68.6426 115.135H67.5684ZM75.5176 112.205C74.6126 112.205 73.8151 111.987 73.125 111.551C72.4349 111.108 71.8945 110.499 71.5039 109.725C71.1133 108.943 70.918 108.045 70.918 107.029V106.492C70.918 105.483 71.1133 104.585 71.5039 103.797C71.8945 103.003 72.4219 102.378 73.0859 101.922C73.7565 101.466 74.502 101.238 75.3223 101.238C76.6178 101.238 77.6302 101.648 78.3594 102.469C79.0885 103.283 79.4531 104.373 79.4531 105.74V106.736H72.1289L72.1094 107.166C72.1159 107.947 72.2591 108.644 72.5391 109.256C72.8255 109.868 73.2227 110.35 73.7305 110.701C74.2448 111.053 74.8405 111.229 75.5176 111.229C76.1816 111.229 76.7643 111.124 77.2656 110.916C77.7734 110.708 78.2194 110.418 78.6035 110.047L79.1016 110.848C78.6979 111.245 78.2031 111.57 77.6172 111.824C77.0312 112.078 76.3314 112.205 75.5176 112.205ZM72.207 105.76H78.2812V105.467C78.2812 104.536 78.0176 103.764 77.4902 103.152C76.9694 102.534 76.2467 102.225 75.3223 102.225C74.7624 102.225 74.2578 102.378 73.8086 102.684C73.3594 102.983 72.9915 103.396 72.7051 103.924C72.4251 104.445 72.2526 105.037 72.1875 105.701L72.207 105.76ZM81.416 112V111.15L83.0078 111.023V102.42L81.416 102.293V101.434H85.7715V102.293L84.1797 102.42V106.17H89.8633V102.42L88.2715 102.293V101.434H92.6367V102.293L91.0449 102.42V111.023L92.6367 111.15V112H88.2715V111.15L89.8633 111.023V107.146H84.1797V111.023L85.7715 111.15V112H81.416ZM94.8145 112V111.15L96.4062 111.023V102.42L94.8145 102.293V101.434H99.1699V102.293L97.5781 102.42V110.018L97.6367 110.037L103.271 101.434H106.035V102.293L104.443 102.42V111.023L106.035 111.15V112H101.68V111.15L103.271 111.023V103.416L103.213 103.396L97.5781 112H94.8145ZM112.783 112.205C111.878 112.205 111.081 111.987 110.391 111.551C109.701 111.108 109.16 110.499 108.77 109.725C108.379 108.943 108.184 108.045 108.184 107.029V106.492C108.184 105.483 108.379 104.585 108.77 103.797C109.16 103.003 109.688 102.378 110.352 101.922C111.022 101.466 111.768 101.238 112.588 101.238C113.883 101.238 114.896 101.648 115.625 102.469C116.354 103.283 116.719 104.373 116.719 105.74V106.736H109.395L109.375 107.166C109.382 107.947 109.525 108.644 109.805 109.256C110.091 109.868 110.488 110.35 110.996 110.701C111.51 111.053 112.106 111.229 112.783 111.229C113.447 111.229 114.03 111.124 114.531 110.916C115.039 110.708 115.485 110.418 115.869 110.047L116.367 110.848C115.964 111.245 115.469 111.57 114.883 111.824C114.297 112.078 113.597 112.205 112.783 112.205ZM109.473 105.76H115.547V105.467C115.547 104.536 115.283 103.764 114.756 103.152C114.235 102.534 113.512 102.225 112.588 102.225C112.028 102.225 111.523 102.378 111.074 102.684C110.625 102.983 110.257 103.396 109.971 103.924C109.691 104.445 109.518 105.037 109.453 105.701L109.473 105.76ZM119.014 114.744L118.32 114.236C118.626 113.807 118.851 113.38 118.994 112.957C119.144 112.534 119.219 112.068 119.219 111.561V110.164H120.391V111.531C120.391 112.137 120.267 112.723 120.02 113.289C119.779 113.855 119.443 114.34 119.014 114.744ZM133.896 112V111.15L135.488 111.023V107.518C135.085 107.674 134.632 107.804 134.131 107.908C133.636 108.012 133.167 108.064 132.725 108.064C131.364 108.064 130.352 107.762 129.688 107.156C129.023 106.551 128.691 105.529 128.691 104.09V102.41L127.1 102.283V101.434H131.455V102.283L129.863 102.41V104.09C129.863 105.203 130.085 105.981 130.527 106.424C130.977 106.86 131.709 107.078 132.725 107.078C133.2 107.072 133.685 107.016 134.18 106.912C134.681 106.808 135.117 106.684 135.488 106.541V102.42L133.896 102.293V101.434H138.252V102.293L136.66 102.42V111.023L138.252 111.15V112H133.896ZM142.715 112V111.15L144.307 111.023V102.41H141.445L141.377 104.422H140.332V101.434H149.59V104.422H148.545L148.477 102.41H145.479V111.023L147.07 111.15V112H142.715ZM155.742 112.205C154.798 112.205 153.975 111.98 153.271 111.531C152.568 111.076 152.021 110.447 151.631 109.646C151.247 108.846 151.055 107.924 151.055 106.883V106.561C151.055 105.525 151.247 104.607 151.631 103.807C152.021 103.006 152.565 102.378 153.262 101.922C153.965 101.466 154.785 101.238 155.723 101.238C156.66 101.238 157.48 101.466 158.184 101.922C158.887 102.378 159.43 103.006 159.814 103.807C160.205 104.607 160.4 105.525 160.4 106.561V106.883C160.4 107.924 160.205 108.846 159.814 109.646C159.43 110.447 158.887 111.076 158.184 111.531C157.487 111.98 156.673 112.205 155.742 112.205ZM155.742 111.229C156.465 111.229 157.087 111.036 157.607 110.652C158.128 110.268 158.529 109.751 158.809 109.1C159.089 108.442 159.229 107.703 159.229 106.883V106.561C159.229 105.753 159.085 105.024 158.799 104.373C158.519 103.715 158.115 103.195 157.588 102.811C157.067 102.42 156.445 102.225 155.723 102.225C154.987 102.225 154.359 102.42 153.838 102.811C153.317 103.195 152.917 103.715 152.637 104.373C152.363 105.024 152.227 105.753 152.227 106.561V106.883C152.227 107.703 152.363 108.442 152.637 109.1C152.917 109.751 153.317 110.268 153.838 110.652C154.365 111.036 155 111.229 155.742 111.229ZM167.119 112.205C166.175 112.205 165.352 111.993 164.648 111.57C163.952 111.141 163.408 110.548 163.018 109.793C162.633 109.038 162.441 108.169 162.441 107.186V105.652C162.441 103.608 162.865 101.967 163.711 100.73C164.564 99.487 165.719 98.748 167.178 98.5137C168.174 98.3574 168.874 98.1556 169.277 97.9082C169.681 97.6608 169.883 97.3027 169.883 96.834H170.791L170.811 96.8926C170.837 97.7715 170.57 98.3932 170.01 98.7578C169.45 99.1224 168.59 99.3828 167.432 99.5391C166.39 99.6693 165.524 100.112 164.834 100.867C164.15 101.616 163.743 102.625 163.613 103.895L163.652 103.943C163.997 103.396 164.489 102.96 165.127 102.635C165.771 102.303 166.491 102.137 167.285 102.137C168.19 102.137 168.978 102.339 169.648 102.742C170.326 103.146 170.85 103.702 171.221 104.412C171.598 105.122 171.787 105.939 171.787 106.863V107.186C171.787 108.169 171.592 109.038 171.201 109.793C170.817 110.548 170.273 111.141 169.57 111.57C168.874 111.993 168.057 112.205 167.119 112.205ZM167.119 111.229C167.848 111.229 168.473 111.049 168.994 110.691C169.515 110.333 169.915 109.852 170.195 109.246C170.475 108.634 170.615 107.947 170.615 107.186V106.863C170.615 106.167 170.472 105.535 170.186 104.969C169.906 104.402 169.502 103.953 168.975 103.621C168.454 103.283 167.829 103.113 167.1 103.113C166.37 103.113 165.745 103.283 165.225 103.621C164.704 103.953 164.303 104.402 164.023 104.969C163.75 105.535 163.613 106.167 163.613 106.863V107.186C163.613 107.947 163.75 108.634 164.023 109.246C164.303 109.858 164.704 110.343 165.225 110.701C165.752 111.053 166.383 111.229 167.119 111.229ZM183.867 112V111.15L185.459 111.023V102.42L183.867 102.293V101.434H186.631V111.023L188.223 111.15V112H183.867ZM179.482 105.281C180.7 105.281 181.647 105.59 182.324 106.209C183.008 106.827 183.35 107.632 183.35 108.621C183.35 109.617 183.008 110.431 182.324 111.062C181.647 111.688 180.7 112 179.482 112H173.701V111.15L175.293 111.023V102.42L173.701 102.293V101.434H178.057V102.293L176.465 102.42V105.281H179.482ZM176.465 111.023H179.482C180.387 111.023 181.061 110.799 181.504 110.35C181.953 109.894 182.178 109.324 182.178 108.641C182.178 107.983 181.953 107.423 181.504 106.961C181.055 106.492 180.381 106.258 179.482 106.258H176.465V111.023ZM194.053 116.062V115.203L195.605 115.076V102.42L194.014 102.293V101.434H196.582L196.729 103.045C197.08 102.472 197.533 102.029 198.086 101.717C198.646 101.398 199.303 101.238 200.059 101.238C200.911 101.238 201.641 101.469 202.246 101.932C202.852 102.387 203.314 103.032 203.633 103.865C203.958 104.699 204.121 105.678 204.121 106.805V107.01C204.121 108.585 203.763 109.845 203.047 110.789C202.331 111.733 201.344 112.205 200.088 112.205C199.339 112.205 198.685 112.065 198.125 111.785C197.572 111.505 197.122 111.115 196.777 110.613V115.076L198.408 115.203V116.062H194.053ZM199.814 111.229C200.837 111.229 201.611 110.844 202.139 110.076C202.673 109.301 202.939 108.279 202.939 107.01V106.805C202.939 105.457 202.673 104.36 202.139 103.514C201.605 102.667 200.824 102.244 199.795 102.244C198.994 102.244 198.35 102.439 197.861 102.83C197.38 103.221 197.018 103.715 196.777 104.314V109.354C197.025 109.933 197.402 110.392 197.91 110.73C198.418 111.062 199.053 111.229 199.814 111.229ZM209.316 112.205C208.314 112.205 207.529 111.938 206.963 111.404C206.396 110.87 206.113 110.148 206.113 109.236C206.113 108.26 206.527 107.472 207.354 106.873C208.187 106.268 209.32 105.965 210.752 105.965H212.939V104.754C212.939 103.986 212.712 103.37 212.256 102.908C211.8 102.446 211.12 102.215 210.215 102.215C209.701 102.215 209.238 102.299 208.828 102.469C208.424 102.632 208.073 102.84 207.773 103.094L207.676 104.705H206.709V102.498C207.165 102.101 207.682 101.792 208.262 101.57C208.841 101.349 209.499 101.238 210.234 101.238C211.478 101.238 212.435 101.551 213.105 102.176C213.776 102.801 214.111 103.667 214.111 104.773V109.871C214.111 110.079 214.118 110.288 214.131 110.496C214.144 110.698 214.167 110.9 214.199 111.102L215.459 111.15V112H213.154C213.083 111.616 213.031 111.307 212.998 111.072C212.965 110.838 212.946 110.574 212.939 110.281C212.555 110.848 212.048 111.31 211.416 111.668C210.785 112.026 210.085 112.205 209.316 112.205ZM209.453 111.18C210.176 111.18 210.859 110.991 211.504 110.613C212.155 110.229 212.633 109.721 212.939 109.09V106.863H210.742C209.661 106.863 208.815 107.098 208.203 107.566C207.591 108.029 207.285 108.598 207.285 109.275C207.285 109.842 207.477 110.301 207.861 110.652C208.252 111.004 208.783 111.18 209.453 111.18ZM221.572 112.205C220.693 112.205 219.915 111.984 219.238 111.541C218.568 111.098 218.04 110.48 217.656 109.686C217.279 108.891 217.09 107.97 217.09 106.922V106.512C217.09 105.483 217.275 104.572 217.646 103.777C218.018 102.983 218.535 102.361 219.199 101.912C219.87 101.463 220.658 101.238 221.562 101.238C222.383 101.238 223.112 101.395 223.75 101.707C224.388 102.013 224.922 102.41 225.352 102.898L225.371 105.291H224.395L224.238 103.318C223.913 102.973 223.532 102.706 223.096 102.518C222.66 102.322 222.158 102.225 221.592 102.225C220.928 102.225 220.345 102.41 219.844 102.781C219.342 103.152 218.952 103.663 218.672 104.314C218.398 104.959 218.262 105.691 218.262 106.512V106.922C218.262 108.211 218.561 109.253 219.16 110.047C219.759 110.835 220.566 111.229 221.582 111.229C222.37 111.229 223.027 111.023 223.555 110.613C224.082 110.197 224.401 109.585 224.512 108.777H225.557L225.576 108.836C225.485 109.839 225.091 110.652 224.395 111.277C223.698 111.896 222.757 112.205 221.572 112.205ZM232.256 112.205C231.377 112.205 230.599 111.984 229.922 111.541C229.251 111.098 228.724 110.48 228.34 109.686C227.962 108.891 227.773 107.97 227.773 106.922V106.512C227.773 105.483 227.959 104.572 228.33 103.777C228.701 102.983 229.219 102.361 229.883 101.912C230.553 101.463 231.341 101.238 232.246 101.238C233.066 101.238 233.796 101.395 234.434 101.707C235.072 102.013 235.605 102.41 236.035 102.898L236.055 105.291H235.078L234.922 103.318C234.596 102.973 234.215 102.706 233.779 102.518C233.343 102.322 232.842 102.225 232.275 102.225C231.611 102.225 231.029 102.41 230.527 102.781C230.026 103.152 229.635 103.663 229.355 104.314C229.082 104.959 228.945 105.691 228.945 106.512V106.922C228.945 108.211 229.245 109.253 229.844 110.047C230.443 110.835 231.25 111.229 232.266 111.229C233.053 111.229 233.711 111.023 234.238 110.613C234.766 110.197 235.085 109.585 235.195 108.777H236.24L236.26 108.836C236.169 109.839 235.775 110.652 235.078 111.277C234.382 111.896 233.441 112.205 232.256 112.205ZM240.586 112V111.15L242.178 111.023V102.41H239.316L239.248 104.422H238.203V101.434H247.461V104.422H246.416L246.348 102.41H243.35V111.023L244.941 111.15V112H240.586ZM252.383 112.205C251.38 112.205 250.596 111.938 250.029 111.404C249.463 110.87 249.18 110.148 249.18 109.236C249.18 108.26 249.593 107.472 250.42 106.873C251.253 106.268 252.386 105.965 253.818 105.965H256.006V104.754C256.006 103.986 255.778 103.37 255.322 102.908C254.867 102.446 254.186 102.215 253.281 102.215C252.767 102.215 252.305 102.299 251.895 102.469C251.491 102.632 251.139 102.84 250.84 103.094L250.742 104.705H249.775V102.498C250.231 102.101 250.749 101.792 251.328 101.57C251.908 101.349 252.565 101.238 253.301 101.238C254.544 101.238 255.501 101.551 256.172 102.176C256.842 102.801 257.178 103.667 257.178 104.773V109.871C257.178 110.079 257.184 110.288 257.197 110.496C257.21 110.698 257.233 110.9 257.266 111.102L258.525 111.15V112H256.221C256.149 111.616 256.097 111.307 256.064 111.072C256.032 110.838 256.012 110.574 256.006 110.281C255.622 110.848 255.114 111.31 254.482 111.668C253.851 112.026 253.151 112.205 252.383 112.205ZM252.52 111.18C253.242 111.18 253.926 110.991 254.57 110.613C255.221 110.229 255.7 109.721 256.006 109.09V106.863H253.809C252.728 106.863 251.882 107.098 251.27 107.566C250.658 108.029 250.352 108.598 250.352 109.275C250.352 109.842 250.544 110.301 250.928 110.652C251.318 111.004 251.849 111.18 252.52 111.18ZM260.205 112V111.15L261.797 111.023V102.42L260.205 102.293V101.434H265.674C266.995 101.434 268.018 101.668 268.74 102.137C269.469 102.605 269.834 103.309 269.834 104.246C269.834 104.793 269.665 105.275 269.326 105.691C268.994 106.102 268.525 106.395 267.92 106.57C268.617 106.688 269.18 106.98 269.609 107.449C270.046 107.918 270.264 108.458 270.264 109.07C270.264 110.027 269.912 110.757 269.209 111.258C268.512 111.753 267.559 112 266.348 112H260.205ZM262.969 106.16H265.781C267.702 106.16 268.662 105.532 268.662 104.275C268.662 103.032 267.666 102.41 265.674 102.41H262.969V106.16ZM262.969 111.033H266.348C267.22 111.033 267.894 110.864 268.369 110.525C268.851 110.18 269.092 109.689 269.092 109.051C269.092 108.465 268.848 107.999 268.359 107.654C267.878 107.303 267.207 107.127 266.348 107.127H262.969V111.033ZM272.412 112V111.15L274.004 111.023V102.42L272.412 102.293V101.434H276.768V102.293L275.176 102.42V110.018L275.234 110.037L280.869 101.434H283.633V102.293L282.041 102.42V111.023L283.633 111.15V112H279.277V111.15L280.869 111.023V103.416L280.811 103.396L275.176 112H272.412ZM288.066 112V111.15L289.658 111.023V102.41H286.797L286.729 104.422H285.684V101.434H294.941V104.422H293.896L293.828 102.41H290.83V111.023L292.422 111.15V112H288.066ZM302.646 105.281C303.864 105.281 304.811 105.59 305.488 106.209C306.172 106.827 306.514 107.632 306.514 108.621C306.514 109.617 306.172 110.431 305.488 111.062C304.811 111.688 303.864 112 302.646 112H296.865V111.15L298.457 111.023V102.42L296.865 102.293V101.434H301.221V102.293L299.629 102.42V105.281H302.646ZM302.646 111.023C303.551 111.023 304.225 110.799 304.668 110.35C305.117 109.894 305.342 109.324 305.342 108.641C305.342 107.983 305.117 107.423 304.668 106.961C304.219 106.492 303.545 106.258 302.646 106.258H299.629V111.023H302.646ZM3.20312 144V143.15L4.79492 143.023V134.41H1.93359L1.86523 136.422H0.820312V133.434H10.0781V136.422H9.0332L8.96484 134.41H5.9668V143.023L7.55859 143.15V144H3.20312ZM11.5918 148.062V147.203L13.1445 147.076V134.42L11.5527 134.293V133.434H14.1211L14.2676 135.045C14.6191 134.472 15.0716 134.029 15.625 133.717C16.1849 133.398 16.8424 133.238 17.5977 133.238C18.4505 133.238 19.1797 133.469 19.7852 133.932C20.3906 134.387 20.8529 135.032 21.1719 135.865C21.4974 136.699 21.6602 137.678 21.6602 138.805V139.01C21.6602 140.585 21.3021 141.845 20.5859 142.789C19.8698 143.733 18.8835 144.205 17.627 144.205C16.8783 144.205 16.224 144.065 15.6641 143.785C15.1107 143.505 14.6615 143.115 14.3164 142.613V147.076L15.9473 147.203V148.062H11.5918ZM17.3535 143.229C18.3757 143.229 19.1504 142.844 19.6777 142.076C20.2116 141.301 20.4785 140.279 20.4785 139.01V138.805C20.4785 137.457 20.2116 136.36 19.6777 135.514C19.1439 134.667 18.3626 134.244 17.334 134.244C16.5332 134.244 15.8887 134.439 15.4004 134.83C14.9186 135.221 14.5573 135.715 14.3164 136.314V141.354C14.5638 141.933 14.9414 142.392 15.4492 142.73C15.957 143.062 16.5918 143.229 17.3535 143.229ZM28.4473 144.205C27.5423 144.205 26.7448 143.987 26.0547 143.551C25.3646 143.108 24.8242 142.499 24.4336 141.725C24.043 140.943 23.8477 140.045 23.8477 139.029V138.492C23.8477 137.483 24.043 136.585 24.4336 135.797C24.8242 135.003 25.3516 134.378 26.0156 133.922C26.6862 133.466 27.4316 133.238 28.252 133.238C29.5475 133.238 30.5599 133.648 31.2891 134.469C32.0182 135.283 32.3828 136.373 32.3828 137.74V138.736H25.0586L25.0391 139.166C25.0456 139.947 25.1888 140.644 25.4688 141.256C25.7552 141.868 26.1523 142.35 26.6602 142.701C27.1745 143.053 27.7702 143.229 28.4473 143.229C29.1113 143.229 29.694 143.124 30.1953 142.916C30.7031 142.708 31.1491 142.418 31.5332 142.047L32.0312 142.848C31.6276 143.245 31.1328 143.57 30.5469 143.824C29.9609 144.078 29.2611 144.205 28.4473 144.205ZM25.1367 137.76H31.2109V137.467C31.2109 136.536 30.9473 135.764 30.4199 135.152C29.8991 134.534 29.1764 134.225 28.252 134.225C27.6921 134.225 27.1875 134.378 26.7383 134.684C26.2891 134.983 25.9212 135.396 25.6348 135.924C25.3548 136.445 25.1823 137.037 25.1172 137.701L25.1367 137.76ZM34.3457 144V143.15L35.9375 143.023V134.42L34.3457 134.293V133.434H38.7109V134.293L37.1191 134.42V138.121H38.6816L41.2598 134.83C41.6895 134.264 42.0768 133.867 42.4219 133.639C42.7734 133.404 43.1608 133.287 43.584 133.287C43.7923 133.287 43.9811 133.316 44.1504 133.375C44.3262 133.434 44.5052 133.521 44.6875 133.639L44.4336 134.488C44.2578 134.436 44.1341 134.4 44.0625 134.381C43.9909 134.361 43.8932 134.352 43.7695 134.352C43.4766 134.352 43.2129 134.433 42.9785 134.596C42.7441 134.758 42.474 135.032 42.168 135.416L39.707 138.541L43.7207 143.033L45.0781 143.15V144H43.0078L38.7305 139.146H37.1191V143.023L38.7109 143.15V144H34.3457ZM50.9277 144.205C50.0228 144.205 49.2253 143.987 48.5352 143.551C47.8451 143.108 47.3047 142.499 46.9141 141.725C46.5234 140.943 46.3281 140.045 46.3281 139.029V138.492C46.3281 137.483 46.5234 136.585 46.9141 135.797C47.3047 135.003 47.832 134.378 48.4961 133.922C49.1667 133.466 49.9121 133.238 50.7324 133.238C52.028 133.238 53.0404 133.648 53.7695 134.469C54.4987 135.283 54.8633 136.373 54.8633 137.74V138.736H47.5391L47.5195 139.166C47.526 139.947 47.6693 140.644 47.9492 141.256C48.2357 141.868 48.6328 142.35 49.1406 142.701C49.6549 143.053 50.2507 143.229 50.9277 143.229C51.5918 143.229 52.1745 143.124 52.6758 142.916C53.1836 142.708 53.6296 142.418 54.0137 142.047L54.5117 142.848C54.1081 143.245 53.6133 143.57 53.0273 143.824C52.4414 144.078 51.7415 144.205 50.9277 144.205ZM47.6172 137.76H53.6914V137.467C53.6914 136.536 53.4277 135.764 52.9004 135.152C52.3796 134.534 51.6569 134.225 50.7324 134.225C50.1725 134.225 49.668 134.378 49.2188 134.684C48.7695 134.983 48.4017 135.396 48.1152 135.924C47.8353 136.445 47.6628 137.037 47.5977 137.701L47.6172 137.76ZM56.416 148.062V147.203L57.9688 147.076V134.42L56.377 134.293V133.434H58.9453L59.0918 135.045C59.4434 134.472 59.8958 134.029 60.4492 133.717C61.0091 133.398 61.6667 133.238 62.4219 133.238C63.2747 133.238 64.0039 133.469 64.6094 133.932C65.2148 134.387 65.6771 135.032 65.9961 135.865C66.3216 136.699 66.4844 137.678 66.4844 138.805V139.01C66.4844 140.585 66.1263 141.845 65.4102 142.789C64.694 143.733 63.7077 144.205 62.4512 144.205C61.7025 144.205 61.0482 144.065 60.4883 143.785C59.9349 143.505 59.4857 143.115 59.1406 142.613V147.076L60.7715 147.203V148.062H56.416ZM62.1777 143.229C63.1999 143.229 63.9746 142.844 64.502 142.076C65.0358 141.301 65.3027 140.279 65.3027 139.01V138.805C65.3027 137.457 65.0358 136.36 64.502 135.514C63.9681 134.667 63.1868 134.244 62.1582 134.244C61.3574 134.244 60.7129 134.439 60.2246 134.83C59.7428 135.221 59.3815 135.715 59.1406 136.314V141.354C59.388 141.933 59.7656 142.392 60.2734 142.73C60.7812 143.062 61.416 143.229 62.1777 143.229ZM78.6914 144V143.15L80.2832 143.023V134.42L78.6914 134.293V133.434H81.4551V143.023L83.0469 143.15V144H78.6914ZM74.3066 137.281C75.5241 137.281 76.4714 137.59 77.1484 138.209C77.832 138.827 78.1738 139.632 78.1738 140.621C78.1738 141.617 77.832 142.431 77.1484 143.062C76.4714 143.688 75.5241 144 74.3066 144H68.5254V143.15L70.1172 143.023V134.42L68.5254 134.293V133.434H72.8809V134.293L71.2891 134.42V137.281H74.3066ZM71.2891 143.023H74.3066C75.2116 143.023 75.8854 142.799 76.3281 142.35C76.7773 141.894 77.002 141.324 77.002 140.641C77.002 139.983 76.7773 139.423 76.3281 138.961C75.8789 138.492 75.2051 138.258 74.3066 138.258H71.2891V143.023ZM84.873 144V142.408H86.2109V144H84.873Z" fill="black"/>
</svg>
