<svg width="353" height="148" viewBox="0 0 353 148" fill="none" xmlns="http://www.w3.org/2000/svg">
<path d="M7.50977 15.2051C6.10352 15.2051 4.91862 14.8958 3.95508 14.2773C2.99805 13.6589 2.27214 12.8092 1.77734 11.7285C1.28906 10.6413 1.04492 9.39453 1.04492 7.98828V7.80273C1.04492 6.38997 1.29883 5.13997 1.80664 4.05273C2.32096 2.96549 3.04362 2.11589 3.97461 1.50391C4.91211 0.885417 6.01562 0.576172 7.28516 0.576172C8.26823 0.576172 9.11133 0.712891 9.81445 0.986328C10.5176 1.25977 11.1426 1.63411 11.6895 2.10938V4.87305H10.6934L10.5957 2.60742C10.166 2.28841 9.69727 2.04102 9.18945 1.86523C8.68164 1.68294 8.04688 1.5918 7.28516 1.5918C6.25 1.5918 5.35156 1.85547 4.58984 2.38281C3.83464 2.90365 3.2487 3.62956 2.83203 4.56055C2.42188 5.48503 2.2168 6.55924 2.2168 7.7832V7.98828C2.2168 9.25781 2.42513 10.3581 2.8418 11.2891C3.25846 12.2135 3.86068 12.9297 4.64844 13.4375C5.44271 13.9453 6.39974 14.1992 7.51953 14.1992C8.11198 14.1992 8.68815 14.1243 9.24805 13.9746C9.80794 13.8249 10.2799 13.6263 10.6641 13.3789L10.7617 11.2305H11.748V14.0625C11.1686 14.4401 10.5143 14.7266 9.78516 14.9219C9.0625 15.1107 8.30404 15.2051 7.50977 15.2051ZM18.6328 15.2051C17.6888 15.2051 16.8652 14.9805 16.1621 14.5312C15.459 14.0755 14.9121 13.4473 14.5215 12.6465C14.1374 11.8457 13.9453 10.9245 13.9453 9.88281V9.56055C13.9453 8.52539 14.1374 7.60742 14.5215 6.80664C14.9121 6.00586 15.4557 5.3776 16.1523 4.92188C16.8555 4.46615 17.6758 4.23828 18.6133 4.23828C19.5508 4.23828 20.3711 4.46615 21.0742 4.92188C21.7773 5.3776 22.321 6.00586 22.7051 6.80664C23.0957 7.60742 23.291 8.52539 23.291 9.56055V9.88281C23.291 10.9245 23.0957 11.8457 22.7051 12.6465C22.321 13.4473 21.7773 14.0755 21.0742 14.5312C20.3776 14.9805 19.5638 15.2051 18.6328 15.2051ZM18.6328 14.2285C19.3555 14.2285 19.9772 14.0365 20.498 13.6523C21.0189 13.2682 21.4193 12.7507 21.6992 12.0996C21.9792 11.4421 22.1191 10.7031 22.1191 9.88281V9.56055C22.1191 8.75326 21.9759 8.02409 21.6895 7.37305C21.4095 6.71549 21.0059 6.19466 20.4785 5.81055C19.9577 5.41992 19.3359 5.22461 18.6133 5.22461C17.8776 5.22461 17.2493 5.41992 16.7285 5.81055C16.2077 6.19466 15.8073 6.71549 15.5273 7.37305C15.2539 8.02409 15.1172 8.75326 15.1172 9.56055V9.88281C15.1172 10.7031 15.2539 11.4421 15.5273 12.0996C15.8073 12.7507 16.2077 13.2682 16.7285 13.6523C17.2559 14.0365 17.8906 14.2285 18.6328 14.2285ZM25.2441 15V14.1504L26.8359 14.0234V5.41992L25.2441 5.29297V4.43359H30.7129C32.0345 4.43359 33.0566 4.66797 33.7793 5.13672C34.5085 5.60547 34.873 6.30859 34.873 7.24609C34.873 7.79297 34.7038 8.27474 34.3652 8.69141C34.0332 9.10156 33.5645 9.39453 32.959 9.57031C33.6556 9.6875 34.2188 9.98047 34.6484 10.4492C35.0846 10.918 35.3027 11.4583 35.3027 12.0703C35.3027 13.0273 34.9512 13.7565 34.248 14.2578C33.5514 14.7526 32.5977 15 31.3867 15H25.2441ZM28.0078 9.16016H30.8203C32.7409 9.16016 33.7012 8.5319 33.7012 7.27539C33.7012 6.0319 32.7051 5.41016 30.7129 5.41016H28.0078V9.16016ZM28.0078 14.0332H31.3867C32.2591 14.0332 32.9329 13.8639 33.4082 13.5254C33.89 13.1803 34.1309 12.6888 34.1309 12.0508C34.1309 11.4648 33.8867 10.9993 33.3984 10.6543C32.9167 10.3027 32.2461 10.127 31.3867 10.127H28.0078V14.0332ZM37.041 19.0625V18.2031L38.5938 18.0762V5.41992L37.002 5.29297V4.43359H39.5703L39.7168 6.04492C40.0684 5.47201 40.5208 5.0293 41.0742 4.7168C41.6341 4.39779 42.2917 4.23828 43.0469 4.23828C43.8997 4.23828 44.6289 4.4694 45.2344 4.93164C45.8398 5.38737 46.3021 6.0319 46.6211 6.86523C46.9466 7.69857 47.1094 8.67839 47.1094 9.80469V10.0098C47.1094 11.5853 46.7513 12.8451 46.0352 13.7891C45.319 14.7331 44.3327 15.2051 43.0762 15.2051C42.3275 15.2051 41.6732 15.0651 41.1133 14.7852C40.5599 14.5052 40.1107 14.1146 39.7656 13.6133V18.0762L41.3965 18.2031V19.0625H37.041ZM42.8027 14.2285C43.8249 14.2285 44.5996 13.8444 45.127 13.0762C45.6608 12.3014 45.9277 11.2793 45.9277 10.0098V9.80469C45.9277 8.45703 45.6608 7.36003 45.127 6.51367C44.5931 5.66732 43.8118 5.24414 42.7832 5.24414C41.9824 5.24414 41.3379 5.43945 40.8496 5.83008C40.3678 6.2207 40.0065 6.71549 39.7656 7.31445V12.3535C40.013 12.9329 40.3906 13.3919 40.8984 13.7305C41.4062 14.0625 42.041 14.2285 42.8027 14.2285ZM53.8965 15.2051C52.9915 15.2051 52.194 14.987 51.5039 14.5508C50.8138 14.1081 50.2734 13.4993 49.8828 12.7246C49.4922 11.9434 49.2969 11.0449 49.2969 10.0293V9.49219C49.2969 8.48307 49.4922 7.58464 49.8828 6.79688C50.2734 6.0026 50.8008 5.3776 51.4648 4.92188C52.1354 4.46615 52.8809 4.23828 53.7012 4.23828C54.9967 4.23828 56.0091 4.64844 56.7383 5.46875C57.4674 6.28255 57.832 7.37305 57.832 8.74023V9.73633H50.5078L50.4883 10.166C50.4948 10.9473 50.638 11.6439 50.918 12.2559C51.2044 12.8678 51.6016 13.3496 52.1094 13.7012C52.6237 14.0527 53.2194 14.2285 53.8965 14.2285C54.5605 14.2285 55.1432 14.1243 55.6445 13.916C56.1523 13.7077 56.5983 13.418 56.9824 13.0469L57.4805 13.8477C57.0768 14.2448 56.582 14.5703 55.9961 14.8242C55.4102 15.0781 54.7103 15.2051 53.8965 15.2051ZM50.5859 8.75977H56.6602V8.4668C56.6602 7.53581 56.3965 6.76432 55.8691 6.15234C55.3483 5.53385 54.6257 5.22461 53.7012 5.22461C53.1413 5.22461 52.6367 5.3776 52.1875 5.68359C51.7383 5.98307 51.3704 6.39648 51.084 6.92383C50.804 7.44466 50.6315 8.03711 50.5664 8.70117L50.5859 8.75977ZM59.7949 15V14.1504L61.3867 14.0234V5.41992L59.7949 5.29297V4.43359H62.9199L67.0703 13.3691L67.1191 13.4082L71.2988 4.43359H74.3457V5.29297L72.7539 5.41992V14.0234L74.3457 14.1504V15H69.9902V14.1504L71.582 14.0234V6.54297L71.5234 6.52344L67.5293 15H66.6895L62.6172 6.32812L62.5586 6.33789V14.0234L64.1504 14.1504V15H59.7949ZM80.9863 15.2051C80.0814 15.2051 79.2839 14.987 78.5938 14.5508C77.9036 14.1081 77.3633 13.4993 76.9727 12.7246C76.582 11.9434 76.3867 11.0449 76.3867 10.0293V9.49219C76.3867 8.48307 76.582 7.58464 76.9727 6.79688C77.3633 6.0026 77.8906 5.3776 78.5547 4.92188C79.2253 4.46615 79.9707 4.23828 80.791 4.23828C82.0866 4.23828 83.099 4.64844 83.8281 5.46875C84.5573 6.28255 84.9219 7.37305 84.9219 8.74023V9.73633H77.5977L77.5781 10.166C77.5846 10.9473 77.7279 11.6439 78.0078 12.2559C78.2943 12.8678 78.6914 13.3496 79.1992 13.7012C79.7135 14.0527 80.3092 14.2285 80.9863 14.2285C81.6504 14.2285 82.2331 14.1243 82.7344 13.916C83.2422 13.7077 83.6882 13.418 84.0723 13.0469L84.5703 13.8477C84.1667 14.2448 83.6719 14.5703 83.0859 14.8242C82.5 15.0781 81.8001 15.2051 80.9863 15.2051ZM77.6758 8.75977H83.75V8.4668C83.75 7.53581 83.4863 6.76432 82.959 6.15234C82.4382 5.53385 81.7155 5.22461 80.791 5.22461C80.2311 5.22461 79.7266 5.3776 79.2773 5.68359C78.8281 5.98307 78.4603 6.39648 78.1738 6.92383C77.8939 7.44466 77.7214 8.03711 77.6562 8.70117L77.6758 8.75977ZM86.8848 15V14.1504L88.4766 14.0234V5.41992L86.8848 5.29297V4.43359H91.2402V5.29297L89.6484 5.41992V9.16992H95.332V5.41992L93.7402 5.29297V4.43359H98.1055V5.29297L96.5137 5.41992V14.0234L98.1055 14.1504V15H93.7402V14.1504L95.332 14.0234V10.1465H89.6484V14.0234L91.2402 14.1504V15H86.8848ZM100.283 15V14.1504L101.875 14.0234V5.41992L100.283 5.29297V4.43359H104.639V5.29297L103.047 5.41992V9.16992H108.73V5.41992L107.139 5.29297V4.43359H111.504V5.29297L109.912 5.41992V14.0234L111.504 14.1504V15H107.139V14.1504L108.73 14.0234V10.1465H103.047V14.0234L104.639 14.1504V15H100.283ZM123.848 15V14.1504L125.439 14.0234V5.41992L123.848 5.29297V4.43359H126.611V14.0234L128.203 14.1504V15H123.848ZM119.463 8.28125C120.68 8.28125 121.628 8.59049 122.305 9.20898C122.988 9.82747 123.33 10.6315 123.33 11.6211C123.33 12.6172 122.988 13.431 122.305 14.0625C121.628 14.6875 120.68 15 119.463 15H113.682V14.1504L115.273 14.0234V5.41992L113.682 5.29297V4.43359H118.037V5.29297L116.445 5.41992V8.28125H119.463ZM116.445 14.0234H119.463C120.368 14.0234 121.042 13.7988 121.484 13.3496C121.934 12.8939 122.158 12.3242 122.158 11.6406C122.158 10.9831 121.934 10.4232 121.484 9.96094C121.035 9.49219 120.361 9.25781 119.463 9.25781H116.445V14.0234ZM129.561 15V14.1504L131.152 14.0234V5.41992L129.561 5.29297V4.43359H132.686L136.836 13.3691L136.885 13.4082L141.064 4.43359H144.111V5.29297L142.52 5.41992V14.0234L144.111 14.1504V15H139.756V14.1504L141.348 14.0234V6.54297L141.289 6.52344L137.295 15H136.455L132.383 6.32812L132.324 6.33789V14.0234L133.916 14.1504V15H129.561ZM156.738 15L151.787 1.70898L150.703 1.64062V0.78125H154.453V1.64062L153.047 1.72852L156.982 12.5293L157.275 13.4668H157.334L157.627 12.5293L161.621 1.72852L160.146 1.64062V0.78125H163.896V1.64062L162.803 1.70898L157.852 15H156.738ZM165.195 15.0098V14.1504L166.787 14.0234V1.76758L165.195 1.64062V0.791016H171.191C172.715 0.791016 173.883 1.12305 174.697 1.78711C175.518 2.45117 175.928 3.41146 175.928 4.66797C175.928 5.625 175.667 6.40625 175.146 7.01172C174.626 7.61068 173.913 8.02409 173.008 8.25195L175.586 14.0625L176.748 14.1406V15.0098H174.756L171.904 8.42773C171.722 8.44076 171.533 8.44727 171.338 8.44727L167.959 8.47656V14.0234L169.551 14.1504V15.0098H165.195ZM167.959 7.5H171.074C172.344 7.5 173.275 7.23958 173.867 6.71875C174.46 6.19792 174.756 5.51107 174.756 4.6582C174.756 3.74023 174.46 3.0306 173.867 2.5293C173.275 2.02148 172.383 1.76758 171.191 1.76758H167.959V7.5ZM179.375 9.42383V8.44727H184.053V9.42383H179.375ZM186.572 15V14.1504L188.164 14.0234V5.41992L186.572 5.29297V4.43359H190.928V5.29297L189.336 5.41992V14.0234H194.033V4.43359H195.205V14.0234H199.863V5.41992L198.271 5.29297V4.43359H202.627V5.29297L201.035 5.41992V14.0234L202.627 14.1504V15H186.572ZM204.424 15L204.434 13.9648L204.805 13.9551C205.286 13.9551 205.677 13.8021 205.977 13.4961C206.276 13.1836 206.494 12.6725 206.631 11.9629C206.774 11.2533 206.846 10.2995 206.846 9.10156V5.41992L205.254 5.29297V4.43359H215.264V5.29297L213.672 5.41992V14.0234L215.264 14.1504V15H210.898V14.1504L212.49 14.0234V5.42969H208.018V9.10156C208.018 11.1784 207.777 12.6823 207.295 13.6133C206.813 14.5378 205.996 15 204.844 15H204.424ZM221.924 15.2051C221.019 15.2051 220.221 14.987 219.531 14.5508C218.841 14.1081 218.301 13.4993 217.91 12.7246C217.52 11.9434 217.324 11.0449 217.324 10.0293V9.49219C217.324 8.48307 217.52 7.58464 217.91 6.79688C218.301 6.0026 218.828 5.3776 219.492 4.92188C220.163 4.46615 220.908 4.23828 221.729 4.23828C223.024 4.23828 224.036 4.64844 224.766 5.46875C225.495 6.28255 225.859 7.37305 225.859 8.74023V9.73633H218.535L218.516 10.166C218.522 10.9473 218.665 11.6439 218.945 12.2559C219.232 12.8678 219.629 13.3496 220.137 13.7012C220.651 14.0527 221.247 14.2285 221.924 14.2285C222.588 14.2285 223.171 14.1243 223.672 13.916C224.18 13.7077 224.626 13.418 225.01 13.0469L225.508 13.8477C225.104 14.2448 224.609 14.5703 224.023 14.8242C223.438 15.0781 222.738 15.2051 221.924 15.2051ZM218.613 8.75977H224.688V8.4668C224.688 7.53581 224.424 6.76432 223.896 6.15234C223.376 5.53385 222.653 5.22461 221.729 5.22461C221.169 5.22461 220.664 5.3776 220.215 5.68359C219.766 5.98307 219.398 6.39648 219.111 6.92383C218.831 7.44466 218.659 8.03711 218.594 8.70117L218.613 8.75977ZM227.822 15V14.1504L229.414 14.0234V5.41992L227.822 5.29297V4.43359H230.947L235.098 13.3691L235.146 13.4082L239.326 4.43359H242.373V5.29297L240.781 5.41992V14.0234L242.373 14.1504V15H238.018V14.1504L239.609 14.0234V6.54297L239.551 6.52344L235.557 15H234.717L230.645 6.32812L230.586 6.33789V14.0234L232.178 14.1504V15H227.822ZM247.598 15.2051C246.595 15.2051 245.811 14.9382 245.244 14.4043C244.678 13.8704 244.395 13.1478 244.395 12.2363C244.395 11.2598 244.808 10.472 245.635 9.87305C246.468 9.26758 247.601 8.96484 249.033 8.96484H251.221V7.75391C251.221 6.98568 250.993 6.37044 250.537 5.9082C250.081 5.44596 249.401 5.21484 248.496 5.21484C247.982 5.21484 247.52 5.29948 247.109 5.46875C246.706 5.63151 246.354 5.83984 246.055 6.09375L245.957 7.70508H244.99V5.49805C245.446 5.10091 245.964 4.79167 246.543 4.57031C247.122 4.34896 247.78 4.23828 248.516 4.23828C249.759 4.23828 250.716 4.55078 251.387 5.17578C252.057 5.80078 252.393 6.66667 252.393 7.77344V12.8711C252.393 13.0794 252.399 13.2878 252.412 13.4961C252.425 13.6979 252.448 13.8997 252.48 14.1016L253.74 14.1504V15H251.436C251.364 14.6159 251.312 14.3066 251.279 14.0723C251.247 13.8379 251.227 13.5742 251.221 13.2812C250.837 13.8477 250.329 14.3099 249.697 14.668C249.066 15.026 248.366 15.2051 247.598 15.2051ZM247.734 14.1797C248.457 14.1797 249.141 13.9909 249.785 13.6133C250.436 13.2292 250.915 12.7214 251.221 12.0898V9.86328H249.023C247.943 9.86328 247.096 10.0977 246.484 10.5664C245.872 11.0286 245.566 11.5983 245.566 12.2754C245.566 12.8418 245.758 13.3008 246.143 13.6523C246.533 14.0039 247.064 14.1797 247.734 14.1797ZM255.42 15V14.1504L257.012 14.0234V5.41992L255.42 5.29297V4.43359H258.545L262.695 13.3691L262.744 13.4082L266.924 4.43359H269.971V5.29297L268.379 5.41992V14.0234L269.971 14.1504V15H265.615V14.1504L267.207 14.0234V6.54297L267.148 6.52344L263.154 15H262.314L258.242 6.32812L258.184 6.33789V14.0234L259.775 14.1504V15H255.42ZM276.924 15V14.1504L278.516 14.0234V5.41992L276.924 5.29297V4.43359H281.279V5.29297L279.688 5.41992V9.16992H285.371V5.41992L283.779 5.29297V4.43359H288.145V5.29297L286.553 5.41992V14.0234L288.145 14.1504V15H283.779V14.1504L285.371 14.0234V10.1465H279.688V14.0234L281.279 14.1504V15H276.924ZM292.256 19.2676C292.119 19.2676 291.953 19.2513 291.758 19.2188C291.569 19.1927 291.426 19.1667 291.328 19.1406L291.465 18.1738C291.556 18.1868 291.683 18.1999 291.846 18.2129C292.015 18.2324 292.139 18.2422 292.217 18.2422C292.725 18.2422 293.128 18.0729 293.428 17.7344C293.727 17.4023 294.001 16.9271 294.248 16.3086L294.795 14.873L290.918 5.36133L289.775 5.29297V4.43359H293.496V5.29297L292.158 5.38086L294.873 12.1973L295.312 13.3984H295.371L298.389 5.38086L297.012 5.29297V4.43359H300.703V5.29297L299.58 5.36133L295.244 16.6992C294.951 17.4479 294.59 18.0632 294.16 18.5449C293.73 19.0267 293.096 19.2676 292.256 19.2676ZM301.543 15V14.1504L302.959 14.0527L306.689 9.50195L304.375 6.41602C304.069 6.01237 303.802 5.73568 303.574 5.58594C303.346 5.42969 303.083 5.35156 302.783 5.35156C302.653 5.35156 302.552 5.36133 302.48 5.38086C302.409 5.40039 302.285 5.4362 302.109 5.48828L301.865 4.63867C302.035 4.52148 302.204 4.43359 302.373 4.375C302.549 4.31641 302.744 4.28711 302.959 4.28711C303.389 4.28711 303.783 4.4043 304.141 4.63867C304.505 4.87305 304.889 5.27018 305.293 5.83008L307.695 9.12109H309.033V5.41992L307.441 5.29297V4.43359H311.797V5.29297L310.205 5.41992V9.12109H311.631L314.033 5.83008C314.43 5.27018 314.808 4.87305 315.166 4.63867C315.524 4.4043 315.924 4.28711 316.367 4.28711C316.576 4.28711 316.764 4.31966 316.934 4.38477C317.109 4.44336 317.285 4.52799 317.461 4.63867L317.217 5.48828C317.041 5.4362 316.914 5.40039 316.836 5.38086C316.764 5.36133 316.667 5.35156 316.543 5.35156C316.237 5.35156 315.97 5.42969 315.742 5.58594C315.514 5.73568 315.251 6.01237 314.951 6.41602L312.598 9.56055L316.299 14.0527L317.705 14.1504V15H315.518L311.621 10.1465H310.205V14.0234L311.797 14.1504V15H307.441V14.1504L309.033 14.0234V10.1465H307.627L303.74 15H301.543ZM323.564 15.2051C322.66 15.2051 321.862 14.987 321.172 14.5508C320.482 14.1081 319.941 13.4993 319.551 12.7246C319.16 11.9434 318.965 11.0449 318.965 10.0293V9.49219C318.965 8.48307 319.16 7.58464 319.551 6.79688C319.941 6.0026 320.469 5.3776 321.133 4.92188C321.803 4.46615 322.549 4.23828 323.369 4.23828C324.665 4.23828 325.677 4.64844 326.406 5.46875C327.135 6.28255 327.5 7.37305 327.5 8.74023V9.73633H320.176L320.156 10.166C320.163 10.9473 320.306 11.6439 320.586 12.2559C320.872 12.8678 321.27 13.3496 321.777 13.7012C322.292 14.0527 322.887 14.2285 323.564 14.2285C324.229 14.2285 324.811 14.1243 325.312 13.916C325.82 13.7077 326.266 13.418 326.65 13.0469L327.148 13.8477C326.745 14.2448 326.25 14.5703 325.664 14.8242C325.078 15.0781 324.378 15.2051 323.564 15.2051ZM320.254 8.75977H326.328V8.4668C326.328 7.53581 326.064 6.76432 325.537 6.15234C325.016 5.53385 324.294 5.22461 323.369 5.22461C322.809 5.22461 322.305 5.3776 321.855 5.68359C321.406 5.98307 321.038 6.39648 320.752 6.92383C320.472 7.44466 320.299 8.03711 320.234 8.70117L320.254 8.75977ZM329.463 15V14.1504L331.055 14.0234V5.41992L329.463 5.29297V4.43359H333.818V5.29297L332.227 5.41992V9.16992H337.91V5.41992L336.318 5.29297V4.43359H340.684V5.29297L339.092 5.41992V14.0234L340.684 14.1504V15H336.318V14.1504L337.91 14.0234V10.1465H332.227V14.0234L333.818 14.1504V15H329.463ZM0.947266 47V46.1504L2.53906 46.0234V37.4199L0.947266 37.293V36.4336H4.07227L8.22266 45.3691L8.27148 45.4082L12.4512 36.4336H15.498V37.293L13.9062 37.4199V46.0234L15.498 46.1504V47H11.1426V46.1504L12.7344 46.0234V38.543L12.6758 38.5234L8.68164 47H7.8418L3.76953 38.3281L3.71094 38.3379V46.0234L5.30273 46.1504V47H0.947266ZM22.207 47.2051C21.263 47.2051 20.4395 46.9805 19.7363 46.5312C19.0332 46.0755 18.4863 45.4473 18.0957 44.6465C17.7116 43.8457 17.5195 42.9245 17.5195 41.8828V41.5605C17.5195 40.5254 17.7116 39.6074 18.0957 38.8066C18.4863 38.0059 19.0299 37.3776 19.7266 36.9219C20.4297 36.4661 21.25 36.2383 22.1875 36.2383C23.125 36.2383 23.9453 36.4661 24.6484 36.9219C25.3516 37.3776 25.8952 38.0059 26.2793 38.8066C26.6699 39.6074 26.8652 40.5254 26.8652 41.5605V41.8828C26.8652 42.9245 26.6699 43.8457 26.2793 44.6465C25.8952 45.4473 25.3516 46.0755 24.6484 46.5312C23.9518 46.9805 23.138 47.2051 22.207 47.2051ZM22.207 46.2285C22.9297 46.2285 23.5514 46.0365 24.0723 45.6523C24.5931 45.2682 24.9935 44.7507 25.2734 44.0996C25.5534 43.4421 25.6934 42.7031 25.6934 41.8828V41.5605C25.6934 40.7533 25.5501 40.0241 25.2637 39.373C24.9837 38.7155 24.5801 38.1947 24.0527 37.8105C23.5319 37.4199 22.9102 37.2246 22.1875 37.2246C21.4518 37.2246 20.8236 37.4199 20.3027 37.8105C19.7819 38.1947 19.3815 38.7155 19.1016 39.373C18.8281 40.0241 18.6914 40.7533 18.6914 41.5605V41.8828C18.6914 42.7031 18.8281 43.4421 19.1016 44.0996C19.3815 44.7507 19.7819 45.2682 20.3027 45.6523C20.8301 46.0365 21.4648 46.2285 22.207 46.2285ZM43.7012 50.1348V47H28.7598V46.1504L30.3516 46.0234V37.4199L28.7598 37.293V36.4336H33.1152V37.293L31.5234 37.4199V46.0234H36.2207V36.4336H37.4023V46.0234H42.0508V37.4199L40.459 37.293V36.4336H44.8145V37.293L43.2227 37.4199V46.0137H44.8633L44.7754 50.1348H43.7012ZM46.9629 47V46.1504L48.5547 46.0234V37.4199L46.9629 37.293V36.4336H51.3184V37.293L49.7266 37.4199V41.1699H55.4102V37.4199L53.8184 37.293V36.4336H58.1836V37.293L56.5918 37.4199V46.0234L58.1836 46.1504V47H53.8184V46.1504L55.4102 46.0234V42.1465H49.7266V46.0234L51.3184 46.1504V47H46.9629ZM70.5273 47V46.1504L72.1191 46.0234V37.4199L70.5273 37.293V36.4336H73.291V46.0234L74.8828 46.1504V47H70.5273ZM66.1426 40.2812C67.36 40.2812 68.3073 40.5905 68.9844 41.209C69.668 41.8275 70.0098 42.6315 70.0098 43.6211C70.0098 44.6172 69.668 45.431 68.9844 46.0625C68.3073 46.6875 67.36 47 66.1426 47H60.3613V46.1504L61.9531 46.0234V37.4199L60.3613 37.293V36.4336H64.7168V37.293L63.125 37.4199V40.2812H66.1426ZM63.125 46.0234H66.1426C67.0475 46.0234 67.7214 45.7988 68.1641 45.3496C68.6133 44.8939 68.8379 44.3242 68.8379 43.6406C68.8379 42.9831 68.6133 42.4232 68.1641 41.9609C67.7148 41.4922 67.041 41.2578 66.1426 41.2578H63.125V46.0234ZM76.2402 47V46.1504L77.832 46.0234V37.4199L76.2402 37.293V36.4336H80.5957V37.293L79.0039 37.4199V45.0176L79.0625 45.0371L84.6973 36.4336H87.4609V37.293L85.8691 37.4199V46.0234L87.4609 46.1504V47H83.1055V46.1504L84.6973 46.0234V38.416L84.6387 38.3965L79.0039 47H76.2402ZM81.9043 34.334C81.0124 34.334 80.3125 34.1029 79.8047 33.6406C79.2969 33.1719 79.0462 32.5664 79.0527 31.8242L79.0723 31.7656H80.0195C80.0195 32.2734 80.1693 32.6868 80.4688 33.0059C80.7747 33.3249 81.2533 33.4844 81.9043 33.4844C82.5293 33.4844 82.9948 33.3249 83.3008 33.0059C83.6133 32.6868 83.7695 32.2734 83.7695 31.7656H84.7266L84.7461 31.8242C84.7396 32.5664 84.4824 33.1719 83.9746 33.6406C83.4733 34.1029 82.7832 34.334 81.9043 34.334ZM94.5215 47V46.1504L96.1133 46.0234V37.4199L94.5215 37.293V36.4336H98.8867V37.293L97.2949 37.4199V41.1211H98.8574L101.436 37.8301C101.865 37.2637 102.253 36.8665 102.598 36.6387C102.949 36.4043 103.337 36.2871 103.76 36.2871C103.968 36.2871 104.157 36.3164 104.326 36.375C104.502 36.4336 104.681 36.5215 104.863 36.6387L104.609 37.4883C104.434 37.4362 104.31 37.4004 104.238 37.3809C104.167 37.3613 104.069 37.3516 103.945 37.3516C103.652 37.3516 103.389 37.4329 103.154 37.5957C102.92 37.7585 102.65 38.0319 102.344 38.416L99.8828 41.541L103.896 46.0332L105.254 46.1504V47H103.184L98.9062 42.1465H97.2949V46.0234L98.8867 46.1504V47H94.5215ZM110.82 47.2051C109.876 47.2051 109.053 46.9805 108.35 46.5312C107.646 46.0755 107.1 45.4473 106.709 44.6465C106.325 43.8457 106.133 42.9245 106.133 41.8828V41.5605C106.133 40.5254 106.325 39.6074 106.709 38.8066C107.1 38.0059 107.643 37.3776 108.34 36.9219C109.043 36.4661 109.863 36.2383 110.801 36.2383C111.738 36.2383 112.559 36.4661 113.262 36.9219C113.965 37.3776 114.508 38.0059 114.893 38.8066C115.283 39.6074 115.479 40.5254 115.479 41.5605V41.8828C115.479 42.9245 115.283 43.8457 114.893 44.6465C114.508 45.4473 113.965 46.0755 113.262 46.5312C112.565 46.9805 111.751 47.2051 110.82 47.2051ZM110.82 46.2285C111.543 46.2285 112.165 46.0365 112.686 45.6523C113.206 45.2682 113.607 44.7507 113.887 44.0996C114.167 43.4421 114.307 42.7031 114.307 41.8828V41.5605C114.307 40.7533 114.163 40.0241 113.877 39.373C113.597 38.7155 113.193 38.1947 112.666 37.8105C112.145 37.4199 111.523 37.2246 110.801 37.2246C110.065 37.2246 109.437 37.4199 108.916 37.8105C108.395 38.1947 107.995 38.7155 107.715 39.373C107.441 40.0241 107.305 40.7533 107.305 41.5605V41.8828C107.305 42.7031 107.441 43.4421 107.715 44.0996C107.995 44.7507 108.395 45.2682 108.916 45.6523C109.443 46.0365 110.078 46.2285 110.82 46.2285ZM117.432 47V46.1504L119.023 46.0234V37.4199L117.432 37.293V36.4336H120.557L124.707 45.3691L124.756 45.4082L128.936 36.4336H131.982V37.293L130.391 37.4199V46.0234L131.982 46.1504V47H127.627V46.1504L129.219 46.0234V38.543L129.16 38.5234L125.166 47H124.326L120.254 38.3281L120.195 38.3379V46.0234L121.787 46.1504V47H117.432ZM134.053 47V46.1504L135.645 46.0234V37.4199L134.053 37.293V36.4336H145.273V37.293L143.682 37.4199V46.0234L145.273 46.1504V47H140.918V46.1504L142.51 46.0234V37.4297H136.816V46.0234L138.408 46.1504V47H134.053ZM153.232 40.2812C154.45 40.2812 155.397 40.5905 156.074 41.209C156.758 41.8275 157.1 42.6315 157.1 43.6211C157.1 44.6172 156.758 45.431 156.074 46.0625C155.397 46.6875 154.45 47 153.232 47H147.451V46.1504L149.043 46.0234V37.4199L147.451 37.293V36.4336H151.807V37.293L150.215 37.4199V40.2812H153.232ZM153.232 46.0234C154.137 46.0234 154.811 45.7988 155.254 45.3496C155.703 44.8939 155.928 44.3242 155.928 43.6406C155.928 42.9831 155.703 42.4232 155.254 41.9609C154.805 41.4922 154.131 41.2578 153.232 41.2578H150.215V46.0234H153.232ZM169.15 47.2051C168.245 47.2051 167.448 46.9967 166.758 46.5801C166.074 46.1569 165.534 45.571 165.137 44.8223C164.74 44.0736 164.518 43.2109 164.473 42.2344H161.689V46.0234L163.281 46.1504V47H158.926V46.1504L160.518 46.0234V37.4199L158.926 37.293V36.4336H161.689V41.2578H164.482C164.521 40.2617 164.74 39.3893 165.137 38.6406C165.534 37.8854 166.074 37.2962 166.758 36.873C167.441 36.4499 168.232 36.2383 169.131 36.2383C170.075 36.2383 170.895 36.4661 171.592 36.9219C172.295 37.3776 172.839 38.0059 173.223 38.8066C173.613 39.6009 173.809 40.5189 173.809 41.5605V41.8828C173.809 42.9245 173.613 43.8457 173.223 44.6465C172.839 45.4473 172.298 46.0755 171.602 46.5312C170.905 46.9805 170.088 47.2051 169.15 47.2051ZM169.15 46.2285C169.873 46.2285 170.495 46.0365 171.016 45.6523C171.536 45.2682 171.937 44.7507 172.217 44.0996C172.497 43.4421 172.637 42.7031 172.637 41.8828V41.5605C172.637 40.7533 172.497 40.0241 172.217 39.373C171.937 38.7155 171.533 38.1947 171.006 37.8105C170.485 37.4199 169.86 37.2246 169.131 37.2246C168.402 37.2246 167.777 37.4199 167.256 37.8105C166.735 38.1947 166.335 38.7155 166.055 39.373C165.775 40.0241 165.635 40.7533 165.635 41.5605V41.8828C165.635 42.7031 165.775 43.4421 166.055 44.0996C166.335 44.7507 166.735 45.2682 167.256 45.6523C167.783 46.0365 168.415 46.2285 169.15 46.2285ZM178.301 47V46.1504L179.893 46.0234V37.4102H177.031L176.963 39.4219H175.918V36.4336H185.176V39.4219H184.131L184.062 37.4102H181.064V46.0234L182.656 46.1504V47H178.301ZM190.889 47.2051C189.984 47.2051 189.186 46.987 188.496 46.5508C187.806 46.1081 187.266 45.4993 186.875 44.7246C186.484 43.9434 186.289 43.0449 186.289 42.0293V41.4922C186.289 40.4831 186.484 39.5846 186.875 38.7969C187.266 38.0026 187.793 37.3776 188.457 36.9219C189.128 36.4661 189.873 36.2383 190.693 36.2383C191.989 36.2383 193.001 36.6484 193.73 37.4688C194.46 38.2826 194.824 39.373 194.824 40.7402V41.7363H187.5L187.48 42.166C187.487 42.9473 187.63 43.6439 187.91 44.2559C188.197 44.8678 188.594 45.3496 189.102 45.7012C189.616 46.0527 190.212 46.2285 190.889 46.2285C191.553 46.2285 192.135 46.1243 192.637 45.916C193.145 45.7077 193.59 45.418 193.975 45.0469L194.473 45.8477C194.069 46.2448 193.574 46.5703 192.988 46.8242C192.402 47.0781 191.702 47.2051 190.889 47.2051ZM187.578 40.7598H193.652V40.4668C193.652 39.5358 193.389 38.7643 192.861 38.1523C192.34 37.5339 191.618 37.2246 190.693 37.2246C190.133 37.2246 189.629 37.3776 189.18 37.6836C188.73 37.9831 188.363 38.3965 188.076 38.9238C187.796 39.4447 187.624 40.0371 187.559 40.7012L187.578 40.7598ZM196.377 51.0625V50.2031L197.93 50.0762V37.4199L196.338 37.293V36.4336H198.906L199.053 38.0449C199.404 37.472 199.857 37.0293 200.41 36.7168C200.97 36.3978 201.628 36.2383 202.383 36.2383C203.236 36.2383 203.965 36.4694 204.57 36.9316C205.176 37.3874 205.638 38.0319 205.957 38.8652C206.283 39.6986 206.445 40.6784 206.445 41.8047V42.0098C206.445 43.5853 206.087 44.8451 205.371 45.7891C204.655 46.7331 203.669 47.2051 202.412 47.2051C201.663 47.2051 201.009 47.0651 200.449 46.7852C199.896 46.5052 199.447 46.1146 199.102 45.6133V50.0762L200.732 50.2031V51.0625H196.377ZM202.139 46.2285C203.161 46.2285 203.936 45.8444 204.463 45.0762C204.997 44.3014 205.264 43.2793 205.264 42.0098V41.8047C205.264 40.457 204.997 39.36 204.463 38.5137C203.929 37.6673 203.148 37.2441 202.119 37.2441C201.318 37.2441 200.674 37.4395 200.186 37.8301C199.704 38.2207 199.342 38.7155 199.102 39.3145V44.3535C199.349 44.9329 199.727 45.3919 200.234 45.7305C200.742 46.0625 201.377 46.2285 202.139 46.2285ZM208.818 49.7441L208.125 49.2363C208.431 48.8066 208.656 48.3802 208.799 47.957C208.949 47.5339 209.023 47.0684 209.023 46.5605V45.1641H210.195V46.5312C210.195 47.1367 210.072 47.7227 209.824 48.2891C209.583 48.8555 209.248 49.3405 208.818 49.7441ZM223.701 47V46.1504L225.293 46.0234V42.5176C224.889 42.6738 224.437 42.804 223.936 42.9082C223.441 43.0124 222.972 43.0645 222.529 43.0645C221.169 43.0645 220.156 42.7617 219.492 42.1562C218.828 41.5508 218.496 40.5286 218.496 39.0898V37.4102L216.904 37.2832V36.4336H221.26V37.2832L219.668 37.4102V39.0898C219.668 40.2031 219.889 40.9811 220.332 41.4238C220.781 41.86 221.514 42.0781 222.529 42.0781C223.005 42.0716 223.49 42.0163 223.984 41.9121C224.486 41.8079 224.922 41.6842 225.293 41.541V37.4199L223.701 37.293V36.4336H228.057V37.293L226.465 37.4199V46.0234L228.057 46.1504V47H223.701ZM232.52 47V46.1504L234.111 46.0234V37.4102H231.25L231.182 39.4219H230.137V36.4336H239.395V39.4219H238.35L238.281 37.4102H235.283V46.0234L236.875 46.1504V47H232.52ZM245.547 47.2051C244.603 47.2051 243.779 46.9805 243.076 46.5312C242.373 46.0755 241.826 45.4473 241.436 44.6465C241.051 43.8457 240.859 42.9245 240.859 41.8828V41.5605C240.859 40.5254 241.051 39.6074 241.436 38.8066C241.826 38.0059 242.37 37.3776 243.066 36.9219C243.77 36.4661 244.59 36.2383 245.527 36.2383C246.465 36.2383 247.285 36.4661 247.988 36.9219C248.691 37.3776 249.235 38.0059 249.619 38.8066C250.01 39.6074 250.205 40.5254 250.205 41.5605V41.8828C250.205 42.9245 250.01 43.8457 249.619 44.6465C249.235 45.4473 248.691 46.0755 247.988 46.5312C247.292 46.9805 246.478 47.2051 245.547 47.2051ZM245.547 46.2285C246.27 46.2285 246.891 46.0365 247.412 45.6523C247.933 45.2682 248.333 44.7507 248.613 44.0996C248.893 43.4421 249.033 42.7031 249.033 41.8828V41.5605C249.033 40.7533 248.89 40.0241 248.604 39.373C248.324 38.7155 247.92 38.1947 247.393 37.8105C246.872 37.4199 246.25 37.2246 245.527 37.2246C244.792 37.2246 244.163 37.4199 243.643 37.8105C243.122 38.1947 242.721 38.7155 242.441 39.373C242.168 40.0241 242.031 40.7533 242.031 41.5605V41.8828C242.031 42.7031 242.168 43.4421 242.441 44.0996C242.721 44.7507 243.122 45.2682 243.643 45.6523C244.17 46.0365 244.805 46.2285 245.547 46.2285ZM256.924 47.2051C255.98 47.2051 255.156 46.9935 254.453 46.5703C253.757 46.1406 253.213 45.5482 252.822 44.793C252.438 44.0378 252.246 43.1686 252.246 42.1855V40.6523C252.246 38.6081 252.669 36.9674 253.516 35.7305C254.368 34.487 255.524 33.748 256.982 33.5137C257.979 33.3574 258.678 33.1556 259.082 32.9082C259.486 32.6608 259.688 32.3027 259.688 31.834H260.596L260.615 31.8926C260.641 32.7715 260.374 33.3932 259.814 33.7578C259.255 34.1224 258.395 34.3828 257.236 34.5391C256.195 34.6693 255.329 35.112 254.639 35.8672C253.955 36.6159 253.548 37.625 253.418 38.8945L253.457 38.9434C253.802 38.3965 254.294 37.9603 254.932 37.6348C255.576 37.3027 256.296 37.1367 257.09 37.1367C257.995 37.1367 258.783 37.3385 259.453 37.7422C260.13 38.1458 260.654 38.7025 261.025 39.4121C261.403 40.1217 261.592 40.9388 261.592 41.8633V42.1855C261.592 43.1686 261.396 44.0378 261.006 44.793C260.622 45.5482 260.078 46.1406 259.375 46.5703C258.678 46.9935 257.861 47.2051 256.924 47.2051ZM256.924 46.2285C257.653 46.2285 258.278 46.0495 258.799 45.6914C259.32 45.3333 259.72 44.8516 260 44.2461C260.28 43.6341 260.42 42.9473 260.42 42.1855V41.8633C260.42 41.1667 260.277 40.5352 259.99 39.9688C259.71 39.4023 259.307 38.9531 258.779 38.6211C258.258 38.2826 257.633 38.1133 256.904 38.1133C256.175 38.1133 255.55 38.2826 255.029 38.6211C254.508 38.9531 254.108 39.4023 253.828 39.9688C253.555 40.5352 253.418 41.1667 253.418 41.8633V42.1855C253.418 42.9473 253.555 43.6341 253.828 44.2461C254.108 44.8581 254.508 45.3431 255.029 45.7012C255.557 46.0527 256.188 46.2285 256.924 46.2285ZM273.672 47V46.1504L275.264 46.0234V37.4199L273.672 37.293V36.4336H276.436V46.0234L278.027 46.1504V47H273.672ZM269.287 40.2812C270.505 40.2812 271.452 40.5905 272.129 41.209C272.812 41.8275 273.154 42.6315 273.154 43.6211C273.154 44.6172 272.812 45.431 272.129 46.0625C271.452 46.6875 270.505 47 269.287 47H263.506V46.1504L265.098 46.0234V37.4199L263.506 37.293V36.4336H267.861V37.293L266.27 37.4199V40.2812H269.287ZM266.27 46.0234H269.287C270.192 46.0234 270.866 45.7988 271.309 45.3496C271.758 44.8939 271.982 44.3242 271.982 43.6406C271.982 42.9831 271.758 42.4232 271.309 41.9609C270.859 41.4922 270.186 41.2578 269.287 41.2578H266.27V46.0234ZM4.89258 79.1758C4.16341 79.1758 3.48958 79.0553 2.87109 78.8145C2.2526 78.5671 1.75781 78.2122 1.38672 77.75C1.02214 77.2812 0.849609 76.7083 0.869141 76.0312L0.888672 75.9727H1.97266C1.97266 76.6042 2.24609 77.1348 2.79297 77.5645C3.34635 77.9941 4.04622 78.209 4.89258 78.209C5.80404 78.209 6.50391 78.0202 6.99219 77.6426C7.48698 77.2585 7.73438 76.7507 7.73438 76.1191C7.73438 75.4225 7.50326 74.9147 7.04102 74.5957C6.58529 74.2702 5.88216 74.1074 4.93164 74.1074H3.32031V73.1016H4.93164C5.85612 73.1016 6.52344 72.9421 6.93359 72.623C7.34375 72.2975 7.54883 71.832 7.54883 71.2266C7.54883 70.6406 7.33073 70.1621 6.89453 69.791C6.46484 69.4199 5.79753 69.2344 4.89258 69.2344C4.13086 69.2344 3.48307 69.4297 2.94922 69.8203C2.41536 70.2044 2.14844 70.6927 2.14844 71.2852H1.06445L1.04492 71.2266C1.01888 70.6471 1.17513 70.1361 1.51367 69.6934C1.85872 69.2441 2.32422 68.8958 2.91016 68.6484C3.5026 68.3945 4.16341 68.2676 4.89258 68.2676C6.09701 68.2676 7.03776 68.5247 7.71484 69.0391C8.39193 69.5534 8.73047 70.2858 8.73047 71.2363C8.73047 71.7572 8.56771 72.2259 8.24219 72.6426C7.92318 73.0527 7.46745 73.3652 6.875 73.5801C8.24219 73.9642 8.92578 74.804 8.92578 76.0996C8.92578 77.0632 8.55469 77.8184 7.8125 78.3652C7.07682 78.9056 6.10352 79.1758 4.89258 79.1758ZM14.2383 79.2051C13.2357 79.2051 12.4512 78.9382 11.8848 78.4043C11.3184 77.8704 11.0352 77.1478 11.0352 76.2363C11.0352 75.2598 11.4486 74.472 12.2754 73.873C13.1087 73.2676 14.2415 72.9648 15.6738 72.9648H17.8613V71.7539C17.8613 70.9857 17.6335 70.3704 17.1777 69.9082C16.722 69.446 16.0417 69.2148 15.1367 69.2148C14.6224 69.2148 14.1602 69.2995 13.75 69.4688C13.3464 69.6315 12.9948 69.8398 12.6953 70.0938L12.5977 71.7051H11.6309V69.498C12.0866 69.1009 12.6042 68.7917 13.1836 68.5703C13.763 68.349 14.4206 68.2383 15.1562 68.2383C16.3997 68.2383 17.3568 68.5508 18.0273 69.1758C18.6979 69.8008 19.0332 70.6667 19.0332 71.7734V76.8711C19.0332 77.0794 19.0397 77.2878 19.0527 77.4961C19.0658 77.6979 19.0885 77.8997 19.1211 78.1016L20.3809 78.1504V79H18.0762C18.0046 78.6159 17.9525 78.3066 17.9199 78.0723C17.8874 77.8379 17.8678 77.5742 17.8613 77.2812C17.4772 77.8477 16.9694 78.3099 16.3379 78.668C15.7064 79.026 15.0065 79.2051 14.2383 79.2051ZM14.375 78.1797C15.0977 78.1797 15.7812 77.9909 16.4258 77.6133C17.0768 77.2292 17.5553 76.7214 17.8613 76.0898V73.8633H15.6641C14.5833 73.8633 13.737 74.0977 13.125 74.5664C12.513 75.0286 12.207 75.5983 12.207 76.2754C12.207 76.8418 12.3991 77.3008 12.7832 77.6523C13.1738 78.0039 13.7044 78.1797 14.375 78.1797ZM22.0605 79V78.1504L23.6523 78.0234V69.4199L22.0605 69.293V68.4336H33.2812V69.293L31.6895 69.4199V78.0234L33.2812 78.1504V79H28.9258V78.1504L30.5176 78.0234V69.4297H24.8242V78.0234L26.416 78.1504V79H22.0605ZM37.3926 83.2676C37.2559 83.2676 37.0898 83.2513 36.8945 83.2188C36.7057 83.1927 36.5625 83.1667 36.4648 83.1406L36.6016 82.1738C36.6927 82.1868 36.8197 82.1999 36.9824 82.2129C37.1517 82.2324 37.2754 82.2422 37.3535 82.2422C37.8613 82.2422 38.265 82.0729 38.5645 81.7344C38.8639 81.4023 39.1374 80.9271 39.3848 80.3086L39.9316 78.873L36.0547 69.3613L34.9121 69.293V68.4336H38.6328V69.293L37.2949 69.3809L40.0098 76.1973L40.4492 77.3984H40.5078L43.5254 69.3809L42.1484 69.293V68.4336H45.8398V69.293L44.7168 69.3613L40.3809 80.6992C40.0879 81.4479 39.7266 82.0632 39.2969 82.5449C38.8672 83.0267 38.2324 83.2676 37.3926 83.2676ZM51.3574 79.2051C50.4785 79.2051 49.7005 78.9837 49.0234 78.541C48.3529 78.0983 47.8255 77.4798 47.4414 76.6855C47.0638 75.8913 46.875 74.9701 46.875 73.9219V73.5117C46.875 72.4831 47.0605 71.5716 47.4316 70.7773C47.8027 69.9831 48.3203 69.3613 48.9844 68.9121C49.6549 68.4629 50.4427 68.2383 51.3477 68.2383C52.168 68.2383 52.8971 68.3945 53.5352 68.707C54.1732 69.013 54.707 69.4102 55.1367 69.8984L55.1562 72.291H54.1797L54.0234 70.3184C53.6979 69.9733 53.3171 69.7064 52.8809 69.5176C52.4447 69.3223 51.9434 69.2246 51.377 69.2246C50.7129 69.2246 50.1302 69.4102 49.6289 69.7812C49.1276 70.1523 48.737 70.6634 48.457 71.3145C48.1836 71.959 48.0469 72.6914 48.0469 73.5117V73.9219C48.0469 75.2109 48.3464 76.2526 48.9453 77.0469C49.5443 77.8346 50.3516 78.2285 51.3672 78.2285C52.1549 78.2285 52.8125 78.0234 53.3398 77.6133C53.8672 77.1966 54.1862 76.5846 54.2969 75.7773H55.3418L55.3613 75.8359C55.2702 76.8385 54.8763 77.6523 54.1797 78.2773C53.4831 78.8958 52.5423 79.2051 51.3574 79.2051ZM57.4316 79V78.1504L59.0234 78.0234V69.4199L57.4316 69.293V68.4336H61.7969V69.293L60.2051 69.4199V73.1211H61.7676L64.3457 69.8301C64.7754 69.2637 65.1628 68.8665 65.5078 68.6387C65.8594 68.4043 66.2467 68.2871 66.6699 68.2871C66.8783 68.2871 67.0671 68.3164 67.2363 68.375C67.4121 68.4336 67.5911 68.5215 67.7734 68.6387L67.5195 69.4883C67.3438 69.4362 67.2201 69.4004 67.1484 69.3809C67.0768 69.3613 66.9792 69.3516 66.8555 69.3516C66.5625 69.3516 66.2988 69.4329 66.0645 69.5957C65.8301 69.7585 65.5599 70.0319 65.2539 70.416L62.793 73.541L66.8066 78.0332L68.1641 78.1504V79H66.0938L61.8164 74.1465H60.2051V78.0234L61.7969 78.1504V79H57.4316ZM72.7539 79.2051C71.7513 79.2051 70.9668 78.9382 70.4004 78.4043C69.834 77.8704 69.5508 77.1478 69.5508 76.2363C69.5508 75.2598 69.9642 74.472 70.791 73.873C71.6243 73.2676 72.7572 72.9648 74.1895 72.9648H76.377V71.7539C76.377 70.9857 76.1491 70.3704 75.6934 69.9082C75.2376 69.446 74.5573 69.2148 73.6523 69.2148C73.138 69.2148 72.6758 69.2995 72.2656 69.4688C71.862 69.6315 71.5104 69.8398 71.2109 70.0938L71.1133 71.7051H70.1465V69.498C70.6022 69.1009 71.1198 68.7917 71.6992 68.5703C72.2786 68.349 72.9362 68.2383 73.6719 68.2383C74.9154 68.2383 75.8724 68.5508 76.543 69.1758C77.2135 69.8008 77.5488 70.6667 77.5488 71.7734V76.8711C77.5488 77.0794 77.5553 77.2878 77.5684 77.4961C77.5814 77.6979 77.6042 77.8997 77.6367 78.1016L78.8965 78.1504V79H76.5918C76.5202 78.6159 76.4681 78.3066 76.4355 78.0723C76.403 77.8379 76.3835 77.5742 76.377 77.2812C75.9928 77.8477 75.485 78.3099 74.8535 78.668C74.222 79.026 73.5221 79.2051 72.7539 79.2051ZM72.8906 78.1797C73.6133 78.1797 74.2969 77.9909 74.9414 77.6133C75.5924 77.2292 76.071 76.7214 76.377 76.0898V73.8633H74.1797C73.099 73.8633 72.2526 74.0977 71.6406 74.5664C71.0286 75.0286 70.7227 75.5983 70.7227 76.2754C70.7227 76.8418 70.9147 77.3008 71.2988 77.6523C71.6895 78.0039 72.2201 78.1797 72.8906 78.1797ZM82.6758 79V78.1504L84.2676 78.0234V69.4102H81.4062L81.3379 71.4219H80.293V68.4336H89.5508V71.4219H88.5059L88.4375 69.4102H85.4395V78.0234L87.0312 78.1504V79H82.6758ZM97.2559 72.2812C98.4733 72.2812 99.4206 72.5905 100.098 73.209C100.781 73.8275 101.123 74.6315 101.123 75.6211C101.123 76.6172 100.781 77.431 100.098 78.0625C99.4206 78.6875 98.4733 79 97.2559 79H91.4746V78.1504L93.0664 78.0234V69.4199L91.4746 69.293V68.4336H95.8301V69.293L94.2383 69.4199V72.2812H97.2559ZM97.2559 78.0234C98.1608 78.0234 98.8346 77.7988 99.2773 77.3496C99.7266 76.8939 99.9512 76.3242 99.9512 75.6406C99.9512 74.9831 99.7266 74.4232 99.2773 73.9609C98.8281 73.4922 98.1543 73.2578 97.2559 73.2578H94.2383V78.0234H97.2559ZM107.998 79V78.1504L109.59 78.0234V69.4199L107.998 69.293V68.4336H112.354V69.293L110.762 69.4199V77.0176L110.82 77.0371L116.455 68.4336H119.219V69.293L117.627 69.4199V78.0234L119.219 78.1504V79H114.863V78.1504L116.455 78.0234V70.416L116.396 70.3965L110.762 79H107.998ZM121.152 79V78.1504L122.744 78.0234V69.4199L121.152 69.293V68.4336H129.404V70.6992H128.545L128.486 69.4297H123.916V78.0234L125.508 78.1504V79H121.152ZM131.26 83.0625V82.2031L132.812 82.0762V69.4199L131.221 69.293V68.4336H133.789L133.936 70.0449C134.287 69.472 134.74 69.0293 135.293 68.7168C135.853 68.3978 136.51 68.2383 137.266 68.2383C138.118 68.2383 138.848 68.4694 139.453 68.9316C140.059 69.3874 140.521 70.0319 140.84 70.8652C141.165 71.6986 141.328 72.6784 141.328 73.8047V74.0098C141.328 75.5853 140.97 76.8451 140.254 77.7891C139.538 78.7331 138.551 79.2051 137.295 79.2051C136.546 79.2051 135.892 79.0651 135.332 78.7852C134.779 78.5052 134.329 78.1146 133.984 77.6133V82.0762L135.615 82.2031V83.0625H131.26ZM137.021 78.2285C138.044 78.2285 138.818 77.8444 139.346 77.0762C139.88 76.3014 140.146 75.2793 140.146 74.0098V73.8047C140.146 72.457 139.88 71.36 139.346 70.5137C138.812 69.6673 138.031 69.2441 137.002 69.2441C136.201 69.2441 135.557 69.4395 135.068 69.8301C134.587 70.2207 134.225 70.7155 133.984 71.3145V76.3535C134.232 76.9329 134.609 77.3919 135.117 77.7305C135.625 78.0625 136.26 78.2285 137.021 78.2285ZM153.535 79V78.1504L155.127 78.0234V69.4199L153.535 69.293V68.4336H156.299V78.0234L157.891 78.1504V79H153.535ZM149.15 72.2812C150.368 72.2812 151.315 72.5905 151.992 73.209C152.676 73.8275 153.018 74.6315 153.018 75.6211C153.018 76.6172 152.676 77.431 151.992 78.0625C151.315 78.6875 150.368 79 149.15 79H143.369V78.1504L144.961 78.0234V69.4199L143.369 69.293V68.4336H147.725V69.293L146.133 69.4199V72.2812H149.15ZM146.133 78.0234H149.15C150.055 78.0234 150.729 77.7988 151.172 77.3496C151.621 76.8939 151.846 76.3242 151.846 75.6406C151.846 74.9831 151.621 74.4232 151.172 73.9609C150.723 73.4922 150.049 73.2578 149.15 73.2578H146.133V78.0234ZM159.717 79V77.4082H161.055V79H159.717ZM168.496 79V78.1504L170.088 78.0234V65.7676L168.496 65.6406V64.7812H172.852V65.6406L171.26 65.7676V71.4609H179.287V65.7676L177.695 65.6406V64.7812H182.051V65.6406L180.459 65.7676V78.0234L182.051 78.1504V79H177.695V78.1504L179.287 78.0234V72.4473H171.26V78.0234L172.852 78.1504V79H168.496ZM186.895 79.2051C185.892 79.2051 185.107 78.9382 184.541 78.4043C183.975 77.8704 183.691 77.1478 183.691 76.2363C183.691 75.2598 184.105 74.472 184.932 73.873C185.765 73.2676 186.898 72.9648 188.33 72.9648H190.518V71.7539C190.518 70.9857 190.29 70.3704 189.834 69.9082C189.378 69.446 188.698 69.2148 187.793 69.2148C187.279 69.2148 186.816 69.2995 186.406 69.4688C186.003 69.6315 185.651 69.8398 185.352 70.0938L185.254 71.7051H184.287V69.498C184.743 69.1009 185.26 68.7917 185.84 68.5703C186.419 68.349 187.077 68.2383 187.812 68.2383C189.056 68.2383 190.013 68.5508 190.684 69.1758C191.354 69.8008 191.689 70.6667 191.689 71.7734V76.8711C191.689 77.0794 191.696 77.2878 191.709 77.4961C191.722 77.6979 191.745 77.8997 191.777 78.1016L193.037 78.1504V79H190.732C190.661 78.6159 190.609 78.3066 190.576 78.0723C190.544 77.8379 190.524 77.5742 190.518 77.2812C190.133 77.8477 189.626 78.3099 188.994 78.668C188.363 79.026 187.663 79.2051 186.895 79.2051ZM187.031 78.1797C187.754 78.1797 188.438 77.9909 189.082 77.6133C189.733 77.2292 190.212 76.7214 190.518 76.0898V73.8633H188.32C187.24 73.8633 186.393 74.0977 185.781 74.5664C185.169 75.0286 184.863 75.5983 184.863 76.2754C184.863 76.8418 185.055 77.3008 185.439 77.6523C185.83 78.0039 186.361 78.1797 187.031 78.1797ZM194.717 79V78.1504L196.309 78.0234V69.4199L194.717 69.293V68.4336H199.072V69.293L197.48 69.4199V78.0234H202.178V68.4336H203.35V78.0234H208.008V69.4199L206.416 69.293V68.4336H210.771V69.293L209.18 69.4199V78.0234L210.771 78.1504V79H194.717ZM217.725 79V78.1504L219.316 78.0234V69.4199L217.725 69.293V68.4336H222.08V69.293L220.488 69.4199V78.0234H225.186V68.4336H226.357V78.0234H231.016V69.4199L229.424 69.293V68.4336H233.779V69.293L232.188 69.4199V78.0234L233.779 78.1504V79H217.725ZM235.576 79L235.586 77.9648L235.957 77.9551C236.439 77.9551 236.829 77.8021 237.129 77.4961C237.428 77.1836 237.646 76.6725 237.783 75.9629C237.926 75.2533 237.998 74.2995 237.998 73.1016V69.4199L236.406 69.293V68.4336H246.416V69.293L244.824 69.4199V78.0234L246.416 78.1504V79H242.051V78.1504L243.643 78.0234V69.4297H239.17V73.1016C239.17 75.1784 238.929 76.6823 238.447 77.6133C237.965 78.5378 237.148 79 235.996 79H235.576ZM253.076 79.2051C252.171 79.2051 251.374 78.987 250.684 78.5508C249.993 78.1081 249.453 77.4993 249.062 76.7246C248.672 75.9434 248.477 75.0449 248.477 74.0293V73.4922C248.477 72.4831 248.672 71.5846 249.062 70.7969C249.453 70.0026 249.98 69.3776 250.645 68.9219C251.315 68.4661 252.061 68.2383 252.881 68.2383C254.176 68.2383 255.189 68.6484 255.918 69.4688C256.647 70.2826 257.012 71.373 257.012 72.7402V73.7363H249.688L249.668 74.166C249.674 74.9473 249.818 75.6439 250.098 76.2559C250.384 76.8678 250.781 77.3496 251.289 77.7012C251.803 78.0527 252.399 78.2285 253.076 78.2285C253.74 78.2285 254.323 78.1243 254.824 77.916C255.332 77.7077 255.778 77.418 256.162 77.0469L256.66 77.8477C256.257 78.2448 255.762 78.5703 255.176 78.8242C254.59 79.0781 253.89 79.2051 253.076 79.2051ZM249.766 72.7598H255.84V72.4668C255.84 71.5358 255.576 70.7643 255.049 70.1523C254.528 69.5339 253.805 69.2246 252.881 69.2246C252.321 69.2246 251.816 69.3776 251.367 69.6836C250.918 69.9831 250.55 70.3965 250.264 70.9238C249.984 71.4447 249.811 72.0371 249.746 72.7012L249.766 72.7598ZM258.975 79V78.1504L260.566 78.0234V69.4199L258.975 69.293V68.4336H262.1L266.25 77.3691L266.299 77.4082L270.479 68.4336H273.525V69.293L271.934 69.4199V78.0234L273.525 78.1504V79H269.17V78.1504L270.762 78.0234V70.543L270.703 70.5234L266.709 79H265.869L261.797 70.3281L261.738 70.3379V78.0234L263.33 78.1504V79H258.975ZM4.89258 111.176C4.16341 111.176 3.48958 111.055 2.87109 110.814C2.2526 110.567 1.75781 110.212 1.38672 109.75C1.02214 109.281 0.849609 108.708 0.869141 108.031L0.888672 107.973H1.97266C1.97266 108.604 2.24609 109.135 2.79297 109.564C3.34635 109.994 4.04622 110.209 4.89258 110.209C5.80404 110.209 6.50391 110.02 6.99219 109.643C7.48698 109.258 7.73438 108.751 7.73438 108.119C7.73438 107.423 7.50326 106.915 7.04102 106.596C6.58529 106.27 5.88216 106.107 4.93164 106.107H3.32031V105.102H4.93164C5.85612 105.102 6.52344 104.942 6.93359 104.623C7.34375 104.298 7.54883 103.832 7.54883 103.227C7.54883 102.641 7.33073 102.162 6.89453 101.791C6.46484 101.42 5.79753 101.234 4.89258 101.234C4.13086 101.234 3.48307 101.43 2.94922 101.82C2.41536 102.204 2.14844 102.693 2.14844 103.285H1.06445L1.04492 103.227C1.01888 102.647 1.17513 102.136 1.51367 101.693C1.85872 101.244 2.32422 100.896 2.91016 100.648C3.5026 100.395 4.16341 100.268 4.89258 100.268C6.09701 100.268 7.03776 100.525 7.71484 101.039C8.39193 101.553 8.73047 102.286 8.73047 103.236C8.73047 103.757 8.56771 104.226 8.24219 104.643C7.92318 105.053 7.46745 105.365 6.875 105.58C8.24219 105.964 8.92578 106.804 8.92578 108.1C8.92578 109.063 8.55469 109.818 7.8125 110.365C7.07682 110.906 6.10352 111.176 4.89258 111.176ZM14.2383 111.205C13.2357 111.205 12.4512 110.938 11.8848 110.404C11.3184 109.87 11.0352 109.148 11.0352 108.236C11.0352 107.26 11.4486 106.472 12.2754 105.873C13.1087 105.268 14.2415 104.965 15.6738 104.965H17.8613V103.754C17.8613 102.986 17.6335 102.37 17.1777 101.908C16.722 101.446 16.0417 101.215 15.1367 101.215C14.6224 101.215 14.1602 101.299 13.75 101.469C13.3464 101.632 12.9948 101.84 12.6953 102.094L12.5977 103.705H11.6309V101.498C12.0866 101.101 12.6042 100.792 13.1836 100.57C13.763 100.349 14.4206 100.238 15.1562 100.238C16.3997 100.238 17.3568 100.551 18.0273 101.176C18.6979 101.801 19.0332 102.667 19.0332 103.773V108.871C19.0332 109.079 19.0397 109.288 19.0527 109.496C19.0658 109.698 19.0885 109.9 19.1211 110.102L20.3809 110.15V111H18.0762C18.0046 110.616 17.9525 110.307 17.9199 110.072C17.8874 109.838 17.8678 109.574 17.8613 109.281C17.4772 109.848 16.9694 110.31 16.3379 110.668C15.7064 111.026 15.0065 111.205 14.2383 111.205ZM14.375 110.18C15.0977 110.18 15.7812 109.991 16.4258 109.613C17.0768 109.229 17.5553 108.721 17.8613 108.09V105.863H15.6641C14.5833 105.863 13.737 106.098 13.125 106.566C12.513 107.029 12.207 107.598 12.207 108.275C12.207 108.842 12.3991 109.301 12.7832 109.652C13.1738 110.004 13.7044 110.18 14.375 110.18ZM22.0605 111V110.15L23.6523 110.023V101.42L22.0605 101.293V100.434H33.2812V101.293L31.6895 101.42V110.023L33.2812 110.15V111H28.9258V110.15L30.5176 110.023V101.43H24.8242V110.023L26.416 110.15V111H22.0605ZM37.3926 115.268C37.2559 115.268 37.0898 115.251 36.8945 115.219C36.7057 115.193 36.5625 115.167 36.4648 115.141L36.6016 114.174C36.6927 114.187 36.8197 114.2 36.9824 114.213C37.1517 114.232 37.2754 114.242 37.3535 114.242C37.8613 114.242 38.265 114.073 38.5645 113.734C38.8639 113.402 39.1374 112.927 39.3848 112.309L39.9316 110.873L36.0547 101.361L34.9121 101.293V100.434H38.6328V101.293L37.2949 101.381L40.0098 108.197L40.4492 109.398H40.5078L43.5254 101.381L42.1484 101.293V100.434H45.8398V101.293L44.7168 101.361L40.3809 112.699C40.0879 113.448 39.7266 114.063 39.2969 114.545C38.8672 115.027 38.2324 115.268 37.3926 115.268ZM51.3574 111.205C50.4785 111.205 49.7005 110.984 49.0234 110.541C48.3529 110.098 47.8255 109.48 47.4414 108.686C47.0638 107.891 46.875 106.97 46.875 105.922V105.512C46.875 104.483 47.0605 103.572 47.4316 102.777C47.8027 101.983 48.3203 101.361 48.9844 100.912C49.6549 100.463 50.4427 100.238 51.3477 100.238C52.168 100.238 52.8971 100.395 53.5352 100.707C54.1732 101.013 54.707 101.41 55.1367 101.898L55.1562 104.291H54.1797L54.0234 102.318C53.6979 101.973 53.3171 101.706 52.8809 101.518C52.4447 101.322 51.9434 101.225 51.377 101.225C50.7129 101.225 50.1302 101.41 49.6289 101.781C49.1276 102.152 48.737 102.663 48.457 103.314C48.1836 103.959 48.0469 104.691 48.0469 105.512V105.922C48.0469 107.211 48.3464 108.253 48.9453 109.047C49.5443 109.835 50.3516 110.229 51.3672 110.229C52.1549 110.229 52.8125 110.023 53.3398 109.613C53.8672 109.197 54.1862 108.585 54.2969 107.777H55.3418L55.3613 107.836C55.2702 108.839 54.8763 109.652 54.1797 110.277C53.4831 110.896 52.5423 111.205 51.3574 111.205ZM57.4316 111V110.15L59.0234 110.023V101.42L57.4316 101.293V100.434H61.7969V101.293L60.2051 101.42V105.121H61.7676L64.3457 101.83C64.7754 101.264 65.1628 100.867 65.5078 100.639C65.8594 100.404 66.2467 100.287 66.6699 100.287C66.8783 100.287 67.0671 100.316 67.2363 100.375C67.4121 100.434 67.5911 100.521 67.7734 100.639L67.5195 101.488C67.3438 101.436 67.2201 101.4 67.1484 101.381C67.0768 101.361 66.9792 101.352 66.8555 101.352C66.5625 101.352 66.2988 101.433 66.0645 101.596C65.8301 101.758 65.5599 102.032 65.2539 102.416L62.793 105.541L66.8066 110.033L68.1641 110.15V111H66.0938L61.8164 106.146H60.2051V110.023L61.7969 110.15V111H57.4316ZM72.7539 111.205C71.7513 111.205 70.9668 110.938 70.4004 110.404C69.834 109.87 69.5508 109.148 69.5508 108.236C69.5508 107.26 69.9642 106.472 70.791 105.873C71.6243 105.268 72.7572 104.965 74.1895 104.965H76.377V103.754C76.377 102.986 76.1491 102.37 75.6934 101.908C75.2376 101.446 74.5573 101.215 73.6523 101.215C73.138 101.215 72.6758 101.299 72.2656 101.469C71.862 101.632 71.5104 101.84 71.2109 102.094L71.1133 103.705H70.1465V101.498C70.6022 101.101 71.1198 100.792 71.6992 100.57C72.2786 100.349 72.9362 100.238 73.6719 100.238C74.9154 100.238 75.8724 100.551 76.543 101.176C77.2135 101.801 77.5488 102.667 77.5488 103.773V108.871C77.5488 109.079 77.5553 109.288 77.5684 109.496C77.5814 109.698 77.6042 109.9 77.6367 110.102L78.8965 110.15V111H76.5918C76.5202 110.616 76.4681 110.307 76.4355 110.072C76.403 109.838 76.3835 109.574 76.377 109.281C75.9928 109.848 75.485 110.31 74.8535 110.668C74.222 111.026 73.5221 111.205 72.7539 111.205ZM72.8906 110.18C73.6133 110.18 74.2969 109.991 74.9414 109.613C75.5924 109.229 76.071 108.721 76.377 108.09V105.863H74.1797C73.099 105.863 72.2526 106.098 71.6406 106.566C71.0286 107.029 70.7227 107.598 70.7227 108.275C70.7227 108.842 70.9147 109.301 71.2988 109.652C71.6895 110.004 72.2201 110.18 72.8906 110.18ZM85.1465 111.205C84.2415 111.205 83.444 110.987 82.7539 110.551C82.0638 110.108 81.5234 109.499 81.1328 108.725C80.7422 107.943 80.5469 107.045 80.5469 106.029V105.492C80.5469 104.483 80.7422 103.585 81.1328 102.797C81.5234 102.003 82.0508 101.378 82.7148 100.922C83.3854 100.466 84.1309 100.238 84.9512 100.238C86.2467 100.238 87.2591 100.648 87.9883 101.469C88.7174 102.283 89.082 103.373 89.082 104.74V105.736H81.7578L81.7383 106.166C81.7448 106.947 81.888 107.644 82.168 108.256C82.4544 108.868 82.8516 109.35 83.3594 109.701C83.8737 110.053 84.4694 110.229 85.1465 110.229C85.8105 110.229 86.3932 110.124 86.8945 109.916C87.4023 109.708 87.8483 109.418 88.2324 109.047L88.7305 109.848C88.3268 110.245 87.832 110.57 87.2461 110.824C86.6602 111.078 85.9603 111.205 85.1465 111.205ZM81.8359 104.76H87.9102V104.467C87.9102 103.536 87.6465 102.764 87.1191 102.152C86.5983 101.534 85.8757 101.225 84.9512 101.225C84.3913 101.225 83.8867 101.378 83.4375 101.684C82.9883 101.983 82.6204 102.396 82.334 102.924C82.054 103.445 81.8815 104.037 81.8164 104.701L81.8359 104.76ZM93.1836 111V110.15L94.7754 110.023V101.41H91.9141L91.8457 103.422H90.8008V100.434H100.059V103.422H99.0137L98.9453 101.41H95.9473V110.023L97.5391 110.15V111H93.1836ZM106.865 111V110.15L108.457 110.023V101.42L106.865 101.293V100.434H111.221V101.293L109.629 101.42V109.018L109.688 109.037L115.322 100.434H118.086V101.293L116.494 101.42V110.023L118.086 110.15V111H113.73V110.15L115.322 110.023V102.416L115.264 102.396L109.629 111H106.865ZM120.02 111V110.15L121.611 110.023V101.42L120.02 101.293V100.434H128.271V102.699H127.412L127.354 101.43H122.783V110.023L124.375 110.15V111H120.02ZM130.127 115.062V114.203L131.68 114.076V101.42L130.088 101.293V100.434H132.656L132.803 102.045C133.154 101.472 133.607 101.029 134.16 100.717C134.72 100.398 135.378 100.238 136.133 100.238C136.986 100.238 137.715 100.469 138.32 100.932C138.926 101.387 139.388 102.032 139.707 102.865C140.033 103.699 140.195 104.678 140.195 105.805V106.01C140.195 107.585 139.837 108.845 139.121 109.789C138.405 110.733 137.419 111.205 136.162 111.205C135.413 111.205 134.759 111.065 134.199 110.785C133.646 110.505 133.197 110.115 132.852 109.613V114.076L134.482 114.203V115.062H130.127ZM135.889 110.229C136.911 110.229 137.686 109.844 138.213 109.076C138.747 108.301 139.014 107.279 139.014 106.01V105.805C139.014 104.457 138.747 103.36 138.213 102.514C137.679 101.667 136.898 101.244 135.869 101.244C135.068 101.244 134.424 101.439 133.936 101.83C133.454 102.221 133.092 102.715 132.852 103.314V108.354C133.099 108.933 133.477 109.392 133.984 109.73C134.492 110.062 135.127 110.229 135.889 110.229ZM152.402 111V110.15L153.994 110.023V101.42L152.402 101.293V100.434H155.166V110.023L156.758 110.15V111H152.402ZM148.018 104.281C149.235 104.281 150.182 104.59 150.859 105.209C151.543 105.827 151.885 106.632 151.885 107.621C151.885 108.617 151.543 109.431 150.859 110.062C150.182 110.688 149.235 111 148.018 111H142.236V110.15L143.828 110.023V101.42L142.236 101.293V100.434H146.592V101.293L145 101.42V104.281H148.018ZM145 110.023H148.018C148.923 110.023 149.596 109.799 150.039 109.35C150.488 108.894 150.713 108.324 150.713 107.641C150.713 106.983 150.488 106.423 150.039 105.961C149.59 105.492 148.916 105.258 148.018 105.258H145V110.023ZM162.998 111V110.15L164.59 110.023V101.42L162.998 101.293V100.434H167.354V101.293L165.762 101.42V109.018L165.82 109.037L171.455 100.434H174.219V101.293L172.627 101.42V110.023L174.219 110.15V111H169.863V110.15L171.455 110.023V102.416L171.396 102.396L165.762 111H162.998ZM180.342 111.176C179.613 111.176 178.939 111.055 178.32 110.814C177.702 110.567 177.207 110.212 176.836 109.75C176.471 109.281 176.299 108.708 176.318 108.031L176.338 107.973H177.422C177.422 108.604 177.695 109.135 178.242 109.564C178.796 109.994 179.495 110.209 180.342 110.209C181.253 110.209 181.953 110.02 182.441 109.643C182.936 109.258 183.184 108.751 183.184 108.119C183.184 107.423 182.952 106.915 182.49 106.596C182.035 106.27 181.331 106.107 180.381 106.107H178.77V105.102H180.381C181.305 105.102 181.973 104.942 182.383 104.623C182.793 104.298 182.998 103.832 182.998 103.227C182.998 102.641 182.78 102.162 182.344 101.791C181.914 101.42 181.247 101.234 180.342 101.234C179.58 101.234 178.932 101.43 178.398 101.82C177.865 102.204 177.598 102.693 177.598 103.285H176.514L176.494 103.227C176.468 102.647 176.624 102.136 176.963 101.693C177.308 101.244 177.773 100.896 178.359 100.648C178.952 100.395 179.613 100.268 180.342 100.268C181.546 100.268 182.487 100.525 183.164 101.039C183.841 101.553 184.18 102.286 184.18 103.236C184.18 103.757 184.017 104.226 183.691 104.643C183.372 105.053 182.917 105.365 182.324 105.58C183.691 105.964 184.375 106.804 184.375 108.1C184.375 109.063 184.004 109.818 183.262 110.365C182.526 110.906 181.553 111.176 180.342 111.176ZM196.055 111.205C195.111 111.205 194.287 110.98 193.584 110.531C192.881 110.076 192.334 109.447 191.943 108.646C191.559 107.846 191.367 106.924 191.367 105.883V105.561C191.367 104.525 191.559 103.607 191.943 102.807C192.334 102.006 192.878 101.378 193.574 100.922C194.277 100.466 195.098 100.238 196.035 100.238C196.973 100.238 197.793 100.466 198.496 100.922C199.199 101.378 199.743 102.006 200.127 102.807C200.518 103.607 200.713 104.525 200.713 105.561V105.883C200.713 106.924 200.518 107.846 200.127 108.646C199.743 109.447 199.199 110.076 198.496 110.531C197.799 110.98 196.986 111.205 196.055 111.205ZM196.055 110.229C196.777 110.229 197.399 110.036 197.92 109.652C198.441 109.268 198.841 108.751 199.121 108.1C199.401 107.442 199.541 106.703 199.541 105.883V105.561C199.541 104.753 199.398 104.024 199.111 103.373C198.831 102.715 198.428 102.195 197.9 101.811C197.38 101.42 196.758 101.225 196.035 101.225C195.299 101.225 194.671 101.42 194.15 101.811C193.63 102.195 193.229 102.715 192.949 103.373C192.676 104.024 192.539 104.753 192.539 105.561V105.883C192.539 106.703 192.676 107.442 192.949 108.1C193.229 108.751 193.63 109.268 194.15 109.652C194.678 110.036 195.312 110.229 196.055 110.229ZM207.432 111.205C206.488 111.205 205.664 110.993 204.961 110.57C204.264 110.141 203.721 109.548 203.33 108.793C202.946 108.038 202.754 107.169 202.754 106.186V104.652C202.754 102.608 203.177 100.967 204.023 99.7305C204.876 98.487 206.032 97.748 207.49 97.5137C208.486 97.3574 209.186 97.1556 209.59 96.9082C209.993 96.6608 210.195 96.3027 210.195 95.834H211.104L211.123 95.8926C211.149 96.7715 210.882 97.3932 210.322 97.7578C209.762 98.1224 208.903 98.3828 207.744 98.5391C206.702 98.6693 205.837 99.112 205.146 99.8672C204.463 100.616 204.056 101.625 203.926 102.895L203.965 102.943C204.31 102.396 204.801 101.96 205.439 101.635C206.084 101.303 206.803 101.137 207.598 101.137C208.503 101.137 209.29 101.339 209.961 101.742C210.638 102.146 211.162 102.702 211.533 103.412C211.911 104.122 212.1 104.939 212.1 105.863V106.186C212.1 107.169 211.904 108.038 211.514 108.793C211.13 109.548 210.586 110.141 209.883 110.57C209.186 110.993 208.369 111.205 207.432 111.205ZM207.432 110.229C208.161 110.229 208.786 110.049 209.307 109.691C209.827 109.333 210.228 108.852 210.508 108.246C210.788 107.634 210.928 106.947 210.928 106.186V105.863C210.928 105.167 210.785 104.535 210.498 103.969C210.218 103.402 209.814 102.953 209.287 102.621C208.766 102.283 208.141 102.113 207.412 102.113C206.683 102.113 206.058 102.283 205.537 102.621C205.016 102.953 204.616 103.402 204.336 103.969C204.062 104.535 203.926 105.167 203.926 105.863V106.186C203.926 106.947 204.062 107.634 204.336 108.246C204.616 108.858 205.016 109.343 205.537 109.701C206.064 110.053 206.696 110.229 207.432 110.229ZM213.74 111L213.75 109.965L214.121 109.955C214.603 109.955 214.993 109.802 215.293 109.496C215.592 109.184 215.811 108.673 215.947 107.963C216.09 107.253 216.162 106.299 216.162 105.102V101.42L214.57 101.293V100.434H224.58V101.293L222.988 101.42V110.023L224.58 110.15V111H220.215V110.15L221.807 110.023V101.43H217.334V105.102C217.334 107.178 217.093 108.682 216.611 109.613C216.13 110.538 215.312 111 214.16 111H213.74ZM229.824 111.205C228.822 111.205 228.037 110.938 227.471 110.404C226.904 109.87 226.621 109.148 226.621 108.236C226.621 107.26 227.035 106.472 227.861 105.873C228.695 105.268 229.827 104.965 231.26 104.965H233.447V103.754C233.447 102.986 233.219 102.37 232.764 101.908C232.308 101.446 231.628 101.215 230.723 101.215C230.208 101.215 229.746 101.299 229.336 101.469C228.932 101.632 228.581 101.84 228.281 102.094L228.184 103.705H227.217V101.498C227.673 101.101 228.19 100.792 228.77 100.57C229.349 100.349 230.007 100.238 230.742 100.238C231.986 100.238 232.943 100.551 233.613 101.176C234.284 101.801 234.619 102.667 234.619 103.773V108.871C234.619 109.079 234.626 109.288 234.639 109.496C234.652 109.698 234.674 109.9 234.707 110.102L235.967 110.15V111H233.662C233.59 110.616 233.538 110.307 233.506 110.072C233.473 109.838 233.454 109.574 233.447 109.281C233.063 109.848 232.555 110.31 231.924 110.668C231.292 111.026 230.592 111.205 229.824 111.205ZM229.961 110.18C230.684 110.18 231.367 109.991 232.012 109.613C232.663 109.229 233.141 108.721 233.447 108.09V105.863H231.25C230.169 105.863 229.323 106.098 228.711 106.566C228.099 107.029 227.793 107.598 227.793 108.275C227.793 108.842 227.985 109.301 228.369 109.652C228.76 110.004 229.29 110.18 229.961 110.18ZM237.646 111V110.15L239.238 110.023V101.42L237.646 101.293V100.434H242.012V101.293L240.42 101.42V105.121H241.982L244.561 101.83C244.99 101.264 245.378 100.867 245.723 100.639C246.074 100.404 246.462 100.287 246.885 100.287C247.093 100.287 247.282 100.316 247.451 100.375C247.627 100.434 247.806 100.521 247.988 100.639L247.734 101.488C247.559 101.436 247.435 101.4 247.363 101.381C247.292 101.361 247.194 101.352 247.07 101.352C246.777 101.352 246.514 101.433 246.279 101.596C246.045 101.758 245.775 102.032 245.469 102.416L243.008 105.541L247.021 110.033L248.379 110.15V111H246.309L242.031 106.146H240.42V110.023L242.012 110.15V111H237.646ZM252.969 111.205C251.966 111.205 251.182 110.938 250.615 110.404C250.049 109.87 249.766 109.148 249.766 108.236C249.766 107.26 250.179 106.472 251.006 105.873C251.839 105.268 252.972 104.965 254.404 104.965H256.592V103.754C256.592 102.986 256.364 102.37 255.908 101.908C255.452 101.446 254.772 101.215 253.867 101.215C253.353 101.215 252.891 101.299 252.48 101.469C252.077 101.632 251.725 101.84 251.426 102.094L251.328 103.705H250.361V101.498C250.817 101.101 251.335 100.792 251.914 100.57C252.493 100.349 253.151 100.238 253.887 100.238C255.13 100.238 256.087 100.551 256.758 101.176C257.428 101.801 257.764 102.667 257.764 103.773V108.871C257.764 109.079 257.77 109.288 257.783 109.496C257.796 109.698 257.819 109.9 257.852 110.102L259.111 110.15V111H256.807C256.735 110.616 256.683 110.307 256.65 110.072C256.618 109.838 256.598 109.574 256.592 109.281C256.208 109.848 255.7 110.31 255.068 110.668C254.437 111.026 253.737 111.205 252.969 111.205ZM253.105 110.18C253.828 110.18 254.512 109.991 255.156 109.613C255.807 109.229 256.286 108.721 256.592 108.09V105.863H254.395C253.314 105.863 252.467 106.098 251.855 106.566C251.243 107.029 250.938 107.598 250.938 108.275C250.938 108.842 251.13 109.301 251.514 109.652C251.904 110.004 252.435 110.18 253.105 110.18ZM261.123 113.744L260.43 113.236C260.736 112.807 260.96 112.38 261.104 111.957C261.253 111.534 261.328 111.068 261.328 110.561V109.164H262.5V110.531C262.5 111.137 262.376 111.723 262.129 112.289C261.888 112.855 261.553 113.34 261.123 113.744ZM269.521 111V110.15L271.113 110.023V101.42L269.521 101.293V100.434H280.742V101.293L279.15 101.42V110.023L280.742 110.15V111H276.387V110.15L277.979 110.023V101.43H272.285V110.023L273.877 110.15V111H269.521ZM287.559 111.205C286.615 111.205 285.791 110.98 285.088 110.531C284.385 110.076 283.838 109.447 283.447 108.646C283.063 107.846 282.871 106.924 282.871 105.883V105.561C282.871 104.525 283.063 103.607 283.447 102.807C283.838 102.006 284.382 101.378 285.078 100.922C285.781 100.466 286.602 100.238 287.539 100.238C288.477 100.238 289.297 100.466 290 100.922C290.703 101.378 291.247 102.006 291.631 102.807C292.021 103.607 292.217 104.525 292.217 105.561V105.883C292.217 106.924 292.021 107.846 291.631 108.646C291.247 109.447 290.703 110.076 290 110.531C289.303 110.98 288.49 111.205 287.559 111.205ZM287.559 110.229C288.281 110.229 288.903 110.036 289.424 109.652C289.945 109.268 290.345 108.751 290.625 108.1C290.905 107.442 291.045 106.703 291.045 105.883V105.561C291.045 104.753 290.902 104.024 290.615 103.373C290.335 102.715 289.932 102.195 289.404 101.811C288.883 101.42 288.262 101.225 287.539 101.225C286.803 101.225 286.175 101.42 285.654 101.811C285.133 102.195 284.733 102.715 284.453 103.373C284.18 104.024 284.043 104.753 284.043 105.561V105.883C284.043 106.703 284.18 107.442 284.453 108.1C284.733 108.751 285.133 109.268 285.654 109.652C286.182 110.036 286.816 110.229 287.559 110.229ZM298.398 111.205C297.682 111.205 297.015 111.055 296.396 110.756C295.778 110.45 295.283 110.04 294.912 109.525C294.548 109.005 294.375 108.419 294.395 107.768L294.414 107.709H295.459C295.459 108.236 295.596 108.689 295.869 109.066C296.143 109.438 296.501 109.724 296.943 109.926C297.393 110.128 297.878 110.229 298.398 110.229C299.499 110.229 300.319 109.851 300.859 109.096C301.406 108.334 301.68 107.367 301.68 106.195L301.66 106.146H296.855V105.17H301.65L301.68 105.121C301.654 103.995 301.367 103.064 300.82 102.328C300.28 101.592 299.476 101.225 298.408 101.225C297.809 101.225 297.275 101.329 296.807 101.537C296.344 101.745 295.96 102.022 295.654 102.367L295.469 104.252H294.473L294.512 101.947C294.935 101.42 295.482 101.003 296.152 100.697C296.829 100.391 297.581 100.238 298.408 100.238C299.359 100.238 300.169 100.463 300.84 100.912C301.51 101.361 302.021 101.983 302.373 102.777C302.731 103.572 302.91 104.483 302.91 105.512V105.922C302.91 106.957 302.731 107.872 302.373 108.666C302.021 109.46 301.507 110.082 300.83 110.531C300.16 110.98 299.349 111.205 298.398 111.205ZM306.172 111V110.15L307.764 110.023V101.41H304.902L304.834 103.422H303.789V100.434H313.047V103.422H312.002L311.934 101.41H308.936V110.023L310.527 110.15V111H306.172ZM319.199 111.205C318.255 111.205 317.432 110.98 316.729 110.531C316.025 110.076 315.479 109.447 315.088 108.646C314.704 107.846 314.512 106.924 314.512 105.883V105.561C314.512 104.525 314.704 103.607 315.088 102.807C315.479 102.006 316.022 101.378 316.719 100.922C317.422 100.466 318.242 100.238 319.18 100.238C320.117 100.238 320.938 100.466 321.641 100.922C322.344 101.378 322.887 102.006 323.271 102.807C323.662 103.607 323.857 104.525 323.857 105.561V105.883C323.857 106.924 323.662 107.846 323.271 108.646C322.887 109.447 322.344 110.076 321.641 110.531C320.944 110.98 320.13 111.205 319.199 111.205ZM319.199 110.229C319.922 110.229 320.544 110.036 321.064 109.652C321.585 109.268 321.986 108.751 322.266 108.1C322.546 107.442 322.686 106.703 322.686 105.883V105.561C322.686 104.753 322.542 104.024 322.256 103.373C321.976 102.715 321.572 102.195 321.045 101.811C320.524 101.42 319.902 101.225 319.18 101.225C318.444 101.225 317.816 101.42 317.295 101.811C316.774 102.195 316.374 102.715 316.094 103.373C315.82 104.024 315.684 104.753 315.684 105.561V105.883C315.684 106.703 315.82 107.442 316.094 108.1C316.374 108.751 316.774 109.268 317.295 109.652C317.822 110.036 318.457 110.229 319.199 110.229ZM325.811 111V110.15L327.402 110.023V101.42L325.811 101.293V100.434H328.936L333.086 109.369L333.135 109.408L337.314 100.434H340.361V101.293L338.77 101.42V110.023L340.361 110.15V111H336.006V110.15L337.598 110.023V102.543L337.539 102.523L333.545 111H332.705L328.633 102.328L328.574 102.338V110.023L330.166 110.15V111H325.811ZM344.365 115.268C344.229 115.268 344.062 115.251 343.867 115.219C343.678 115.193 343.535 115.167 343.438 115.141L343.574 114.174C343.665 114.187 343.792 114.2 343.955 114.213C344.124 114.232 344.248 114.242 344.326 114.242C344.834 114.242 345.238 114.073 345.537 113.734C345.837 113.402 346.11 112.927 346.357 112.309L346.904 110.873L343.027 101.361L341.885 101.293V100.434H345.605V101.293L344.268 101.381L346.982 108.197L347.422 109.398H347.48L350.498 101.381L349.121 101.293V100.434H352.812V101.293L351.689 101.361L347.354 112.699C347.061 113.448 346.699 114.063 346.27 114.545C345.84 115.027 345.205 115.268 344.365 115.268ZM0.947266 143V142.15L2.53906 142.023V133.42L0.947266 133.293V132.434H12.168V133.293L10.5762 133.42V142.023L12.168 142.15V143H7.8125V142.15L9.4043 142.023V133.43H3.71094V142.023L5.30273 142.15V143H0.947266ZM13.9355 147.062V146.203L15.4883 146.076V133.42L13.8965 133.293V132.434H16.4648L16.6113 134.045C16.9629 133.472 17.4154 133.029 17.9688 132.717C18.5286 132.398 19.1862 132.238 19.9414 132.238C20.7943 132.238 21.5234 132.469 22.1289 132.932C22.7344 133.387 23.1966 134.032 23.5156 134.865C23.8411 135.699 24.0039 136.678 24.0039 137.805V138.01C24.0039 139.585 23.6458 140.845 22.9297 141.789C22.2135 142.733 21.2272 143.205 19.9707 143.205C19.222 143.205 18.5677 143.065 18.0078 142.785C17.4544 142.505 17.0052 142.115 16.6602 141.613V146.076L18.291 146.203V147.062H13.9355ZM19.6973 142.229C20.7194 142.229 21.4941 141.844 22.0215 141.076C22.5553 140.301 22.8223 139.279 22.8223 138.01V137.805C22.8223 136.457 22.5553 135.36 22.0215 134.514C21.4876 133.667 20.7064 133.244 19.6777 133.244C18.877 133.244 18.2324 133.439 17.7441 133.83C17.2624 134.221 16.901 134.715 16.6602 135.314V140.354C16.9076 140.933 17.2852 141.392 17.793 141.73C18.3008 142.062 18.9355 142.229 19.6973 142.229ZM30.8594 143.205C29.9154 143.205 29.0918 142.98 28.3887 142.531C27.6855 142.076 27.1387 141.447 26.748 140.646C26.3639 139.846 26.1719 138.924 26.1719 137.883V137.561C26.1719 136.525 26.3639 135.607 26.748 134.807C27.1387 134.006 27.6823 133.378 28.3789 132.922C29.082 132.466 29.9023 132.238 30.8398 132.238C31.7773 132.238 32.5977 132.466 33.3008 132.922C34.0039 133.378 34.5475 134.006 34.9316 134.807C35.3223 135.607 35.5176 136.525 35.5176 137.561V137.883C35.5176 138.924 35.3223 139.846 34.9316 140.646C34.5475 141.447 34.0039 142.076 33.3008 142.531C32.6042 142.98 31.7904 143.205 30.8594 143.205ZM30.8594 142.229C31.582 142.229 32.2038 142.036 32.7246 141.652C33.2454 141.268 33.6458 140.751 33.9258 140.1C34.2057 139.442 34.3457 138.703 34.3457 137.883V137.561C34.3457 136.753 34.2025 136.024 33.916 135.373C33.6361 134.715 33.2324 134.195 32.7051 133.811C32.1842 133.42 31.5625 133.225 30.8398 133.225C30.1042 133.225 29.4759 133.42 28.9551 133.811C28.4342 134.195 28.0339 134.715 27.7539 135.373C27.4805 136.024 27.3438 136.753 27.3438 137.561V137.883C27.3438 138.703 27.4805 139.442 27.7539 140.1C28.0339 140.751 28.4342 141.268 28.9551 141.652C29.4824 142.036 30.1172 142.229 30.8594 142.229ZM42.0605 143.205C41.1816 143.205 40.4036 142.984 39.7266 142.541C39.056 142.098 38.5286 141.48 38.1445 140.686C37.7669 139.891 37.5781 138.97 37.5781 137.922V137.512C37.5781 136.483 37.7637 135.572 38.1348 134.777C38.5059 133.983 39.0234 133.361 39.6875 132.912C40.3581 132.463 41.1458 132.238 42.0508 132.238C42.8711 132.238 43.6003 132.395 44.2383 132.707C44.8763 133.013 45.4102 133.41 45.8398 133.898L45.8594 136.291H44.8828L44.7266 134.318C44.401 133.973 44.0202 133.706 43.584 133.518C43.1478 133.322 42.6465 133.225 42.0801 133.225C41.416 133.225 40.8333 133.41 40.332 133.781C39.8307 134.152 39.4401 134.663 39.1602 135.314C38.8867 135.959 38.75 136.691 38.75 137.512V137.922C38.75 139.211 39.0495 140.253 39.6484 141.047C40.2474 141.835 41.0547 142.229 42.0703 142.229C42.8581 142.229 43.5156 142.023 44.043 141.613C44.5703 141.197 44.8893 140.585 45 139.777H46.0449L46.0645 139.836C45.9733 140.839 45.5794 141.652 44.8828 142.277C44.1862 142.896 43.2454 143.205 42.0605 143.205ZM50.3906 143V142.15L51.9824 142.023V133.41H49.1211L49.0527 135.422H48.0078V132.434H57.2656V135.422H56.2207L56.1523 133.41H53.1543V142.023L54.7461 142.15V143H50.3906ZM63.418 143.205C62.474 143.205 61.6504 142.98 60.9473 142.531C60.2441 142.076 59.6973 141.447 59.3066 140.646C58.9225 139.846 58.7305 138.924 58.7305 137.883V137.561C58.7305 136.525 58.9225 135.607 59.3066 134.807C59.6973 134.006 60.2409 133.378 60.9375 132.922C61.6406 132.466 62.4609 132.238 63.3984 132.238C64.3359 132.238 65.1562 132.466 65.8594 132.922C66.5625 133.378 67.1061 134.006 67.4902 134.807C67.8809 135.607 68.0762 136.525 68.0762 137.561V137.883C68.0762 138.924 67.8809 139.846 67.4902 140.646C67.1061 141.447 66.5625 142.076 65.8594 142.531C65.1628 142.98 64.349 143.205 63.418 143.205ZM63.418 142.229C64.1406 142.229 64.7624 142.036 65.2832 141.652C65.804 141.268 66.2044 140.751 66.4844 140.1C66.7643 139.442 66.9043 138.703 66.9043 137.883V137.561C66.9043 136.753 66.7611 136.024 66.4746 135.373C66.1947 134.715 65.791 134.195 65.2637 133.811C64.7428 133.42 64.1211 133.225 63.3984 133.225C62.6628 133.225 62.0345 133.42 61.5137 133.811C60.9928 134.195 60.5924 134.715 60.3125 135.373C60.0391 136.024 59.9023 136.753 59.9023 137.561V137.883C59.9023 138.703 60.0391 139.442 60.3125 140.1C60.5924 140.751 60.9928 141.268 61.5137 141.652C62.041 142.036 62.6758 142.229 63.418 142.229ZM74.9121 143V142.15L76.5039 142.023V133.42L74.9121 133.293V132.434H79.2676V133.293L77.6758 133.42V137.17H83.3594V133.42L81.7676 133.293V132.434H86.1328V133.293L84.541 133.42V142.023L86.1328 142.15V143H81.7676V142.15L83.3594 142.023V138.146H77.6758V142.023L79.2676 142.15V143H74.9121ZM91.4648 143.205C90.4622 143.205 89.6777 142.938 89.1113 142.404C88.5449 141.87 88.2617 141.148 88.2617 140.236C88.2617 139.26 88.6751 138.472 89.502 137.873C90.3353 137.268 91.4681 136.965 92.9004 136.965H95.0879V135.754C95.0879 134.986 94.86 134.37 94.4043 133.908C93.9486 133.446 93.2682 133.215 92.3633 133.215C91.849 133.215 91.3867 133.299 90.9766 133.469C90.5729 133.632 90.2214 133.84 89.9219 134.094L89.8242 135.705H88.8574V133.498C89.3132 133.101 89.8307 132.792 90.4102 132.57C90.9896 132.349 91.6471 132.238 92.3828 132.238C93.6263 132.238 94.5833 132.551 95.2539 133.176C95.9245 133.801 96.2598 134.667 96.2598 135.773V140.871C96.2598 141.079 96.2663 141.288 96.2793 141.496C96.2923 141.698 96.3151 141.9 96.3477 142.102L97.6074 142.15V143H95.3027C95.2311 142.616 95.179 142.307 95.1465 142.072C95.1139 141.838 95.0944 141.574 95.0879 141.281C94.7038 141.848 94.196 142.31 93.5645 142.668C92.9329 143.026 92.2331 143.205 91.4648 143.205ZM91.6016 142.18C92.3242 142.18 93.0078 141.991 93.6523 141.613C94.3034 141.229 94.7819 140.721 95.0879 140.09V137.863H92.8906C91.8099 137.863 90.9635 138.098 90.3516 138.566C89.7396 139.029 89.4336 139.598 89.4336 140.275C89.4336 140.842 89.6257 141.301 90.0098 141.652C90.4004 142.004 90.931 142.18 91.6016 142.18ZM103.721 143.205C102.842 143.205 102.064 142.984 101.387 142.541C100.716 142.098 100.189 141.48 99.8047 140.686C99.4271 139.891 99.2383 138.97 99.2383 137.922V137.512C99.2383 136.483 99.4238 135.572 99.7949 134.777C100.166 133.983 100.684 133.361 101.348 132.912C102.018 132.463 102.806 132.238 103.711 132.238C104.531 132.238 105.26 132.395 105.898 132.707C106.536 133.013 107.07 133.41 107.5 133.898L107.52 136.291H106.543L106.387 134.318C106.061 133.973 105.68 133.706 105.244 133.518C104.808 133.322 104.307 133.225 103.74 133.225C103.076 133.225 102.493 133.41 101.992 133.781C101.491 134.152 101.1 134.663 100.82 135.314C100.547 135.959 100.41 136.691 100.41 137.512V137.922C100.41 139.211 100.71 140.253 101.309 141.047C101.908 141.835 102.715 142.229 103.73 142.229C104.518 142.229 105.176 142.023 105.703 141.613C106.23 141.197 106.549 140.585 106.66 139.777H107.705L107.725 139.836C107.633 140.839 107.24 141.652 106.543 142.277C105.846 142.896 104.906 143.205 103.721 143.205ZM109.521 143L109.531 141.965L109.902 141.955C110.384 141.955 110.775 141.802 111.074 141.496C111.374 141.184 111.592 140.673 111.729 139.963C111.872 139.253 111.943 138.299 111.943 137.102V133.42L110.352 133.293V132.434H120.361V133.293L118.77 133.42V142.023L120.361 142.15V143H115.996V142.15L117.588 142.023V133.43H113.115V137.102C113.115 139.178 112.874 140.682 112.393 141.613C111.911 142.538 111.094 143 109.941 143H109.521ZM125.605 143.205C124.603 143.205 123.818 142.938 123.252 142.404C122.686 141.87 122.402 141.148 122.402 140.236C122.402 139.26 122.816 138.472 123.643 137.873C124.476 137.268 125.609 136.965 127.041 136.965H129.229V135.754C129.229 134.986 129.001 134.37 128.545 133.908C128.089 133.446 127.409 133.215 126.504 133.215C125.99 133.215 125.527 133.299 125.117 133.469C124.714 133.632 124.362 133.84 124.062 134.094L123.965 135.705H122.998V133.498C123.454 133.101 123.971 132.792 124.551 132.57C125.13 132.349 125.788 132.238 126.523 132.238C127.767 132.238 128.724 132.551 129.395 133.176C130.065 133.801 130.4 134.667 130.4 135.773V140.871C130.4 141.079 130.407 141.288 130.42 141.496C130.433 141.698 130.456 141.9 130.488 142.102L131.748 142.15V143H129.443C129.372 142.616 129.32 142.307 129.287 142.072C129.255 141.838 129.235 141.574 129.229 141.281C128.844 141.848 128.337 142.31 127.705 142.668C127.074 143.026 126.374 143.205 125.605 143.205ZM125.742 142.18C126.465 142.18 127.148 141.991 127.793 141.613C128.444 141.229 128.923 140.721 129.229 140.09V137.863H127.031C125.951 137.863 125.104 138.098 124.492 138.566C123.88 139.029 123.574 139.598 123.574 140.275C123.574 140.842 123.766 141.301 124.15 141.652C124.541 142.004 125.072 142.18 125.742 142.18ZM133.047 143V142.15L134.463 142.053L138.193 137.502L135.879 134.416C135.573 134.012 135.306 133.736 135.078 133.586C134.85 133.43 134.587 133.352 134.287 133.352C134.157 133.352 134.056 133.361 133.984 133.381C133.913 133.4 133.789 133.436 133.613 133.488L133.369 132.639C133.538 132.521 133.708 132.434 133.877 132.375C134.053 132.316 134.248 132.287 134.463 132.287C134.893 132.287 135.286 132.404 135.645 132.639C136.009 132.873 136.393 133.27 136.797 133.83L139.199 137.121H140.537V133.42L138.945 133.293V132.434H143.301V133.293L141.709 133.42V137.121H143.135L145.537 133.83C145.934 133.27 146.312 132.873 146.67 132.639C147.028 132.404 147.428 132.287 147.871 132.287C148.079 132.287 148.268 132.32 148.438 132.385C148.613 132.443 148.789 132.528 148.965 132.639L148.721 133.488C148.545 133.436 148.418 133.4 148.34 133.381C148.268 133.361 148.171 133.352 148.047 133.352C147.741 133.352 147.474 133.43 147.246 133.586C147.018 133.736 146.755 134.012 146.455 134.416L144.102 137.561L147.803 142.053L149.209 142.15V143H147.021L143.125 138.146H141.709V142.023L143.301 142.15V143H138.945V142.15L140.537 142.023V138.146H139.131L135.244 143H133.047ZM150.479 146.105L150.391 142.023H151.152C151.536 141.542 151.859 141.063 152.119 140.588C152.386 140.106 152.598 139.53 152.754 138.859C152.917 138.189 153.031 137.316 153.096 136.242L153.232 133.41L151.68 133.293V132.434H161.104V133.293L159.512 133.42V142.023H160.615L160.527 146.105H159.443V143H151.504V146.105H150.479ZM152.529 142.023H158.34V133.508H154.395L154.268 136.242C154.189 137.629 153.997 138.788 153.691 139.719C153.392 140.65 153.005 141.418 152.529 142.023ZM166.328 143.205C165.326 143.205 164.541 142.938 163.975 142.404C163.408 141.87 163.125 141.148 163.125 140.236C163.125 139.26 163.538 138.472 164.365 137.873C165.199 137.268 166.331 136.965 167.764 136.965H169.951V135.754C169.951 134.986 169.723 134.37 169.268 133.908C168.812 133.446 168.132 133.215 167.227 133.215C166.712 133.215 166.25 133.299 165.84 133.469C165.436 133.632 165.085 133.84 164.785 134.094L164.688 135.705H163.721V133.498C164.176 133.101 164.694 132.792 165.273 132.57C165.853 132.349 166.51 132.238 167.246 132.238C168.49 132.238 169.447 132.551 170.117 133.176C170.788 133.801 171.123 134.667 171.123 135.773V140.871C171.123 141.079 171.13 141.288 171.143 141.496C171.156 141.698 171.178 141.9 171.211 142.102L172.471 142.15V143H170.166C170.094 142.616 170.042 142.307 170.01 142.072C169.977 141.838 169.958 141.574 169.951 141.281C169.567 141.848 169.059 142.31 168.428 142.668C167.796 143.026 167.096 143.205 166.328 143.205ZM166.465 142.18C167.188 142.18 167.871 141.991 168.516 141.613C169.167 141.229 169.645 140.721 169.951 140.09V137.863H167.754C166.673 137.863 165.827 138.098 165.215 138.566C164.603 139.029 164.297 139.598 164.297 140.275C164.297 140.842 164.489 141.301 164.873 141.652C165.264 142.004 165.794 142.18 166.465 142.18ZM174.15 143V142.15L175.742 142.023V133.42L174.15 133.293V132.434H178.506V133.293L176.914 133.42V141.018L176.973 141.037L182.607 132.434H185.371V133.293L183.779 133.42V142.023L185.371 142.15V143H181.016V142.15L182.607 142.023V134.416L182.549 134.396L176.914 143H174.15ZM179.814 130.334C178.923 130.334 178.223 130.103 177.715 129.641C177.207 129.172 176.956 128.566 176.963 127.824L176.982 127.766H177.93C177.93 128.273 178.079 128.687 178.379 129.006C178.685 129.325 179.163 129.484 179.814 129.484C180.439 129.484 180.905 129.325 181.211 129.006C181.523 128.687 181.68 128.273 181.68 127.766H182.637L182.656 127.824C182.65 128.566 182.393 129.172 181.885 129.641C181.383 130.103 180.693 130.334 179.814 130.334ZM189.805 143V142.15L191.396 142.023V133.41H188.535L188.467 135.422H187.422V132.434H196.68V135.422H195.635L195.566 133.41H192.568V142.023L194.16 142.15V143H189.805ZM202.393 143.205C201.488 143.205 200.69 142.987 200 142.551C199.31 142.108 198.77 141.499 198.379 140.725C197.988 139.943 197.793 139.045 197.793 138.029V137.492C197.793 136.483 197.988 135.585 198.379 134.797C198.77 134.003 199.297 133.378 199.961 132.922C200.632 132.466 201.377 132.238 202.197 132.238C203.493 132.238 204.505 132.648 205.234 133.469C205.964 134.283 206.328 135.373 206.328 136.74V137.736H199.004L198.984 138.166C198.991 138.947 199.134 139.644 199.414 140.256C199.701 140.868 200.098 141.35 200.605 141.701C201.12 142.053 201.715 142.229 202.393 142.229C203.057 142.229 203.639 142.124 204.141 141.916C204.648 141.708 205.094 141.418 205.479 141.047L205.977 141.848C205.573 142.245 205.078 142.57 204.492 142.824C203.906 143.078 203.206 143.205 202.393 143.205ZM199.082 136.76H205.156V136.467C205.156 135.536 204.893 134.764 204.365 134.152C203.844 133.534 203.122 133.225 202.197 133.225C201.637 133.225 201.133 133.378 200.684 133.684C200.234 133.983 199.867 134.396 199.58 134.924C199.3 135.445 199.128 136.037 199.062 136.701L199.082 136.76ZM212.9 143.205C212.021 143.205 211.243 142.984 210.566 142.541C209.896 142.098 209.368 141.48 208.984 140.686C208.607 139.891 208.418 138.97 208.418 137.922V137.512C208.418 136.483 208.604 135.572 208.975 134.777C209.346 133.983 209.863 133.361 210.527 132.912C211.198 132.463 211.986 132.238 212.891 132.238C213.711 132.238 214.44 132.395 215.078 132.707C215.716 133.013 216.25 133.41 216.68 133.898L216.699 136.291H215.723L215.566 134.318C215.241 133.973 214.86 133.706 214.424 133.518C213.988 133.322 213.486 133.225 212.92 133.225C212.256 133.225 211.673 133.41 211.172 133.781C210.671 134.152 210.28 134.663 210 135.314C209.727 135.959 209.59 136.691 209.59 137.512V137.922C209.59 139.211 209.889 140.253 210.488 141.047C211.087 141.835 211.895 142.229 212.91 142.229C213.698 142.229 214.355 142.023 214.883 141.613C215.41 141.197 215.729 140.585 215.84 139.777H216.885L216.904 139.836C216.813 140.839 216.419 141.652 215.723 142.277C215.026 142.896 214.085 143.205 212.9 143.205ZM224.756 136.281C225.973 136.281 226.921 136.59 227.598 137.209C228.281 137.827 228.623 138.632 228.623 139.621C228.623 140.617 228.281 141.431 227.598 142.062C226.921 142.688 225.973 143 224.756 143H218.975V142.15L220.566 142.023V133.42L218.975 133.293V132.434H223.33V133.293L221.738 133.42V136.281H224.756ZM224.756 142.023C225.661 142.023 226.335 141.799 226.777 141.35C227.227 140.894 227.451 140.324 227.451 139.641C227.451 138.983 227.227 138.423 226.777 137.961C226.328 137.492 225.654 137.258 224.756 137.258H221.738V142.023H224.756ZM231.084 143V141.408H232.422V143H231.084Z" fill="black"/>
</svg>
