<svg width="356" height="148" viewBox="0 0 356 148" fill="none" xmlns="http://www.w3.org/2000/svg">
<path d="M0.742188 15V14.1504L2.33398 14.0234V1.76758L0.742188 1.64062V0.78125H5.09766V1.64062L3.50586 1.76758V7.46094H11.5332V1.76758L9.94141 1.64062V0.78125H14.2969V1.64062L12.7051 1.76758V14.0234L14.2969 14.1504V15H9.94141V14.1504L11.5332 14.0234V8.44727H3.50586V14.0234L5.09766 14.1504V15H0.742188ZM20.5566 15.2051C19.6517 15.2051 18.8542 14.987 18.1641 14.5508C17.474 14.1081 16.9336 13.4993 16.543 12.7246C16.1523 11.9434 15.957 11.0449 15.957 10.0293V9.49219C15.957 8.48307 16.1523 7.58464 16.543 6.79688C16.9336 6.0026 17.4609 5.3776 18.125 4.92188C18.7956 4.46615 19.541 4.23828 20.3613 4.23828C21.6569 4.23828 22.6693 4.64844 23.3984 5.46875C24.1276 6.28255 24.4922 7.37305 24.4922 8.74023V9.73633H17.168L17.1484 10.166C17.1549 10.9473 17.2982 11.6439 17.5781 12.2559C17.8646 12.8678 18.2617 13.3496 18.7695 13.7012C19.2839 14.0527 19.8796 14.2285 20.5566 14.2285C21.2207 14.2285 21.8034 14.1243 22.3047 13.916C22.8125 13.7077 23.2585 13.418 23.6426 13.0469L24.1406 13.8477C23.737 14.2448 23.2422 14.5703 22.6562 14.8242C22.0703 15.0781 21.3704 15.2051 20.5566 15.2051ZM17.2461 8.75977H23.3203V8.4668C23.3203 7.53581 23.0566 6.76432 22.5293 6.15234C22.0085 5.53385 21.2858 5.22461 20.3613 5.22461C19.8014 5.22461 19.2969 5.3776 18.8477 5.68359C18.3984 5.98307 18.0306 6.39648 17.7441 6.92383C17.4642 7.44466 17.2917 8.03711 17.2266 8.70117L17.2461 8.75977ZM31.0645 15.2051C30.1855 15.2051 29.4076 14.9837 28.7305 14.541C28.0599 14.0983 27.5326 13.4798 27.1484 12.6855C26.7708 11.8913 26.582 10.9701 26.582 9.92188V9.51172C26.582 8.48307 26.7676 7.57161 27.1387 6.77734C27.5098 5.98307 28.0273 5.36133 28.6914 4.91211C29.362 4.46289 30.1497 4.23828 31.0547 4.23828C31.875 4.23828 32.6042 4.39453 33.2422 4.70703C33.8802 5.01302 34.4141 5.41016 34.8438 5.89844L34.8633 8.29102H33.8867L33.7305 6.31836C33.4049 5.97331 33.0241 5.70638 32.5879 5.51758C32.1517 5.32227 31.6504 5.22461 31.084 5.22461C30.4199 5.22461 29.8372 5.41016 29.3359 5.78125C28.8346 6.15234 28.444 6.66341 28.1641 7.31445C27.8906 7.95898 27.7539 8.69141 27.7539 9.51172V9.92188C27.7539 11.2109 28.0534 12.2526 28.6523 13.0469C29.2513 13.8346 30.0586 14.2285 31.0742 14.2285C31.862 14.2285 32.5195 14.0234 33.0469 13.6133C33.5742 13.1966 33.8932 12.5846 34.0039 11.7773H35.0488L35.0684 11.8359C34.9772 12.8385 34.5833 13.6523 33.8867 14.2773C33.1901 14.8958 32.2493 15.2051 31.0645 15.2051ZM37.1387 15V14.1504L38.7305 14.0234V5.41992L37.1387 5.29297V4.43359H40.2637L44.4141 13.3691L44.4629 13.4082L48.6426 4.43359H51.6895V5.29297L50.0977 5.41992V14.0234L51.6895 14.1504V15H47.334V14.1504L48.9258 14.0234V6.54297L48.8672 6.52344L44.873 15H44.0332L39.9609 6.32812L39.9023 6.33789V14.0234L41.4941 14.1504V15H37.1387ZM58.3984 15.2051C57.4544 15.2051 56.6309 14.9805 55.9277 14.5312C55.2246 14.0755 54.6777 13.4473 54.2871 12.6465C53.903 11.8457 53.7109 10.9245 53.7109 9.88281V9.56055C53.7109 8.52539 53.903 7.60742 54.2871 6.80664C54.6777 6.00586 55.2214 5.3776 55.918 4.92188C56.6211 4.46615 57.4414 4.23828 58.3789 4.23828C59.3164 4.23828 60.1367 4.46615 60.8398 4.92188C61.543 5.3776 62.0866 6.00586 62.4707 6.80664C62.8613 7.60742 63.0566 8.52539 63.0566 9.56055V9.88281C63.0566 10.9245 62.8613 11.8457 62.4707 12.6465C62.0866 13.4473 61.543 14.0755 60.8398 14.5312C60.1432 14.9805 59.3294 15.2051 58.3984 15.2051ZM58.3984 14.2285C59.1211 14.2285 59.7428 14.0365 60.2637 13.6523C60.7845 13.2682 61.1849 12.7507 61.4648 12.0996C61.7448 11.4421 61.8848 10.7031 61.8848 9.88281V9.56055C61.8848 8.75326 61.7415 8.02409 61.4551 7.37305C61.1751 6.71549 60.7715 6.19466 60.2441 5.81055C59.7233 5.41992 59.1016 5.22461 58.3789 5.22461C57.6432 5.22461 57.015 5.41992 56.4941 5.81055C55.9733 6.19466 55.5729 6.71549 55.293 7.37305C55.0195 8.02409 54.8828 8.75326 54.8828 9.56055V9.88281C54.8828 10.7031 55.0195 11.4421 55.293 12.0996C55.5729 12.7507 55.9733 13.2682 56.4941 13.6523C57.0215 14.0365 57.6562 14.2285 58.3984 14.2285ZM67.0508 15V14.1504L68.6426 14.0234V5.41016H65.7812L65.7129 7.42188H64.668V4.43359H73.9258V7.42188H72.8809L72.8125 5.41016H69.8145V14.0234L71.4062 14.1504V15H67.0508ZM75.4395 19.0625V18.2031L76.9922 18.0762V5.41992L75.4004 5.29297V4.43359H77.9688L78.1152 6.04492C78.4668 5.47201 78.9193 5.0293 79.4727 4.7168C80.0326 4.39779 80.6901 4.23828 81.4453 4.23828C82.2982 4.23828 83.0273 4.4694 83.6328 4.93164C84.2383 5.38737 84.7005 6.0319 85.0195 6.86523C85.3451 7.69857 85.5078 8.67839 85.5078 9.80469V10.0098C85.5078 11.5853 85.1497 12.8451 84.4336 13.7891C83.7174 14.7331 82.7311 15.2051 81.4746 15.2051C80.7259 15.2051 80.0716 15.0651 79.5117 14.7852C78.9583 14.5052 78.5091 14.1146 78.1641 13.6133V18.0762L79.7949 18.2031V19.0625H75.4395ZM81.2012 14.2285C82.2233 14.2285 82.998 13.8444 83.5254 13.0762C84.0592 12.3014 84.3262 11.2793 84.3262 10.0098V9.80469C84.3262 8.45703 84.0592 7.36003 83.5254 6.51367C82.9915 5.66732 82.2103 5.24414 81.1816 5.24414C80.3809 5.24414 79.7363 5.43945 79.248 5.83008C78.7663 6.2207 78.4049 6.71549 78.1641 7.31445V12.3535C78.4115 12.9329 78.7891 13.3919 79.2969 13.7305C79.8047 14.0625 80.4395 14.2285 81.2012 14.2285ZM87.2363 15V14.1504L88.5059 14.0527L90.6055 10.5859C89.8698 10.4036 89.3034 10.0456 88.9062 9.51172C88.5091 8.97786 88.3105 8.33659 88.3105 7.58789C88.3105 6.6569 88.6458 5.89844 89.3164 5.3125C89.987 4.72656 90.9147 4.43359 92.0996 4.43359H97.8516V5.29297L96.2598 5.41992V14.0234L97.8516 14.1504V15H93.4961V14.1504L95.0879 14.0234V10.7422H91.8066L89.2285 15H87.2363ZM91.7871 9.75586H95.0879V5.41016H92.0996C91.2272 5.41016 90.5729 5.62174 90.1367 6.04492C89.7005 6.4681 89.4824 6.98893 89.4824 7.60742C89.4824 8.20638 89.6745 8.71419 90.0586 9.13086C90.4427 9.54753 91.0189 9.75586 91.7871 9.75586ZM104.893 15V14.1504L106.484 14.0234V5.41992L104.893 5.29297V4.43359H109.248V5.29297L107.656 5.41992V9.16992H113.34V5.41992L111.748 5.29297V4.43359H116.113V5.29297L114.521 5.41992V14.0234L116.113 14.1504V15H111.748V14.1504L113.34 14.0234V10.1465H107.656V14.0234L109.248 14.1504V15H104.893ZM121.445 15.2051C120.443 15.2051 119.658 14.9382 119.092 14.4043C118.525 13.8704 118.242 13.1478 118.242 12.2363C118.242 11.2598 118.656 10.472 119.482 9.87305C120.316 9.26758 121.449 8.96484 122.881 8.96484H125.068V7.75391C125.068 6.98568 124.84 6.37044 124.385 5.9082C123.929 5.44596 123.249 5.21484 122.344 5.21484C121.829 5.21484 121.367 5.29948 120.957 5.46875C120.553 5.63151 120.202 5.83984 119.902 6.09375L119.805 7.70508H118.838V5.49805C119.294 5.10091 119.811 4.79167 120.391 4.57031C120.97 4.34896 121.628 4.23828 122.363 4.23828C123.607 4.23828 124.564 4.55078 125.234 5.17578C125.905 5.80078 126.24 6.66667 126.24 7.77344V12.8711C126.24 13.0794 126.247 13.2878 126.26 13.4961C126.273 13.6979 126.296 13.8997 126.328 14.1016L127.588 14.1504V15H125.283C125.212 14.6159 125.16 14.3066 125.127 14.0723C125.094 13.8379 125.075 13.5742 125.068 13.2812C124.684 13.8477 124.176 14.3099 123.545 14.668C122.913 15.026 122.214 15.2051 121.445 15.2051ZM121.582 14.1797C122.305 14.1797 122.988 13.9909 123.633 13.6133C124.284 13.2292 124.762 12.7214 125.068 12.0898V9.86328H122.871C121.79 9.86328 120.944 10.0977 120.332 10.5664C119.72 11.0286 119.414 11.5983 119.414 12.2754C119.414 12.8418 119.606 13.3008 119.99 13.6523C120.381 14.0039 120.911 14.1797 121.582 14.1797ZM134.15 15V14.1504L135.742 14.0234V5.41992L134.15 5.29297V4.43359H138.516V5.29297L136.924 5.41992V9.12109H138.486L141.064 5.83008C141.494 5.26367 141.882 4.86654 142.227 4.63867C142.578 4.4043 142.965 4.28711 143.389 4.28711C143.597 4.28711 143.786 4.31641 143.955 4.375C144.131 4.43359 144.31 4.52148 144.492 4.63867L144.238 5.48828C144.062 5.4362 143.939 5.40039 143.867 5.38086C143.796 5.36133 143.698 5.35156 143.574 5.35156C143.281 5.35156 143.018 5.43294 142.783 5.5957C142.549 5.75846 142.279 6.0319 141.973 6.41602L139.512 9.54102L143.525 14.0332L144.883 14.1504V15H142.812L138.535 10.1465H136.924V14.0234L138.516 14.1504V15H134.15ZM150.449 15.2051C149.505 15.2051 148.682 14.9805 147.979 14.5312C147.275 14.0755 146.729 13.4473 146.338 12.6465C145.954 11.8457 145.762 10.9245 145.762 9.88281V9.56055C145.762 8.52539 145.954 7.60742 146.338 6.80664C146.729 6.00586 147.272 5.3776 147.969 4.92188C148.672 4.46615 149.492 4.23828 150.43 4.23828C151.367 4.23828 152.188 4.46615 152.891 4.92188C153.594 5.3776 154.137 6.00586 154.521 6.80664C154.912 7.60742 155.107 8.52539 155.107 9.56055V9.88281C155.107 10.9245 154.912 11.8457 154.521 12.6465C154.137 13.4473 153.594 14.0755 152.891 14.5312C152.194 14.9805 151.38 15.2051 150.449 15.2051ZM150.449 14.2285C151.172 14.2285 151.794 14.0365 152.314 13.6523C152.835 13.2682 153.236 12.7507 153.516 12.0996C153.796 11.4421 153.936 10.7031 153.936 9.88281V9.56055C153.936 8.75326 153.792 8.02409 153.506 7.37305C153.226 6.71549 152.822 6.19466 152.295 5.81055C151.774 5.41992 151.152 5.22461 150.43 5.22461C149.694 5.22461 149.066 5.41992 148.545 5.81055C148.024 6.19466 147.624 6.71549 147.344 7.37305C147.07 8.02409 146.934 8.75326 146.934 9.56055V9.88281C146.934 10.7031 147.07 11.4421 147.344 12.0996C147.624 12.7507 148.024 13.2682 148.545 13.6523C149.072 14.0365 149.707 14.2285 150.449 14.2285ZM157.061 15V14.1504L158.652 14.0234V5.41992L157.061 5.29297V4.43359H160.186L164.336 13.3691L164.385 13.4082L168.564 4.43359H171.611V5.29297L170.02 5.41992V14.0234L171.611 14.1504V15H167.256V14.1504L168.848 14.0234V6.54297L168.789 6.52344L164.795 15H163.955L159.883 6.32812L159.824 6.33789V14.0234L161.416 14.1504V15H157.061ZM173.682 15V14.1504L175.273 14.0234V5.41992L173.682 5.29297V4.43359H184.902V5.29297L183.311 5.41992V14.0234L184.902 14.1504V15H180.547V14.1504L182.139 14.0234V5.42969H176.445V14.0234L178.037 14.1504V15H173.682ZM190.234 15.2051C189.232 15.2051 188.447 14.9382 187.881 14.4043C187.314 13.8704 187.031 13.1478 187.031 12.2363C187.031 11.2598 187.445 10.472 188.271 9.87305C189.105 9.26758 190.238 8.96484 191.67 8.96484H193.857V7.75391C193.857 6.98568 193.63 6.37044 193.174 5.9082C192.718 5.44596 192.038 5.21484 191.133 5.21484C190.618 5.21484 190.156 5.29948 189.746 5.46875C189.342 5.63151 188.991 5.83984 188.691 6.09375L188.594 7.70508H187.627V5.49805C188.083 5.10091 188.6 4.79167 189.18 4.57031C189.759 4.34896 190.417 4.23828 191.152 4.23828C192.396 4.23828 193.353 4.55078 194.023 5.17578C194.694 5.80078 195.029 6.66667 195.029 7.77344V12.8711C195.029 13.0794 195.036 13.2878 195.049 13.4961C195.062 13.6979 195.085 13.8997 195.117 14.1016L196.377 14.1504V15H194.072C194.001 14.6159 193.949 14.3066 193.916 14.0723C193.883 13.8379 193.864 13.5742 193.857 13.2812C193.473 13.8477 192.965 14.3099 192.334 14.668C191.702 15.026 191.003 15.2051 190.234 15.2051ZM190.371 14.1797C191.094 14.1797 191.777 13.9909 192.422 13.6133C193.073 13.2292 193.551 12.7214 193.857 12.0898V9.86328H191.66C190.579 9.86328 189.733 10.0977 189.121 10.5664C188.509 11.0286 188.203 11.5983 188.203 12.2754C188.203 12.8418 188.395 13.3008 188.779 13.6523C189.17 14.0039 189.701 14.1797 190.371 14.1797ZM198.057 15V14.1504L199.648 14.0234V5.41992L198.057 5.29297V4.43359H202.422V5.29297L200.83 5.41992V9.12109H202.393L204.971 5.83008C205.4 5.26367 205.788 4.86654 206.133 4.63867C206.484 4.4043 206.872 4.28711 207.295 4.28711C207.503 4.28711 207.692 4.31641 207.861 4.375C208.037 4.43359 208.216 4.52148 208.398 4.63867L208.145 5.48828C207.969 5.4362 207.845 5.40039 207.773 5.38086C207.702 5.36133 207.604 5.35156 207.48 5.35156C207.188 5.35156 206.924 5.43294 206.689 5.5957C206.455 5.75846 206.185 6.0319 205.879 6.41602L203.418 9.54102L207.432 14.0332L208.789 14.1504V15H206.719L202.441 10.1465H200.83V14.0234L202.422 14.1504V15H198.057ZM212.48 15V14.1504L214.072 14.0234V5.41016H211.211L211.143 7.42188H210.098V4.43359H219.355V7.42188H218.311L218.242 5.41016H215.244V14.0234L216.836 14.1504V15H212.48ZM221.279 15V14.1504L222.871 14.0234V5.41992L221.279 5.29297V4.43359H225.635V5.29297L224.043 5.41992V9.16992H229.727V5.41992L228.135 5.29297V4.43359H232.5V5.29297L230.908 5.41992V14.0234L232.5 14.1504V15H228.135V14.1504L229.727 14.0234V10.1465H224.043V14.0234L225.635 14.1504V15H221.279ZM239.316 15.2051C238.372 15.2051 237.549 14.9805 236.846 14.5312C236.143 14.0755 235.596 13.4473 235.205 12.6465C234.821 11.8457 234.629 10.9245 234.629 9.88281V9.56055C234.629 8.52539 234.821 7.60742 235.205 6.80664C235.596 6.00586 236.139 5.3776 236.836 4.92188C237.539 4.46615 238.359 4.23828 239.297 4.23828C240.234 4.23828 241.055 4.46615 241.758 4.92188C242.461 5.3776 243.005 6.00586 243.389 6.80664C243.779 7.60742 243.975 8.52539 243.975 9.56055V9.88281C243.975 10.9245 243.779 11.8457 243.389 12.6465C243.005 13.4473 242.461 14.0755 241.758 14.5312C241.061 14.9805 240.247 15.2051 239.316 15.2051ZM239.316 14.2285C240.039 14.2285 240.661 14.0365 241.182 13.6523C241.702 13.2682 242.103 12.7507 242.383 12.0996C242.663 11.4421 242.803 10.7031 242.803 9.88281V9.56055C242.803 8.75326 242.66 8.02409 242.373 7.37305C242.093 6.71549 241.689 6.19466 241.162 5.81055C240.641 5.41992 240.02 5.22461 239.297 5.22461C238.561 5.22461 237.933 5.41992 237.412 5.81055C236.891 6.19466 236.491 6.71549 236.211 7.37305C235.938 8.02409 235.801 8.75326 235.801 9.56055V9.88281C235.801 10.7031 235.938 11.4421 236.211 12.0996C236.491 12.7507 236.891 13.2682 237.412 13.6523C237.939 14.0365 238.574 14.2285 239.316 14.2285ZM250.518 15.2051C249.639 15.2051 248.861 14.9837 248.184 14.541C247.513 14.0983 246.986 13.4798 246.602 12.6855C246.224 11.8913 246.035 10.9701 246.035 9.92188V9.51172C246.035 8.48307 246.221 7.57161 246.592 6.77734C246.963 5.98307 247.48 5.36133 248.145 4.91211C248.815 4.46289 249.603 4.23828 250.508 4.23828C251.328 4.23828 252.057 4.39453 252.695 4.70703C253.333 5.01302 253.867 5.41016 254.297 5.89844L254.316 8.29102H253.34L253.184 6.31836C252.858 5.97331 252.477 5.70638 252.041 5.51758C251.605 5.32227 251.104 5.22461 250.537 5.22461C249.873 5.22461 249.29 5.41016 248.789 5.78125C248.288 6.15234 247.897 6.66341 247.617 7.31445C247.344 7.95898 247.207 8.69141 247.207 9.51172V9.92188C247.207 11.2109 247.507 12.2526 248.105 13.0469C248.704 13.8346 249.512 14.2285 250.527 14.2285C251.315 14.2285 251.973 14.0234 252.5 13.6133C253.027 13.1966 253.346 12.5846 253.457 11.7773H254.502L254.521 11.8359C254.43 12.8385 254.036 13.6523 253.34 14.2773C252.643 14.8958 251.702 15.2051 250.518 15.2051ZM258.848 15V14.1504L260.439 14.0234V5.41016H257.578L257.51 7.42188H256.465V4.43359H265.723V7.42188H264.678L264.609 5.41016H261.611V14.0234L263.203 14.1504V15H258.848ZM273.428 8.28125C274.645 8.28125 275.592 8.59049 276.27 9.20898C276.953 9.82747 277.295 10.6315 277.295 11.6211C277.295 12.6172 276.953 13.431 276.27 14.0625C275.592 14.6875 274.645 15 273.428 15H267.646V14.1504L269.238 14.0234V5.41992L267.646 5.29297V4.43359H272.002V5.29297L270.41 5.41992V8.28125H273.428ZM273.428 14.0234C274.333 14.0234 275.007 13.7988 275.449 13.3496C275.898 12.8939 276.123 12.3242 276.123 11.6406C276.123 10.9831 275.898 10.4232 275.449 9.96094C275 9.49219 274.326 9.25781 273.428 9.25781H270.41V14.0234H273.428ZM0.947266 47V46.1504L2.53906 46.0234V37.4199L0.947266 37.293V36.4336H5.30273V37.293L3.71094 37.4199V45.0176L3.76953 45.0371L9.4043 36.4336H12.168V37.293L10.5762 37.4199V46.0234L12.168 46.1504V47H7.8125V46.1504L9.4043 46.0234V38.416L9.3457 38.3965L3.71094 47H0.947266ZM19.2285 47V46.1504L20.8203 46.0234V37.4199L19.2285 37.293V36.4336H30.4492V37.293L28.8574 37.4199V46.0234L30.4492 46.1504V47H26.0938V46.1504L27.6855 46.0234V37.4297H21.9922V46.0234L23.584 46.1504V47H19.2285ZM32.2168 51.0625V50.2031L33.7695 50.0762V37.4199L32.1777 37.293V36.4336H34.7461L34.8926 38.0449C35.2441 37.472 35.6966 37.0293 36.25 36.7168C36.8099 36.3978 37.4674 36.2383 38.2227 36.2383C39.0755 36.2383 39.8047 36.4694 40.4102 36.9316C41.0156 37.3874 41.4779 38.0319 41.7969 38.8652C42.1224 39.6986 42.2852 40.6784 42.2852 41.8047V42.0098C42.2852 43.5853 41.9271 44.8451 41.2109 45.7891C40.4948 46.7331 39.5085 47.2051 38.252 47.2051C37.5033 47.2051 36.849 47.0651 36.2891 46.7852C35.7357 46.5052 35.2865 46.1146 34.9414 45.6133V50.0762L36.5723 50.2031V51.0625H32.2168ZM37.9785 46.2285C39.0007 46.2285 39.7754 45.8444 40.3027 45.0762C40.8366 44.3014 41.1035 43.2793 41.1035 42.0098V41.8047C41.1035 40.457 40.8366 39.36 40.3027 38.5137C39.7689 37.6673 38.9876 37.2441 37.959 37.2441C37.1582 37.2441 36.5137 37.4395 36.0254 37.8301C35.5436 38.2207 35.1823 38.7155 34.9414 39.3145V44.3535C35.1888 44.9329 35.5664 45.3919 36.0742 45.7305C36.582 46.0625 37.2168 46.2285 37.9785 46.2285ZM49.1406 47.2051C48.1966 47.2051 47.373 46.9805 46.6699 46.5312C45.9668 46.0755 45.4199 45.4473 45.0293 44.6465C44.6452 43.8457 44.4531 42.9245 44.4531 41.8828V41.5605C44.4531 40.5254 44.6452 39.6074 45.0293 38.8066C45.4199 38.0059 45.9635 37.3776 46.6602 36.9219C47.3633 36.4661 48.1836 36.2383 49.1211 36.2383C50.0586 36.2383 50.8789 36.4661 51.582 36.9219C52.2852 37.3776 52.8288 38.0059 53.2129 38.8066C53.6035 39.6074 53.7988 40.5254 53.7988 41.5605V41.8828C53.7988 42.9245 53.6035 43.8457 53.2129 44.6465C52.8288 45.4473 52.2852 46.0755 51.582 46.5312C50.8854 46.9805 50.0716 47.2051 49.1406 47.2051ZM49.1406 46.2285C49.8633 46.2285 50.485 46.0365 51.0059 45.6523C51.5267 45.2682 51.9271 44.7507 52.207 44.0996C52.487 43.4421 52.627 42.7031 52.627 41.8828V41.5605C52.627 40.7533 52.4837 40.0241 52.1973 39.373C51.9173 38.7155 51.5137 38.1947 50.9863 37.8105C50.4655 37.4199 49.8438 37.2246 49.1211 37.2246C48.3854 37.2246 47.7572 37.4199 47.2363 37.8105C46.7155 38.1947 46.3151 38.7155 46.0352 39.373C45.7617 40.0241 45.625 40.7533 45.625 41.5605V41.8828C45.625 42.7031 45.7617 43.4421 46.0352 44.0996C46.3151 44.7507 46.7155 45.2682 47.2363 45.6523C47.7637 46.0365 48.3984 46.2285 49.1406 46.2285ZM55.752 47V46.1504L57.3438 46.0234V37.4199L55.752 37.293V36.4336H60.1074V37.293L58.5156 37.4199V45.0176L58.5742 45.0371L64.209 36.4336H66.9727V37.293L65.3809 37.4199V46.0234L66.9727 46.1504V47H62.6172V46.1504L64.209 46.0234V38.416L64.1504 38.3965L58.5156 47H55.752ZM73.0957 47.1758C72.3665 47.1758 71.6927 47.0553 71.0742 46.8145C70.4557 46.5671 69.9609 46.2122 69.5898 45.75C69.2253 45.2812 69.0527 44.7083 69.0723 44.0312L69.0918 43.9727H70.1758C70.1758 44.6042 70.4492 45.1348 70.9961 45.5645C71.5495 45.9941 72.2493 46.209 73.0957 46.209C74.0072 46.209 74.707 46.0202 75.1953 45.6426C75.6901 45.2585 75.9375 44.7507 75.9375 44.1191C75.9375 43.4225 75.7064 42.9147 75.2441 42.5957C74.7884 42.2702 74.0853 42.1074 73.1348 42.1074H71.5234V41.1016H73.1348C74.0592 41.1016 74.7266 40.9421 75.1367 40.623C75.5469 40.2975 75.752 39.832 75.752 39.2266C75.752 38.6406 75.5339 38.1621 75.0977 37.791C74.668 37.4199 74.0007 37.2344 73.0957 37.2344C72.334 37.2344 71.6862 37.4297 71.1523 37.8203C70.6185 38.2044 70.3516 38.6927 70.3516 39.2852H69.2676L69.248 39.2266C69.222 38.6471 69.3783 38.1361 69.7168 37.6934C70.0618 37.2441 70.5273 36.8958 71.1133 36.6484C71.7057 36.3945 72.3665 36.2676 73.0957 36.2676C74.3001 36.2676 75.2409 36.5247 75.918 37.0391C76.5951 37.5534 76.9336 38.2858 76.9336 39.2363C76.9336 39.7572 76.7708 40.2259 76.4453 40.6426C76.1263 41.0527 75.6706 41.3652 75.0781 41.5801C76.4453 41.9642 77.1289 42.804 77.1289 44.0996C77.1289 45.0632 76.7578 45.8184 76.0156 46.3652C75.2799 46.9056 74.3066 47.1758 73.0957 47.1758ZM79.2871 47V46.1504L80.8789 46.0234V37.4199L79.2871 37.293V36.4336H84.7559C86.0775 36.4336 87.0996 36.668 87.8223 37.1367C88.5514 37.6055 88.916 38.3086 88.916 39.2461C88.916 39.793 88.7467 40.2747 88.4082 40.6914C88.0762 41.1016 87.6074 41.3945 87.002 41.5703C87.6986 41.6875 88.2617 41.9805 88.6914 42.4492C89.1276 42.918 89.3457 43.4583 89.3457 44.0703C89.3457 45.0273 88.9941 45.7565 88.291 46.2578C87.5944 46.7526 86.6406 47 85.4297 47H79.2871ZM82.0508 41.1602H84.8633C86.7839 41.1602 87.7441 40.5319 87.7441 39.2754C87.7441 38.0319 86.748 37.4102 84.7559 37.4102H82.0508V41.1602ZM82.0508 46.0332H85.4297C86.3021 46.0332 86.9759 45.8639 87.4512 45.5254C87.9329 45.1803 88.1738 44.6888 88.1738 44.0508C88.1738 43.4648 87.9297 42.9993 87.4414 42.6543C86.9596 42.3027 86.2891 42.127 85.4297 42.127H82.0508V46.0332ZM96.1328 47.2051C95.1888 47.2051 94.3652 46.9805 93.6621 46.5312C92.959 46.0755 92.4121 45.4473 92.0215 44.6465C91.6374 43.8457 91.4453 42.9245 91.4453 41.8828V41.5605C91.4453 40.5254 91.6374 39.6074 92.0215 38.8066C92.4121 38.0059 92.9557 37.3776 93.6523 36.9219C94.3555 36.4661 95.1758 36.2383 96.1133 36.2383C97.0508 36.2383 97.8711 36.4661 98.5742 36.9219C99.2773 37.3776 99.821 38.0059 100.205 38.8066C100.596 39.6074 100.791 40.5254 100.791 41.5605V41.8828C100.791 42.9245 100.596 43.8457 100.205 44.6465C99.821 45.4473 99.2773 46.0755 98.5742 46.5312C97.8776 46.9805 97.0638 47.2051 96.1328 47.2051ZM96.1328 46.2285C96.8555 46.2285 97.4772 46.0365 97.998 45.6523C98.5189 45.2682 98.9193 44.7507 99.1992 44.0996C99.4792 43.4421 99.6191 42.7031 99.6191 41.8828V41.5605C99.6191 40.7533 99.4759 40.0241 99.1895 39.373C98.9095 38.7155 98.5059 38.1947 97.9785 37.8105C97.4577 37.4199 96.8359 37.2246 96.1133 37.2246C95.3776 37.2246 94.7493 37.4199 94.2285 37.8105C93.7077 38.1947 93.3073 38.7155 93.0273 39.373C92.7539 40.0241 92.6172 40.7533 92.6172 41.5605V41.8828C92.6172 42.7031 92.7539 43.4421 93.0273 44.0996C93.3073 44.7507 93.7077 45.2682 94.2285 45.6523C94.7559 46.0365 95.3906 46.2285 96.1328 46.2285ZM101.826 50.1055L101.738 46.0234H102.5C102.884 45.5417 103.206 45.0632 103.467 44.5879C103.734 44.1061 103.945 43.5299 104.102 42.8594C104.264 42.1888 104.378 41.3164 104.443 40.2422L104.58 37.4102L103.027 37.293V36.4336H112.451V37.293L110.859 37.4199V46.0234H111.963L111.875 50.1055H110.791V47H102.852V50.1055H101.826ZM103.877 46.0234H109.688V37.5078H105.742L105.615 40.2422C105.537 41.6289 105.345 42.7878 105.039 43.7188C104.74 44.6497 104.352 45.418 103.877 46.0234ZM114.521 47V46.1504L116.113 46.0234V37.4199L114.521 37.293V36.4336H118.877V37.293L117.285 37.4199V45.0176L117.344 45.0371L122.979 36.4336H125.742V37.293L124.15 37.4199V46.0234L125.742 46.1504V47H121.387V46.1504L122.979 46.0234V38.416L122.92 38.3965L117.285 47H114.521ZM130.176 47V46.1504L131.768 46.0234V37.4102H128.906L128.838 39.4219H127.793V36.4336H137.051V39.4219H136.006L135.938 37.4102H132.939V46.0234L134.531 46.1504V47H130.176ZM142.764 47.2051C141.859 47.2051 141.061 46.987 140.371 46.5508C139.681 46.1081 139.141 45.4993 138.75 44.7246C138.359 43.9434 138.164 43.0449 138.164 42.0293V41.4922C138.164 40.4831 138.359 39.5846 138.75 38.7969C139.141 38.0026 139.668 37.3776 140.332 36.9219C141.003 36.4661 141.748 36.2383 142.568 36.2383C143.864 36.2383 144.876 36.6484 145.605 37.4688C146.335 38.2826 146.699 39.373 146.699 40.7402V41.7363H139.375L139.355 42.166C139.362 42.9473 139.505 43.6439 139.785 44.2559C140.072 44.8678 140.469 45.3496 140.977 45.7012C141.491 46.0527 142.087 46.2285 142.764 46.2285C143.428 46.2285 144.01 46.1243 144.512 45.916C145.02 45.7077 145.465 45.418 145.85 45.0469L146.348 45.8477C145.944 46.2448 145.449 46.5703 144.863 46.8242C144.277 47.0781 143.577 47.2051 142.764 47.2051ZM139.453 40.7598H145.527V40.4668C145.527 39.5358 145.264 38.7643 144.736 38.1523C144.215 37.5339 143.493 37.2246 142.568 37.2246C142.008 37.2246 141.504 37.3776 141.055 37.6836C140.605 37.9831 140.238 38.3965 139.951 38.9238C139.671 39.4447 139.499 40.0371 139.434 40.7012L139.453 40.7598ZM148.389 47L148.398 45.9648L148.77 45.9551C149.251 45.9551 149.642 45.8021 149.941 45.4961C150.241 45.1836 150.459 44.6725 150.596 43.9629C150.739 43.2533 150.811 42.2995 150.811 41.1016V37.4199L149.219 37.293V36.4336H159.229V37.293L157.637 37.4199V46.0234L159.229 46.1504V47H154.863V46.1504L156.455 46.0234V37.4297H151.982V41.1016C151.982 43.1784 151.742 44.6823 151.26 45.6133C150.778 46.5378 149.961 47 148.809 47H148.389ZM167.1 40.2812C168.317 40.2812 169.264 40.5905 169.941 41.209C170.625 41.8275 170.967 42.6315 170.967 43.6211C170.967 44.6172 170.625 45.431 169.941 46.0625C169.264 46.6875 168.317 47 167.1 47H161.318V46.1504L162.91 46.0234V37.4199L161.318 37.293V36.4336H165.674V37.293L164.082 37.4199V40.2812H167.1ZM167.1 46.0234C168.005 46.0234 168.678 45.7988 169.121 45.3496C169.57 44.8939 169.795 44.3242 169.795 43.6406C169.795 42.9831 169.57 42.4232 169.121 41.9609C168.672 41.4922 167.998 41.2578 167.1 41.2578H164.082V46.0234H167.1ZM172.959 47V46.1504L174.551 46.0234V37.4199L172.959 37.293V36.4336H177.314V37.293L175.723 37.4199V41.1699H181.406V37.4199L179.814 37.293V36.4336H184.18V37.293L182.588 37.4199V46.0234L184.18 46.1504V47H179.814V46.1504L181.406 46.0234V42.1465H175.723V46.0234L177.314 46.1504V47H172.959ZM190.996 47.2051C190.052 47.2051 189.229 46.9805 188.525 46.5312C187.822 46.0755 187.275 45.4473 186.885 44.6465C186.501 43.8457 186.309 42.9245 186.309 41.8828V41.5605C186.309 40.5254 186.501 39.6074 186.885 38.8066C187.275 38.0059 187.819 37.3776 188.516 36.9219C189.219 36.4661 190.039 36.2383 190.977 36.2383C191.914 36.2383 192.734 36.4661 193.438 36.9219C194.141 37.3776 194.684 38.0059 195.068 38.8066C195.459 39.6074 195.654 40.5254 195.654 41.5605V41.8828C195.654 42.9245 195.459 43.8457 195.068 44.6465C194.684 45.4473 194.141 46.0755 193.438 46.5312C192.741 46.9805 191.927 47.2051 190.996 47.2051ZM190.996 46.2285C191.719 46.2285 192.34 46.0365 192.861 45.6523C193.382 45.2682 193.783 44.7507 194.062 44.0996C194.342 43.4421 194.482 42.7031 194.482 41.8828V41.5605C194.482 40.7533 194.339 40.0241 194.053 39.373C193.773 38.7155 193.369 38.1947 192.842 37.8105C192.321 37.4199 191.699 37.2246 190.977 37.2246C190.241 37.2246 189.613 37.4199 189.092 37.8105C188.571 38.1947 188.171 38.7155 187.891 39.373C187.617 40.0241 187.48 40.7533 187.48 41.5605V41.8828C187.48 42.7031 187.617 43.4421 187.891 44.0996C188.171 44.7507 188.571 45.2682 189.092 45.6523C189.619 46.0365 190.254 46.2285 190.996 46.2285ZM202.197 47.2051C201.318 47.2051 200.54 46.9837 199.863 46.541C199.193 46.0983 198.665 45.4798 198.281 44.6855C197.904 43.8913 197.715 42.9701 197.715 41.9219V41.5117C197.715 40.4831 197.9 39.5716 198.271 38.7773C198.643 37.9831 199.16 37.3613 199.824 36.9121C200.495 36.4629 201.283 36.2383 202.188 36.2383C203.008 36.2383 203.737 36.3945 204.375 36.707C205.013 37.013 205.547 37.4102 205.977 37.8984L205.996 40.291H205.02L204.863 38.3184C204.538 37.9733 204.157 37.7064 203.721 37.5176C203.285 37.3223 202.783 37.2246 202.217 37.2246C201.553 37.2246 200.97 37.4102 200.469 37.7812C199.967 38.1523 199.577 38.6634 199.297 39.3145C199.023 39.959 198.887 40.6914 198.887 41.5117V41.9219C198.887 43.2109 199.186 44.2526 199.785 45.0469C200.384 45.8346 201.191 46.2285 202.207 46.2285C202.995 46.2285 203.652 46.0234 204.18 45.6133C204.707 45.1966 205.026 44.5846 205.137 43.7773H206.182L206.201 43.8359C206.11 44.8385 205.716 45.6523 205.02 46.2773C204.323 46.8958 203.382 47.2051 202.197 47.2051ZM210.527 47V46.1504L212.119 46.0234V37.4102H209.258L209.189 39.4219H208.145V36.4336H217.402V39.4219H216.357L216.289 37.4102H213.291V46.0234L214.883 46.1504V47H210.527ZM225.107 40.2812C226.325 40.2812 227.272 40.5905 227.949 41.209C228.633 41.8275 228.975 42.6315 228.975 43.6211C228.975 44.6172 228.633 45.431 227.949 46.0625C227.272 46.6875 226.325 47 225.107 47H219.326V46.1504L220.918 46.0234V37.4199L219.326 37.293V36.4336H223.682V37.293L222.09 37.4199V40.2812H225.107ZM225.107 46.0234C226.012 46.0234 226.686 45.7988 227.129 45.3496C227.578 44.8939 227.803 44.3242 227.803 43.6406C227.803 42.9831 227.578 42.4232 227.129 41.9609C226.68 41.4922 226.006 41.2578 225.107 41.2578H222.09V46.0234H225.107ZM231.299 49.7441L230.605 49.2363C230.911 48.8066 231.136 48.3802 231.279 47.957C231.429 47.5339 231.504 47.0684 231.504 46.5605V45.1641H232.676V46.5312C232.676 47.1367 232.552 47.7227 232.305 48.2891C232.064 48.8555 231.729 49.3405 231.299 49.7441ZM239.697 47V46.1504L241.289 46.0234V37.4199L239.697 37.293V36.4336H244.053V37.293L242.461 37.4199V46.0234H247.158V36.4336H248.33V46.0234H252.988V37.4199L251.396 37.293V36.4336H255.752V37.293L254.16 37.4199V46.0234L255.752 46.1504V47H239.697ZM257.549 47L257.559 45.9648L257.93 45.9551C258.411 45.9551 258.802 45.8021 259.102 45.4961C259.401 45.1836 259.619 44.6725 259.756 43.9629C259.899 43.2533 259.971 42.2995 259.971 41.1016V37.4199L258.379 37.293V36.4336H268.389V37.293L266.797 37.4199V46.0234L268.389 46.1504V47H264.023V46.1504L265.615 46.0234V37.4297H261.143V41.1016C261.143 43.1784 260.902 44.6823 260.42 45.6133C259.938 46.5378 259.121 47 257.969 47H257.549ZM275.049 47.2051C274.144 47.2051 273.346 46.987 272.656 46.5508C271.966 46.1081 271.426 45.4993 271.035 44.7246C270.645 43.9434 270.449 43.0449 270.449 42.0293V41.4922C270.449 40.4831 270.645 39.5846 271.035 38.7969C271.426 38.0026 271.953 37.3776 272.617 36.9219C273.288 36.4661 274.033 36.2383 274.854 36.2383C276.149 36.2383 277.161 36.6484 277.891 37.4688C278.62 38.2826 278.984 39.373 278.984 40.7402V41.7363H271.66L271.641 42.166C271.647 42.9473 271.79 43.6439 272.07 44.2559C272.357 44.8678 272.754 45.3496 273.262 45.7012C273.776 46.0527 274.372 46.2285 275.049 46.2285C275.713 46.2285 276.296 46.1243 276.797 45.916C277.305 45.7077 277.751 45.418 278.135 45.0469L278.633 45.8477C278.229 46.2448 277.734 46.5703 277.148 46.8242C276.562 47.0781 275.863 47.2051 275.049 47.2051ZM271.738 40.7598H277.812V40.4668C277.812 39.5358 277.549 38.7643 277.021 38.1523C276.501 37.5339 275.778 37.2246 274.854 37.2246C274.294 37.2246 273.789 37.3776 273.34 37.6836C272.891 37.9831 272.523 38.3965 272.236 38.9238C271.956 39.4447 271.784 40.0371 271.719 40.7012L271.738 40.7598ZM280.947 47V46.1504L282.539 46.0234V37.4199L280.947 37.293V36.4336H284.072L288.223 45.3691L288.271 45.4082L292.451 36.4336H295.498V37.293L293.906 37.4199V46.0234L295.498 46.1504V47H291.143V46.1504L292.734 46.0234V38.543L292.676 38.5234L288.682 47H287.842L283.77 38.3281L283.711 38.3379V46.0234L285.303 46.1504V47H280.947ZM0.947266 79V78.1504L2.53906 78.0234V69.4199L0.947266 69.293V68.4336H4.07227L8.22266 77.3691L8.27148 77.4082L12.4512 68.4336H15.498V69.293L13.9062 69.4199V78.0234L15.498 78.1504V79H11.1426V78.1504L12.7344 78.0234V70.543L12.6758 70.5234L8.68164 79H7.8418L3.76953 70.3281L3.71094 70.3379V78.0234L5.30273 78.1504V79H0.947266ZM22.207 79.2051C21.263 79.2051 20.4395 78.9805 19.7363 78.5312C19.0332 78.0755 18.4863 77.4473 18.0957 76.6465C17.7116 75.8457 17.5195 74.9245 17.5195 73.8828V73.5605C17.5195 72.5254 17.7116 71.6074 18.0957 70.8066C18.4863 70.0059 19.0299 69.3776 19.7266 68.9219C20.4297 68.4661 21.25 68.2383 22.1875 68.2383C23.125 68.2383 23.9453 68.4661 24.6484 68.9219C25.3516 69.3776 25.8952 70.0059 26.2793 70.8066C26.6699 71.6074 26.8652 72.5254 26.8652 73.5605V73.8828C26.8652 74.9245 26.6699 75.8457 26.2793 76.6465C25.8952 77.4473 25.3516 78.0755 24.6484 78.5312C23.9518 78.9805 23.138 79.2051 22.207 79.2051ZM22.207 78.2285C22.9297 78.2285 23.5514 78.0365 24.0723 77.6523C24.5931 77.2682 24.9935 76.7507 25.2734 76.0996C25.5534 75.4421 25.6934 74.7031 25.6934 73.8828V73.5605C25.6934 72.7533 25.5501 72.0241 25.2637 71.373C24.9837 70.7155 24.5801 70.1947 24.0527 69.8105C23.5319 69.4199 22.9102 69.2246 22.1875 69.2246C21.4518 69.2246 20.8236 69.4199 20.3027 69.8105C19.7819 70.1947 19.3815 70.7155 19.1016 71.373C18.8281 72.0241 18.6914 72.7533 18.6914 73.5605V73.8828C18.6914 74.7031 18.8281 75.4421 19.1016 76.0996C19.3815 76.7507 19.7819 77.2682 20.3027 77.6523C20.8301 78.0365 21.4648 78.2285 22.207 78.2285ZM28.2227 79V78.1504L29.6387 78.0527L33.3691 73.502L31.0547 70.416C30.7487 70.0124 30.4818 69.7357 30.2539 69.5859C30.026 69.4297 29.7624 69.3516 29.4629 69.3516C29.3327 69.3516 29.2318 69.3613 29.1602 69.3809C29.0885 69.4004 28.9648 69.4362 28.7891 69.4883L28.5449 68.6387C28.7142 68.5215 28.8835 68.4336 29.0527 68.375C29.2285 68.3164 29.4238 68.2871 29.6387 68.2871C30.0684 68.2871 30.4622 68.4043 30.8203 68.6387C31.1849 68.873 31.569 69.2702 31.9727 69.8301L34.375 73.1211H35.7129V69.4199L34.1211 69.293V68.4336H38.4766V69.293L36.8848 69.4199V73.1211H38.3105L40.7129 69.8301C41.11 69.2702 41.4876 68.873 41.8457 68.6387C42.2038 68.4043 42.6042 68.2871 43.0469 68.2871C43.2552 68.2871 43.444 68.3197 43.6133 68.3848C43.7891 68.4434 43.9648 68.528 44.1406 68.6387L43.8965 69.4883C43.7207 69.4362 43.5938 69.4004 43.5156 69.3809C43.444 69.3613 43.3464 69.3516 43.2227 69.3516C42.9167 69.3516 42.6497 69.4297 42.4219 69.5859C42.194 69.7357 41.9303 70.0124 41.6309 70.416L39.2773 73.5605L42.9785 78.0527L44.3848 78.1504V79H42.1973L38.3008 74.1465H36.8848V78.0234L38.4766 78.1504V79H34.1211V78.1504L35.7129 78.0234V74.1465H34.3066L30.4199 79H28.2227ZM50.2441 79.2051C49.3392 79.2051 48.5417 78.987 47.8516 78.5508C47.1615 78.1081 46.6211 77.4993 46.2305 76.7246C45.8398 75.9434 45.6445 75.0449 45.6445 74.0293V73.4922C45.6445 72.4831 45.8398 71.5846 46.2305 70.7969C46.6211 70.0026 47.1484 69.3776 47.8125 68.9219C48.4831 68.4661 49.2285 68.2383 50.0488 68.2383C51.3444 68.2383 52.3568 68.6484 53.0859 69.4688C53.8151 70.2826 54.1797 71.373 54.1797 72.7402V73.7363H46.8555L46.8359 74.166C46.8424 74.9473 46.9857 75.6439 47.2656 76.2559C47.5521 76.8678 47.9492 77.3496 48.457 77.7012C48.9714 78.0527 49.5671 78.2285 50.2441 78.2285C50.9082 78.2285 51.4909 78.1243 51.9922 77.916C52.5 77.7077 52.946 77.418 53.3301 77.0469L53.8281 77.8477C53.4245 78.2448 52.9297 78.5703 52.3438 78.8242C51.7578 79.0781 51.0579 79.2051 50.2441 79.2051ZM46.9336 72.7598H53.0078V72.4668C53.0078 71.5358 52.7441 70.7643 52.2168 70.1523C51.696 69.5339 50.9733 69.2246 50.0488 69.2246C49.4889 69.2246 48.9844 69.3776 48.5352 69.6836C48.0859 69.9831 47.7181 70.3965 47.4316 70.9238C47.1517 71.4447 46.9792 72.0371 46.9141 72.7012L46.9336 72.7598ZM58.2812 79V78.1504L59.873 78.0234V69.4102H57.0117L56.9434 71.4219H55.8984V68.4336H65.1562V71.4219H64.1113L64.043 69.4102H61.0449V78.0234L62.6367 78.1504V79H58.2812ZM71.5527 83.0625V82.2031L73.1055 82.0762V69.4199L71.5137 69.293V68.4336H74.082L74.2285 70.0449C74.5801 69.472 75.0326 69.0293 75.5859 68.7168C76.1458 68.3978 76.8034 68.2383 77.5586 68.2383C78.4115 68.2383 79.1406 68.4694 79.7461 68.9316C80.3516 69.3874 80.8138 70.0319 81.1328 70.8652C81.4583 71.6986 81.6211 72.6784 81.6211 73.8047V74.0098C81.6211 75.5853 81.263 76.8451 80.5469 77.7891C79.8307 78.7331 78.8444 79.2051 77.5879 79.2051C76.8392 79.2051 76.1849 79.0651 75.625 78.7852C75.0716 78.5052 74.6224 78.1146 74.2773 77.6133V82.0762L75.9082 82.2031V83.0625H71.5527ZM77.3145 78.2285C78.3366 78.2285 79.1113 77.8444 79.6387 77.0762C80.1725 76.3014 80.4395 75.2793 80.4395 74.0098V73.8047C80.4395 72.457 80.1725 71.36 79.6387 70.5137C79.1048 69.6673 78.3236 69.2441 77.2949 69.2441C76.4941 69.2441 75.8496 69.4395 75.3613 69.8301C74.8796 70.2207 74.5182 70.7155 74.2773 71.3145V76.3535C74.5247 76.9329 74.9023 77.3919 75.4102 77.7305C75.918 78.0625 76.5527 78.2285 77.3145 78.2285ZM86.8164 79.2051C85.8138 79.2051 85.0293 78.9382 84.4629 78.4043C83.8965 77.8704 83.6133 77.1478 83.6133 76.2363C83.6133 75.2598 84.0267 74.472 84.8535 73.873C85.6868 73.2676 86.8197 72.9648 88.252 72.9648H90.4395V71.7539C90.4395 70.9857 90.2116 70.3704 89.7559 69.9082C89.3001 69.446 88.6198 69.2148 87.7148 69.2148C87.2005 69.2148 86.7383 69.2995 86.3281 69.4688C85.9245 69.6315 85.5729 69.8398 85.2734 70.0938L85.1758 71.7051H84.209V69.498C84.6647 69.1009 85.1823 68.7917 85.7617 68.5703C86.3411 68.349 86.9987 68.2383 87.7344 68.2383C88.9779 68.2383 89.9349 68.5508 90.6055 69.1758C91.276 69.8008 91.6113 70.6667 91.6113 71.7734V76.8711C91.6113 77.0794 91.6178 77.2878 91.6309 77.4961C91.6439 77.6979 91.6667 77.8997 91.6992 78.1016L92.959 78.1504V79H90.6543C90.5827 78.6159 90.5306 78.3066 90.498 78.0723C90.4655 77.8379 90.446 77.5742 90.4395 77.2812C90.0553 77.8477 89.5475 78.3099 88.916 78.668C88.2845 79.026 87.5846 79.2051 86.8164 79.2051ZM86.9531 78.1797C87.6758 78.1797 88.3594 77.9909 89.0039 77.6133C89.6549 77.2292 90.1335 76.7214 90.4395 76.0898V73.8633H88.2422C87.1615 73.8633 86.3151 74.0977 85.7031 74.5664C85.0911 75.0286 84.7852 75.5983 84.7852 76.2754C84.7852 76.8418 84.9772 77.3008 85.3613 77.6523C85.752 78.0039 86.2826 78.1797 86.9531 78.1797ZM99.4043 79.2051C98.4603 79.2051 97.6367 78.9935 96.9336 78.5703C96.237 78.1406 95.6934 77.5482 95.3027 76.793C94.9186 76.0378 94.7266 75.1686 94.7266 74.1855V72.6523C94.7266 70.6081 95.1497 68.9674 95.9961 67.7305C96.849 66.487 98.0046 65.748 99.4629 65.5137C100.459 65.3574 101.159 65.1556 101.562 64.9082C101.966 64.6608 102.168 64.3027 102.168 63.834H103.076L103.096 63.8926C103.122 64.7715 102.855 65.3932 102.295 65.7578C101.735 66.1224 100.876 66.3828 99.7168 66.5391C98.6751 66.6693 97.8092 67.112 97.1191 67.8672C96.4355 68.6159 96.0286 69.625 95.8984 70.8945L95.9375 70.9434C96.2826 70.3965 96.7741 69.9603 97.4121 69.6348C98.0566 69.3027 98.776 69.1367 99.5703 69.1367C100.475 69.1367 101.263 69.3385 101.934 69.7422C102.611 70.1458 103.135 70.7025 103.506 71.4121C103.883 72.1217 104.072 72.9388 104.072 73.8633V74.1855C104.072 75.1686 103.877 76.0378 103.486 76.793C103.102 77.5482 102.559 78.1406 101.855 78.5703C101.159 78.9935 100.342 79.2051 99.4043 79.2051ZM99.4043 78.2285C100.133 78.2285 100.758 78.0495 101.279 77.6914C101.8 77.3333 102.201 76.8516 102.48 76.2461C102.76 75.6341 102.9 74.9473 102.9 74.1855V73.8633C102.9 73.1667 102.757 72.5352 102.471 71.9688C102.191 71.4023 101.787 70.9531 101.26 70.6211C100.739 70.2826 100.114 70.1133 99.3848 70.1133C98.6556 70.1133 98.0306 70.2826 97.5098 70.6211C96.9889 70.9531 96.5885 71.4023 96.3086 71.9688C96.0352 72.5352 95.8984 73.1667 95.8984 73.8633V74.1855C95.8984 74.9473 96.0352 75.6341 96.3086 76.2461C96.5885 76.8581 96.9889 77.3431 97.5098 77.7012C98.0371 78.0527 98.6686 78.2285 99.4043 78.2285ZM110.625 79.2051C109.681 79.2051 108.857 78.9805 108.154 78.5312C107.451 78.0755 106.904 77.4473 106.514 76.6465C106.13 75.8457 105.938 74.9245 105.938 73.8828V73.5605C105.938 72.5254 106.13 71.6074 106.514 70.8066C106.904 70.0059 107.448 69.3776 108.145 68.9219C108.848 68.4661 109.668 68.2383 110.605 68.2383C111.543 68.2383 112.363 68.4661 113.066 68.9219C113.77 69.3776 114.313 70.0059 114.697 70.8066C115.088 71.6074 115.283 72.5254 115.283 73.5605V73.8828C115.283 74.9245 115.088 75.8457 114.697 76.6465C114.313 77.4473 113.77 78.0755 113.066 78.5312C112.37 78.9805 111.556 79.2051 110.625 79.2051ZM110.625 78.2285C111.348 78.2285 111.969 78.0365 112.49 77.6523C113.011 77.2682 113.411 76.7507 113.691 76.0996C113.971 75.4421 114.111 74.7031 114.111 73.8828V73.5605C114.111 72.7533 113.968 72.0241 113.682 71.373C113.402 70.7155 112.998 70.1947 112.471 69.8105C111.95 69.4199 111.328 69.2246 110.605 69.2246C109.87 69.2246 109.242 69.4199 108.721 69.8105C108.2 70.1947 107.799 70.7155 107.52 71.373C107.246 72.0241 107.109 72.7533 107.109 73.5605V73.8828C107.109 74.7031 107.246 75.4421 107.52 76.0996C107.799 76.7507 108.2 77.2682 108.721 77.6523C109.248 78.0365 109.883 78.2285 110.625 78.2285ZM119.277 79V78.1504L120.869 78.0234V69.4102H118.008L117.939 71.4219H116.895V68.4336H126.152V71.4219H125.107L125.039 69.4102H122.041V78.0234L123.633 78.1504V79H119.277ZM131.074 79.2051C130.072 79.2051 129.287 78.9382 128.721 78.4043C128.154 77.8704 127.871 77.1478 127.871 76.2363C127.871 75.2598 128.285 74.472 129.111 73.873C129.945 73.2676 131.077 72.9648 132.51 72.9648H134.697V71.7539C134.697 70.9857 134.469 70.3704 134.014 69.9082C133.558 69.446 132.878 69.2148 131.973 69.2148C131.458 69.2148 130.996 69.2995 130.586 69.4688C130.182 69.6315 129.831 69.8398 129.531 70.0938L129.434 71.7051H128.467V69.498C128.923 69.1009 129.44 68.7917 130.02 68.5703C130.599 68.349 131.257 68.2383 131.992 68.2383C133.236 68.2383 134.193 68.5508 134.863 69.1758C135.534 69.8008 135.869 70.6667 135.869 71.7734V76.8711C135.869 77.0794 135.876 77.2878 135.889 77.4961C135.902 77.6979 135.924 77.8997 135.957 78.1016L137.217 78.1504V79H134.912C134.84 78.6159 134.788 78.3066 134.756 78.0723C134.723 77.8379 134.704 77.5742 134.697 77.2812C134.313 77.8477 133.805 78.3099 133.174 78.668C132.542 79.026 131.842 79.2051 131.074 79.2051ZM131.211 78.1797C131.934 78.1797 132.617 77.9909 133.262 77.6133C133.913 77.2292 134.391 76.7214 134.697 76.0898V73.8633H132.5C131.419 73.8633 130.573 74.0977 129.961 74.5664C129.349 75.0286 129.043 75.5983 129.043 76.2754C129.043 76.8418 129.235 77.3008 129.619 77.6523C130.01 78.0039 130.54 78.1797 131.211 78.1797ZM140.996 79V78.1504L142.588 78.0234V69.4102H139.727L139.658 71.4219H138.613V68.4336H147.871V71.4219H146.826L146.758 69.4102H143.76V78.0234L145.352 78.1504V79H140.996ZM155.576 72.2812C156.794 72.2812 157.741 72.5905 158.418 73.209C159.102 73.8275 159.443 74.6315 159.443 75.6211C159.443 76.6172 159.102 77.431 158.418 78.0625C157.741 78.6875 156.794 79 155.576 79H149.795V78.1504L151.387 78.0234V69.4199L149.795 69.293V68.4336H154.15V69.293L152.559 69.4199V72.2812H155.576ZM155.576 78.0234C156.481 78.0234 157.155 77.7988 157.598 77.3496C158.047 76.8939 158.271 76.3242 158.271 75.6406C158.271 74.9831 158.047 74.4232 157.598 73.9609C157.148 73.4922 156.475 73.2578 155.576 73.2578H152.559V78.0234H155.576ZM166.104 82.1055L166.016 78.0234H166.777C167.161 77.5417 167.484 77.0632 167.744 76.5879C168.011 76.1061 168.223 75.5299 168.379 74.8594C168.542 74.1888 168.656 73.3164 168.721 72.2422L168.857 69.4102L167.305 69.293V68.4336H176.729V69.293L175.137 69.4199V78.0234H176.24L176.152 82.1055H175.068V79H167.129V82.1055H166.104ZM168.154 78.0234H173.965V69.5078H170.02L169.893 72.2422C169.814 73.6289 169.622 74.7878 169.316 75.7188C169.017 76.6497 168.63 77.418 168.154 78.0234ZM183.438 79.2051C182.493 79.2051 181.67 78.9805 180.967 78.5312C180.264 78.0755 179.717 77.4473 179.326 76.6465C178.942 75.8457 178.75 74.9245 178.75 73.8828V73.5605C178.75 72.5254 178.942 71.6074 179.326 70.8066C179.717 70.0059 180.26 69.3776 180.957 68.9219C181.66 68.4661 182.48 68.2383 183.418 68.2383C184.355 68.2383 185.176 68.4661 185.879 68.9219C186.582 69.3776 187.126 70.0059 187.51 70.8066C187.9 71.6074 188.096 72.5254 188.096 73.5605V73.8828C188.096 74.9245 187.9 75.8457 187.51 76.6465C187.126 77.4473 186.582 78.0755 185.879 78.5312C185.182 78.9805 184.368 79.2051 183.438 79.2051ZM183.438 78.2285C184.16 78.2285 184.782 78.0365 185.303 77.6523C185.824 77.2682 186.224 76.7507 186.504 76.0996C186.784 75.4421 186.924 74.7031 186.924 73.8828V73.5605C186.924 72.7533 186.781 72.0241 186.494 71.373C186.214 70.7155 185.811 70.1947 185.283 69.8105C184.762 69.4199 184.141 69.2246 183.418 69.2246C182.682 69.2246 182.054 69.4199 181.533 69.8105C181.012 70.1947 180.612 70.7155 180.332 71.373C180.059 72.0241 179.922 72.7533 179.922 73.5605V73.8828C179.922 74.7031 180.059 75.4421 180.332 76.0996C180.612 76.7507 181.012 77.2682 181.533 77.6523C182.061 78.0365 182.695 78.2285 183.438 78.2285ZM195.098 79V78.1504L197.656 78.0234V65.9922L194.844 66.4121V65.5918L198.828 64.7422V78.0234L201.377 78.1504V79H195.098ZM207.725 79.2051C206.338 79.2051 205.251 78.7103 204.463 77.7207C203.682 76.7246 203.291 75.3118 203.291 73.4824V70.3086C203.291 68.4727 203.678 67.0599 204.453 66.0703C205.234 65.0742 206.318 64.5762 207.705 64.5762C209.092 64.5762 210.176 65.0742 210.957 66.0703C211.738 67.0599 212.129 68.4727 212.129 70.3086V73.4824C212.129 75.3184 211.742 76.7311 210.967 77.7207C210.192 78.7103 209.111 79.2051 207.725 79.2051ZM207.725 78.2285C208.779 78.2285 209.58 77.8314 210.127 77.0371C210.68 76.2363 210.957 75.1068 210.957 73.6484V70.1133C210.957 68.6549 210.68 67.5319 210.127 66.7441C209.574 65.9564 208.766 65.5625 207.705 65.5625C206.65 65.5625 205.846 65.9564 205.293 66.7441C204.74 67.5319 204.463 68.6549 204.463 70.1133V73.6484C204.463 75.1003 204.743 76.2266 205.303 77.0273C205.863 77.8281 206.67 78.2285 207.725 78.2285ZM225.732 79V78.1504L227.324 78.0234V74.5176C226.921 74.6738 226.468 74.804 225.967 74.9082C225.472 75.0124 225.003 75.0645 224.561 75.0645C223.2 75.0645 222.188 74.7617 221.523 74.1562C220.859 73.5508 220.527 72.5286 220.527 71.0898V69.4102L218.936 69.2832V68.4336H223.291V69.2832L221.699 69.4102V71.0898C221.699 72.2031 221.921 72.9811 222.363 73.4238C222.812 73.86 223.545 74.0781 224.561 74.0781C225.036 74.0716 225.521 74.0163 226.016 73.9121C226.517 73.8079 226.953 73.6842 227.324 73.541V69.4199L225.732 69.293V68.4336H230.088V69.293L228.496 69.4199V78.0234L230.088 78.1504V79H225.732ZM235.449 79.2051C234.447 79.2051 233.662 78.9382 233.096 78.4043C232.529 77.8704 232.246 77.1478 232.246 76.2363C232.246 75.2598 232.66 74.472 233.486 73.873C234.32 73.2676 235.452 72.9648 236.885 72.9648H239.072V71.7539C239.072 70.9857 238.844 70.3704 238.389 69.9082C237.933 69.446 237.253 69.2148 236.348 69.2148C235.833 69.2148 235.371 69.2995 234.961 69.4688C234.557 69.6315 234.206 69.8398 233.906 70.0938L233.809 71.7051H232.842V69.498C233.298 69.1009 233.815 68.7917 234.395 68.5703C234.974 68.349 235.632 68.2383 236.367 68.2383C237.611 68.2383 238.568 68.5508 239.238 69.1758C239.909 69.8008 240.244 70.6667 240.244 71.7734V76.8711C240.244 77.0794 240.251 77.2878 240.264 77.4961C240.277 77.6979 240.299 77.8997 240.332 78.1016L241.592 78.1504V79H239.287C239.215 78.6159 239.163 78.3066 239.131 78.0723C239.098 77.8379 239.079 77.5742 239.072 77.2812C238.688 77.8477 238.18 78.3099 237.549 78.668C236.917 79.026 236.217 79.2051 235.449 79.2051ZM235.586 78.1797C236.309 78.1797 236.992 77.9909 237.637 77.6133C238.288 77.2292 238.766 76.7214 239.072 76.0898V73.8633H236.875C235.794 73.8633 234.948 74.0977 234.336 74.5664C233.724 75.0286 233.418 75.5983 233.418 76.2754C233.418 76.8418 233.61 77.3008 233.994 77.6523C234.385 78.0039 234.915 78.1797 235.586 78.1797ZM247.705 79.2051C246.826 79.2051 246.048 78.9837 245.371 78.541C244.701 78.0983 244.173 77.4798 243.789 76.6855C243.411 75.8913 243.223 74.9701 243.223 73.9219V73.5117C243.223 72.4831 243.408 71.5716 243.779 70.7773C244.15 69.9831 244.668 69.3613 245.332 68.9121C246.003 68.4629 246.79 68.2383 247.695 68.2383C248.516 68.2383 249.245 68.3945 249.883 68.707C250.521 69.013 251.055 69.4102 251.484 69.8984L251.504 72.291H250.527L250.371 70.3184C250.046 69.9733 249.665 69.7064 249.229 69.5176C248.792 69.3223 248.291 69.2246 247.725 69.2246C247.061 69.2246 246.478 69.4102 245.977 69.7812C245.475 70.1523 245.085 70.6634 244.805 71.3145C244.531 71.959 244.395 72.6914 244.395 73.5117V73.9219C244.395 75.2109 244.694 76.2526 245.293 77.0469C245.892 77.8346 246.699 78.2285 247.715 78.2285C248.503 78.2285 249.16 78.0234 249.688 77.6133C250.215 77.1966 250.534 76.5846 250.645 75.7773H251.689L251.709 75.8359C251.618 76.8385 251.224 77.6523 250.527 78.2773C249.831 78.8958 248.89 79.2051 247.705 79.2051ZM258.535 79.2051C257.591 79.2051 256.768 78.9805 256.064 78.5312C255.361 78.0755 254.814 77.4473 254.424 76.6465C254.04 75.8457 253.848 74.9245 253.848 73.8828V73.5605C253.848 72.5254 254.04 71.6074 254.424 70.8066C254.814 70.0059 255.358 69.3776 256.055 68.9219C256.758 68.4661 257.578 68.2383 258.516 68.2383C259.453 68.2383 260.273 68.4661 260.977 68.9219C261.68 69.3776 262.223 70.0059 262.607 70.8066C262.998 71.6074 263.193 72.5254 263.193 73.5605V73.8828C263.193 74.9245 262.998 75.8457 262.607 76.6465C262.223 77.4473 261.68 78.0755 260.977 78.5312C260.28 78.9805 259.466 79.2051 258.535 79.2051ZM258.535 78.2285C259.258 78.2285 259.88 78.0365 260.4 77.6523C260.921 77.2682 261.322 76.7507 261.602 76.0996C261.882 75.4421 262.021 74.7031 262.021 73.8828V73.5605C262.021 72.7533 261.878 72.0241 261.592 71.373C261.312 70.7155 260.908 70.1947 260.381 69.8105C259.86 69.4199 259.238 69.2246 258.516 69.2246C257.78 69.2246 257.152 69.4199 256.631 69.8105C256.11 70.1947 255.71 70.7155 255.43 71.373C255.156 72.0241 255.02 72.7533 255.02 73.5605V73.8828C255.02 74.7031 255.156 75.4421 255.43 76.0996C255.71 76.7507 256.11 77.2682 256.631 77.6523C257.158 78.0365 257.793 78.2285 258.535 78.2285ZM265.146 79V78.1504L266.738 78.0234V69.4199L265.146 69.293V68.4336H270.615C271.937 68.4336 272.959 68.668 273.682 69.1367C274.411 69.6055 274.775 70.3086 274.775 71.2461C274.775 71.793 274.606 72.2747 274.268 72.6914C273.936 73.1016 273.467 73.3945 272.861 73.5703C273.558 73.6875 274.121 73.9805 274.551 74.4492C274.987 74.918 275.205 75.4583 275.205 76.0703C275.205 77.0273 274.854 77.7565 274.15 78.2578C273.454 78.7526 272.5 79 271.289 79H265.146ZM267.91 73.1602H270.723C272.643 73.1602 273.604 72.5319 273.604 71.2754C273.604 70.0319 272.607 69.4102 270.615 69.4102H267.91V73.1602ZM267.91 78.0332H271.289C272.161 78.0332 272.835 77.8639 273.311 77.5254C273.792 77.1803 274.033 76.6888 274.033 76.0508C274.033 75.4648 273.789 74.9993 273.301 74.6543C272.819 74.3027 272.148 74.127 271.289 74.127H267.91V78.0332ZM282.9 72.291V71.3047H295.947V72.291H282.9ZM302.979 82.1055L302.891 78.0234H303.652C304.036 77.5417 304.359 77.0632 304.619 76.5879C304.886 76.1061 305.098 75.5299 305.254 74.8594C305.417 74.1888 305.531 73.3164 305.596 72.2422L305.732 69.4102L304.18 69.293V68.4336H313.604V69.293L312.012 69.4199V78.0234H313.115L313.027 82.1055H311.943V79H304.004V82.1055H302.979ZM305.029 78.0234H310.84V69.5078H306.895L306.768 72.2422C306.689 73.6289 306.497 74.7878 306.191 75.7188C305.892 76.6497 305.505 77.418 305.029 78.0234ZM318.828 79.2051C317.826 79.2051 317.041 78.9382 316.475 78.4043C315.908 77.8704 315.625 77.1478 315.625 76.2363C315.625 75.2598 316.038 74.472 316.865 73.873C317.699 73.2676 318.831 72.9648 320.264 72.9648H322.451V71.7539C322.451 70.9857 322.223 70.3704 321.768 69.9082C321.312 69.446 320.632 69.2148 319.727 69.2148C319.212 69.2148 318.75 69.2995 318.34 69.4688C317.936 69.6315 317.585 69.8398 317.285 70.0938L317.188 71.7051H316.221V69.498C316.676 69.1009 317.194 68.7917 317.773 68.5703C318.353 68.349 319.01 68.2383 319.746 68.2383C320.99 68.2383 321.947 68.5508 322.617 69.1758C323.288 69.8008 323.623 70.6667 323.623 71.7734V76.8711C323.623 77.0794 323.63 77.2878 323.643 77.4961C323.656 77.6979 323.678 77.8997 323.711 78.1016L324.971 78.1504V79H322.666C322.594 78.6159 322.542 78.3066 322.51 78.0723C322.477 77.8379 322.458 77.5742 322.451 77.2812C322.067 77.8477 321.559 78.3099 320.928 78.668C320.296 79.026 319.596 79.2051 318.828 79.2051ZM318.965 78.1797C319.688 78.1797 320.371 77.9909 321.016 77.6133C321.667 77.2292 322.145 76.7214 322.451 76.0898V73.8633H320.254C319.173 73.8633 318.327 74.0977 317.715 74.5664C317.103 75.0286 316.797 75.5983 316.797 76.2754C316.797 76.8418 316.989 77.3008 317.373 77.6523C317.764 78.0039 318.294 78.1797 318.965 78.1797ZM326.27 79V78.1504L327.686 78.0527L331.416 73.502L329.102 70.416C328.796 70.0124 328.529 69.7357 328.301 69.5859C328.073 69.4297 327.809 69.3516 327.51 69.3516C327.38 69.3516 327.279 69.3613 327.207 69.3809C327.135 69.4004 327.012 69.4362 326.836 69.4883L326.592 68.6387C326.761 68.5215 326.93 68.4336 327.1 68.375C327.275 68.3164 327.471 68.2871 327.686 68.2871C328.115 68.2871 328.509 68.4043 328.867 68.6387C329.232 68.873 329.616 69.2702 330.02 69.8301L332.422 73.1211H333.76V69.4199L332.168 69.293V68.4336H336.523V69.293L334.932 69.4199V73.1211H336.357L338.76 69.8301C339.157 69.2702 339.535 68.873 339.893 68.6387C340.251 68.4043 340.651 68.2871 341.094 68.2871C341.302 68.2871 341.491 68.3197 341.66 68.3848C341.836 68.4434 342.012 68.528 342.188 68.6387L341.943 69.4883C341.768 69.4362 341.641 69.4004 341.562 69.3809C341.491 69.3613 341.393 69.3516 341.27 69.3516C340.964 69.3516 340.697 69.4297 340.469 69.5859C340.241 69.7357 339.977 70.0124 339.678 70.416L337.324 73.5605L341.025 78.0527L342.432 78.1504V79H340.244L336.348 74.1465H334.932V78.0234L336.523 78.1504V79H332.168V78.1504L333.76 78.0234V74.1465H332.354L328.467 79H326.27ZM348.291 79.2051C347.386 79.2051 346.589 78.987 345.898 78.5508C345.208 78.1081 344.668 77.4993 344.277 76.7246C343.887 75.9434 343.691 75.0449 343.691 74.0293V73.4922C343.691 72.4831 343.887 71.5846 344.277 70.7969C344.668 70.0026 345.195 69.3776 345.859 68.9219C346.53 68.4661 347.275 68.2383 348.096 68.2383C349.391 68.2383 350.404 68.6484 351.133 69.4688C351.862 70.2826 352.227 71.373 352.227 72.7402V73.7363H344.902L344.883 74.166C344.889 74.9473 345.033 75.6439 345.312 76.2559C345.599 76.8678 345.996 77.3496 346.504 77.7012C347.018 78.0527 347.614 78.2285 348.291 78.2285C348.955 78.2285 349.538 78.1243 350.039 77.916C350.547 77.7077 350.993 77.418 351.377 77.0469L351.875 77.8477C351.471 78.2448 350.977 78.5703 350.391 78.8242C349.805 79.0781 349.105 79.2051 348.291 79.2051ZM344.98 72.7598H351.055V72.4668C351.055 71.5358 350.791 70.7643 350.264 70.1523C349.743 69.5339 349.02 69.2246 348.096 69.2246C347.536 69.2246 347.031 69.3776 346.582 69.6836C346.133 69.9831 345.765 70.3965 345.479 70.9238C345.199 71.4447 345.026 72.0371 344.961 72.7012L344.98 72.7598ZM354.521 81.7441L353.828 81.2363C354.134 80.8066 354.359 80.3802 354.502 79.957C354.652 79.5339 354.727 79.0684 354.727 78.5605V77.1641H355.898V78.5312C355.898 79.1367 355.775 79.7227 355.527 80.2891C355.286 80.8555 354.951 81.3405 354.521 81.7441ZM5.51758 111.205C4.61263 111.205 3.8151 110.987 3.125 110.551C2.4349 110.108 1.89453 109.499 1.50391 108.725C1.11328 107.943 0.917969 107.045 0.917969 106.029V105.492C0.917969 104.483 1.11328 103.585 1.50391 102.797C1.89453 102.003 2.42188 101.378 3.08594 100.922C3.75651 100.466 4.50195 100.238 5.32227 100.238C6.61784 100.238 7.63021 100.648 8.35938 101.469C9.08854 102.283 9.45312 103.373 9.45312 104.74V105.736H2.12891L2.10938 106.166C2.11589 106.947 2.25911 107.644 2.53906 108.256C2.82552 108.868 3.22266 109.35 3.73047 109.701C4.24479 110.053 4.84049 110.229 5.51758 110.229C6.18164 110.229 6.76432 110.124 7.26562 109.916C7.77344 109.708 8.2194 109.418 8.60352 109.047L9.10156 109.848C8.69792 110.245 8.20312 110.57 7.61719 110.824C7.03125 111.078 6.33138 111.205 5.51758 111.205ZM2.20703 104.76H8.28125V104.467C8.28125 103.536 8.01758 102.764 7.49023 102.152C6.9694 101.534 6.24674 101.225 5.32227 101.225C4.76237 101.225 4.25781 101.378 3.80859 101.684C3.35938 101.983 2.99154 102.396 2.70508 102.924C2.42513 103.445 2.2526 104.037 2.1875 104.701L2.20703 104.76ZM16.0254 111.205C15.1465 111.205 14.3685 110.984 13.6914 110.541C13.0208 110.098 12.4935 109.48 12.1094 108.686C11.7318 107.891 11.543 106.97 11.543 105.922V105.512C11.543 104.483 11.7285 103.572 12.0996 102.777C12.4707 101.983 12.9883 101.361 13.6523 100.912C14.3229 100.463 15.1107 100.238 16.0156 100.238C16.8359 100.238 17.5651 100.395 18.2031 100.707C18.8411 101.013 19.375 101.41 19.8047 101.898L19.8242 104.291H18.8477L18.6914 102.318C18.3659 101.973 17.985 101.706 17.5488 101.518C17.1126 101.322 16.6113 101.225 16.0449 101.225C15.3809 101.225 14.7982 101.41 14.2969 101.781C13.7956 102.152 13.4049 102.663 13.125 103.314C12.8516 103.959 12.7148 104.691 12.7148 105.512V105.922C12.7148 107.211 13.0143 108.253 13.6133 109.047C14.2122 109.835 15.0195 110.229 16.0352 110.229C16.8229 110.229 17.4805 110.023 18.0078 109.613C18.5352 109.197 18.8542 108.585 18.9648 107.777H20.0098L20.0293 107.836C19.9382 108.839 19.5443 109.652 18.8477 110.277C18.151 110.896 17.2103 111.205 16.0254 111.205ZM21.8262 111L21.8359 109.965L22.207 109.955C22.6888 109.955 23.0794 109.802 23.3789 109.496C23.6784 109.184 23.8965 108.673 24.0332 107.963C24.1764 107.253 24.248 106.299 24.248 105.102V101.42L22.6562 101.293V100.434H32.666V101.293L31.0742 101.42V110.023L32.666 110.15V111H28.3008V110.15L29.8926 110.023V101.43H25.4199V105.102C25.4199 107.178 25.179 108.682 24.6973 109.613C24.2155 110.538 23.3984 111 22.2461 111H21.8262ZM34.7559 111V110.15L36.3477 110.023V101.42L34.7559 101.293V100.434H39.1113V101.293L37.5195 101.42V109.018L37.5781 109.037L43.2129 100.434H45.9766V101.293L44.3848 101.42V110.023L45.9766 110.15V111H41.6211V110.15L43.2129 110.023V102.416L43.1543 102.396L37.5195 111H34.7559ZM53.0371 111V110.15L54.6289 110.023V101.42L53.0371 101.293V100.434H58.5059C59.8275 100.434 60.8496 100.668 61.5723 101.137C62.3014 101.605 62.666 102.309 62.666 103.246C62.666 103.793 62.4967 104.275 62.1582 104.691C61.8262 105.102 61.3574 105.395 60.752 105.57C61.4486 105.688 62.0117 105.98 62.4414 106.449C62.8776 106.918 63.0957 107.458 63.0957 108.07C63.0957 109.027 62.7441 109.757 62.041 110.258C61.3444 110.753 60.3906 111 59.1797 111H53.0371ZM55.8008 105.16H58.6133C60.5339 105.16 61.4941 104.532 61.4941 103.275C61.4941 102.032 60.498 101.41 58.5059 101.41H55.8008V105.16ZM55.8008 110.033H59.1797C60.0521 110.033 60.7259 109.864 61.2012 109.525C61.6829 109.18 61.9238 108.689 61.9238 108.051C61.9238 107.465 61.6797 106.999 61.1914 106.654C60.7096 106.303 60.0391 106.127 59.1797 106.127H55.8008V110.033ZM75.4102 111V110.15L77.002 110.023V101.42L75.4102 101.293V100.434H78.1738V110.023L79.7656 110.15V111H75.4102ZM71.0254 104.281C72.2428 104.281 73.1901 104.59 73.8672 105.209C74.5508 105.827 74.8926 106.632 74.8926 107.621C74.8926 108.617 74.5508 109.431 73.8672 110.062C73.1901 110.688 72.2428 111 71.0254 111H65.2441V110.15L66.8359 110.023V101.42L65.2441 101.293V100.434H69.5996V101.293L68.0078 101.42V104.281H71.0254ZM68.0078 110.023H71.0254C71.9303 110.023 72.6042 109.799 73.0469 109.35C73.4961 108.894 73.7207 108.324 73.7207 107.641C73.7207 106.983 73.4961 106.423 73.0469 105.961C72.5977 105.492 71.9238 105.258 71.0254 105.258H68.0078V110.023ZM86.0059 111V110.15L87.5977 110.023V101.42L86.0059 101.293V100.434H90.3613V101.293L88.7695 101.42V109.018L88.8281 109.037L94.4629 100.434H97.2266V101.293L95.6348 101.42V110.023L97.2266 110.15V111H92.8711V110.15L94.4629 110.023V102.416L94.4043 102.396L88.7695 111H86.0059ZM99.1602 111V110.15L100.752 110.023V101.42L99.1602 101.293V100.434H107.412V102.699H106.553L106.494 101.43H101.924V110.023L103.516 110.15V111H99.1602ZM109.268 115.062V114.203L110.82 114.076V101.42L109.229 101.293V100.434H111.797L111.943 102.045C112.295 101.472 112.747 101.029 113.301 100.717C113.861 100.398 114.518 100.238 115.273 100.238C116.126 100.238 116.855 100.469 117.461 100.932C118.066 101.387 118.529 102.032 118.848 102.865C119.173 103.699 119.336 104.678 119.336 105.805V106.01C119.336 107.585 118.978 108.845 118.262 109.789C117.546 110.733 116.559 111.205 115.303 111.205C114.554 111.205 113.9 111.065 113.34 110.785C112.786 110.505 112.337 110.115 111.992 109.613V114.076L113.623 114.203V115.062H109.268ZM115.029 110.229C116.051 110.229 116.826 109.844 117.354 109.076C117.887 108.301 118.154 107.279 118.154 106.01V105.805C118.154 104.457 117.887 103.36 117.354 102.514C116.82 101.667 116.038 101.244 115.01 101.244C114.209 101.244 113.564 101.439 113.076 101.83C112.594 102.221 112.233 102.715 111.992 103.314V108.354C112.24 108.933 112.617 109.392 113.125 109.73C113.633 110.062 114.268 110.229 115.029 110.229ZM124.531 111.205C123.529 111.205 122.744 110.938 122.178 110.404C121.611 109.87 121.328 109.148 121.328 108.236C121.328 107.26 121.742 106.472 122.568 105.873C123.402 105.268 124.535 104.965 125.967 104.965H128.154V103.754C128.154 102.986 127.926 102.37 127.471 101.908C127.015 101.446 126.335 101.215 125.43 101.215C124.915 101.215 124.453 101.299 124.043 101.469C123.639 101.632 123.288 101.84 122.988 102.094L122.891 103.705H121.924V101.498C122.38 101.101 122.897 100.792 123.477 100.57C124.056 100.349 124.714 100.238 125.449 100.238C126.693 100.238 127.65 100.551 128.32 101.176C128.991 101.801 129.326 102.667 129.326 103.773V108.871C129.326 109.079 129.333 109.288 129.346 109.496C129.359 109.698 129.382 109.9 129.414 110.102L130.674 110.15V111H128.369C128.298 110.616 128.245 110.307 128.213 110.072C128.18 109.838 128.161 109.574 128.154 109.281C127.77 109.848 127.262 110.31 126.631 110.668C125.999 111.026 125.299 111.205 124.531 111.205ZM124.668 110.18C125.391 110.18 126.074 109.991 126.719 109.613C127.37 109.229 127.848 108.721 128.154 108.09V105.863H125.957C124.876 105.863 124.03 106.098 123.418 106.566C122.806 107.029 122.5 107.598 122.5 108.275C122.5 108.842 122.692 109.301 123.076 109.652C123.467 110.004 123.997 110.18 124.668 110.18ZM136.924 111.205C136.019 111.205 135.221 110.987 134.531 110.551C133.841 110.108 133.301 109.499 132.91 108.725C132.52 107.943 132.324 107.045 132.324 106.029V105.492C132.324 104.483 132.52 103.585 132.91 102.797C133.301 102.003 133.828 101.378 134.492 100.922C135.163 100.466 135.908 100.238 136.729 100.238C138.024 100.238 139.036 100.648 139.766 101.469C140.495 102.283 140.859 103.373 140.859 104.74V105.736H133.535L133.516 106.166C133.522 106.947 133.665 107.644 133.945 108.256C134.232 108.868 134.629 109.35 135.137 109.701C135.651 110.053 136.247 110.229 136.924 110.229C137.588 110.229 138.171 110.124 138.672 109.916C139.18 109.708 139.626 109.418 140.01 109.047L140.508 109.848C140.104 110.245 139.609 110.57 139.023 110.824C138.438 111.078 137.738 111.205 136.924 111.205ZM133.613 104.76H139.688V104.467C139.688 103.536 139.424 102.764 138.896 102.152C138.376 101.534 137.653 101.225 136.729 101.225C136.169 101.225 135.664 101.378 135.215 101.684C134.766 101.983 134.398 102.396 134.111 102.924C133.831 103.445 133.659 104.037 133.594 104.701L133.613 104.76ZM144.961 111V110.15L146.553 110.023V101.41H143.691L143.623 103.422H142.578V100.434H151.836V103.422H150.791L150.723 101.41H147.725V110.023L149.316 110.15V111H144.961ZM157.549 111.205C156.644 111.205 155.846 110.987 155.156 110.551C154.466 110.108 153.926 109.499 153.535 108.725C153.145 107.943 152.949 107.045 152.949 106.029V105.492C152.949 104.483 153.145 103.585 153.535 102.797C153.926 102.003 154.453 101.378 155.117 100.922C155.788 100.466 156.533 100.238 157.354 100.238C158.649 100.238 159.661 100.648 160.391 101.469C161.12 102.283 161.484 103.373 161.484 104.74V105.736H154.16L154.141 106.166C154.147 106.947 154.29 107.644 154.57 108.256C154.857 108.868 155.254 109.35 155.762 109.701C156.276 110.053 156.872 110.229 157.549 110.229C158.213 110.229 158.796 110.124 159.297 109.916C159.805 109.708 160.251 109.418 160.635 109.047L161.133 109.848C160.729 110.245 160.234 110.57 159.648 110.824C159.062 111.078 158.363 111.205 157.549 111.205ZM154.238 104.76H160.312V104.467C160.312 103.536 160.049 102.764 159.521 102.152C159.001 101.534 158.278 101.225 157.354 101.225C156.794 101.225 156.289 101.378 155.84 101.684C155.391 101.983 155.023 102.396 154.736 102.924C154.456 103.445 154.284 104.037 154.219 104.701L154.238 104.76ZM168.33 111V110.15L169.922 110.023V101.42L168.33 101.293V100.434H173.799C175.12 100.434 176.143 100.668 176.865 101.137C177.594 101.605 177.959 102.309 177.959 103.246C177.959 103.793 177.79 104.275 177.451 104.691C177.119 105.102 176.65 105.395 176.045 105.57C176.742 105.688 177.305 105.98 177.734 106.449C178.171 106.918 178.389 107.458 178.389 108.07C178.389 109.027 178.037 109.757 177.334 110.258C176.637 110.753 175.684 111 174.473 111H168.33ZM171.094 105.16H173.906C175.827 105.16 176.787 104.532 176.787 103.275C176.787 102.032 175.791 101.41 173.799 101.41H171.094V105.16ZM171.094 110.033H174.473C175.345 110.033 176.019 109.864 176.494 109.525C176.976 109.18 177.217 108.689 177.217 108.051C177.217 107.465 176.973 106.999 176.484 106.654C176.003 106.303 175.332 106.127 174.473 106.127H171.094V110.033ZM189.854 111.205C188.975 111.205 188.197 110.984 187.52 110.541C186.849 110.098 186.322 109.48 185.938 108.686C185.56 107.891 185.371 106.97 185.371 105.922V105.512C185.371 104.483 185.557 103.572 185.928 102.777C186.299 101.983 186.816 101.361 187.48 100.912C188.151 100.463 188.939 100.238 189.844 100.238C190.664 100.238 191.393 100.395 192.031 100.707C192.669 101.013 193.203 101.41 193.633 101.898L193.652 104.291H192.676L192.52 102.318C192.194 101.973 191.813 101.706 191.377 101.518C190.941 101.322 190.439 101.225 189.873 101.225C189.209 101.225 188.626 101.41 188.125 101.781C187.624 102.152 187.233 102.663 186.953 103.314C186.68 103.959 186.543 104.691 186.543 105.512V105.922C186.543 107.211 186.842 108.253 187.441 109.047C188.04 109.835 188.848 110.229 189.863 110.229C190.651 110.229 191.309 110.023 191.836 109.613C192.363 109.197 192.682 108.585 192.793 107.777H193.838L193.857 107.836C193.766 108.839 193.372 109.652 192.676 110.277C191.979 110.896 191.038 111.205 189.854 111.205ZM199.18 111.205C198.177 111.205 197.393 110.938 196.826 110.404C196.26 109.87 195.977 109.148 195.977 108.236C195.977 107.26 196.39 106.472 197.217 105.873C198.05 105.268 199.183 104.965 200.615 104.965H202.803V103.754C202.803 102.986 202.575 102.37 202.119 101.908C201.663 101.446 200.983 101.215 200.078 101.215C199.564 101.215 199.102 101.299 198.691 101.469C198.288 101.632 197.936 101.84 197.637 102.094L197.539 103.705H196.572V101.498C197.028 101.101 197.546 100.792 198.125 100.57C198.704 100.349 199.362 100.238 200.098 100.238C201.341 100.238 202.298 100.551 202.969 101.176C203.639 101.801 203.975 102.667 203.975 103.773V108.871C203.975 109.079 203.981 109.288 203.994 109.496C204.007 109.698 204.03 109.9 204.062 110.102L205.322 110.15V111H203.018C202.946 110.616 202.894 110.307 202.861 110.072C202.829 109.838 202.809 109.574 202.803 109.281C202.419 109.848 201.911 110.31 201.279 110.668C200.648 111.026 199.948 111.205 199.18 111.205ZM199.316 110.18C200.039 110.18 200.723 109.991 201.367 109.613C202.018 109.229 202.497 108.721 202.803 108.09V105.863H200.605C199.525 105.863 198.678 106.098 198.066 106.566C197.454 107.029 197.148 107.598 197.148 108.275C197.148 108.842 197.34 109.301 197.725 109.652C198.115 110.004 198.646 110.18 199.316 110.18ZM207.002 111V110.15L208.594 110.023V101.42L207.002 101.293V100.434H210.127L214.277 109.369L214.326 109.408L218.506 100.434H221.553V101.293L219.961 101.42V110.023L221.553 110.15V111H217.197V110.15L218.789 110.023V102.543L218.73 102.523L214.736 111H213.896L209.824 102.328L209.766 102.338V110.023L211.357 110.15V111H207.002ZM233.789 111V110.15L235.381 110.023V101.42L233.789 101.293V100.434H236.553V110.023L238.145 110.15V111H233.789ZM229.404 104.281C230.622 104.281 231.569 104.59 232.246 105.209C232.93 105.827 233.271 106.632 233.271 107.621C233.271 108.617 232.93 109.431 232.246 110.062C231.569 110.688 230.622 111 229.404 111H223.623V110.15L225.215 110.023V101.42L223.623 101.293V100.434H227.979V101.293L226.387 101.42V104.281H229.404ZM226.387 110.023H229.404C230.309 110.023 230.983 109.799 231.426 109.35C231.875 108.894 232.1 108.324 232.1 107.641C232.1 106.983 231.875 106.423 231.426 105.961C230.977 105.492 230.303 105.258 229.404 105.258H226.387V110.023ZM244.072 111.205C243.167 111.205 242.37 110.987 241.68 110.551C240.99 110.108 240.449 109.499 240.059 108.725C239.668 107.943 239.473 107.045 239.473 106.029V105.492C239.473 104.483 239.668 103.585 240.059 102.797C240.449 102.003 240.977 101.378 241.641 100.922C242.311 100.466 243.057 100.238 243.877 100.238C245.173 100.238 246.185 100.648 246.914 101.469C247.643 102.283 248.008 103.373 248.008 104.74V105.736H240.684L240.664 106.166C240.671 106.947 240.814 107.644 241.094 108.256C241.38 108.868 241.777 109.35 242.285 109.701C242.799 110.053 243.395 110.229 244.072 110.229C244.736 110.229 245.319 110.124 245.82 109.916C246.328 109.708 246.774 109.418 247.158 109.047L247.656 109.848C247.253 110.245 246.758 110.57 246.172 110.824C245.586 111.078 244.886 111.205 244.072 111.205ZM240.762 104.76H246.836V104.467C246.836 103.536 246.572 102.764 246.045 102.152C245.524 101.534 244.801 101.225 243.877 101.225C243.317 101.225 242.812 101.378 242.363 101.684C241.914 101.983 241.546 102.396 241.26 102.924C240.98 103.445 240.807 104.037 240.742 104.701L240.762 104.76ZM0.537109 147.062V146.203L2.08984 146.076V133.42L0.498047 133.293V132.434H3.06641L3.21289 134.045C3.56445 133.472 4.01693 133.029 4.57031 132.717C5.13021 132.398 5.78776 132.238 6.54297 132.238C7.39583 132.238 8.125 132.469 8.73047 132.932C9.33594 133.387 9.79818 134.032 10.1172 134.865C10.4427 135.699 10.6055 136.678 10.6055 137.805V138.01C10.6055 139.585 10.2474 140.845 9.53125 141.789C8.8151 142.733 7.82878 143.205 6.57227 143.205C5.82357 143.205 5.16927 143.065 4.60938 142.785C4.05599 142.505 3.60677 142.115 3.26172 141.613V146.076L4.89258 146.203V147.062H0.537109ZM6.29883 142.229C7.32096 142.229 8.0957 141.844 8.62305 141.076C9.1569 140.301 9.42383 139.279 9.42383 138.01V137.805C9.42383 136.457 9.1569 135.36 8.62305 134.514C8.08919 133.667 7.30794 133.244 6.2793 133.244C5.47852 133.244 4.83398 133.439 4.3457 133.83C3.86393 134.221 3.5026 134.715 3.26172 135.314V140.354C3.50911 140.933 3.88672 141.392 4.39453 141.73C4.90234 142.062 5.53711 142.229 6.29883 142.229ZM17.3926 143.205C16.4876 143.205 15.6901 142.987 15 142.551C14.3099 142.108 13.7695 141.499 13.3789 140.725C12.9883 139.943 12.793 139.045 12.793 138.029V137.492C12.793 136.483 12.9883 135.585 13.3789 134.797C13.7695 134.003 14.2969 133.378 14.9609 132.922C15.6315 132.466 16.377 132.238 17.1973 132.238C18.4928 132.238 19.5052 132.648 20.2344 133.469C20.9635 134.283 21.3281 135.373 21.3281 136.74V137.736H14.0039L13.9844 138.166C13.9909 138.947 14.1341 139.644 14.4141 140.256C14.7005 140.868 15.0977 141.35 15.6055 141.701C16.1198 142.053 16.7155 142.229 17.3926 142.229C18.0566 142.229 18.6393 142.124 19.1406 141.916C19.6484 141.708 20.0944 141.418 20.4785 141.047L20.9766 141.848C20.5729 142.245 20.0781 142.57 19.4922 142.824C18.9062 143.078 18.2064 143.205 17.3926 143.205ZM14.082 136.76H20.1562V136.467C20.1562 135.536 19.8926 134.764 19.3652 134.152C18.8444 133.534 18.1217 133.225 17.1973 133.225C16.6374 133.225 16.1328 133.378 15.6836 133.684C15.2344 133.983 14.8665 134.396 14.5801 134.924C14.3001 135.445 14.1276 136.037 14.0625 136.701L14.082 136.76ZM27.9004 143.205C27.0215 143.205 26.2435 142.984 25.5664 142.541C24.8958 142.098 24.3685 141.48 23.9844 140.686C23.6068 139.891 23.418 138.97 23.418 137.922V137.512C23.418 136.483 23.6035 135.572 23.9746 134.777C24.3457 133.983 24.8633 133.361 25.5273 132.912C26.1979 132.463 26.9857 132.238 27.8906 132.238C28.7109 132.238 29.4401 132.395 30.0781 132.707C30.7161 133.013 31.25 133.41 31.6797 133.898L31.6992 136.291H30.7227L30.5664 134.318C30.2409 133.973 29.86 133.706 29.4238 133.518C28.9876 133.322 28.4863 133.225 27.9199 133.225C27.2559 133.225 26.6732 133.41 26.1719 133.781C25.6706 134.152 25.2799 134.663 25 135.314C24.7266 135.959 24.5898 136.691 24.5898 137.512V137.922C24.5898 139.211 24.8893 140.253 25.4883 141.047C26.0872 141.835 26.8945 142.229 27.9102 142.229C28.6979 142.229 29.3555 142.023 29.8828 141.613C30.4102 141.197 30.7292 140.585 30.8398 139.777H31.8848L31.9043 139.836C31.8132 140.839 31.4193 141.652 30.7227 142.277C30.026 142.896 29.0853 143.205 27.9004 143.205ZM35.9082 147.268C35.7715 147.268 35.6055 147.251 35.4102 147.219C35.2214 147.193 35.0781 147.167 34.9805 147.141L35.1172 146.174C35.2083 146.187 35.3353 146.2 35.498 146.213C35.6673 146.232 35.791 146.242 35.8691 146.242C36.377 146.242 36.7806 146.073 37.0801 145.734C37.3796 145.402 37.653 144.927 37.9004 144.309L38.4473 142.873L34.5703 133.361L33.4277 133.293V132.434H37.1484V133.293L35.8105 133.381L38.5254 140.197L38.9648 141.398H39.0234L42.041 133.381L40.6641 133.293V132.434H44.3555V133.293L43.2324 133.361L38.8965 144.699C38.6035 145.448 38.2422 146.063 37.8125 146.545C37.3828 147.027 36.748 147.268 35.9082 147.268ZM45.166 147.062V146.203L46.7188 146.076V133.42L45.127 133.293V132.434H47.6953L47.8418 134.045C48.1934 133.472 48.6458 133.029 49.1992 132.717C49.7591 132.398 50.4167 132.238 51.1719 132.238C52.0247 132.238 52.7539 132.469 53.3594 132.932C53.9648 133.387 54.4271 134.032 54.7461 134.865C55.0716 135.699 55.2344 136.678 55.2344 137.805V138.01C55.2344 139.585 54.8763 140.845 54.1602 141.789C53.444 142.733 52.4577 143.205 51.2012 143.205C50.4525 143.205 49.7982 143.065 49.2383 142.785C48.6849 142.505 48.2357 142.115 47.8906 141.613V146.076L49.5215 146.203V147.062H45.166ZM50.9277 142.229C51.9499 142.229 52.7246 141.844 53.252 141.076C53.7858 140.301 54.0527 139.279 54.0527 138.01V137.805C54.0527 136.457 53.7858 135.36 53.252 134.514C52.7181 133.667 51.9368 133.244 50.9082 133.244C50.1074 133.244 49.4629 133.439 48.9746 133.83C48.4928 134.221 48.1315 134.715 47.8906 135.314V140.354C48.138 140.933 48.5156 141.392 49.0234 141.73C49.5312 142.062 50.166 142.229 50.9277 142.229ZM61.8848 143.205C61.0059 143.205 60.2279 142.984 59.5508 142.541C58.8802 142.098 58.3529 141.48 57.9688 140.686C57.5911 139.891 57.4023 138.97 57.4023 137.922V137.512C57.4023 136.483 57.5879 135.572 57.959 134.777C58.3301 133.983 58.8477 133.361 59.5117 132.912C60.1823 132.463 60.9701 132.238 61.875 132.238C62.6953 132.238 63.4245 132.395 64.0625 132.707C64.7005 133.013 65.2344 133.41 65.6641 133.898L65.6836 136.291H64.707L64.5508 134.318C64.2253 133.973 63.8444 133.706 63.4082 133.518C62.972 133.322 62.4707 133.225 61.9043 133.225C61.2402 133.225 60.6576 133.41 60.1562 133.781C59.6549 134.152 59.2643 134.663 58.9844 135.314C58.7109 135.959 58.5742 136.691 58.5742 137.512V137.922C58.5742 139.211 58.8737 140.253 59.4727 141.047C60.0716 141.835 60.8789 142.229 61.8945 142.229C62.6823 142.229 63.3398 142.023 63.8672 141.613C64.3945 141.197 64.7135 140.585 64.8242 139.777H65.8691L65.8887 139.836C65.7975 140.839 65.4036 141.652 64.707 142.277C64.0104 142.896 63.0697 143.205 61.8848 143.205ZM72.7148 143.205C71.7708 143.205 70.9473 142.98 70.2441 142.531C69.541 142.076 68.9941 141.447 68.6035 140.646C68.2194 139.846 68.0273 138.924 68.0273 137.883V137.561C68.0273 136.525 68.2194 135.607 68.6035 134.807C68.9941 134.006 69.5378 133.378 70.2344 132.922C70.9375 132.466 71.7578 132.238 72.6953 132.238C73.6328 132.238 74.4531 132.466 75.1562 132.922C75.8594 133.378 76.403 134.006 76.7871 134.807C77.1777 135.607 77.373 136.525 77.373 137.561V137.883C77.373 138.924 77.1777 139.846 76.7871 140.646C76.403 141.447 75.8594 142.076 75.1562 142.531C74.4596 142.98 73.6458 143.205 72.7148 143.205ZM72.7148 142.229C73.4375 142.229 74.0592 142.036 74.5801 141.652C75.1009 141.268 75.5013 140.751 75.7812 140.1C76.0612 139.442 76.2012 138.703 76.2012 137.883V137.561C76.2012 136.753 76.0579 136.024 75.7715 135.373C75.4915 134.715 75.0879 134.195 74.5605 133.811C74.0397 133.42 73.418 133.225 72.6953 133.225C71.9596 133.225 71.3314 133.42 70.8105 133.811C70.2897 134.195 69.8893 134.715 69.6094 135.373C69.3359 136.024 69.1992 136.753 69.1992 137.561V137.883C69.1992 138.703 69.3359 139.442 69.6094 140.1C69.8893 140.751 70.2897 141.268 70.8105 141.652C71.3379 142.036 71.9727 142.229 72.7148 142.229ZM84.0527 143.205C83.1478 143.205 82.3503 142.987 81.6602 142.551C80.9701 142.108 80.4297 141.499 80.0391 140.725C79.6484 139.943 79.4531 139.045 79.4531 138.029V137.492C79.4531 136.483 79.6484 135.585 80.0391 134.797C80.4297 134.003 80.957 133.378 81.6211 132.922C82.2917 132.466 83.0371 132.238 83.8574 132.238C85.153 132.238 86.1654 132.648 86.8945 133.469C87.6237 134.283 87.9883 135.373 87.9883 136.74V137.736H80.6641L80.6445 138.166C80.651 138.947 80.7943 139.644 81.0742 140.256C81.3607 140.868 81.7578 141.35 82.2656 141.701C82.7799 142.053 83.3757 142.229 84.0527 142.229C84.7168 142.229 85.2995 142.124 85.8008 141.916C86.3086 141.708 86.7546 141.418 87.1387 141.047L87.6367 141.848C87.2331 142.245 86.7383 142.57 86.1523 142.824C85.5664 143.078 84.8665 143.205 84.0527 143.205ZM80.7422 136.76H86.8164V136.467C86.8164 135.536 86.5527 134.764 86.0254 134.152C85.5046 133.534 84.7819 133.225 83.8574 133.225C83.2975 133.225 82.793 133.378 82.3438 133.684C81.8945 133.983 81.5267 134.396 81.2402 134.924C80.9603 135.445 80.7878 136.037 80.7227 136.701L80.7422 136.76ZM89.9512 143V142.15L91.543 142.023V133.42L89.9512 133.293V132.434H93.0762L97.2266 141.369L97.2754 141.408L101.455 132.434H104.502V133.293L102.91 133.42V142.023L104.502 142.15V143H100.146V142.15L101.738 142.023V134.543L101.68 134.523L97.6855 143H96.8457L92.7734 134.328L92.7148 134.338V142.023L94.3066 142.15V143H89.9512ZM106.572 143V142.15L108.164 142.023V133.42L106.572 133.293V132.434H110.938V133.293L109.346 133.42V137.121H110.908L113.486 133.83C113.916 133.264 114.303 132.867 114.648 132.639C115 132.404 115.387 132.287 115.811 132.287C116.019 132.287 116.208 132.316 116.377 132.375C116.553 132.434 116.732 132.521 116.914 132.639L116.66 133.488C116.484 133.436 116.361 133.4 116.289 133.381C116.217 133.361 116.12 133.352 115.996 133.352C115.703 133.352 115.439 133.433 115.205 133.596C114.971 133.758 114.701 134.032 114.395 134.416L111.934 137.541L115.947 142.033L117.305 142.15V143H115.234L110.957 138.146H109.346V142.023L110.938 142.15V143H106.572ZM118.74 143V142.15L120.332 142.023V133.42L118.74 133.293V132.434H123.096V133.293L121.504 133.42V141.018L121.562 141.037L127.197 132.434H129.961V133.293L128.369 133.42V142.023L129.961 142.15V143H125.605V142.15L127.197 142.023V134.416L127.139 134.396L121.504 143H118.74ZM136.709 143.205C135.804 143.205 135.007 142.987 134.316 142.551C133.626 142.108 133.086 141.499 132.695 140.725C132.305 139.943 132.109 139.045 132.109 138.029V137.492C132.109 136.483 132.305 135.585 132.695 134.797C133.086 134.003 133.613 133.378 134.277 132.922C134.948 132.466 135.693 132.238 136.514 132.238C137.809 132.238 138.822 132.648 139.551 133.469C140.28 134.283 140.645 135.373 140.645 136.74V137.736H133.32L133.301 138.166C133.307 138.947 133.451 139.644 133.73 140.256C134.017 140.868 134.414 141.35 134.922 141.701C135.436 142.053 136.032 142.229 136.709 142.229C137.373 142.229 137.956 142.124 138.457 141.916C138.965 141.708 139.411 141.418 139.795 141.047L140.293 141.848C139.889 142.245 139.395 142.57 138.809 142.824C138.223 143.078 137.523 143.205 136.709 143.205ZM133.398 136.76H139.473V136.467C139.473 135.536 139.209 134.764 138.682 134.152C138.161 133.534 137.438 133.225 136.514 133.225C135.954 133.225 135.449 133.378 135 133.684C134.551 133.983 134.183 134.396 133.896 134.924C133.617 135.445 133.444 136.037 133.379 136.701L133.398 136.76ZM147.49 143V142.15L149.082 142.023V133.42L147.49 133.293V132.434H151.846V133.293L150.254 133.42V141.018L150.312 141.037L155.947 132.434H158.711V133.293L157.119 133.42V142.023L158.711 142.15V143H154.355V142.15L155.947 142.023V134.416L155.889 134.396L150.254 143H147.49ZM160.645 143V142.15L162.236 142.023V133.42L160.645 133.293V132.434H168.896V134.699H168.037L167.979 133.43H163.408V142.023L165 142.15V143H160.645ZM170.752 147.062V146.203L172.305 146.076V133.42L170.713 133.293V132.434H173.281L173.428 134.045C173.779 133.472 174.232 133.029 174.785 132.717C175.345 132.398 176.003 132.238 176.758 132.238C177.611 132.238 178.34 132.469 178.945 132.932C179.551 133.387 180.013 134.032 180.332 134.865C180.658 135.699 180.82 136.678 180.82 137.805V138.01C180.82 139.585 180.462 140.845 179.746 141.789C179.03 142.733 178.044 143.205 176.787 143.205C176.038 143.205 175.384 143.065 174.824 142.785C174.271 142.505 173.822 142.115 173.477 141.613V146.076L175.107 146.203V147.062H170.752ZM176.514 142.229C177.536 142.229 178.311 141.844 178.838 141.076C179.372 140.301 179.639 139.279 179.639 138.01V137.805C179.639 136.457 179.372 135.36 178.838 134.514C178.304 133.667 177.523 133.244 176.494 133.244C175.693 133.244 175.049 133.439 174.561 133.83C174.079 134.221 173.717 134.715 173.477 135.314V140.354C173.724 140.933 174.102 141.392 174.609 141.73C175.117 142.062 175.752 142.229 176.514 142.229ZM193.027 143V142.15L194.619 142.023V133.42L193.027 133.293V132.434H195.791V142.023L197.383 142.15V143H193.027ZM188.643 136.281C189.86 136.281 190.807 136.59 191.484 137.209C192.168 137.827 192.51 138.632 192.51 139.621C192.51 140.617 192.168 141.431 191.484 142.062C190.807 142.688 189.86 143 188.643 143H182.861V142.15L184.453 142.023V133.42L182.861 133.293V132.434H187.217V133.293L185.625 133.42V136.281H188.643ZM185.625 142.023H188.643C189.548 142.023 190.221 141.799 190.664 141.35C191.113 140.894 191.338 140.324 191.338 139.641C191.338 138.983 191.113 138.423 190.664 137.961C190.215 137.492 189.541 137.258 188.643 137.258H185.625V142.023ZM199.209 143V141.408H200.547V143H199.209Z" fill="black"/>
</svg>
