<svg width="328" height="148" viewBox="0 0 328 148" fill="none" xmlns="http://www.w3.org/2000/svg">
<path d="M3.67188 16.2051C3.52214 16.2051 3.34961 16.1921 3.1543 16.166C2.95898 16.1465 2.82552 16.1237 2.75391 16.0977L2.86133 15.1602C2.93945 15.1797 3.06315 15.196 3.23242 15.209C3.4082 15.222 3.55794 15.2285 3.68164 15.2285C4.24805 15.2285 4.69401 15.069 5.01953 14.75C5.34505 14.4245 5.66406 13.946 5.97656 13.3145L6.48438 12.2695L1.57227 2.71875L0.419922 2.64062V1.78125H4.14062V2.64062L2.90039 2.71875L6.43555 9.57422L7.05078 10.9512L7.1875 10.7461L10.7812 2.72852L9.49219 2.64062V1.78125H13.252V2.64062L12.1387 2.71875L7.09961 13.5684C6.83919 14.1152 6.56576 14.5872 6.2793 14.9844C5.99284 15.375 5.64453 15.6777 5.23438 15.8926C4.82422 16.1009 4.30339 16.2051 3.67188 16.2051ZM14.2188 16V15.1504L15.6348 15.0527L19.3652 10.502L17.0508 7.41602C16.7448 7.01237 16.4779 6.73568 16.25 6.58594C16.0221 6.42969 15.7585 6.35156 15.459 6.35156C15.3288 6.35156 15.2279 6.36133 15.1562 6.38086C15.0846 6.40039 14.9609 6.4362 14.7852 6.48828L14.541 5.63867C14.7103 5.52148 14.8796 5.43359 15.0488 5.375C15.2246 5.31641 15.4199 5.28711 15.6348 5.28711C16.0645 5.28711 16.4583 5.4043 16.8164 5.63867C17.181 5.87305 17.5651 6.27018 17.9688 6.83008L20.3711 10.1211H21.709V6.41992L20.1172 6.29297V5.43359H24.4727V6.29297L22.8809 6.41992V10.1211H24.3066L26.709 6.83008C27.1061 6.27018 27.4837 5.87305 27.8418 5.63867C28.1999 5.4043 28.6003 5.28711 29.043 5.28711C29.2513 5.28711 29.4401 5.31966 29.6094 5.38477C29.7852 5.44336 29.9609 5.52799 30.1367 5.63867L29.8926 6.48828C29.7168 6.4362 29.5898 6.40039 29.5117 6.38086C29.4401 6.36133 29.3424 6.35156 29.2188 6.35156C28.9128 6.35156 28.6458 6.42969 28.418 6.58594C28.1901 6.73568 27.9264 7.01237 27.627 7.41602L25.2734 10.5605L28.9746 15.0527L30.3809 15.1504V16H28.1934L24.2969 11.1465H22.8809V15.0234L24.4727 15.1504V16H20.1172V15.1504L21.709 15.0234V11.1465H20.3027L16.416 16H14.2188ZM36.2402 16.2051C35.3353 16.2051 34.5378 15.987 33.8477 15.5508C33.1576 15.1081 32.6172 14.4993 32.2266 13.7246C31.8359 12.9434 31.6406 12.0449 31.6406 11.0293V10.4922C31.6406 9.48307 31.8359 8.58464 32.2266 7.79688C32.6172 7.0026 33.1445 6.3776 33.8086 5.92188C34.4792 5.46615 35.2246 5.23828 36.0449 5.23828C37.3405 5.23828 38.3529 5.64844 39.082 6.46875C39.8112 7.28255 40.1758 8.37305 40.1758 9.74023V10.7363H32.8516L32.832 11.166C32.8385 11.9473 32.9818 12.6439 33.2617 13.2559C33.5482 13.8678 33.9453 14.3496 34.4531 14.7012C34.9674 15.0527 35.5632 15.2285 36.2402 15.2285C36.9043 15.2285 37.487 15.1243 37.9883 14.916C38.4961 14.7077 38.9421 14.418 39.3262 14.0469L39.8242 14.8477C39.4206 15.2448 38.9258 15.5703 38.3398 15.8242C37.7539 16.0781 37.054 16.2051 36.2402 16.2051ZM32.9297 9.75977H39.0039V9.4668C39.0039 8.53581 38.7402 7.76432 38.2129 7.15234C37.6921 6.53385 36.9694 6.22461 36.0449 6.22461C35.485 6.22461 34.9805 6.3776 34.5312 6.68359C34.082 6.98307 33.7142 7.39648 33.4277 7.92383C33.1478 8.44466 32.9753 9.03711 32.9102 9.70117L32.9297 9.75977ZM51.4551 16.2051C50.5762 16.2051 49.7982 15.9837 49.1211 15.541C48.4505 15.0983 47.9232 14.4798 47.5391 13.6855C47.1615 12.8913 46.9727 11.9701 46.9727 10.9219V10.5117C46.9727 9.48307 47.1582 8.57161 47.5293 7.77734C47.9004 6.98307 48.418 6.36133 49.082 5.91211C49.7526 5.46289 50.5404 5.23828 51.4453 5.23828C52.2656 5.23828 52.9948 5.39453 53.6328 5.70703C54.2708 6.01302 54.8047 6.41016 55.2344 6.89844L55.2539 9.29102H54.2773L54.1211 7.31836C53.7956 6.97331 53.4147 6.70638 52.9785 6.51758C52.5423 6.32227 52.041 6.22461 51.4746 6.22461C50.8105 6.22461 50.2279 6.41016 49.7266 6.78125C49.2253 7.15234 48.8346 7.66341 48.5547 8.31445C48.2812 8.95898 48.1445 9.69141 48.1445 10.5117V10.9219C48.1445 12.2109 48.444 13.2526 49.043 14.0469C49.6419 14.8346 50.4492 15.2285 51.4648 15.2285C52.2526 15.2285 52.9102 15.0234 53.4375 14.6133C53.9648 14.1966 54.2839 13.5846 54.3945 12.7773H55.4395L55.459 12.8359C55.3678 13.8385 54.974 14.6523 54.2773 15.2773C53.5807 15.8958 52.64 16.2051 51.4551 16.2051ZM62.2754 16.2051C61.3704 16.2051 60.5729 15.987 59.8828 15.5508C59.1927 15.1081 58.6523 14.4993 58.2617 13.7246C57.8711 12.9434 57.6758 12.0449 57.6758 11.0293V10.4922C57.6758 9.48307 57.8711 8.58464 58.2617 7.79688C58.6523 7.0026 59.1797 6.3776 59.8438 5.92188C60.5143 5.46615 61.2598 5.23828 62.0801 5.23828C63.3757 5.23828 64.388 5.64844 65.1172 6.46875C65.8464 7.28255 66.2109 8.37305 66.2109 9.74023V10.7363H58.8867L58.8672 11.166C58.8737 11.9473 59.0169 12.6439 59.2969 13.2559C59.5833 13.8678 59.9805 14.3496 60.4883 14.7012C61.0026 15.0527 61.5983 15.2285 62.2754 15.2285C62.9395 15.2285 63.5221 15.1243 64.0234 14.916C64.5312 14.7077 64.9772 14.418 65.3613 14.0469L65.8594 14.8477C65.4557 15.2448 64.9609 15.5703 64.375 15.8242C63.7891 16.0781 63.0892 16.2051 62.2754 16.2051ZM58.9648 9.75977H65.0391V9.4668C65.0391 8.53581 64.7754 7.76432 64.248 7.15234C63.7272 6.53385 63.0046 6.22461 62.0801 6.22461C61.5202 6.22461 61.0156 6.3776 60.5664 6.68359C60.1172 6.98307 59.7493 7.39648 59.4629 7.92383C59.1829 8.44466 59.0104 9.03711 58.9453 9.70117L58.9648 9.75977ZM68.1738 16V15.1504L69.7656 15.0234V6.41992L68.1738 6.29297V5.43359H72.5293V6.29297L70.9375 6.41992V14.0176L70.9961 14.0371L76.6309 5.43359H79.3945V6.29297L77.8027 6.41992V15.0234L79.3945 15.1504V16H75.0391V15.1504L76.6309 15.0234V7.41602L76.5723 7.39648L70.9375 16H68.1738ZM73.8379 3.33398C72.946 3.33398 72.2461 3.10286 71.7383 2.64062C71.2305 2.17188 70.9798 1.56641 70.9863 0.824219L71.0059 0.765625H71.9531C71.9531 1.27344 72.1029 1.68685 72.4023 2.00586C72.7083 2.32487 73.1868 2.48438 73.8379 2.48438C74.4629 2.48438 74.9284 2.32487 75.2344 2.00586C75.5469 1.68685 75.7031 1.27344 75.7031 0.765625H76.6602L76.6797 0.824219C76.6732 1.56641 76.416 2.17188 75.9082 2.64062C75.4069 3.10286 74.7168 3.33398 73.8379 3.33398ZM88.0566 16V15.1504L89.6484 15.0234V11.5176C89.2448 11.6738 88.7923 11.804 88.291 11.9082C87.7962 12.0124 87.3275 12.0645 86.8848 12.0645C85.5241 12.0645 84.5117 11.7617 83.8477 11.1562C83.1836 10.5508 82.8516 9.52865 82.8516 8.08984V6.41016L81.2598 6.2832V5.43359H85.6152V6.2832L84.0234 6.41016V8.08984C84.0234 9.20312 84.2448 9.98112 84.6875 10.4238C85.1367 10.86 85.8691 11.0781 86.8848 11.0781C87.36 11.0716 87.8451 11.0163 88.3398 10.9121C88.8411 10.8079 89.2773 10.6842 89.6484 10.541V6.41992L88.0566 6.29297V5.43359H92.4121V6.29297L90.8203 6.41992V15.0234L92.4121 15.1504V16H88.0566ZM97.7734 16.2051C96.7708 16.2051 95.9863 15.9382 95.4199 15.4043C94.8535 14.8704 94.5703 14.1478 94.5703 13.2363C94.5703 12.2598 94.9837 11.472 95.8105 10.873C96.6439 10.2676 97.7767 9.96484 99.209 9.96484H101.396V8.75391C101.396 7.98568 101.169 7.37044 100.713 6.9082C100.257 6.44596 99.5768 6.21484 98.6719 6.21484C98.1576 6.21484 97.6953 6.29948 97.2852 6.46875C96.8815 6.63151 96.5299 6.83984 96.2305 7.09375L96.1328 8.70508H95.166V6.49805C95.6217 6.10091 96.1393 5.79167 96.7188 5.57031C97.2982 5.34896 97.9557 5.23828 98.6914 5.23828C99.9349 5.23828 100.892 5.55078 101.562 6.17578C102.233 6.80078 102.568 7.66667 102.568 8.77344V13.8711C102.568 14.0794 102.575 14.2878 102.588 14.4961C102.601 14.6979 102.624 14.8997 102.656 15.1016L103.916 15.1504V16H101.611C101.54 15.6159 101.488 15.3066 101.455 15.0723C101.423 14.8379 101.403 14.5742 101.396 14.2812C101.012 14.8477 100.505 15.3099 99.873 15.668C99.2415 16.026 98.5417 16.2051 97.7734 16.2051ZM97.9102 15.1797C98.6328 15.1797 99.3164 14.9909 99.9609 14.6133C100.612 14.2292 101.09 13.7214 101.396 13.0898V10.8633H99.1992C98.1185 10.8633 97.2721 11.0977 96.6602 11.5664C96.0482 12.0286 95.7422 12.5983 95.7422 13.2754C95.7422 13.8418 95.9342 14.3008 96.3184 14.6523C96.709 15.0039 97.2396 15.1797 97.9102 15.1797ZM110.029 16.2051C109.15 16.2051 108.372 15.9837 107.695 15.541C107.025 15.0983 106.497 14.4798 106.113 13.6855C105.736 12.8913 105.547 11.9701 105.547 10.9219V10.5117C105.547 9.48307 105.732 8.57161 106.104 7.77734C106.475 6.98307 106.992 6.36133 107.656 5.91211C108.327 5.46289 109.115 5.23828 110.02 5.23828C110.84 5.23828 111.569 5.39453 112.207 5.70703C112.845 6.01302 113.379 6.41016 113.809 6.89844L113.828 9.29102H112.852L112.695 7.31836C112.37 6.97331 111.989 6.70638 111.553 6.51758C111.117 6.32227 110.615 6.22461 110.049 6.22461C109.385 6.22461 108.802 6.41016 108.301 6.78125C107.799 7.15234 107.409 7.66341 107.129 8.31445C106.855 8.95898 106.719 9.69141 106.719 10.5117V10.9219C106.719 12.2109 107.018 13.2526 107.617 14.0469C108.216 14.8346 109.023 15.2285 110.039 15.2285C110.827 15.2285 111.484 15.0234 112.012 14.6133C112.539 14.1966 112.858 13.5846 112.969 12.7773H114.014L114.033 12.8359C113.942 13.8385 113.548 14.6523 112.852 15.2773C112.155 15.8958 111.214 16.2051 110.029 16.2051ZM120.986 16V15.1504L122.578 15.0234V6.41992L120.986 6.29297V5.43359H126.455C127.777 5.43359 128.799 5.66797 129.521 6.13672C130.251 6.60547 130.615 7.30859 130.615 8.24609C130.615 8.79297 130.446 9.27474 130.107 9.69141C129.775 10.1016 129.307 10.3945 128.701 10.5703C129.398 10.6875 129.961 10.9805 130.391 11.4492C130.827 11.918 131.045 12.4583 131.045 13.0703C131.045 14.0273 130.693 14.7565 129.99 15.2578C129.294 15.7526 128.34 16 127.129 16H120.986ZM123.75 10.1602H126.562C128.483 10.1602 129.443 9.5319 129.443 8.27539C129.443 7.0319 128.447 6.41016 126.455 6.41016H123.75V10.1602ZM123.75 15.0332H127.129C128.001 15.0332 128.675 14.8639 129.15 14.5254C129.632 14.1803 129.873 13.6888 129.873 13.0508C129.873 12.4648 129.629 11.9993 129.141 11.6543C128.659 11.3027 127.988 11.127 127.129 11.127H123.75V15.0332ZM136.348 16.2051C135.345 16.2051 134.561 15.9382 133.994 15.4043C133.428 14.8704 133.145 14.1478 133.145 13.2363C133.145 12.2598 133.558 11.472 134.385 10.873C135.218 10.2676 136.351 9.96484 137.783 9.96484H139.971V8.75391C139.971 7.98568 139.743 7.37044 139.287 6.9082C138.831 6.44596 138.151 6.21484 137.246 6.21484C136.732 6.21484 136.27 6.29948 135.859 6.46875C135.456 6.63151 135.104 6.83984 134.805 7.09375L134.707 8.70508H133.74V6.49805C134.196 6.10091 134.714 5.79167 135.293 5.57031C135.872 5.34896 136.53 5.23828 137.266 5.23828C138.509 5.23828 139.466 5.55078 140.137 6.17578C140.807 6.80078 141.143 7.66667 141.143 8.77344V13.8711C141.143 14.0794 141.149 14.2878 141.162 14.4961C141.175 14.6979 141.198 14.8997 141.23 15.1016L142.49 15.1504V16H140.186C140.114 15.6159 140.062 15.3066 140.029 15.0723C139.997 14.8379 139.977 14.5742 139.971 14.2812C139.587 14.8477 139.079 15.3099 138.447 15.668C137.816 16.026 137.116 16.2051 136.348 16.2051ZM136.484 15.1797C137.207 15.1797 137.891 14.9909 138.535 14.6133C139.186 14.2292 139.665 13.7214 139.971 13.0898V10.8633H137.773C136.693 10.8633 135.846 11.0977 135.234 11.5664C134.622 12.0286 134.316 12.5983 134.316 13.2754C134.316 13.8418 134.508 14.3008 134.893 14.6523C135.283 15.0039 135.814 15.1797 136.484 15.1797ZM144.17 16V15.1504L145.762 15.0234V6.41992L144.17 6.29297V5.43359H147.295L151.445 14.3691L151.494 14.4082L155.674 5.43359H158.721V6.29297L157.129 6.41992V15.0234L158.721 15.1504V16H154.365V15.1504L155.957 15.0234V7.54297L155.898 7.52344L151.904 16H151.064L146.992 7.32812L146.934 7.33789V15.0234L148.525 15.1504V16H144.17ZM165.459 19.1055L165.371 15.0234H166.133C166.517 14.5417 166.839 14.0632 167.1 13.5879C167.367 13.1061 167.578 12.5299 167.734 11.8594C167.897 11.1888 168.011 10.3164 168.076 9.24219L168.213 6.41016L166.66 6.29297V5.43359H176.084V6.29297L174.492 6.41992V15.0234H175.596L175.508 19.1055H174.424V16H166.484V19.1055H165.459ZM167.51 15.0234H173.32V6.50781H169.375L169.248 9.24219C169.17 10.6289 168.978 11.7878 168.672 12.7188C168.372 13.6497 167.985 14.418 167.51 15.0234ZM182.793 16.2051C181.849 16.2051 181.025 15.9805 180.322 15.5312C179.619 15.0755 179.072 14.4473 178.682 13.6465C178.298 12.8457 178.105 11.9245 178.105 10.8828V10.5605C178.105 9.52539 178.298 8.60742 178.682 7.80664C179.072 7.00586 179.616 6.3776 180.312 5.92188C181.016 5.46615 181.836 5.23828 182.773 5.23828C183.711 5.23828 184.531 5.46615 185.234 5.92188C185.938 6.3776 186.481 7.00586 186.865 7.80664C187.256 8.60742 187.451 9.52539 187.451 10.5605V10.8828C187.451 11.9245 187.256 12.8457 186.865 13.6465C186.481 14.4473 185.938 15.0755 185.234 15.5312C184.538 15.9805 183.724 16.2051 182.793 16.2051ZM182.793 15.2285C183.516 15.2285 184.137 15.0365 184.658 14.6523C185.179 14.2682 185.579 13.7507 185.859 13.0996C186.139 12.4421 186.279 11.7031 186.279 10.8828V10.5605C186.279 9.75326 186.136 9.02409 185.85 8.37305C185.57 7.71549 185.166 7.19466 184.639 6.81055C184.118 6.41992 183.496 6.22461 182.773 6.22461C182.038 6.22461 181.41 6.41992 180.889 6.81055C180.368 7.19466 179.967 7.71549 179.688 8.37305C179.414 9.02409 179.277 9.75326 179.277 10.5605V10.8828C179.277 11.7031 179.414 12.4421 179.688 13.0996C179.967 13.7507 180.368 14.2682 180.889 14.6523C181.416 15.0365 182.051 15.2285 182.793 15.2285ZM193.994 16.2051C193.115 16.2051 192.337 15.9837 191.66 15.541C190.99 15.0983 190.462 14.4798 190.078 13.6855C189.701 12.8913 189.512 11.9701 189.512 10.9219V10.5117C189.512 9.48307 189.697 8.57161 190.068 7.77734C190.439 6.98307 190.957 6.36133 191.621 5.91211C192.292 5.46289 193.079 5.23828 193.984 5.23828C194.805 5.23828 195.534 5.39453 196.172 5.70703C196.81 6.01302 197.344 6.41016 197.773 6.89844L197.793 9.29102H196.816L196.66 7.31836C196.335 6.97331 195.954 6.70638 195.518 6.51758C195.081 6.32227 194.58 6.22461 194.014 6.22461C193.35 6.22461 192.767 6.41016 192.266 6.78125C191.764 7.15234 191.374 7.66341 191.094 8.31445C190.82 8.95898 190.684 9.69141 190.684 10.5117V10.9219C190.684 12.2109 190.983 13.2526 191.582 14.0469C192.181 14.8346 192.988 15.2285 194.004 15.2285C194.792 15.2285 195.449 15.0234 195.977 14.6133C196.504 14.1966 196.823 13.5846 196.934 12.7773H197.979L197.998 12.8359C197.907 13.8385 197.513 14.6523 196.816 15.2773C196.12 15.8958 195.179 16.2051 193.994 16.2051ZM202.324 16V15.1504L203.916 15.0234V6.41016H201.055L200.986 8.42188H199.941V5.43359H209.199V8.42188H208.154L208.086 6.41016H205.088V15.0234L206.68 15.1504V16H202.324ZM213.174 20.2676C213.037 20.2676 212.871 20.2513 212.676 20.2188C212.487 20.1927 212.344 20.1667 212.246 20.1406L212.383 19.1738C212.474 19.1868 212.601 19.1999 212.764 19.2129C212.933 19.2324 213.057 19.2422 213.135 19.2422C213.643 19.2422 214.046 19.0729 214.346 18.7344C214.645 18.4023 214.919 17.9271 215.166 17.3086L215.713 15.873L211.836 6.36133L210.693 6.29297V5.43359H214.414V6.29297L213.076 6.38086L215.791 13.1973L216.23 14.3984H216.289L219.307 6.38086L217.93 6.29297V5.43359H221.621V6.29297L220.498 6.36133L216.162 17.6992C215.869 18.4479 215.508 19.0632 215.078 19.5449C214.648 20.0267 214.014 20.2676 213.174 20.2676ZM222.842 16V15.1504L224.434 15.0234V6.41992L222.842 6.29297V5.43359H234.062V6.29297L232.471 6.41992V15.0234L234.062 15.1504V16H229.707V15.1504L231.299 15.0234V6.42969H225.605V15.0234L227.197 15.1504V16H222.842ZM236.24 16V15.1504L237.832 15.0234V6.41992L236.24 6.29297V5.43359H240.596V6.29297L239.004 6.41992V10.1699H244.688V6.41992L243.096 6.29297V5.43359H247.461V6.29297L245.869 6.41992V15.0234L247.461 15.1504V16H243.096V15.1504L244.688 15.0234V11.1465H239.004V15.0234L240.596 15.1504V16H236.24ZM254.277 16.2051C253.333 16.2051 252.51 15.9805 251.807 15.5312C251.104 15.0755 250.557 14.4473 250.166 13.6465C249.782 12.8457 249.59 11.9245 249.59 10.8828V10.5605C249.59 9.52539 249.782 8.60742 250.166 7.80664C250.557 7.00586 251.1 6.3776 251.797 5.92188C252.5 5.46615 253.32 5.23828 254.258 5.23828C255.195 5.23828 256.016 5.46615 256.719 5.92188C257.422 6.3776 257.965 7.00586 258.35 7.80664C258.74 8.60742 258.936 9.52539 258.936 10.5605V10.8828C258.936 11.9245 258.74 12.8457 258.35 13.6465C257.965 14.4473 257.422 15.0755 256.719 15.5312C256.022 15.9805 255.208 16.2051 254.277 16.2051ZM254.277 15.2285C255 15.2285 255.622 15.0365 256.143 14.6523C256.663 14.2682 257.064 13.7507 257.344 13.0996C257.624 12.4421 257.764 11.7031 257.764 10.8828V10.5605C257.764 9.75326 257.62 9.02409 257.334 8.37305C257.054 7.71549 256.65 7.19466 256.123 6.81055C255.602 6.41992 254.98 6.22461 254.258 6.22461C253.522 6.22461 252.894 6.41992 252.373 6.81055C251.852 7.19466 251.452 7.71549 251.172 8.37305C250.898 9.02409 250.762 9.75326 250.762 10.5605V10.8828C250.762 11.7031 250.898 12.4421 251.172 13.0996C251.452 13.7507 251.852 14.2682 252.373 14.6523C252.9 15.0365 253.535 15.2285 254.277 15.2285ZM270.537 16.2051C269.593 16.2051 268.77 15.9935 268.066 15.5703C267.37 15.1406 266.826 14.5482 266.436 13.793C266.051 13.0378 265.859 12.1686 265.859 11.1855V9.65234C265.859 7.60807 266.283 5.96745 267.129 4.73047C267.982 3.48698 269.137 2.74805 270.596 2.51367C271.592 2.35742 272.292 2.1556 272.695 1.9082C273.099 1.66081 273.301 1.30273 273.301 0.833984H274.209L274.229 0.892578C274.255 1.77148 273.988 2.39323 273.428 2.75781C272.868 3.1224 272.008 3.38281 270.85 3.53906C269.808 3.66927 268.942 4.11198 268.252 4.86719C267.568 5.61589 267.161 6.625 267.031 7.89453L267.07 7.94336C267.415 7.39648 267.907 6.96029 268.545 6.63477C269.189 6.30273 269.909 6.13672 270.703 6.13672C271.608 6.13672 272.396 6.33854 273.066 6.74219C273.743 7.14583 274.268 7.70247 274.639 8.41211C275.016 9.12174 275.205 9.9388 275.205 10.8633V11.1855C275.205 12.1686 275.01 13.0378 274.619 13.793C274.235 14.5482 273.691 15.1406 272.988 15.5703C272.292 15.9935 271.475 16.2051 270.537 16.2051ZM270.537 15.2285C271.266 15.2285 271.891 15.0495 272.412 14.6914C272.933 14.3333 273.333 13.8516 273.613 13.2461C273.893 12.6341 274.033 11.9473 274.033 11.1855V10.8633C274.033 10.1667 273.89 9.53516 273.604 8.96875C273.324 8.40234 272.92 7.95312 272.393 7.62109C271.872 7.28255 271.247 7.11328 270.518 7.11328C269.788 7.11328 269.163 7.28255 268.643 7.62109C268.122 7.95312 267.721 8.40234 267.441 8.96875C267.168 9.53516 267.031 10.1667 267.031 10.8633V11.1855C267.031 11.9473 267.168 12.6341 267.441 13.2461C267.721 13.8581 268.122 14.3431 268.643 14.7012C269.17 15.0527 269.801 15.2285 270.537 15.2285ZM281.758 16.2051C280.814 16.2051 279.99 15.9805 279.287 15.5312C278.584 15.0755 278.037 14.4473 277.646 13.6465C277.262 12.8457 277.07 11.9245 277.07 10.8828V10.5605C277.07 9.52539 277.262 8.60742 277.646 7.80664C278.037 7.00586 278.581 6.3776 279.277 5.92188C279.98 5.46615 280.801 5.23828 281.738 5.23828C282.676 5.23828 283.496 5.46615 284.199 5.92188C284.902 6.3776 285.446 7.00586 285.83 7.80664C286.221 8.60742 286.416 9.52539 286.416 10.5605V10.8828C286.416 11.9245 286.221 12.8457 285.83 13.6465C285.446 14.4473 284.902 15.0755 284.199 15.5312C283.503 15.9805 282.689 16.2051 281.758 16.2051ZM281.758 15.2285C282.48 15.2285 283.102 15.0365 283.623 14.6523C284.144 14.2682 284.544 13.7507 284.824 13.0996C285.104 12.4421 285.244 11.7031 285.244 10.8828V10.5605C285.244 9.75326 285.101 9.02409 284.814 8.37305C284.535 7.71549 284.131 7.19466 283.604 6.81055C283.083 6.41992 282.461 6.22461 281.738 6.22461C281.003 6.22461 280.374 6.41992 279.854 6.81055C279.333 7.19466 278.932 7.71549 278.652 8.37305C278.379 9.02409 278.242 9.75326 278.242 10.5605V10.8828C278.242 11.7031 278.379 12.4421 278.652 13.0996C278.932 13.7507 279.333 14.2682 279.854 14.6523C280.381 15.0365 281.016 15.2285 281.758 15.2285ZM287.939 16L287.949 14.9648L288.32 14.9551C288.802 14.9551 289.193 14.8021 289.492 14.4961C289.792 14.1836 290.01 13.6725 290.146 12.9629C290.29 12.2533 290.361 11.2995 290.361 10.1016V6.41992L288.77 6.29297V5.43359H298.779V6.29297L297.188 6.41992V15.0234L298.779 15.1504V16H294.414V15.1504L296.006 15.0234V6.42969H291.533V10.1016C291.533 12.1784 291.292 13.6823 290.811 14.6133C290.329 15.5378 289.512 16 288.359 16H287.939ZM305.439 16.2051C304.535 16.2051 303.737 15.987 303.047 15.5508C302.357 15.1081 301.816 14.4993 301.426 13.7246C301.035 12.9434 300.84 12.0449 300.84 11.0293V10.4922C300.84 9.48307 301.035 8.58464 301.426 7.79688C301.816 7.0026 302.344 6.3776 303.008 5.92188C303.678 5.46615 304.424 5.23828 305.244 5.23828C306.54 5.23828 307.552 5.64844 308.281 6.46875C309.01 7.28255 309.375 8.37305 309.375 9.74023V10.7363H302.051L302.031 11.166C302.038 11.9473 302.181 12.6439 302.461 13.2559C302.747 13.8678 303.145 14.3496 303.652 14.7012C304.167 15.0527 304.762 15.2285 305.439 15.2285C306.104 15.2285 306.686 15.1243 307.188 14.916C307.695 14.7077 308.141 14.418 308.525 14.0469L309.023 14.8477C308.62 15.2448 308.125 15.5703 307.539 15.8242C306.953 16.0781 306.253 16.2051 305.439 16.2051ZM302.129 9.75977H308.203V9.4668C308.203 8.53581 307.939 7.76432 307.412 7.15234C306.891 6.53385 306.169 6.22461 305.244 6.22461C304.684 6.22461 304.18 6.3776 303.73 6.68359C303.281 6.98307 302.913 7.39648 302.627 7.92383C302.347 8.44466 302.174 9.03711 302.109 9.70117L302.129 9.75977ZM316.084 16.2051C315.179 16.2051 314.382 15.987 313.691 15.5508C313.001 15.1081 312.461 14.4993 312.07 13.7246C311.68 12.9434 311.484 12.0449 311.484 11.0293V10.4922C311.484 9.48307 311.68 8.58464 312.07 7.79688C312.461 7.0026 312.988 6.3776 313.652 5.92188C314.323 5.46615 315.068 5.23828 315.889 5.23828C317.184 5.23828 318.197 5.64844 318.926 6.46875C319.655 7.28255 320.02 8.37305 320.02 9.74023V10.7363H312.695L312.676 11.166C312.682 11.9473 312.826 12.6439 313.105 13.2559C313.392 13.8678 313.789 14.3496 314.297 14.7012C314.811 15.0527 315.407 15.2285 316.084 15.2285C316.748 15.2285 317.331 15.1243 317.832 14.916C318.34 14.7077 318.786 14.418 319.17 14.0469L319.668 14.8477C319.264 15.2448 318.77 15.5703 318.184 15.8242C317.598 16.0781 316.898 16.2051 316.084 16.2051ZM312.773 9.75977H318.848V9.4668C318.848 8.53581 318.584 7.76432 318.057 7.15234C317.536 6.53385 316.813 6.22461 315.889 6.22461C315.329 6.22461 314.824 6.3776 314.375 6.68359C313.926 6.98307 313.558 7.39648 313.271 7.92383C312.992 8.44466 312.819 9.03711 312.754 9.70117L312.773 9.75977ZM5.38086 48.2051C4.50195 48.2051 3.72396 47.9837 3.04688 47.541C2.3763 47.0983 1.84896 46.4798 1.46484 45.6855C1.08724 44.8913 0.898438 43.9701 0.898438 42.9219V42.5117C0.898438 41.4831 1.08398 40.5716 1.45508 39.7773C1.82617 38.9831 2.34375 38.3613 3.00781 37.9121C3.67839 37.4629 4.46615 37.2383 5.37109 37.2383C6.19141 37.2383 6.92057 37.3945 7.55859 37.707C8.19661 38.013 8.73047 38.4102 9.16016 38.8984L9.17969 41.291H8.20312L8.04688 39.3184C7.72135 38.9733 7.34049 38.7064 6.9043 38.5176C6.4681 38.3223 5.9668 38.2246 5.40039 38.2246C4.73633 38.2246 4.15365 38.4102 3.65234 38.7812C3.15104 39.1523 2.76042 39.6634 2.48047 40.3145C2.20703 40.959 2.07031 41.6914 2.07031 42.5117V42.9219C2.07031 44.2109 2.36979 45.2526 2.96875 46.0469C3.56771 46.8346 4.375 47.2285 5.39062 47.2285C6.17839 47.2285 6.83594 47.0234 7.36328 46.6133C7.89062 46.1966 8.20964 45.5846 8.32031 44.7773H9.36523L9.38477 44.8359C9.29362 45.8385 8.89974 46.6523 8.20312 47.2773C7.50651 47.8958 6.56576 48.2051 5.38086 48.2051ZM16.2109 48.2051C15.2669 48.2051 14.4434 47.9805 13.7402 47.5312C13.0371 47.0755 12.4902 46.4473 12.0996 45.6465C11.7155 44.8457 11.5234 43.9245 11.5234 42.8828V42.5605C11.5234 41.5254 11.7155 40.6074 12.0996 39.8066C12.4902 39.0059 13.0339 38.3776 13.7305 37.9219C14.4336 37.4661 15.2539 37.2383 16.1914 37.2383C17.1289 37.2383 17.9492 37.4661 18.6523 37.9219C19.3555 38.3776 19.8991 39.0059 20.2832 39.8066C20.6738 40.6074 20.8691 41.5254 20.8691 42.5605V42.8828C20.8691 43.9245 20.6738 44.8457 20.2832 45.6465C19.8991 46.4473 19.3555 47.0755 18.6523 47.5312C17.9557 47.9805 17.1419 48.2051 16.2109 48.2051ZM16.2109 47.2285C16.9336 47.2285 17.5553 47.0365 18.0762 46.6523C18.597 46.2682 18.9974 45.7507 19.2773 45.0996C19.5573 44.4421 19.6973 43.7031 19.6973 42.8828V42.5605C19.6973 41.7533 19.554 41.0241 19.2676 40.373C18.9876 39.7155 18.584 39.1947 18.0566 38.8105C17.5358 38.4199 16.9141 38.2246 16.1914 38.2246C15.4557 38.2246 14.8275 38.4199 14.3066 38.8105C13.7858 39.1947 13.3854 39.7155 13.1055 40.373C12.832 41.0241 12.6953 41.7533 12.6953 42.5605V42.8828C12.6953 43.7031 12.832 44.4421 13.1055 45.0996C13.3854 45.7507 13.7858 46.2682 14.3066 46.6523C14.834 47.0365 15.4688 47.2285 16.2109 47.2285ZM24.8633 48V47.1504L26.4551 47.0234V38.4102H23.5938L23.5254 40.4219H22.4805V37.4336H31.7383V40.4219H30.6934L30.625 38.4102H27.627V47.0234L29.2188 47.1504V48H24.8633ZM33.6621 48V47.1504L35.2539 47.0234V38.4199L33.6621 38.293V37.4336H38.0176V38.293L36.4258 38.4199V42.1699H42.1094V38.4199L40.5176 38.293V37.4336H44.8828V38.293L43.291 38.4199V47.0234L44.8828 47.1504V48H40.5176V47.1504L42.1094 47.0234V43.1465H36.4258V47.0234L38.0176 47.1504V48H33.6621ZM47.0605 48V47.1504L48.6523 47.0234V38.4199L47.0605 38.293V37.4336H51.416V38.293L49.8242 38.4199V46.0176L49.8828 46.0371L55.5176 37.4336H58.2812V38.293L56.6895 38.4199V47.0234L58.2812 47.1504V48H53.9258V47.1504L55.5176 47.0234V39.416L55.459 39.3965L49.8242 48H47.0605ZM65.3418 48V47.1504L66.9336 47.0234V38.4199L65.3418 38.293V37.4336H69.6973V38.293L68.1055 38.4199V46.0176L68.1641 46.0371L73.7988 37.4336H76.5625V38.293L74.9707 38.4199V47.0234L76.5625 47.1504V48H72.207V47.1504L73.7988 47.0234V39.416L73.7402 39.3965L68.1055 48H65.3418ZM78.4961 48V47.1504L80.0879 47.0234V38.4199L78.4961 38.293V37.4336H86.748V39.6992H85.8887L85.8301 38.4297H81.2598V47.0234L82.8516 47.1504V48H78.4961ZM88.6035 52.0625V51.2031L90.1562 51.0762V38.4199L88.5645 38.293V37.4336H91.1328L91.2793 39.0449C91.6309 38.472 92.0833 38.0293 92.6367 37.7168C93.1966 37.3978 93.8542 37.2383 94.6094 37.2383C95.4622 37.2383 96.1914 37.4694 96.7969 37.9316C97.4023 38.3874 97.8646 39.0319 98.1836 39.8652C98.5091 40.6986 98.6719 41.6784 98.6719 42.8047V43.0098C98.6719 44.5853 98.3138 45.8451 97.5977 46.7891C96.8815 47.7331 95.8952 48.2051 94.6387 48.2051C93.89 48.2051 93.2357 48.0651 92.6758 47.7852C92.1224 47.5052 91.6732 47.1146 91.3281 46.6133V51.0762L92.959 51.2031V52.0625H88.6035ZM94.3652 47.2285C95.3874 47.2285 96.1621 46.8444 96.6895 46.0762C97.2233 45.3014 97.4902 44.2793 97.4902 43.0098V42.8047C97.4902 41.457 97.2233 40.36 96.6895 39.5137C96.1556 38.6673 95.3743 38.2441 94.3457 38.2441C93.5449 38.2441 92.9004 38.4395 92.4121 38.8301C91.9303 39.2207 91.569 39.7155 91.3281 40.3145V45.3535C91.5755 45.9329 91.9531 46.3919 92.4609 46.7305C92.9688 47.0625 93.6035 47.2285 94.3652 47.2285ZM101.035 48V46.4082H102.373V48H101.035ZM101.035 39.0449V37.4531H102.373V39.0449H101.035ZM114.043 48.2051C113.099 48.2051 112.275 47.9805 111.572 47.5312C110.869 47.0755 110.322 46.4473 109.932 45.6465C109.548 44.8457 109.355 43.9245 109.355 42.8828V42.5605C109.355 41.5254 109.548 40.6074 109.932 39.8066C110.322 39.0059 110.866 38.3776 111.562 37.9219C112.266 37.4661 113.086 37.2383 114.023 37.2383C114.961 37.2383 115.781 37.4661 116.484 37.9219C117.188 38.3776 117.731 39.0059 118.115 39.8066C118.506 40.6074 118.701 41.5254 118.701 42.5605V42.8828C118.701 43.9245 118.506 44.8457 118.115 45.6465C117.731 46.4473 117.188 47.0755 116.484 47.5312C115.788 47.9805 114.974 48.2051 114.043 48.2051ZM114.043 47.2285C114.766 47.2285 115.387 47.0365 115.908 46.6523C116.429 46.2682 116.829 45.7507 117.109 45.0996C117.389 44.4421 117.529 43.7031 117.529 42.8828V42.5605C117.529 41.7533 117.386 41.0241 117.1 40.373C116.82 39.7155 116.416 39.1947 115.889 38.8105C115.368 38.4199 114.746 38.2246 114.023 38.2246C113.288 38.2246 112.66 38.4199 112.139 38.8105C111.618 39.1947 111.217 39.7155 110.938 40.373C110.664 41.0241 110.527 41.7533 110.527 42.5605V42.8828C110.527 43.7031 110.664 44.4421 110.938 45.0996C111.217 45.7507 111.618 46.2682 112.139 46.6523C112.666 47.0365 113.301 47.2285 114.043 47.2285ZM122.695 48V47.1504L124.287 47.0234V38.4102H121.426L121.357 40.4219H120.312V37.4336H129.57V40.4219H128.525L128.457 38.4102H125.459V47.0234L127.051 47.1504V48H122.695ZM136.377 48V47.1504L137.969 47.0234V38.4199L136.377 38.293V37.4336H141.846C143.167 37.4336 144.189 37.668 144.912 38.1367C145.641 38.6055 146.006 39.3086 146.006 40.2461C146.006 40.793 145.837 41.2747 145.498 41.6914C145.166 42.1016 144.697 42.3945 144.092 42.5703C144.788 42.6875 145.352 42.9805 145.781 43.4492C146.217 43.918 146.436 44.4583 146.436 45.0703C146.436 46.0273 146.084 46.7565 145.381 47.2578C144.684 47.7526 143.73 48 142.52 48H136.377ZM139.141 42.1602H141.953C143.874 42.1602 144.834 41.5319 144.834 40.2754C144.834 39.0319 143.838 38.4102 141.846 38.4102H139.141V42.1602ZM139.141 47.0332H142.52C143.392 47.0332 144.066 46.8639 144.541 46.5254C145.023 46.1803 145.264 45.6888 145.264 45.0508C145.264 44.4648 145.02 43.9993 144.531 43.6543C144.049 43.3027 143.379 43.127 142.52 43.127H139.141V47.0332ZM158.75 48V47.1504L160.342 47.0234V38.4199L158.75 38.293V37.4336H161.514V47.0234L163.105 47.1504V48H158.75ZM154.365 41.2812C155.583 41.2812 156.53 41.5905 157.207 42.209C157.891 42.8275 158.232 43.6315 158.232 44.6211C158.232 45.6172 157.891 46.431 157.207 47.0625C156.53 47.6875 155.583 48 154.365 48H148.584V47.1504L150.176 47.0234V38.4199L148.584 38.293V37.4336H152.939V38.293L151.348 38.4199V41.2812H154.365ZM151.348 47.0234H154.365C155.27 47.0234 155.944 46.7988 156.387 46.3496C156.836 45.8939 157.061 45.3242 157.061 44.6406C157.061 43.9831 156.836 43.4232 156.387 42.9609C155.938 42.4922 155.264 42.2578 154.365 42.2578H151.348V47.0234ZM168.896 48.2051C168.018 48.2051 167.24 47.9837 166.562 47.541C165.892 47.0983 165.365 46.4798 164.98 45.6855C164.603 44.8913 164.414 43.9701 164.414 42.9219V42.5117C164.414 41.4831 164.6 40.5716 164.971 39.7773C165.342 38.9831 165.859 38.3613 166.523 37.9121C167.194 37.4629 167.982 37.2383 168.887 37.2383C169.707 37.2383 170.436 37.3945 171.074 37.707C171.712 38.013 172.246 38.4102 172.676 38.8984L172.695 41.291H171.719L171.562 39.3184C171.237 38.9733 170.856 38.7064 170.42 38.5176C169.984 38.3223 169.482 38.2246 168.916 38.2246C168.252 38.2246 167.669 38.4102 167.168 38.7812C166.667 39.1523 166.276 39.6634 165.996 40.3145C165.723 40.959 165.586 41.6914 165.586 42.5117V42.9219C165.586 44.2109 165.885 45.2526 166.484 46.0469C167.083 46.8346 167.891 47.2285 168.906 47.2285C169.694 47.2285 170.352 47.0234 170.879 46.6133C171.406 46.1966 171.725 45.5846 171.836 44.7773H172.881L172.9 44.8359C172.809 45.8385 172.415 46.6523 171.719 47.2773C171.022 47.8958 170.081 48.2051 168.896 48.2051ZM179.727 48.2051C178.783 48.2051 177.959 47.9805 177.256 47.5312C176.553 47.0755 176.006 46.4473 175.615 45.6465C175.231 44.8457 175.039 43.9245 175.039 42.8828V42.5605C175.039 41.5254 175.231 40.6074 175.615 39.8066C176.006 39.0059 176.549 38.3776 177.246 37.9219C177.949 37.4661 178.77 37.2383 179.707 37.2383C180.645 37.2383 181.465 37.4661 182.168 37.9219C182.871 38.3776 183.415 39.0059 183.799 39.8066C184.189 40.6074 184.385 41.5254 184.385 42.5605V42.8828C184.385 43.9245 184.189 44.8457 183.799 45.6465C183.415 46.4473 182.871 47.0755 182.168 47.5312C181.471 47.9805 180.658 48.2051 179.727 48.2051ZM179.727 47.2285C180.449 47.2285 181.071 47.0365 181.592 46.6523C182.113 46.2682 182.513 45.7507 182.793 45.0996C183.073 44.4421 183.213 43.7031 183.213 42.8828V42.5605C183.213 41.7533 183.07 41.0241 182.783 40.373C182.503 39.7155 182.1 39.1947 181.572 38.8105C181.051 38.4199 180.43 38.2246 179.707 38.2246C178.971 38.2246 178.343 38.4199 177.822 38.8105C177.301 39.1947 176.901 39.7155 176.621 40.373C176.348 41.0241 176.211 41.7533 176.211 42.5605V42.8828C176.211 43.7031 176.348 44.4421 176.621 45.0996C176.901 45.7507 177.301 46.2682 177.822 46.6523C178.35 47.0365 178.984 47.2285 179.727 47.2285ZM186.338 48V47.1504L187.93 47.0234V38.4199L186.338 38.293V37.4336H190.703V38.293L189.111 38.4199V42.1211H190.674L193.252 38.8301C193.682 38.2637 194.069 37.8665 194.414 37.6387C194.766 37.4043 195.153 37.2871 195.576 37.2871C195.785 37.2871 195.973 37.3164 196.143 37.375C196.318 37.4336 196.497 37.5215 196.68 37.6387L196.426 38.4883C196.25 38.4362 196.126 38.4004 196.055 38.3809C195.983 38.3613 195.885 38.3516 195.762 38.3516C195.469 38.3516 195.205 38.4329 194.971 38.5957C194.736 38.7585 194.466 39.0319 194.16 39.416L191.699 42.541L195.713 47.0332L197.07 47.1504V48H195L190.723 43.1465H189.111V47.0234L190.703 47.1504V48H186.338ZM202.637 48.2051C201.693 48.2051 200.869 47.9805 200.166 47.5312C199.463 47.0755 198.916 46.4473 198.525 45.6465C198.141 44.8457 197.949 43.9245 197.949 42.8828V42.5605C197.949 41.5254 198.141 40.6074 198.525 39.8066C198.916 39.0059 199.46 38.3776 200.156 37.9219C200.859 37.4661 201.68 37.2383 202.617 37.2383C203.555 37.2383 204.375 37.4661 205.078 37.9219C205.781 38.3776 206.325 39.0059 206.709 39.8066C207.1 40.6074 207.295 41.5254 207.295 42.5605V42.8828C207.295 43.9245 207.1 44.8457 206.709 45.6465C206.325 46.4473 205.781 47.0755 205.078 47.5312C204.382 47.9805 203.568 48.2051 202.637 48.2051ZM202.637 47.2285C203.359 47.2285 203.981 47.0365 204.502 46.6523C205.023 46.2682 205.423 45.7507 205.703 45.0996C205.983 44.4421 206.123 43.7031 206.123 42.8828V42.5605C206.123 41.7533 205.98 41.0241 205.693 40.373C205.413 39.7155 205.01 39.1947 204.482 38.8105C203.962 38.4199 203.34 38.2246 202.617 38.2246C201.882 38.2246 201.253 38.4199 200.732 38.8105C200.212 39.1947 199.811 39.7155 199.531 40.373C199.258 41.0241 199.121 41.7533 199.121 42.5605V42.8828C199.121 43.7031 199.258 44.4421 199.531 45.0996C199.811 45.7507 200.212 46.2682 200.732 46.6523C201.26 47.0365 201.895 47.2285 202.637 47.2285ZM214.014 48.2051C213.07 48.2051 212.246 47.9935 211.543 47.5703C210.846 47.1406 210.303 46.5482 209.912 45.793C209.528 45.0378 209.336 44.1686 209.336 43.1855V41.6523C209.336 39.6081 209.759 37.9674 210.605 36.7305C211.458 35.487 212.614 34.748 214.072 34.5137C215.068 34.3574 215.768 34.1556 216.172 33.9082C216.576 33.6608 216.777 33.3027 216.777 32.834H217.686L217.705 32.8926C217.731 33.7715 217.464 34.3932 216.904 34.7578C216.344 35.1224 215.485 35.3828 214.326 35.5391C213.285 35.6693 212.419 36.112 211.729 36.8672C211.045 37.6159 210.638 38.625 210.508 39.8945L210.547 39.9434C210.892 39.3965 211.383 38.9603 212.021 38.6348C212.666 38.3027 213.385 38.1367 214.18 38.1367C215.085 38.1367 215.872 38.3385 216.543 38.7422C217.22 39.1458 217.744 39.7025 218.115 40.4121C218.493 41.1217 218.682 41.9388 218.682 42.8633V43.1855C218.682 44.1686 218.486 45.0378 218.096 45.793C217.712 46.5482 217.168 47.1406 216.465 47.5703C215.768 47.9935 214.951 48.2051 214.014 48.2051ZM214.014 47.2285C214.743 47.2285 215.368 47.0495 215.889 46.6914C216.41 46.3333 216.81 45.8516 217.09 45.2461C217.37 44.6341 217.51 43.9473 217.51 43.1855V42.8633C217.51 42.1667 217.367 41.5352 217.08 40.9688C216.8 40.4023 216.396 39.9531 215.869 39.6211C215.348 39.2826 214.723 39.1133 213.994 39.1133C213.265 39.1133 212.64 39.2826 212.119 39.6211C211.598 39.9531 211.198 40.4023 210.918 40.9688C210.645 41.5352 210.508 42.1667 210.508 42.8633V43.1855C210.508 43.9473 210.645 44.6341 210.918 45.2461C211.198 45.8581 211.598 46.3431 212.119 46.7012C212.646 47.0527 213.278 47.2285 214.014 47.2285ZM230.479 48.2051C229.574 48.2051 228.776 47.9967 228.086 47.5801C227.402 47.1569 226.862 46.571 226.465 45.8223C226.068 45.0736 225.846 44.2109 225.801 43.2344H223.018V47.0234L224.609 47.1504V48H220.254V47.1504L221.846 47.0234V38.4199L220.254 38.293V37.4336H223.018V42.2578H225.811C225.85 41.2617 226.068 40.3893 226.465 39.6406C226.862 38.8854 227.402 38.2962 228.086 37.873C228.77 37.4499 229.561 37.2383 230.459 37.2383C231.403 37.2383 232.223 37.4661 232.92 37.9219C233.623 38.3776 234.167 39.0059 234.551 39.8066C234.941 40.6009 235.137 41.5189 235.137 42.5605V42.8828C235.137 43.9245 234.941 44.8457 234.551 45.6465C234.167 46.4473 233.626 47.0755 232.93 47.5312C232.233 47.9805 231.416 48.2051 230.479 48.2051ZM230.479 47.2285C231.201 47.2285 231.823 47.0365 232.344 46.6523C232.865 46.2682 233.265 45.7507 233.545 45.0996C233.825 44.4421 233.965 43.7031 233.965 42.8828V42.5605C233.965 41.7533 233.825 41.0241 233.545 40.373C233.265 39.7155 232.861 39.1947 232.334 38.8105C231.813 38.4199 231.188 38.2246 230.459 38.2246C229.73 38.2246 229.105 38.4199 228.584 38.8105C228.063 39.1947 227.663 39.7155 227.383 40.373C227.103 41.0241 226.963 41.7533 226.963 42.5605V42.8828C226.963 43.7031 227.103 44.4421 227.383 45.0996C227.663 45.7507 228.063 46.2682 228.584 46.6523C229.111 47.0365 229.743 47.2285 230.479 47.2285ZM236.982 51.1055L236.895 47.0234H237.656C238.04 46.5417 238.363 46.0632 238.623 45.5879C238.89 45.1061 239.102 44.5299 239.258 43.8594C239.421 43.1888 239.535 42.3164 239.6 41.2422L239.736 38.4102L238.184 38.293V37.4336H247.607V38.293L246.016 38.4199V47.0234H247.119L247.031 51.1055H245.947V48H238.008V51.1055H236.982ZM239.033 47.0234H244.844V38.5078H240.898L240.771 41.2422C240.693 42.6289 240.501 43.7878 240.195 44.7188C239.896 45.6497 239.508 46.418 239.033 47.0234ZM249.297 48V47.1504L250.713 47.0527L254.443 42.502L252.129 39.416C251.823 39.0124 251.556 38.7357 251.328 38.5859C251.1 38.4297 250.837 38.3516 250.537 38.3516C250.407 38.3516 250.306 38.3613 250.234 38.3809C250.163 38.4004 250.039 38.4362 249.863 38.4883L249.619 37.6387C249.788 37.5215 249.958 37.4336 250.127 37.375C250.303 37.3164 250.498 37.2871 250.713 37.2871C251.143 37.2871 251.536 37.4043 251.895 37.6387C252.259 37.873 252.643 38.2702 253.047 38.8301L255.449 42.1211H256.787V38.4199L255.195 38.293V37.4336H259.551V38.293L257.959 38.4199V42.1211H259.385L261.787 38.8301C262.184 38.2702 262.562 37.873 262.92 37.6387C263.278 37.4043 263.678 37.2871 264.121 37.2871C264.329 37.2871 264.518 37.3197 264.688 37.3848C264.863 37.4434 265.039 37.528 265.215 37.6387L264.971 38.4883C264.795 38.4362 264.668 38.4004 264.59 38.3809C264.518 38.3613 264.421 38.3516 264.297 38.3516C263.991 38.3516 263.724 38.4297 263.496 38.5859C263.268 38.7357 263.005 39.0124 262.705 39.416L260.352 42.5605L264.053 47.0527L265.459 47.1504V48H263.271L259.375 43.1465H257.959V47.0234L259.551 47.1504V48H255.195V47.1504L256.787 47.0234V43.1465H255.381L251.494 48H249.297ZM271.318 48.2051C270.413 48.2051 269.616 47.987 268.926 47.5508C268.236 47.1081 267.695 46.4993 267.305 45.7246C266.914 44.9434 266.719 44.0449 266.719 43.0293V42.4922C266.719 41.4831 266.914 40.5846 267.305 39.7969C267.695 39.0026 268.223 38.3776 268.887 37.9219C269.557 37.4661 270.303 37.2383 271.123 37.2383C272.419 37.2383 273.431 37.6484 274.16 38.4688C274.889 39.2826 275.254 40.373 275.254 41.7402V42.7363H267.93L267.91 43.166C267.917 43.9473 268.06 44.6439 268.34 45.2559C268.626 45.8678 269.023 46.3496 269.531 46.7012C270.046 47.0527 270.641 47.2285 271.318 47.2285C271.982 47.2285 272.565 47.1243 273.066 46.916C273.574 46.7077 274.02 46.418 274.404 46.0469L274.902 46.8477C274.499 47.2448 274.004 47.5703 273.418 47.8242C272.832 48.0781 272.132 48.2051 271.318 48.2051ZM268.008 41.7598H274.082V41.4668C274.082 40.5358 273.818 39.7643 273.291 39.1523C272.77 38.5339 272.048 38.2246 271.123 38.2246C270.563 38.2246 270.059 38.3776 269.609 38.6836C269.16 38.9831 268.792 39.3965 268.506 39.9238C268.226 40.4447 268.053 41.0371 267.988 41.7012L268.008 41.7598ZM279.355 48V47.1504L280.947 47.0234V38.4102H278.086L278.018 40.4219H276.973V37.4336H286.23V40.4219H285.186L285.117 38.4102H282.119V47.0234L283.711 47.1504V48H279.355ZM288.154 48V47.1504L289.746 47.0234V38.4199L288.154 38.293V37.4336H292.51V38.293L290.918 38.4199V42.1699H296.602V38.4199L295.01 38.293V37.4336H299.375V38.293L297.783 38.4199V47.0234L299.375 47.1504V48H295.01V47.1504L296.602 47.0234V43.1465H290.918V47.0234L292.51 47.1504V48H288.154ZM311.719 48V47.1504L313.311 47.0234V38.4199L311.719 38.293V37.4336H314.482V47.0234L316.074 47.1504V48H311.719ZM307.334 41.2812C308.551 41.2812 309.499 41.5905 310.176 42.209C310.859 42.8275 311.201 43.6315 311.201 44.6211C311.201 45.6172 310.859 46.431 310.176 47.0625C309.499 47.6875 308.551 48 307.334 48H301.553V47.1504L303.145 47.0234V38.4199L301.553 38.293V37.4336H305.908V38.293L304.316 38.4199V41.2812H307.334ZM304.316 47.0234H307.334C308.239 47.0234 308.913 46.7988 309.355 46.3496C309.805 45.8939 310.029 45.3242 310.029 44.6406C310.029 43.9831 309.805 43.4232 309.355 42.9609C308.906 42.4922 308.232 42.2578 307.334 42.2578H304.316V47.0234ZM317.109 48V47.1504L318.311 47.043L321.66 42.6191L318.447 38.3906L317.305 38.293V37.4336H320.879V38.293L319.746 38.3418L322.363 41.8281L324.941 38.3418L323.77 38.293V37.4336H327.314V38.293L326.162 38.3906L323.047 42.5996L326.465 47.043L327.627 47.1504V48H323.896V47.1504L325.137 47.1016L322.344 43.4102L319.58 47.1016L320.762 47.1504V48H317.109ZM0.605469 80V79.1504L1.65039 79.082L6.69922 65.7812H7.8125L12.8223 79.082L13.8672 79.1504V80H10.3613V79.1504L11.6113 79.0625L10.4297 75.8496H4.05273L2.86133 79.0625L4.11133 79.1504V80H0.605469ZM4.43359 74.8242H10.0488L7.48047 67.8418L7.28516 67.2656H7.22656L7.02148 67.8418L4.43359 74.8242ZM15.2539 80V79.1504L16.2988 79.082L21.3477 65.7812H22.4609L27.4707 79.082L28.5156 79.1504V80H25.0098V79.1504L26.2598 79.0625L25.0781 75.8496H18.7012L17.5098 79.0625L18.7598 79.1504V80H15.2539ZM19.082 74.8242H24.6973L22.1289 67.8418L21.9336 67.2656H21.875L21.6699 67.8418L19.082 74.8242ZM29.9023 80V79.1504L30.9473 79.082L35.9961 65.7812H37.1094L42.1191 79.082L43.1641 79.1504V80H39.6582V79.1504L40.9082 79.0625L39.7266 75.8496H33.3496L32.1582 79.0625L33.4082 79.1504V80H29.9023ZM33.7305 74.8242H39.3457L36.7773 67.8418L36.582 67.2656H36.5234L36.3184 67.8418L33.7305 74.8242ZM45.4492 74.4238V73.4473H50.127V74.4238H45.4492ZM54.9023 80V79.1504L56.4941 79.0234V70.4102H53.6328L53.5645 72.4219H52.5195V69.4336H61.7773V72.4219H60.7324L60.6641 70.4102H57.666V79.0234L59.2578 79.1504V80H54.9023ZM66.6992 80.2051C65.6966 80.2051 64.9121 79.9382 64.3457 79.4043C63.7793 78.8704 63.4961 78.1478 63.4961 77.2363C63.4961 76.2598 63.9095 75.472 64.7363 74.873C65.5697 74.2676 66.7025 73.9648 68.1348 73.9648H70.3223V72.7539C70.3223 71.9857 70.0944 71.3704 69.6387 70.9082C69.1829 70.446 68.5026 70.2148 67.5977 70.2148C67.0833 70.2148 66.6211 70.2995 66.2109 70.4688C65.8073 70.6315 65.4557 70.8398 65.1562 71.0938L65.0586 72.7051H64.0918V70.498C64.5475 70.1009 65.0651 69.7917 65.6445 69.5703C66.224 69.349 66.8815 69.2383 67.6172 69.2383C68.8607 69.2383 69.8177 69.5508 70.4883 70.1758C71.1589 70.8008 71.4941 71.6667 71.4941 72.7734V77.8711C71.4941 78.0794 71.5007 78.2878 71.5137 78.4961C71.5267 78.6979 71.5495 78.8997 71.582 79.1016L72.8418 79.1504V80H70.5371C70.4655 79.6159 70.4134 79.3066 70.3809 79.0723C70.3483 78.8379 70.3288 78.5742 70.3223 78.2812C69.9382 78.8477 69.4303 79.3099 68.7988 79.668C68.1673 80.026 67.4674 80.2051 66.6992 80.2051ZM66.8359 79.1797C67.5586 79.1797 68.2422 78.9909 68.8867 78.6133C69.5378 78.2292 70.0163 77.7214 70.3223 77.0898V74.8633H68.125C67.0443 74.8633 66.1979 75.0977 65.5859 75.5664C64.974 76.0286 64.668 76.5983 64.668 77.2754C64.668 77.8418 64.86 78.3008 65.2441 78.6523C65.6348 79.0039 66.1654 79.1797 66.8359 79.1797ZM74.5215 80V79.1504L76.1133 79.0234V70.4199L74.5215 70.293V69.4336H78.877V70.293L77.2852 70.4199V78.0176L77.3438 78.0371L82.9785 69.4336H85.7422V70.293L84.1504 70.4199V79.0234L85.7422 79.1504V80H81.3867V79.1504L82.9785 79.0234V71.416L82.9199 71.3965L77.2852 80H74.5215ZM80.1855 67.334C79.2936 67.334 78.5938 67.1029 78.0859 66.6406C77.5781 66.1719 77.3275 65.5664 77.334 64.8242L77.3535 64.7656H78.3008C78.3008 65.2734 78.4505 65.6868 78.75 66.0059C79.056 66.3249 79.5345 66.4844 80.1855 66.4844C80.8105 66.4844 81.276 66.3249 81.582 66.0059C81.8945 65.6868 82.0508 65.2734 82.0508 64.7656H83.0078L83.0273 64.8242C83.0208 65.5664 82.7637 66.1719 82.2559 66.6406C81.7546 67.1029 81.0645 67.334 80.1855 67.334ZM90.1758 80V79.1504L91.7676 79.0234V70.4102H88.9062L88.8379 72.4219H87.793V69.4336H97.0508V72.4219H96.0059L95.9375 70.4102H92.9395V79.0234L94.5312 79.1504V80H90.1758ZM97.9004 80L97.9102 78.9648L98.2812 78.9551C98.763 78.9551 99.1536 78.8021 99.4531 78.4961C99.7526 78.1836 99.9707 77.6725 100.107 76.9629C100.251 76.2533 100.322 75.2995 100.322 74.1016V70.4199L98.7305 70.293V69.4336H108.74V70.293L107.148 70.4199V79.0234L108.74 79.1504V80H104.375V79.1504L105.967 79.0234V70.4297H101.494V74.1016C101.494 76.1784 101.253 77.6823 100.771 78.6133C100.29 79.5378 99.4727 80 98.3203 80H97.9004ZM115.469 80.2051C114.525 80.2051 113.701 79.9805 112.998 79.5312C112.295 79.0755 111.748 78.4473 111.357 77.6465C110.973 76.8457 110.781 75.9245 110.781 74.8828V74.5605C110.781 73.5254 110.973 72.6074 111.357 71.8066C111.748 71.0059 112.292 70.3776 112.988 69.9219C113.691 69.4661 114.512 69.2383 115.449 69.2383C116.387 69.2383 117.207 69.4661 117.91 69.9219C118.613 70.3776 119.157 71.0059 119.541 71.8066C119.932 72.6074 120.127 73.5254 120.127 74.5605V74.8828C120.127 75.9245 119.932 76.8457 119.541 77.6465C119.157 78.4473 118.613 79.0755 117.91 79.5312C117.214 79.9805 116.4 80.2051 115.469 80.2051ZM115.469 79.2285C116.191 79.2285 116.813 79.0365 117.334 78.6523C117.855 78.2682 118.255 77.7507 118.535 77.0996C118.815 76.4421 118.955 75.7031 118.955 74.8828V74.5605C118.955 73.7533 118.812 73.0241 118.525 72.373C118.245 71.7155 117.842 71.1947 117.314 70.8105C116.794 70.4199 116.172 70.2246 115.449 70.2246C114.714 70.2246 114.085 70.4199 113.564 70.8105C113.044 71.1947 112.643 71.7155 112.363 72.373C112.09 73.0241 111.953 73.7533 111.953 74.5605V74.8828C111.953 75.7031 112.09 76.4421 112.363 77.0996C112.643 77.7507 113.044 78.2682 113.564 78.6523C114.092 79.0365 114.727 79.2285 115.469 79.2285ZM122.08 80V79.1504L123.672 79.0234V70.4199L122.08 70.293V69.4336H127.549C128.87 69.4336 129.893 69.668 130.615 70.1367C131.344 70.6055 131.709 71.3086 131.709 72.2461C131.709 72.793 131.54 73.2747 131.201 73.6914C130.869 74.1016 130.4 74.3945 129.795 74.5703C130.492 74.6875 131.055 74.9805 131.484 75.4492C131.921 75.918 132.139 76.4583 132.139 77.0703C132.139 78.0273 131.787 78.7565 131.084 79.2578C130.387 79.7526 129.434 80 128.223 80H122.08ZM124.844 74.1602H127.656C129.577 74.1602 130.537 73.5319 130.537 72.2754C130.537 71.0319 129.541 70.4102 127.549 70.4102H124.844V74.1602ZM124.844 79.0332H128.223C129.095 79.0332 129.769 78.8639 130.244 78.5254C130.726 78.1803 130.967 77.6888 130.967 77.0508C130.967 76.4648 130.723 75.9993 130.234 75.6543C129.753 75.3027 129.082 75.127 128.223 75.127H124.844V79.0332ZM138.955 83.1055L138.867 79.0234H139.629C140.013 78.5417 140.335 78.0632 140.596 77.5879C140.863 77.1061 141.074 76.5299 141.23 75.8594C141.393 75.1888 141.507 74.3164 141.572 73.2422L141.709 70.4102L140.156 70.293V69.4336H149.58V70.293L147.988 70.4199V79.0234H149.092L149.004 83.1055H147.92V80H139.98V83.1055H138.955ZM141.006 79.0234H146.816V70.5078H142.871L142.744 73.2422C142.666 74.6289 142.474 75.7878 142.168 76.7188C141.868 77.6497 141.481 78.418 141.006 79.0234ZM156.289 80.2051C155.345 80.2051 154.521 79.9805 153.818 79.5312C153.115 79.0755 152.568 78.4473 152.178 77.6465C151.794 76.8457 151.602 75.9245 151.602 74.8828V74.5605C151.602 73.5254 151.794 72.6074 152.178 71.8066C152.568 71.0059 153.112 70.3776 153.809 69.9219C154.512 69.4661 155.332 69.2383 156.27 69.2383C157.207 69.2383 158.027 69.4661 158.73 69.9219C159.434 70.3776 159.977 71.0059 160.361 71.8066C160.752 72.6074 160.947 73.5254 160.947 74.5605V74.8828C160.947 75.9245 160.752 76.8457 160.361 77.6465C159.977 78.4473 159.434 79.0755 158.73 79.5312C158.034 79.9805 157.22 80.2051 156.289 80.2051ZM156.289 79.2285C157.012 79.2285 157.633 79.0365 158.154 78.6523C158.675 78.2682 159.076 77.7507 159.355 77.0996C159.635 76.4421 159.775 75.7031 159.775 74.8828V74.5605C159.775 73.7533 159.632 73.0241 159.346 72.373C159.066 71.7155 158.662 71.1947 158.135 70.8105C157.614 70.4199 156.992 70.2246 156.27 70.2246C155.534 70.2246 154.906 70.4199 154.385 70.8105C153.864 71.1947 153.464 71.7155 153.184 72.373C152.91 73.0241 152.773 73.7533 152.773 74.5605V74.8828C152.773 75.7031 152.91 76.4421 153.184 77.0996C153.464 77.7507 153.864 78.2682 154.385 78.6523C154.912 79.0365 155.547 79.2285 156.289 79.2285ZM167.783 80V79.1504L169.375 79.0234V70.4199L167.783 70.293V69.4336H170.908L175.059 78.3691L175.107 78.4082L179.287 69.4336H182.334V70.293L180.742 70.4199V79.0234L182.334 79.1504V80H177.979V79.1504L179.57 79.0234V71.543L179.512 71.5234L175.518 80H174.678L170.605 71.3281L170.547 71.3379V79.0234L172.139 79.1504V80H167.783ZM187.559 80.2051C186.556 80.2051 185.771 79.9382 185.205 79.4043C184.639 78.8704 184.355 78.1478 184.355 77.2363C184.355 76.2598 184.769 75.472 185.596 74.873C186.429 74.2676 187.562 73.9648 188.994 73.9648H191.182V72.7539C191.182 71.9857 190.954 71.3704 190.498 70.9082C190.042 70.446 189.362 70.2148 188.457 70.2148C187.943 70.2148 187.48 70.2995 187.07 70.4688C186.667 70.6315 186.315 70.8398 186.016 71.0938L185.918 72.7051H184.951V70.498C185.407 70.1009 185.924 69.7917 186.504 69.5703C187.083 69.349 187.741 69.2383 188.477 69.2383C189.72 69.2383 190.677 69.5508 191.348 70.1758C192.018 70.8008 192.354 71.6667 192.354 72.7734V77.8711C192.354 78.0794 192.36 78.2878 192.373 78.4961C192.386 78.6979 192.409 78.8997 192.441 79.1016L193.701 79.1504V80H191.396C191.325 79.6159 191.273 79.3066 191.24 79.0723C191.208 78.8379 191.188 78.5742 191.182 78.2812C190.798 78.8477 190.29 79.3099 189.658 79.668C189.027 80.026 188.327 80.2051 187.559 80.2051ZM187.695 79.1797C188.418 79.1797 189.102 78.9909 189.746 78.6133C190.397 78.2292 190.876 77.7214 191.182 77.0898V74.8633H188.984C187.904 74.8633 187.057 75.0977 186.445 75.5664C185.833 76.0286 185.527 76.5983 185.527 77.2754C185.527 77.8418 185.719 78.3008 186.104 78.6523C186.494 79.0039 187.025 79.1797 187.695 79.1797ZM195.107 80L195.117 78.9648L195.488 78.9551C195.97 78.9551 196.361 78.8021 196.66 78.4961C196.96 78.1836 197.178 77.6725 197.314 76.9629C197.458 76.2533 197.529 75.2995 197.529 74.1016V70.4199L195.938 70.293V69.4336H205.947V70.293L204.355 70.4199V79.0234L205.947 79.1504V80H201.582V79.1504L203.174 79.0234V70.4297H198.701V74.1016C198.701 76.1784 198.46 77.6823 197.979 78.6133C197.497 79.5378 196.68 80 195.527 80H195.107ZM212.607 80.2051C211.702 80.2051 210.905 79.987 210.215 79.5508C209.525 79.1081 208.984 78.4993 208.594 77.7246C208.203 76.9434 208.008 76.0449 208.008 75.0293V74.4922C208.008 73.4831 208.203 72.5846 208.594 71.7969C208.984 71.0026 209.512 70.3776 210.176 69.9219C210.846 69.4661 211.592 69.2383 212.412 69.2383C213.708 69.2383 214.72 69.6484 215.449 70.4688C216.178 71.2826 216.543 72.373 216.543 73.7402V74.7363H209.219L209.199 75.166C209.206 75.9473 209.349 76.6439 209.629 77.2559C209.915 77.8678 210.312 78.3496 210.82 78.7012C211.335 79.0527 211.93 79.2285 212.607 79.2285C213.271 79.2285 213.854 79.1243 214.355 78.916C214.863 78.7077 215.309 78.418 215.693 78.0469L216.191 78.8477C215.788 79.2448 215.293 79.5703 214.707 79.8242C214.121 80.0781 213.421 80.2051 212.607 80.2051ZM209.297 73.7598H215.371V73.4668C215.371 72.5358 215.107 71.7643 214.58 71.1523C214.059 70.5339 213.337 70.2246 212.412 70.2246C211.852 70.2246 211.348 70.3776 210.898 70.6836C210.449 70.9831 210.081 71.3965 209.795 71.9238C209.515 72.4447 209.342 73.0371 209.277 73.7012L209.297 73.7598ZM218.506 80V79.1504L220.098 79.0234V70.4199L218.506 70.293V69.4336H222.861V70.293L221.27 70.4199V74.1699H226.953V70.4199L225.361 70.293V69.4336H229.727V70.293L228.135 70.4199V79.0234L229.727 79.1504V80H225.361V79.1504L226.953 79.0234V75.1465H221.27V79.0234L222.861 79.1504V80H218.506ZM237.686 73.2812C238.903 73.2812 239.85 73.5905 240.527 74.209C241.211 74.8275 241.553 75.6315 241.553 76.6211C241.553 77.6172 241.211 78.431 240.527 79.0625C239.85 79.6875 238.903 80 237.686 80H231.904V79.1504L233.496 79.0234V70.4199L231.904 70.293V69.4336H236.26V70.293L234.668 70.4199V73.2812H237.686ZM237.686 79.0234C238.59 79.0234 239.264 78.7988 239.707 78.3496C240.156 77.8939 240.381 77.3242 240.381 76.6406C240.381 75.9831 240.156 75.4232 239.707 74.9609C239.258 74.4922 238.584 74.2578 237.686 74.2578H234.668V79.0234H237.686ZM243.545 80V79.1504L245.137 79.0234V70.4199L243.545 70.293V69.4336H247.91V70.293L246.318 70.4199V74.1211H247.881L250.459 70.8301C250.889 70.2637 251.276 69.8665 251.621 69.6387C251.973 69.4043 252.36 69.2871 252.783 69.2871C252.992 69.2871 253.18 69.3164 253.35 69.375C253.525 69.4336 253.704 69.5215 253.887 69.6387L253.633 70.4883C253.457 70.4362 253.333 70.4004 253.262 70.3809C253.19 70.3613 253.092 70.3516 252.969 70.3516C252.676 70.3516 252.412 70.4329 252.178 70.5957C251.943 70.7585 251.673 71.0319 251.367 71.416L248.906 74.541L252.92 79.0332L254.277 79.1504V80H252.207L247.93 75.1465H246.318V79.0234L247.91 79.1504V80H243.545ZM255.713 80V79.1504L257.305 79.0234V70.4199L255.713 70.293V69.4336H260.068V70.293L258.477 70.4199V78.0176L258.535 78.0371L264.17 69.4336H266.934V70.293L265.342 70.4199V79.0234L266.934 79.1504V80H262.578V79.1504L264.17 79.0234V71.416L264.111 71.3965L258.477 80H255.713ZM268.789 80V79.1504L269.99 79.043L273.34 74.6191L270.127 70.3906L268.984 70.293V69.4336H272.559V70.293L271.426 70.3418L274.043 73.8281L276.621 70.3418L275.449 70.293V69.4336H278.994V70.293L277.842 70.3906L274.727 74.5996L278.145 79.043L279.307 79.1504V80H275.576V79.1504L276.816 79.1016L274.023 75.4102L271.26 79.1016L272.441 79.1504V80H268.789ZM0.947266 112V111.15L2.53906 111.023V102.42L0.947266 102.293V101.434H5.30273V102.293L3.71094 102.42V106.17H9.39453V102.42L7.80273 102.293V101.434H12.168V102.293L10.5762 102.42V111.023L12.168 111.15V112H7.80273V111.15L9.39453 111.023V107.146H3.71094V111.023L5.30273 111.15V112H0.947266ZM18.916 112.205C18.0111 112.205 17.2135 111.987 16.5234 111.551C15.8333 111.108 15.293 110.499 14.9023 109.725C14.5117 108.943 14.3164 108.045 14.3164 107.029V106.492C14.3164 105.483 14.5117 104.585 14.9023 103.797C15.293 103.003 15.8203 102.378 16.4844 101.922C17.1549 101.466 17.9004 101.238 18.7207 101.238C20.0163 101.238 21.0286 101.648 21.7578 102.469C22.487 103.283 22.8516 104.373 22.8516 105.74V106.736H15.5273L15.5078 107.166C15.5143 107.947 15.6576 108.644 15.9375 109.256C16.224 109.868 16.6211 110.35 17.1289 110.701C17.6432 111.053 18.2389 111.229 18.916 111.229C19.5801 111.229 20.1628 111.124 20.6641 110.916C21.1719 110.708 21.6178 110.418 22.002 110.047L22.5 110.848C22.0964 111.245 21.6016 111.57 21.0156 111.824C20.4297 112.078 19.7298 112.205 18.916 112.205ZM15.6055 105.76H21.6797V105.467C21.6797 104.536 21.416 103.764 20.8887 103.152C20.3678 102.534 19.6452 102.225 18.7207 102.225C18.1608 102.225 17.6562 102.378 17.207 102.684C16.7578 102.983 16.39 103.396 16.1035 103.924C15.8236 104.445 15.651 105.037 15.5859 105.701L15.6055 105.76ZM28.7598 112.176C28.0306 112.176 27.3568 112.055 26.7383 111.814C26.1198 111.567 25.625 111.212 25.2539 110.75C24.8893 110.281 24.7168 109.708 24.7363 109.031L24.7559 108.973H25.8398C25.8398 109.604 26.1133 110.135 26.6602 110.564C27.2135 110.994 27.9134 111.209 28.7598 111.209C29.6712 111.209 30.3711 111.02 30.8594 110.643C31.3542 110.258 31.6016 109.751 31.6016 109.119C31.6016 108.423 31.3704 107.915 30.9082 107.596C30.4525 107.27 29.7493 107.107 28.7988 107.107H27.1875V106.102H28.7988C29.7233 106.102 30.3906 105.942 30.8008 105.623C31.2109 105.298 31.416 104.832 31.416 104.227C31.416 103.641 31.1979 103.162 30.7617 102.791C30.332 102.42 29.6647 102.234 28.7598 102.234C27.998 102.234 27.3503 102.43 26.8164 102.82C26.2826 103.204 26.0156 103.693 26.0156 104.285H24.9316L24.9121 104.227C24.8861 103.647 25.0423 103.136 25.3809 102.693C25.7259 102.244 26.1914 101.896 26.7773 101.648C27.3698 101.395 28.0306 101.268 28.7598 101.268C29.9642 101.268 30.9049 101.525 31.582 102.039C32.2591 102.553 32.5977 103.286 32.5977 104.236C32.5977 104.757 32.4349 105.226 32.1094 105.643C31.7904 106.053 31.3346 106.365 30.7422 106.58C32.1094 106.964 32.793 107.804 32.793 109.1C32.793 110.063 32.4219 110.818 31.6797 111.365C30.944 111.906 29.9707 112.176 28.7598 112.176ZM38.1055 112.205C37.1029 112.205 36.3184 111.938 35.752 111.404C35.1855 110.87 34.9023 110.148 34.9023 109.236C34.9023 108.26 35.3158 107.472 36.1426 106.873C36.9759 106.268 38.1087 105.965 39.541 105.965H41.7285V104.754C41.7285 103.986 41.5007 103.37 41.0449 102.908C40.5892 102.446 39.9089 102.215 39.0039 102.215C38.4896 102.215 38.0273 102.299 37.6172 102.469C37.2135 102.632 36.862 102.84 36.5625 103.094L36.4648 104.705H35.498V102.498C35.9538 102.101 36.4714 101.792 37.0508 101.57C37.6302 101.349 38.2878 101.238 39.0234 101.238C40.2669 101.238 41.224 101.551 41.8945 102.176C42.5651 102.801 42.9004 103.667 42.9004 104.773V109.871C42.9004 110.079 42.9069 110.288 42.9199 110.496C42.9329 110.698 42.9557 110.9 42.9883 111.102L44.248 111.15V112H41.9434C41.8717 111.616 41.8197 111.307 41.7871 111.072C41.7546 110.838 41.735 110.574 41.7285 110.281C41.3444 110.848 40.8366 111.31 40.2051 111.668C39.5736 112.026 38.8737 112.205 38.1055 112.205ZM38.2422 111.18C38.9648 111.18 39.6484 110.991 40.293 110.613C40.944 110.229 41.4225 109.721 41.7285 109.09V106.863H39.5312C38.4505 106.863 37.6042 107.098 36.9922 107.566C36.3802 108.029 36.0742 108.598 36.0742 109.275C36.0742 109.842 36.2663 110.301 36.6504 110.652C37.041 111.004 37.5716 111.18 38.2422 111.18ZM45.9277 112V111.15L47.5195 111.023V102.42L45.9277 102.293V101.434H51.3965C52.7181 101.434 53.7402 101.668 54.4629 102.137C55.1921 102.605 55.5566 103.309 55.5566 104.246C55.5566 104.793 55.3874 105.275 55.0488 105.691C54.7168 106.102 54.248 106.395 53.6426 106.57C54.3392 106.688 54.9023 106.98 55.332 107.449C55.7682 107.918 55.9863 108.458 55.9863 109.07C55.9863 110.027 55.6348 110.757 54.9316 111.258C54.235 111.753 53.2812 112 52.0703 112H45.9277ZM48.6914 106.16H51.5039C53.4245 106.16 54.3848 105.532 54.3848 104.275C54.3848 103.032 53.3887 102.41 51.3965 102.41H48.6914V106.16ZM48.6914 111.033H52.0703C52.9427 111.033 53.6165 110.864 54.0918 110.525C54.5736 110.18 54.8145 109.689 54.8145 109.051C54.8145 108.465 54.5703 107.999 54.082 107.654C53.6003 107.303 52.9297 107.127 52.0703 107.127H48.6914V111.033ZM58.1348 112V111.15L59.7266 111.023V102.42L58.1348 102.293V101.434H62.4902V102.293L60.8984 102.42V110.018L60.957 110.037L66.5918 101.434H69.3555V102.293L67.7637 102.42V111.023L69.3555 111.15V112H65V111.15L66.5918 111.023V103.416L66.5332 103.396L60.8984 112H58.1348ZM75.9668 112.205C75.0879 112.205 74.3099 111.984 73.6328 111.541C72.9622 111.098 72.4349 110.48 72.0508 109.686C71.6732 108.891 71.4844 107.97 71.4844 106.922V106.512C71.4844 105.483 71.6699 104.572 72.041 103.777C72.4121 102.983 72.9297 102.361 73.5938 101.912C74.2643 101.463 75.0521 101.238 75.957 101.238C76.7773 101.238 77.5065 101.395 78.1445 101.707C78.7826 102.013 79.3164 102.41 79.7461 102.898L79.7656 105.291H78.7891L78.6328 103.318C78.3073 102.973 77.9264 102.706 77.4902 102.518C77.054 102.322 76.5527 102.225 75.9863 102.225C75.3223 102.225 74.7396 102.41 74.2383 102.781C73.737 103.152 73.3464 103.663 73.0664 104.314C72.793 104.959 72.6562 105.691 72.6562 106.512V106.922C72.6562 108.211 72.9557 109.253 73.5547 110.047C74.1536 110.835 74.9609 111.229 75.9766 111.229C76.7643 111.229 77.4219 111.023 77.9492 110.613C78.4766 110.197 78.7956 109.585 78.9062 108.777H79.9512L79.9707 108.836C79.8796 109.839 79.4857 110.652 78.7891 111.277C78.0924 111.896 77.1517 112.205 75.9668 112.205ZM82.041 112V111.15L83.6328 111.023V102.42L82.041 102.293V101.434H86.3965V102.293L84.8047 102.42V110.018L84.8633 110.037L90.498 101.434H93.2617V102.293L91.6699 102.42V111.023L93.2617 111.15V112H88.9062V111.15L90.498 111.023V103.416L90.4395 103.396L84.8047 112H82.041ZM95.4395 112V111.15L97.0312 111.023V102.42L95.4395 102.293V101.434H98.5645L102.715 110.369L102.764 110.408L106.943 101.434H109.99V102.293L108.398 102.42V111.023L109.99 111.15V112H105.635V111.15L107.227 111.023V103.543L107.168 103.523L103.174 112H102.334L98.2617 103.328L98.2031 103.338V111.023L99.7949 111.15V112H95.4395ZM122.227 112V111.15L123.818 111.023V102.42L122.227 102.293V101.434H124.99V111.023L126.582 111.15V112H122.227ZM117.842 105.281C119.059 105.281 120.007 105.59 120.684 106.209C121.367 106.827 121.709 107.632 121.709 108.621C121.709 109.617 121.367 110.431 120.684 111.062C120.007 111.688 119.059 112 117.842 112H112.061V111.15L113.652 111.023V102.42L112.061 102.293V101.434H116.416V102.293L114.824 102.42V105.281H117.842ZM114.824 111.023H117.842C118.747 111.023 119.421 110.799 119.863 110.35C120.312 109.894 120.537 109.324 120.537 108.641C120.537 107.983 120.312 107.423 119.863 106.961C119.414 106.492 118.74 106.258 117.842 106.258H114.824V111.023ZM127.617 112V111.15L128.818 111.043L132.168 106.619L128.955 102.391L127.812 102.293V101.434H131.387V102.293L130.254 102.342L132.871 105.828L135.449 102.342L134.277 102.293V101.434H137.822V102.293L136.67 102.391L133.555 106.6L136.973 111.043L138.135 111.15V112H134.404V111.15L135.645 111.102L132.852 107.41L130.088 111.102L131.27 111.15V112H127.617ZM144.521 112V111.15L146.113 111.023V102.42L144.521 102.293V101.434H155.742V102.293L154.15 102.42V111.023L155.742 111.15V112H151.387V111.15L152.979 111.023V102.43H147.285V111.023L148.877 111.15V112H144.521ZM157.51 116.062V115.203L159.062 115.076V102.42L157.471 102.293V101.434H160.039L160.186 103.045C160.537 102.472 160.99 102.029 161.543 101.717C162.103 101.398 162.76 101.238 163.516 101.238C164.368 101.238 165.098 101.469 165.703 101.932C166.309 102.387 166.771 103.032 167.09 103.865C167.415 104.699 167.578 105.678 167.578 106.805V107.01C167.578 108.585 167.22 109.845 166.504 110.789C165.788 111.733 164.801 112.205 163.545 112.205C162.796 112.205 162.142 112.065 161.582 111.785C161.029 111.505 160.579 111.115 160.234 110.613V115.076L161.865 115.203V116.062H157.51ZM163.271 111.229C164.294 111.229 165.068 110.844 165.596 110.076C166.13 109.301 166.396 108.279 166.396 107.01V106.805C166.396 105.457 166.13 104.36 165.596 103.514C165.062 102.667 164.281 102.244 163.252 102.244C162.451 102.244 161.807 102.439 161.318 102.83C160.837 103.221 160.475 103.715 160.234 104.314V109.354C160.482 109.933 160.859 110.392 161.367 110.73C161.875 111.062 162.51 111.229 163.271 111.229ZM174.434 112.205C173.49 112.205 172.666 111.98 171.963 111.531C171.26 111.076 170.713 110.447 170.322 109.646C169.938 108.846 169.746 107.924 169.746 106.883V106.561C169.746 105.525 169.938 104.607 170.322 103.807C170.713 103.006 171.257 102.378 171.953 101.922C172.656 101.466 173.477 101.238 174.414 101.238C175.352 101.238 176.172 101.466 176.875 101.922C177.578 102.378 178.122 103.006 178.506 103.807C178.896 104.607 179.092 105.525 179.092 106.561V106.883C179.092 107.924 178.896 108.846 178.506 109.646C178.122 110.447 177.578 111.076 176.875 111.531C176.178 111.98 175.365 112.205 174.434 112.205ZM174.434 111.229C175.156 111.229 175.778 111.036 176.299 110.652C176.82 110.268 177.22 109.751 177.5 109.1C177.78 108.442 177.92 107.703 177.92 106.883V106.561C177.92 105.753 177.777 105.024 177.49 104.373C177.21 103.715 176.807 103.195 176.279 102.811C175.758 102.42 175.137 102.225 174.414 102.225C173.678 102.225 173.05 102.42 172.529 102.811C172.008 103.195 171.608 103.715 171.328 104.373C171.055 105.024 170.918 105.753 170.918 106.561V106.883C170.918 107.703 171.055 108.442 171.328 109.1C171.608 109.751 172.008 110.268 172.529 110.652C173.057 111.036 173.691 111.229 174.434 111.229ZM185.771 112.205C184.867 112.205 184.069 111.987 183.379 111.551C182.689 111.108 182.148 110.499 181.758 109.725C181.367 108.943 181.172 108.045 181.172 107.029V106.492C181.172 105.483 181.367 104.585 181.758 103.797C182.148 103.003 182.676 102.378 183.34 101.922C184.01 101.466 184.756 101.238 185.576 101.238C186.872 101.238 187.884 101.648 188.613 102.469C189.342 103.283 189.707 104.373 189.707 105.74V106.736H182.383L182.363 107.166C182.37 107.947 182.513 108.644 182.793 109.256C183.079 109.868 183.477 110.35 183.984 110.701C184.499 111.053 185.094 111.229 185.771 111.229C186.436 111.229 187.018 111.124 187.52 110.916C188.027 110.708 188.473 110.418 188.857 110.047L189.355 110.848C188.952 111.245 188.457 111.57 187.871 111.824C187.285 112.078 186.585 112.205 185.771 112.205ZM182.461 105.76H188.535V105.467C188.535 104.536 188.271 103.764 187.744 103.152C187.223 102.534 186.501 102.225 185.576 102.225C185.016 102.225 184.512 102.378 184.062 102.684C183.613 102.983 183.245 103.396 182.959 103.924C182.679 104.445 182.507 105.037 182.441 105.701L182.461 105.76ZM191.67 112V111.15L193.262 111.023V102.42L191.67 102.293V101.434H196.035V102.293L194.443 102.42V106.121H196.006L198.584 102.83C199.014 102.264 199.401 101.867 199.746 101.639C200.098 101.404 200.485 101.287 200.908 101.287C201.117 101.287 201.305 101.316 201.475 101.375C201.65 101.434 201.829 101.521 202.012 101.639L201.758 102.488C201.582 102.436 201.458 102.4 201.387 102.381C201.315 102.361 201.217 102.352 201.094 102.352C200.801 102.352 200.537 102.433 200.303 102.596C200.068 102.758 199.798 103.032 199.492 103.416L197.031 106.541L201.045 111.033L202.402 111.15V112H200.332L196.055 107.146H194.443V111.023L196.035 111.15V112H191.67ZM206.094 112V111.15L207.686 111.023V102.41H204.824L204.756 104.422H203.711V101.434H212.969V104.422H211.924L211.855 102.41H208.857V111.023L210.449 111.15V112H206.094ZM219.121 112.205C218.177 112.205 217.354 111.98 216.65 111.531C215.947 111.076 215.4 110.447 215.01 109.646C214.626 108.846 214.434 107.924 214.434 106.883V106.561C214.434 105.525 214.626 104.607 215.01 103.807C215.4 103.006 215.944 102.378 216.641 101.922C217.344 101.466 218.164 101.238 219.102 101.238C220.039 101.238 220.859 101.466 221.562 101.922C222.266 102.378 222.809 103.006 223.193 103.807C223.584 104.607 223.779 105.525 223.779 106.561V106.883C223.779 107.924 223.584 108.846 223.193 109.646C222.809 110.447 222.266 111.076 221.562 111.531C220.866 111.98 220.052 112.205 219.121 112.205ZM219.121 111.229C219.844 111.229 220.465 111.036 220.986 110.652C221.507 110.268 221.908 109.751 222.188 109.1C222.467 108.442 222.607 107.703 222.607 106.883V106.561C222.607 105.753 222.464 105.024 222.178 104.373C221.898 103.715 221.494 103.195 220.967 102.811C220.446 102.42 219.824 102.225 219.102 102.225C218.366 102.225 217.738 102.42 217.217 102.811C216.696 103.195 216.296 103.715 216.016 104.373C215.742 105.024 215.605 105.753 215.605 106.561V106.883C215.605 107.703 215.742 108.442 216.016 109.1C216.296 109.751 216.696 110.268 217.217 110.652C217.744 111.036 218.379 111.229 219.121 111.229ZM225.732 112V111.15L227.324 111.023V102.42L225.732 102.293V101.434H231.201C232.523 101.434 233.545 101.668 234.268 102.137C234.997 102.605 235.361 103.309 235.361 104.246C235.361 104.793 235.192 105.275 234.854 105.691C234.521 106.102 234.053 106.395 233.447 106.57C234.144 106.688 234.707 106.98 235.137 107.449C235.573 107.918 235.791 108.458 235.791 109.07C235.791 110.027 235.439 110.757 234.736 111.258C234.04 111.753 233.086 112 231.875 112H225.732ZM228.496 106.16H231.309C233.229 106.16 234.189 105.532 234.189 104.275C234.189 103.032 233.193 102.41 231.201 102.41H228.496V106.16ZM228.496 111.033H231.875C232.747 111.033 233.421 110.864 233.896 110.525C234.378 110.18 234.619 109.689 234.619 109.051C234.619 108.465 234.375 107.999 233.887 107.654C233.405 107.303 232.734 107.127 231.875 107.127H228.496V111.033ZM238.408 112V110.408H239.746V112H238.408ZM253.955 112.205C252.549 112.205 251.364 111.896 250.4 111.277C249.443 110.659 248.717 109.809 248.223 108.729C247.734 107.641 247.49 106.395 247.49 104.988V104.803C247.49 103.39 247.744 102.14 248.252 101.053C248.766 99.9655 249.489 99.1159 250.42 98.5039C251.357 97.8854 252.461 97.5762 253.73 97.5762C254.714 97.5762 255.557 97.7129 256.26 97.9863C256.963 98.2598 257.588 98.6341 258.135 99.1094V101.873H257.139L257.041 99.6074C256.611 99.2884 256.143 99.041 255.635 98.8652C255.127 98.6829 254.492 98.5918 253.73 98.5918C252.695 98.5918 251.797 98.8555 251.035 99.3828C250.28 99.9036 249.694 100.63 249.277 101.561C248.867 102.485 248.662 103.559 248.662 104.783V104.988C248.662 106.258 248.87 107.358 249.287 108.289C249.704 109.214 250.306 109.93 251.094 110.438C251.888 110.945 252.845 111.199 253.965 111.199C254.557 111.199 255.133 111.124 255.693 110.975C256.253 110.825 256.725 110.626 257.109 110.379L257.207 108.23H258.193V111.062C257.614 111.44 256.96 111.727 256.23 111.922C255.508 112.111 254.749 112.205 253.955 112.205ZM260.439 112V111.15L262.031 111.023V102.42L260.439 102.293V101.434H264.805V102.293L263.213 102.42V106.121H264.775L267.354 102.83C267.783 102.264 268.171 101.867 268.516 101.639C268.867 101.404 269.255 101.287 269.678 101.287C269.886 101.287 270.075 101.316 270.244 101.375C270.42 101.434 270.599 101.521 270.781 101.639L270.527 102.488C270.352 102.436 270.228 102.4 270.156 102.381C270.085 102.361 269.987 102.352 269.863 102.352C269.57 102.352 269.307 102.433 269.072 102.596C268.838 102.758 268.568 103.032 268.262 103.416L265.801 106.541L269.814 111.033L271.172 111.15V112H269.102L264.824 107.146H263.213V111.023L264.805 111.15V112H260.439ZM276.738 112.205C275.794 112.205 274.971 111.98 274.268 111.531C273.564 111.076 273.018 110.447 272.627 109.646C272.243 108.846 272.051 107.924 272.051 106.883V106.561C272.051 105.525 272.243 104.607 272.627 103.807C273.018 103.006 273.561 102.378 274.258 101.922C274.961 101.466 275.781 101.238 276.719 101.238C277.656 101.238 278.477 101.466 279.18 101.922C279.883 102.378 280.426 103.006 280.811 103.807C281.201 104.607 281.396 105.525 281.396 106.561V106.883C281.396 107.924 281.201 108.846 280.811 109.646C280.426 110.447 279.883 111.076 279.18 111.531C278.483 111.98 277.669 112.205 276.738 112.205ZM276.738 111.229C277.461 111.229 278.083 111.036 278.604 110.652C279.124 110.268 279.525 109.751 279.805 109.1C280.085 108.442 280.225 107.703 280.225 106.883V106.561C280.225 105.753 280.081 105.024 279.795 104.373C279.515 103.715 279.111 103.195 278.584 102.811C278.063 102.42 277.441 102.225 276.719 102.225C275.983 102.225 275.355 102.42 274.834 102.811C274.313 103.195 273.913 103.715 273.633 104.373C273.359 105.024 273.223 105.753 273.223 106.561V106.883C273.223 107.703 273.359 108.442 273.633 109.1C273.913 109.751 274.313 110.268 274.834 110.652C275.361 111.036 275.996 111.229 276.738 111.229ZM282.939 116.062V115.203L284.492 115.076V102.42L282.9 102.293V101.434H285.469L285.615 103.045C285.967 102.472 286.419 102.029 286.973 101.717C287.533 101.398 288.19 101.238 288.945 101.238C289.798 101.238 290.527 101.469 291.133 101.932C291.738 102.387 292.201 103.032 292.52 103.865C292.845 104.699 293.008 105.678 293.008 106.805V107.01C293.008 108.585 292.65 109.845 291.934 110.789C291.217 111.733 290.231 112.205 288.975 112.205C288.226 112.205 287.572 112.065 287.012 111.785C286.458 111.505 286.009 111.115 285.664 110.613V115.076L287.295 115.203V116.062H282.939ZM288.701 111.229C289.723 111.229 290.498 110.844 291.025 110.076C291.559 109.301 291.826 108.279 291.826 107.01V106.805C291.826 105.457 291.559 104.36 291.025 103.514C290.492 102.667 289.71 102.244 288.682 102.244C287.881 102.244 287.236 102.439 286.748 102.83C286.266 103.221 285.905 103.715 285.664 104.314V109.354C285.911 109.933 286.289 110.392 286.797 110.73C287.305 111.062 287.939 111.229 288.701 111.229ZM299.863 112.205C298.919 112.205 298.096 111.98 297.393 111.531C296.689 111.076 296.143 110.447 295.752 109.646C295.368 108.846 295.176 107.924 295.176 106.883V106.561C295.176 105.525 295.368 104.607 295.752 103.807C296.143 103.006 296.686 102.378 297.383 101.922C298.086 101.466 298.906 101.238 299.844 101.238C300.781 101.238 301.602 101.466 302.305 101.922C303.008 102.378 303.551 103.006 303.936 103.807C304.326 104.607 304.521 105.525 304.521 106.561V106.883C304.521 107.924 304.326 108.846 303.936 109.646C303.551 110.447 303.008 111.076 302.305 111.531C301.608 111.98 300.794 112.205 299.863 112.205ZM299.863 111.229C300.586 111.229 301.208 111.036 301.729 110.652C302.249 110.268 302.65 109.751 302.93 109.1C303.21 108.442 303.35 107.703 303.35 106.883V106.561C303.35 105.753 303.206 105.024 302.92 104.373C302.64 103.715 302.236 103.195 301.709 102.811C301.188 102.42 300.566 102.225 299.844 102.225C299.108 102.225 298.48 102.42 297.959 102.811C297.438 103.195 297.038 103.715 296.758 104.373C296.484 105.024 296.348 105.753 296.348 106.561V106.883C296.348 107.703 296.484 108.442 296.758 109.1C297.038 109.751 297.438 110.268 297.959 110.652C298.486 111.036 299.121 111.229 299.863 111.229ZM0.947266 144V143.15L2.53906 143.023V134.42L0.947266 134.293V133.434H5.30273V134.293L3.71094 134.42V142.018L3.76953 142.037L9.4043 133.434H12.168V134.293L10.5762 134.42V143.023L12.168 143.15V144H7.8125V143.15L9.4043 143.023V135.416L9.3457 135.396L3.71094 144H0.947266ZM14.0234 144V143.15L15.2246 143.043L18.5742 138.619L15.3613 134.391L14.2188 134.293V133.434H17.793V134.293L16.6602 134.342L19.2773 137.828L21.8555 134.342L20.6836 134.293V133.434H24.2285V134.293L23.0762 134.391L19.9609 138.6L23.3789 143.043L24.541 143.15V144H20.8105V143.15L22.0508 143.102L19.2578 139.41L16.4941 143.102L17.6758 143.15V144H14.0234ZM35.3613 144.205C34.4824 144.205 33.7044 143.984 33.0273 143.541C32.3568 143.098 31.8294 142.48 31.4453 141.686C31.0677 140.891 30.8789 139.97 30.8789 138.922V138.512C30.8789 137.483 31.0645 136.572 31.4355 135.777C31.8066 134.983 32.3242 134.361 32.9883 133.912C33.6589 133.463 34.4466 133.238 35.3516 133.238C36.1719 133.238 36.901 133.395 37.5391 133.707C38.1771 134.013 38.7109 134.41 39.1406 134.898L39.1602 137.291H38.1836L38.0273 135.318C37.7018 134.973 37.321 134.706 36.8848 134.518C36.4486 134.322 35.9473 134.225 35.3809 134.225C34.7168 134.225 34.1341 134.41 33.6328 134.781C33.1315 135.152 32.7409 135.663 32.4609 136.314C32.1875 136.959 32.0508 137.691 32.0508 138.512V138.922C32.0508 140.211 32.3503 141.253 32.9492 142.047C33.5482 142.835 34.3555 143.229 35.3711 143.229C36.1589 143.229 36.8164 143.023 37.3438 142.613C37.8711 142.197 38.1901 141.585 38.3008 140.777H39.3457L39.3652 140.836C39.2741 141.839 38.8802 142.652 38.1836 143.277C37.487 143.896 36.5462 144.205 35.3613 144.205ZM43.6914 144V143.15L45.2832 143.023V134.41H42.4219L42.3535 136.422H41.3086V133.434H50.5664V136.422H49.5215L49.4531 134.41H46.4551V143.023L48.0469 143.15V144H43.6914ZM55.4883 144.205C54.4857 144.205 53.7012 143.938 53.1348 143.404C52.5684 142.87 52.2852 142.148 52.2852 141.236C52.2852 140.26 52.6986 139.472 53.5254 138.873C54.3587 138.268 55.4915 137.965 56.9238 137.965H59.1113V136.754C59.1113 135.986 58.8835 135.37 58.4277 134.908C57.972 134.446 57.2917 134.215 56.3867 134.215C55.8724 134.215 55.4102 134.299 55 134.469C54.5964 134.632 54.2448 134.84 53.9453 135.094L53.8477 136.705H52.8809V134.498C53.3366 134.101 53.8542 133.792 54.4336 133.57C55.013 133.349 55.6706 133.238 56.4062 133.238C57.6497 133.238 58.6068 133.551 59.2773 134.176C59.9479 134.801 60.2832 135.667 60.2832 136.773V141.871C60.2832 142.079 60.2897 142.288 60.3027 142.496C60.3158 142.698 60.3385 142.9 60.3711 143.102L61.6309 143.15V144H59.3262C59.2546 143.616 59.2025 143.307 59.1699 143.072C59.1374 142.838 59.1178 142.574 59.1113 142.281C58.7272 142.848 58.2194 143.31 57.5879 143.668C56.9564 144.026 56.2565 144.205 55.4883 144.205ZM55.625 143.18C56.3477 143.18 57.0312 142.991 57.6758 142.613C58.3268 142.229 58.8053 141.721 59.1113 141.09V138.863H56.9141C55.8333 138.863 54.987 139.098 54.375 139.566C53.763 140.029 53.457 140.598 53.457 141.275C53.457 141.842 53.6491 142.301 54.0332 142.652C54.4238 143.004 54.9544 143.18 55.625 143.18ZM63.3105 144V143.15L64.9023 143.023V134.42L63.3105 134.293V133.434H67.666V134.293L66.0742 134.42V138.17H71.7578V134.42L70.166 134.293V133.434H74.5312V134.293L72.9395 134.42V143.023L74.5312 143.15V144H70.166V143.15L71.7578 143.023V139.146H66.0742V143.023L67.666 143.15V144H63.3105ZM81.2793 144.205C80.3743 144.205 79.5768 143.987 78.8867 143.551C78.1966 143.108 77.6562 142.499 77.2656 141.725C76.875 140.943 76.6797 140.045 76.6797 139.029V138.492C76.6797 137.483 76.875 136.585 77.2656 135.797C77.6562 135.003 78.1836 134.378 78.8477 133.922C79.5182 133.466 80.2637 133.238 81.084 133.238C82.3796 133.238 83.3919 133.648 84.1211 134.469C84.8503 135.283 85.2148 136.373 85.2148 137.74V138.736H77.8906L77.8711 139.166C77.8776 139.947 78.0208 140.644 78.3008 141.256C78.5872 141.868 78.9844 142.35 79.4922 142.701C80.0065 143.053 80.6022 143.229 81.2793 143.229C81.9434 143.229 82.526 143.124 83.0273 142.916C83.5352 142.708 83.9811 142.418 84.3652 142.047L84.8633 142.848C84.4596 143.245 83.9648 143.57 83.3789 143.824C82.793 144.078 82.0931 144.205 81.2793 144.205ZM77.9688 137.76H84.043V137.467C84.043 136.536 83.7793 135.764 83.252 135.152C82.7311 134.534 82.0085 134.225 81.084 134.225C80.5241 134.225 80.0195 134.378 79.5703 134.684C79.1211 134.983 78.7533 135.396 78.4668 135.924C78.1868 136.445 78.0143 137.037 77.9492 137.701L77.9688 137.76ZM89.3164 144V143.15L90.9082 143.023V134.41H88.0469L87.9785 136.422H86.9336V133.434H96.1914V136.422H95.1465L95.0781 134.41H92.0801V143.023L93.6719 143.15V144H89.3164ZM107.568 144.205C106.663 144.205 105.866 143.987 105.176 143.551C104.486 143.108 103.945 142.499 103.555 141.725C103.164 140.943 102.969 140.045 102.969 139.029V138.492C102.969 137.483 103.164 136.585 103.555 135.797C103.945 135.003 104.473 134.378 105.137 133.922C105.807 133.466 106.553 133.238 107.373 133.238C108.669 133.238 109.681 133.648 110.41 134.469C111.139 135.283 111.504 136.373 111.504 137.74V138.736H104.18L104.16 139.166C104.167 139.947 104.31 140.644 104.59 141.256C104.876 141.868 105.273 142.35 105.781 142.701C106.296 143.053 106.891 143.229 107.568 143.229C108.232 143.229 108.815 143.124 109.316 142.916C109.824 142.708 110.27 142.418 110.654 142.047L111.152 142.848C110.749 143.245 110.254 143.57 109.668 143.824C109.082 144.078 108.382 144.205 107.568 144.205ZM104.258 137.76H110.332V137.467C110.332 136.536 110.068 135.764 109.541 135.152C109.02 134.534 108.298 134.225 107.373 134.225C106.813 134.225 106.309 134.378 105.859 134.684C105.41 134.983 105.042 135.396 104.756 135.924C104.476 136.445 104.303 137.037 104.238 137.701L104.258 137.76ZM128.35 147.135V144H113.408V143.15L115 143.023V134.42L113.408 134.293V133.434H117.764V134.293L116.172 134.42V143.023H120.869V133.434H122.051V143.023H126.699V134.42L125.107 134.293V133.434H129.463V134.293L127.871 134.42V143.014H129.512L129.424 147.135H128.35ZM136.299 144.205C135.394 144.205 134.596 143.987 133.906 143.551C133.216 143.108 132.676 142.499 132.285 141.725C131.895 140.943 131.699 140.045 131.699 139.029V138.492C131.699 137.483 131.895 136.585 132.285 135.797C132.676 135.003 133.203 134.378 133.867 133.922C134.538 133.466 135.283 133.238 136.104 133.238C137.399 133.238 138.411 133.648 139.141 134.469C139.87 135.283 140.234 136.373 140.234 137.74V138.736H132.91L132.891 139.166C132.897 139.947 133.04 140.644 133.32 141.256C133.607 141.868 134.004 142.35 134.512 142.701C135.026 143.053 135.622 143.229 136.299 143.229C136.963 143.229 137.546 143.124 138.047 142.916C138.555 142.708 139.001 142.418 139.385 142.047L139.883 142.848C139.479 143.245 138.984 143.57 138.398 143.824C137.812 144.078 137.113 144.205 136.299 144.205ZM132.988 137.76H139.062V137.467C139.062 136.536 138.799 135.764 138.271 135.152C137.751 134.534 137.028 134.225 136.104 134.225C135.544 134.225 135.039 134.378 134.59 134.684C134.141 134.983 133.773 135.396 133.486 135.924C133.206 136.445 133.034 137.037 132.969 137.701L132.988 137.76ZM151.846 144.205C150.902 144.205 150.078 143.993 149.375 143.57C148.678 143.141 148.135 142.548 147.744 141.793C147.36 141.038 147.168 140.169 147.168 139.186V137.652C147.168 135.608 147.591 133.967 148.438 132.73C149.29 131.487 150.446 130.748 151.904 130.514C152.9 130.357 153.6 130.156 154.004 129.908C154.408 129.661 154.609 129.303 154.609 128.834H155.518L155.537 128.893C155.563 129.771 155.296 130.393 154.736 130.758C154.176 131.122 153.317 131.383 152.158 131.539C151.117 131.669 150.251 132.112 149.561 132.867C148.877 133.616 148.47 134.625 148.34 135.895L148.379 135.943C148.724 135.396 149.215 134.96 149.854 134.635C150.498 134.303 151.217 134.137 152.012 134.137C152.917 134.137 153.704 134.339 154.375 134.742C155.052 135.146 155.576 135.702 155.947 136.412C156.325 137.122 156.514 137.939 156.514 138.863V139.186C156.514 140.169 156.318 141.038 155.928 141.793C155.544 142.548 155 143.141 154.297 143.57C153.6 143.993 152.783 144.205 151.846 144.205ZM151.846 143.229C152.575 143.229 153.2 143.049 153.721 142.691C154.242 142.333 154.642 141.852 154.922 141.246C155.202 140.634 155.342 139.947 155.342 139.186V138.863C155.342 138.167 155.199 137.535 154.912 136.969C154.632 136.402 154.229 135.953 153.701 135.621C153.18 135.283 152.555 135.113 151.826 135.113C151.097 135.113 150.472 135.283 149.951 135.621C149.43 135.953 149.03 136.402 148.75 136.969C148.477 137.535 148.34 138.167 148.34 138.863V139.186C148.34 139.947 148.477 140.634 148.75 141.246C149.03 141.858 149.43 142.343 149.951 142.701C150.479 143.053 151.11 143.229 151.846 143.229ZM163.066 144.205C162.122 144.205 161.299 143.98 160.596 143.531C159.893 143.076 159.346 142.447 158.955 141.646C158.571 140.846 158.379 139.924 158.379 138.883V138.561C158.379 137.525 158.571 136.607 158.955 135.807C159.346 135.006 159.889 134.378 160.586 133.922C161.289 133.466 162.109 133.238 163.047 133.238C163.984 133.238 164.805 133.466 165.508 133.922C166.211 134.378 166.755 135.006 167.139 135.807C167.529 136.607 167.725 137.525 167.725 138.561V138.883C167.725 139.924 167.529 140.846 167.139 141.646C166.755 142.447 166.211 143.076 165.508 143.531C164.811 143.98 163.997 144.205 163.066 144.205ZM163.066 143.229C163.789 143.229 164.411 143.036 164.932 142.652C165.452 142.268 165.853 141.751 166.133 141.1C166.413 140.442 166.553 139.703 166.553 138.883V138.561C166.553 137.753 166.41 137.024 166.123 136.373C165.843 135.715 165.439 135.195 164.912 134.811C164.391 134.42 163.77 134.225 163.047 134.225C162.311 134.225 161.683 134.42 161.162 134.811C160.641 135.195 160.241 135.715 159.961 136.373C159.688 137.024 159.551 137.753 159.551 138.561V138.883C159.551 139.703 159.688 140.442 159.961 141.1C160.241 141.751 160.641 142.268 161.162 142.652C161.689 143.036 162.324 143.229 163.066 143.229ZM169.248 144L169.258 142.965L169.629 142.955C170.111 142.955 170.501 142.802 170.801 142.496C171.1 142.184 171.318 141.673 171.455 140.963C171.598 140.253 171.67 139.299 171.67 138.102V134.42L170.078 134.293V133.434H180.088V134.293L178.496 134.42V143.023L180.088 143.15V144H175.723V143.15L177.314 143.023V134.43H172.842V138.102C172.842 140.178 172.601 141.682 172.119 142.613C171.637 143.538 170.82 144 169.668 144H169.248ZM187.959 137.281C189.176 137.281 190.124 137.59 190.801 138.209C191.484 138.827 191.826 139.632 191.826 140.621C191.826 141.617 191.484 142.431 190.801 143.062C190.124 143.688 189.176 144 187.959 144H182.178V143.15L183.77 143.023V134.42L182.178 134.293V133.434H186.533V134.293L184.941 134.42V137.281H187.959ZM187.959 143.023C188.864 143.023 189.538 142.799 189.98 142.35C190.43 141.894 190.654 141.324 190.654 140.641C190.654 139.983 190.43 139.423 189.98 138.961C189.531 138.492 188.857 138.258 187.959 138.258H184.941V143.023H187.959ZM193.818 144V143.15L195.41 143.023V134.42L193.818 134.293V133.434H198.174V134.293L196.582 134.42V143.023H201.279V133.434H202.451V143.023H207.109V134.42L205.518 134.293V133.434H209.873V134.293L208.281 134.42V143.023L209.873 143.15V144H193.818ZM216.514 144.205C215.609 144.205 214.811 143.987 214.121 143.551C213.431 143.108 212.891 142.499 212.5 141.725C212.109 140.943 211.914 140.045 211.914 139.029V138.492C211.914 137.483 212.109 136.585 212.5 135.797C212.891 135.003 213.418 134.378 214.082 133.922C214.753 133.466 215.498 133.238 216.318 133.238C217.614 133.238 218.626 133.648 219.355 134.469C220.085 135.283 220.449 136.373 220.449 137.74V138.736H213.125L213.105 139.166C213.112 139.947 213.255 140.644 213.535 141.256C213.822 141.868 214.219 142.35 214.727 142.701C215.241 143.053 215.837 143.229 216.514 143.229C217.178 143.229 217.76 143.124 218.262 142.916C218.77 142.708 219.215 142.418 219.6 142.047L220.098 142.848C219.694 143.245 219.199 143.57 218.613 143.824C218.027 144.078 217.327 144.205 216.514 144.205ZM213.203 137.76H219.277V137.467C219.277 136.536 219.014 135.764 218.486 135.152C217.965 134.534 217.243 134.225 216.318 134.225C215.758 134.225 215.254 134.378 214.805 134.684C214.355 134.983 213.988 135.396 213.701 135.924C213.421 136.445 213.249 137.037 213.184 137.701L213.203 137.76ZM222.881 144V142.408H224.219V144H222.881Z" fill="black"/>
</svg>
