<svg width="363" height="116" viewBox="0 0 363 116" fill="none" xmlns="http://www.w3.org/2000/svg">
<path d="M0.751953 15V14.1504L2.34375 14.0234V1.76758L0.751953 1.64062V0.78125H14.3652V1.64062L12.7734 1.76758V14.0234L14.3652 14.1504V15H10.0098V14.1504L11.6016 14.0234V1.76758H3.51562V14.0234L5.10742 14.1504V15H0.751953ZM20.8398 15.2051C19.8958 15.2051 19.0723 14.9805 18.3691 14.5312C17.666 14.0755 17.1191 13.4473 16.7285 12.6465C16.3444 11.8457 16.1523 10.9245 16.1523 9.88281V9.56055C16.1523 8.52539 16.3444 7.60742 16.7285 6.80664C17.1191 6.00586 17.6628 5.3776 18.3594 4.92188C19.0625 4.46615 19.8828 4.23828 20.8203 4.23828C21.7578 4.23828 22.5781 4.46615 23.2812 4.92188C23.9844 5.3776 24.528 6.00586 24.9121 6.80664C25.3027 7.60742 25.498 8.52539 25.498 9.56055V9.88281C25.498 10.9245 25.3027 11.8457 24.9121 12.6465C24.528 13.4473 23.9844 14.0755 23.2812 14.5312C22.5846 14.9805 21.7708 15.2051 20.8398 15.2051ZM20.8398 14.2285C21.5625 14.2285 22.1842 14.0365 22.7051 13.6523C23.2259 13.2682 23.6263 12.7507 23.9062 12.0996C24.1862 11.4421 24.3262 10.7031 24.3262 9.88281V9.56055C24.3262 8.75326 24.1829 8.02409 23.8965 7.37305C23.6165 6.71549 23.2129 6.19466 22.6855 5.81055C22.1647 5.41992 21.543 5.22461 20.8203 5.22461C20.0846 5.22461 19.4564 5.41992 18.9355 5.81055C18.4147 6.19466 18.0143 6.71549 17.7344 7.37305C17.4609 8.02409 17.3242 8.75326 17.3242 9.56055V9.88281C17.3242 10.7031 17.4609 11.4421 17.7344 12.0996C18.0143 12.7507 18.4147 13.2682 18.9355 13.6523C19.4629 14.0365 20.0977 14.2285 20.8398 14.2285ZM36.7676 15.2051C35.8887 15.2051 35.1107 14.9837 34.4336 14.541C33.763 14.0983 33.2357 13.4798 32.8516 12.6855C32.474 11.8913 32.2852 10.9701 32.2852 9.92188V9.51172C32.2852 8.48307 32.4707 7.57161 32.8418 6.77734C33.2129 5.98307 33.7305 5.36133 34.3945 4.91211C35.0651 4.46289 35.8529 4.23828 36.7578 4.23828C37.5781 4.23828 38.3073 4.39453 38.9453 4.70703C39.5833 5.01302 40.1172 5.41016 40.5469 5.89844L40.5664 8.29102H39.5898L39.4336 6.31836C39.1081 5.97331 38.7272 5.70638 38.291 5.51758C37.8548 5.32227 37.3535 5.22461 36.7871 5.22461C36.123 5.22461 35.5404 5.41016 35.0391 5.78125C34.5378 6.15234 34.1471 6.66341 33.8672 7.31445C33.5938 7.95898 33.457 8.69141 33.457 9.51172V9.92188C33.457 11.2109 33.7565 12.2526 34.3555 13.0469C34.9544 13.8346 35.7617 14.2285 36.7773 14.2285C37.5651 14.2285 38.2227 14.0234 38.75 13.6133C39.2773 13.1966 39.5964 12.5846 39.707 11.7773H40.752L40.7715 11.8359C40.6803 12.8385 40.2865 13.6523 39.5898 14.2773C38.8932 14.8958 37.9525 15.2051 36.7676 15.2051ZM42.4316 19.0625V18.2031L43.9844 18.0762V5.41992L42.3926 5.29297V4.43359H44.9609L45.1074 6.04492C45.459 5.47201 45.9115 5.0293 46.4648 4.7168C47.0247 4.39779 47.6823 4.23828 48.4375 4.23828C49.2904 4.23828 50.0195 4.4694 50.625 4.93164C51.2305 5.38737 51.6927 6.0319 52.0117 6.86523C52.3372 7.69857 52.5 8.67839 52.5 9.80469V10.0098C52.5 11.5853 52.1419 12.8451 51.4258 13.7891C50.7096 14.7331 49.7233 15.2051 48.4668 15.2051C47.7181 15.2051 47.0638 15.0651 46.5039 14.7852C45.9505 14.5052 45.5013 14.1146 45.1562 13.6133V18.0762L46.7871 18.2031V19.0625H42.4316ZM48.1934 14.2285C49.2155 14.2285 49.9902 13.8444 50.5176 13.0762C51.0514 12.3014 51.3184 11.2793 51.3184 10.0098V9.80469C51.3184 8.45703 51.0514 7.36003 50.5176 6.51367C49.9837 5.66732 49.2025 5.24414 48.1738 5.24414C47.373 5.24414 46.7285 5.43945 46.2402 5.83008C45.7585 6.2207 45.3971 6.71549 45.1562 7.31445V12.3535C45.4036 12.9329 45.7812 13.3919 46.2891 13.7305C46.7969 14.0625 47.4316 14.2285 48.1934 14.2285ZM57.6953 15.2051C56.6927 15.2051 55.9082 14.9382 55.3418 14.4043C54.7754 13.8704 54.4922 13.1478 54.4922 12.2363C54.4922 11.2598 54.9056 10.472 55.7324 9.87305C56.5658 9.26758 57.6986 8.96484 59.1309 8.96484H61.3184V7.75391C61.3184 6.98568 61.0905 6.37044 60.6348 5.9082C60.179 5.44596 59.4987 5.21484 58.5938 5.21484C58.0794 5.21484 57.6172 5.29948 57.207 5.46875C56.8034 5.63151 56.4518 5.83984 56.1523 6.09375L56.0547 7.70508H55.0879V5.49805C55.5436 5.10091 56.0612 4.79167 56.6406 4.57031C57.2201 4.34896 57.8776 4.23828 58.6133 4.23828C59.8568 4.23828 60.8138 4.55078 61.4844 5.17578C62.1549 5.80078 62.4902 6.66667 62.4902 7.77344V12.8711C62.4902 13.0794 62.4967 13.2878 62.5098 13.4961C62.5228 13.6979 62.5456 13.8997 62.5781 14.1016L63.8379 14.1504V15H61.5332C61.4616 14.6159 61.4095 14.3066 61.377 14.0723C61.3444 13.8379 61.3249 13.5742 61.3184 13.2812C60.9342 13.8477 60.4264 14.3099 59.7949 14.668C59.1634 15.026 58.4635 15.2051 57.6953 15.2051ZM57.832 14.1797C58.5547 14.1797 59.2383 13.9909 59.8828 13.6133C60.5339 13.2292 61.0124 12.7214 61.3184 12.0898V9.86328H59.1211C58.0404 9.86328 57.194 10.0977 56.582 10.5664C55.9701 11.0286 55.6641 11.5983 55.6641 12.2754C55.6641 12.8418 55.8561 13.3008 56.2402 13.6523C56.6309 14.0039 57.1615 14.1797 57.832 14.1797ZM65.5176 15V14.1504L67.1094 14.0234V5.41992L65.5176 5.29297V4.43359H70.9863C72.3079 4.43359 73.3301 4.66797 74.0527 5.13672C74.7819 5.60547 75.1465 6.30859 75.1465 7.24609C75.1465 7.79297 74.9772 8.27474 74.6387 8.69141C74.3066 9.10156 73.8379 9.39453 73.2324 9.57031C73.929 9.6875 74.4922 9.98047 74.9219 10.4492C75.3581 10.918 75.5762 11.4583 75.5762 12.0703C75.5762 13.0273 75.2246 13.7565 74.5215 14.2578C73.8249 14.7526 72.8711 15 71.6602 15H65.5176ZM68.2812 9.16016H71.0938C73.0143 9.16016 73.9746 8.5319 73.9746 7.27539C73.9746 6.0319 72.9785 5.41016 70.9863 5.41016H68.2812V9.16016ZM68.2812 14.0332H71.6602C72.5326 14.0332 73.2064 13.8639 73.6816 13.5254C74.1634 13.1803 74.4043 12.6888 74.4043 12.0508C74.4043 11.4648 74.1602 10.9993 73.6719 10.6543C73.1901 10.3027 72.5195 10.127 71.6602 10.127H68.2812V14.0332ZM77.7246 15V14.1504L79.3164 14.0234V5.41992L77.7246 5.29297V4.43359H82.0801V5.29297L80.4883 5.41992V9.16992H86.1719V5.41992L84.5801 5.29297V4.43359H88.9453V5.29297L87.3535 5.41992V14.0234L88.9453 14.1504V15H84.5801V14.1504L86.1719 14.0234V10.1465H80.4883V14.0234L82.0801 14.1504V15H77.7246ZM95.6934 15.2051C94.7884 15.2051 93.9909 14.987 93.3008 14.5508C92.6107 14.1081 92.0703 13.4993 91.6797 12.7246C91.2891 11.9434 91.0938 11.0449 91.0938 10.0293V9.49219C91.0938 8.48307 91.2891 7.58464 91.6797 6.79688C92.0703 6.0026 92.5977 5.3776 93.2617 4.92188C93.9323 4.46615 94.6777 4.23828 95.498 4.23828C96.7936 4.23828 97.806 4.64844 98.5352 5.46875C99.2643 6.28255 99.6289 7.37305 99.6289 8.74023V9.73633H92.3047L92.2852 10.166C92.2917 10.9473 92.4349 11.6439 92.7148 12.2559C93.0013 12.8678 93.3984 13.3496 93.9062 13.7012C94.4206 14.0527 95.0163 14.2285 95.6934 14.2285C96.3574 14.2285 96.9401 14.1243 97.4414 13.916C97.9492 13.7077 98.3952 13.418 98.7793 13.0469L99.2773 13.8477C98.8737 14.2448 98.3789 14.5703 97.793 14.8242C97.207 15.0781 96.5072 15.2051 95.6934 15.2051ZM92.3828 8.75977H98.457V8.4668C98.457 7.53581 98.1934 6.76432 97.666 6.15234C97.1452 5.53385 96.4225 5.22461 95.498 5.22461C94.9382 5.22461 94.4336 5.3776 93.9844 5.68359C93.5352 5.98307 93.1673 6.39648 92.8809 6.92383C92.6009 7.44466 92.4284 8.03711 92.3633 8.70117L92.3828 8.75977ZM101.592 15V14.1504L103.184 14.0234V5.41992L101.592 5.29297V4.43359H105.947V5.29297L104.355 5.41992V9.16992H110.039V5.41992L108.447 5.29297V4.43359H112.812V5.29297L111.221 5.41992V14.0234L112.812 14.1504V15H108.447V14.1504L110.039 14.0234V10.1465H104.355V14.0234L105.947 14.1504V15H101.592ZM114.99 15V14.1504L116.582 14.0234V5.41992L114.99 5.29297V4.43359H119.346V5.29297L117.754 5.41992V13.0176L117.812 13.0371L123.447 4.43359H126.211V5.29297L124.619 5.41992V14.0234L126.211 14.1504V15H121.855V14.1504L123.447 14.0234V6.41602L123.389 6.39648L117.754 15H114.99ZM138.447 15.2051C137.542 15.2051 136.745 14.9967 136.055 14.5801C135.371 14.1569 134.831 13.571 134.434 12.8223C134.036 12.0736 133.815 11.2109 133.77 10.2344H130.986V14.0234L132.578 14.1504V15H128.223V14.1504L129.814 14.0234V5.41992L128.223 5.29297V4.43359H130.986V9.25781H133.779C133.818 8.26172 134.036 7.38932 134.434 6.64062C134.831 5.88542 135.371 5.29622 136.055 4.87305C136.738 4.44987 137.529 4.23828 138.428 4.23828C139.372 4.23828 140.192 4.46615 140.889 4.92188C141.592 5.3776 142.135 6.00586 142.52 6.80664C142.91 7.60091 143.105 8.51888 143.105 9.56055V9.88281C143.105 10.9245 142.91 11.8457 142.52 12.6465C142.135 13.4473 141.595 14.0755 140.898 14.5312C140.202 14.9805 139.385 15.2051 138.447 15.2051ZM138.447 14.2285C139.17 14.2285 139.792 14.0365 140.312 13.6523C140.833 13.2682 141.234 12.7507 141.514 12.0996C141.794 11.4421 141.934 10.7031 141.934 9.88281V9.56055C141.934 8.75326 141.794 8.02409 141.514 7.37305C141.234 6.71549 140.83 6.19466 140.303 5.81055C139.782 5.41992 139.157 5.22461 138.428 5.22461C137.699 5.22461 137.074 5.41992 136.553 5.81055C136.032 6.19466 135.632 6.71549 135.352 7.37305C135.072 8.02409 134.932 8.75326 134.932 9.56055V9.88281C134.932 10.7031 135.072 11.4421 135.352 12.0996C135.632 12.7507 136.032 13.2682 136.553 13.6523C137.08 14.0365 137.712 14.2285 138.447 14.2285ZM154.658 15.2051C153.779 15.2051 153.001 14.9837 152.324 14.541C151.654 14.0983 151.126 13.4798 150.742 12.6855C150.365 11.8913 150.176 10.9701 150.176 9.92188V9.51172C150.176 8.48307 150.361 7.57161 150.732 6.77734C151.104 5.98307 151.621 5.36133 152.285 4.91211C152.956 4.46289 153.743 4.23828 154.648 4.23828C155.469 4.23828 156.198 4.39453 156.836 4.70703C157.474 5.01302 158.008 5.41016 158.438 5.89844L158.457 8.29102H157.48L157.324 6.31836C156.999 5.97331 156.618 5.70638 156.182 5.51758C155.745 5.32227 155.244 5.22461 154.678 5.22461C154.014 5.22461 153.431 5.41016 152.93 5.78125C152.428 6.15234 152.038 6.66341 151.758 7.31445C151.484 7.95898 151.348 8.69141 151.348 9.51172V9.92188C151.348 11.2109 151.647 12.2526 152.246 13.0469C152.845 13.8346 153.652 14.2285 154.668 14.2285C155.456 14.2285 156.113 14.0234 156.641 13.6133C157.168 13.1966 157.487 12.5846 157.598 11.7773H158.643L158.662 11.8359C158.571 12.8385 158.177 13.6523 157.48 14.2773C156.784 14.8958 155.843 15.2051 154.658 15.2051ZM165.4 18.1055L165.312 14.0234H166.074C166.458 13.5417 166.781 13.0632 167.041 12.5879C167.308 12.1061 167.52 11.5299 167.676 10.8594C167.839 10.1888 167.952 9.31641 168.018 8.24219L168.154 5.41016L166.602 5.29297V4.43359H176.025V5.29297L174.434 5.41992V14.0234H175.537L175.449 18.1055H174.365V15H166.426V18.1055H165.4ZM167.451 14.0234H173.262V5.50781H169.316L169.189 8.24219C169.111 9.62891 168.919 10.7878 168.613 11.7188C168.314 12.6497 167.926 13.418 167.451 14.0234ZM177.686 19.0625V18.2031L179.238 18.0762V5.41992L177.646 5.29297V4.43359H180.215L180.361 6.04492C180.713 5.47201 181.165 5.0293 181.719 4.7168C182.279 4.39779 182.936 4.23828 183.691 4.23828C184.544 4.23828 185.273 4.4694 185.879 4.93164C186.484 5.38737 186.947 6.0319 187.266 6.86523C187.591 7.69857 187.754 8.67839 187.754 9.80469V10.0098C187.754 11.5853 187.396 12.8451 186.68 13.7891C185.964 14.7331 184.977 15.2051 183.721 15.2051C182.972 15.2051 182.318 15.0651 181.758 14.7852C181.204 14.5052 180.755 14.1146 180.41 13.6133V18.0762L182.041 18.2031V19.0625H177.686ZM183.447 14.2285C184.469 14.2285 185.244 13.8444 185.771 13.0762C186.305 12.3014 186.572 11.2793 186.572 10.0098V9.80469C186.572 8.45703 186.305 7.36003 185.771 6.51367C185.238 5.66732 184.456 5.24414 183.428 5.24414C182.627 5.24414 181.982 5.43945 181.494 5.83008C181.012 6.2207 180.651 6.71549 180.41 7.31445V12.3535C180.658 12.9329 181.035 13.3919 181.543 13.7305C182.051 14.0625 182.686 14.2285 183.447 14.2285ZM191.572 19.2676C191.436 19.2676 191.27 19.2513 191.074 19.2188C190.885 19.1927 190.742 19.1667 190.645 19.1406L190.781 18.1738C190.872 18.1868 190.999 18.1999 191.162 18.2129C191.331 18.2324 191.455 18.2422 191.533 18.2422C192.041 18.2422 192.445 18.0729 192.744 17.7344C193.044 17.4023 193.317 16.9271 193.564 16.3086L194.111 14.873L190.234 5.36133L189.092 5.29297V4.43359H192.812V5.29297L191.475 5.38086L194.189 12.1973L194.629 13.3984H194.688L197.705 5.38086L196.328 5.29297V4.43359H200.02V5.29297L198.896 5.36133L194.561 16.6992C194.268 17.4479 193.906 18.0632 193.477 18.5449C193.047 19.0267 192.412 19.2676 191.572 19.2676ZM200.996 15V14.1504L202.588 14.0234V5.41992L200.996 5.29297V4.43359H209.248V6.69922H208.389L208.33 5.42969H203.76V14.0234L205.352 14.1504V15H200.996ZM211.514 15V14.1504L213.105 14.0234V5.41992L211.514 5.29297V4.43359H215.869V5.29297L214.277 5.41992V13.0176L214.336 13.0371L219.971 4.43359H222.734V5.29297L221.143 5.41992V14.0234L222.734 14.1504V15H218.379V14.1504L219.971 14.0234V6.41602L219.912 6.39648L214.277 15H211.514ZM224.912 15V14.1504L226.504 14.0234V5.41992L224.912 5.29297V4.43359H228.037L232.188 13.3691L232.236 13.4082L236.416 4.43359H239.463V5.29297L237.871 5.41992V14.0234L239.463 14.1504V15H235.107V14.1504L236.699 14.0234V6.54297L236.641 6.52344L232.646 15H231.807L227.734 6.32812L227.676 6.33789V14.0234L229.268 14.1504V15H224.912ZM241.533 15V14.1504L243.125 14.0234V5.41992L241.533 5.29297V4.43359H245.889V5.29297L244.297 5.41992V13.0176L244.355 13.0371L249.99 4.43359H252.754V5.29297L251.162 5.41992V14.0234L252.754 14.1504V15H248.398V14.1504L249.99 14.0234V6.41602L249.932 6.39648L244.297 15H241.533ZM6.62109 47L1.66992 33.709L0.585938 33.6406V32.7812H4.33594V33.6406L2.92969 33.7285L6.86523 44.5293L7.1582 45.4668H7.2168L7.50977 44.5293L11.5039 33.7285L10.0293 33.6406V32.7812H13.7793V33.6406L12.6855 33.709L7.73438 47H6.62109ZM15.0781 47.0098V46.1504L16.6699 46.0234V33.7676L15.0781 33.6406V32.791H21.0742C22.5977 32.791 23.7663 33.123 24.5801 33.7871C25.4004 34.4512 25.8105 35.4115 25.8105 36.668C25.8105 37.625 25.5501 38.4062 25.0293 39.0117C24.5085 39.6107 23.7956 40.0241 22.8906 40.252L25.4688 46.0625L26.6309 46.1406V47.0098H24.6387L21.7871 40.4277C21.6048 40.4408 21.416 40.4473 21.2207 40.4473L17.8418 40.4766V46.0234L19.4336 46.1504V47.0098H15.0781ZM17.8418 39.5H20.957C22.2266 39.5 23.1576 39.2396 23.75 38.7188C24.3424 38.1979 24.6387 37.5111 24.6387 36.6582C24.6387 35.7402 24.3424 35.0306 23.75 34.5293C23.1576 34.0215 22.2656 33.7676 21.0742 33.7676H17.8418V39.5ZM29.2578 41.4238V40.4473H33.9355V41.4238H29.2578ZM36.4551 47V46.1504L38.0469 46.0234V37.4199L36.4551 37.293V36.4336H40.8105V37.293L39.2188 37.4199V46.0234H43.916V36.4336H45.0879V46.0234H49.7461V37.4199L48.1543 37.293V36.4336H52.5098V37.293L50.918 37.4199V46.0234L52.5098 46.1504V47H36.4551ZM54.3066 47L54.3164 45.9648L54.6875 45.9551C55.1693 45.9551 55.5599 45.8021 55.8594 45.4961C56.1589 45.1836 56.377 44.6725 56.5137 43.9629C56.6569 43.2533 56.7285 42.2995 56.7285 41.1016V37.4199L55.1367 37.293V36.4336H65.1465V37.293L63.5547 37.4199V46.0234L65.1465 46.1504V47H60.7812V46.1504L62.373 46.0234V37.4297H57.9004V41.1016C57.9004 43.1784 57.6595 44.6823 57.1777 45.6133C56.696 46.5378 55.8789 47 54.7266 47H54.3066ZM71.8066 47.2051C70.9017 47.2051 70.1042 46.987 69.4141 46.5508C68.724 46.1081 68.1836 45.4993 67.793 44.7246C67.4023 43.9434 67.207 43.0449 67.207 42.0293V41.4922C67.207 40.4831 67.4023 39.5846 67.793 38.7969C68.1836 38.0026 68.7109 37.3776 69.375 36.9219C70.0456 36.4661 70.791 36.2383 71.6113 36.2383C72.9069 36.2383 73.9193 36.6484 74.6484 37.4688C75.3776 38.2826 75.7422 39.373 75.7422 40.7402V41.7363H68.418L68.3984 42.166C68.4049 42.9473 68.5482 43.6439 68.8281 44.2559C69.1146 44.8678 69.5117 45.3496 70.0195 45.7012C70.5339 46.0527 71.1296 46.2285 71.8066 46.2285C72.4707 46.2285 73.0534 46.1243 73.5547 45.916C74.0625 45.7077 74.5085 45.418 74.8926 45.0469L75.3906 45.8477C74.987 46.2448 74.4922 46.5703 73.9062 46.8242C73.3203 47.0781 72.6204 47.2051 71.8066 47.2051ZM68.4961 40.7598H74.5703V40.4668C74.5703 39.5358 74.3066 38.7643 73.7793 38.1523C73.2585 37.5339 72.5358 37.2246 71.6113 37.2246C71.0514 37.2246 70.5469 37.3776 70.0977 37.6836C69.6484 37.9831 69.2806 38.3965 68.9941 38.9238C68.7142 39.4447 68.5417 40.0371 68.4766 40.7012L68.4961 40.7598ZM77.7051 47V46.1504L79.2969 46.0234V37.4199L77.7051 37.293V36.4336H80.8301L84.9805 45.3691L85.0293 45.4082L89.209 36.4336H92.2559V37.293L90.6641 37.4199V46.0234L92.2559 46.1504V47H87.9004V46.1504L89.4922 46.0234V38.543L89.4336 38.5234L85.4395 47H84.5996L80.5273 38.3281L80.4688 38.3379V46.0234L82.0605 46.1504V47H77.7051ZM97.4805 47.2051C96.4779 47.2051 95.6934 46.9382 95.127 46.4043C94.5605 45.8704 94.2773 45.1478 94.2773 44.2363C94.2773 43.2598 94.6908 42.472 95.5176 41.873C96.3509 41.2676 97.4837 40.9648 98.916 40.9648H101.104V39.7539C101.104 38.9857 100.876 38.3704 100.42 37.9082C99.9642 37.446 99.2839 37.2148 98.3789 37.2148C97.8646 37.2148 97.4023 37.2995 96.9922 37.4688C96.5885 37.6315 96.237 37.8398 95.9375 38.0938L95.8398 39.7051H94.873V37.498C95.3288 37.1009 95.8464 36.7917 96.4258 36.5703C97.0052 36.349 97.6628 36.2383 98.3984 36.2383C99.6419 36.2383 100.599 36.5508 101.27 37.1758C101.94 37.8008 102.275 38.6667 102.275 39.7734V44.8711C102.275 45.0794 102.282 45.2878 102.295 45.4961C102.308 45.6979 102.331 45.8997 102.363 46.1016L103.623 46.1504V47H101.318C101.247 46.6159 101.195 46.3066 101.162 46.0723C101.13 45.8379 101.11 45.5742 101.104 45.2812C100.719 45.8477 100.212 46.3099 99.5801 46.668C98.9486 47.026 98.2487 47.2051 97.4805 47.2051ZM97.6172 46.1797C98.3398 46.1797 99.0234 45.9909 99.668 45.6133C100.319 45.2292 100.798 44.7214 101.104 44.0898V41.8633H98.9062C97.8255 41.8633 96.9792 42.0977 96.3672 42.5664C95.7552 43.0286 95.4492 43.5983 95.4492 44.2754C95.4492 44.8418 95.6413 45.3008 96.0254 45.6523C96.416 46.0039 96.9466 46.1797 97.6172 46.1797ZM105.303 47V46.1504L106.895 46.0234V37.4199L105.303 37.293V36.4336H108.428L112.578 45.3691L112.627 45.4082L116.807 36.4336H119.854V37.293L118.262 37.4199V46.0234L119.854 46.1504V47H115.498V46.1504L117.09 46.0234V38.543L117.031 38.5234L113.037 47H112.197L108.125 38.3281L108.066 38.3379V46.0234L109.658 46.1504V47H105.303ZM121.924 47V46.1504L123.516 46.0234V37.4199L121.924 37.293V36.4336H126.279V37.293L124.688 37.4199V45.0176L124.746 45.0371L130.381 36.4336H133.145V37.293L131.553 37.4199V46.0234L133.145 46.1504V47H128.789V46.1504L130.381 46.0234V38.416L130.322 38.3965L124.688 47H121.924ZM140.205 47V46.1504L141.797 46.0234V37.4199L140.205 37.293V36.4336H144.561V37.293L142.969 37.4199V41.1699H148.652V37.4199L147.061 37.293V36.4336H151.426V37.293L149.834 37.4199V46.0234L151.426 46.1504V47H147.061V46.1504L148.652 46.0234V42.1465H142.969V46.0234L144.561 46.1504V47H140.205ZM156.758 47.2051C155.755 47.2051 154.971 46.9382 154.404 46.4043C153.838 45.8704 153.555 45.1478 153.555 44.2363C153.555 43.2598 153.968 42.472 154.795 41.873C155.628 41.2676 156.761 40.9648 158.193 40.9648H160.381V39.7539C160.381 38.9857 160.153 38.3704 159.697 37.9082C159.242 37.446 158.561 37.2148 157.656 37.2148C157.142 37.2148 156.68 37.2995 156.27 37.4688C155.866 37.6315 155.514 37.8398 155.215 38.0938L155.117 39.7051H154.15V37.498C154.606 37.1009 155.124 36.7917 155.703 36.5703C156.283 36.349 156.94 36.2383 157.676 36.2383C158.919 36.2383 159.876 36.5508 160.547 37.1758C161.217 37.8008 161.553 38.6667 161.553 39.7734V44.8711C161.553 45.0794 161.559 45.2878 161.572 45.4961C161.585 45.6979 161.608 45.8997 161.641 46.1016L162.9 46.1504V47H160.596C160.524 46.6159 160.472 46.3066 160.439 46.0723C160.407 45.8379 160.387 45.5742 160.381 45.2812C159.997 45.8477 159.489 46.3099 158.857 46.668C158.226 47.026 157.526 47.2051 156.758 47.2051ZM156.895 46.1797C157.617 46.1797 158.301 45.9909 158.945 45.6133C159.596 45.2292 160.075 44.7214 160.381 44.0898V41.8633H158.184C157.103 41.8633 156.257 42.0977 155.645 42.5664C155.033 43.0286 154.727 43.5983 154.727 44.2754C154.727 44.8418 154.919 45.3008 155.303 45.6523C155.693 46.0039 156.224 46.1797 156.895 46.1797ZM164.58 47V46.1504L166.172 46.0234V37.4199L164.58 37.293V36.4336H168.936V37.293L167.344 37.4199V46.0234H172.041V36.4336H173.213V46.0234H177.871V37.4199L176.279 37.293V36.4336H180.635V37.293L179.043 37.4199V46.0234L180.635 46.1504V47H164.58ZM192.021 47.2051C191.143 47.2051 190.365 46.9837 189.688 46.541C189.017 46.0983 188.49 45.4798 188.105 44.6855C187.728 43.8913 187.539 42.9701 187.539 41.9219V41.5117C187.539 40.4831 187.725 39.5716 188.096 38.7773C188.467 37.9831 188.984 37.3613 189.648 36.9121C190.319 36.4629 191.107 36.2383 192.012 36.2383C192.832 36.2383 193.561 36.3945 194.199 36.707C194.837 37.013 195.371 37.4102 195.801 37.8984L195.82 40.291H194.844L194.688 38.3184C194.362 37.9733 193.981 37.7064 193.545 37.5176C193.109 37.3223 192.607 37.2246 192.041 37.2246C191.377 37.2246 190.794 37.4102 190.293 37.7812C189.792 38.1523 189.401 38.6634 189.121 39.3145C188.848 39.959 188.711 40.6914 188.711 41.5117V41.9219C188.711 43.2109 189.01 44.2526 189.609 45.0469C190.208 45.8346 191.016 46.2285 192.031 46.2285C192.819 46.2285 193.477 46.0234 194.004 45.6133C194.531 45.1966 194.85 44.5846 194.961 43.7773H196.006L196.025 43.8359C195.934 44.8385 195.54 45.6523 194.844 46.2773C194.147 46.8958 193.206 47.2051 192.021 47.2051ZM200.352 47V46.1504L201.943 46.0234V37.4102H199.082L199.014 39.4219H197.969V36.4336H207.227V39.4219H206.182L206.113 37.4102H203.115V46.0234L204.707 46.1504V47H200.352ZM213.379 47.2051C212.435 47.2051 211.611 46.9805 210.908 46.5312C210.205 46.0755 209.658 45.4473 209.268 44.6465C208.883 43.8457 208.691 42.9245 208.691 41.8828V41.5605C208.691 40.5254 208.883 39.6074 209.268 38.8066C209.658 38.0059 210.202 37.3776 210.898 36.9219C211.602 36.4661 212.422 36.2383 213.359 36.2383C214.297 36.2383 215.117 36.4661 215.82 36.9219C216.523 37.3776 217.067 38.0059 217.451 38.8066C217.842 39.6074 218.037 40.5254 218.037 41.5605V41.8828C218.037 42.9245 217.842 43.8457 217.451 44.6465C217.067 45.4473 216.523 46.0755 215.82 46.5312C215.124 46.9805 214.31 47.2051 213.379 47.2051ZM213.379 46.2285C214.102 46.2285 214.723 46.0365 215.244 45.6523C215.765 45.2682 216.165 44.7507 216.445 44.0996C216.725 43.4421 216.865 42.7031 216.865 41.8828V41.5605C216.865 40.7533 216.722 40.0241 216.436 39.373C216.156 38.7155 215.752 38.1947 215.225 37.8105C214.704 37.4199 214.082 37.2246 213.359 37.2246C212.624 37.2246 211.995 37.4199 211.475 37.8105C210.954 38.1947 210.553 38.7155 210.273 39.373C210 40.0241 209.863 40.7533 209.863 41.5605V41.8828C209.863 42.7031 210 43.4421 210.273 44.0996C210.553 44.7507 210.954 45.2682 211.475 45.6523C212.002 46.0365 212.637 46.2285 213.379 46.2285ZM219.99 47V46.1504L221.582 46.0234V37.4199L219.99 37.293V36.4336H224.346V37.293L222.754 37.4199V45.0176L222.812 45.0371L228.447 36.4336H231.211V37.293L229.619 37.4199V46.0234L231.211 46.1504V47H226.855V46.1504L228.447 46.0234V38.416L228.389 38.3965L222.754 47H219.99ZM235.645 47V46.1504L237.236 46.0234V37.4102H234.375L234.307 39.4219H233.262V36.4336H242.52V39.4219H241.475L241.406 37.4102H238.408V46.0234L240 46.1504V47H235.645ZM249.082 47V46.1504L250.674 46.0234V37.4199L249.082 37.293V36.4336H257.334V38.6992H256.475L256.416 37.4297H251.846V46.0234L253.438 46.1504V47H249.082ZM263.848 47.2051C262.904 47.2051 262.08 46.9805 261.377 46.5312C260.674 46.0755 260.127 45.4473 259.736 44.6465C259.352 43.8457 259.16 42.9245 259.16 41.8828V41.5605C259.16 40.5254 259.352 39.6074 259.736 38.8066C260.127 38.0059 260.671 37.3776 261.367 36.9219C262.07 36.4661 262.891 36.2383 263.828 36.2383C264.766 36.2383 265.586 36.4661 266.289 36.9219C266.992 37.3776 267.536 38.0059 267.92 38.8066C268.311 39.6074 268.506 40.5254 268.506 41.5605V41.8828C268.506 42.9245 268.311 43.8457 267.92 44.6465C267.536 45.4473 266.992 46.0755 266.289 46.5312C265.592 46.9805 264.779 47.2051 263.848 47.2051ZM263.848 46.2285C264.57 46.2285 265.192 46.0365 265.713 45.6523C266.234 45.2682 266.634 44.7507 266.914 44.0996C267.194 43.4421 267.334 42.7031 267.334 41.8828V41.5605C267.334 40.7533 267.191 40.0241 266.904 39.373C266.624 38.7155 266.221 38.1947 265.693 37.8105C265.173 37.4199 264.551 37.2246 263.828 37.2246C263.092 37.2246 262.464 37.4199 261.943 37.8105C261.423 38.1947 261.022 38.7155 260.742 39.373C260.469 40.0241 260.332 40.7533 260.332 41.5605V41.8828C260.332 42.7031 260.469 43.4421 260.742 44.0996C261.022 44.7507 261.423 45.2682 261.943 45.6523C262.471 46.0365 263.105 46.2285 263.848 46.2285ZM270.049 51.0625V50.2031L271.602 50.0762V37.4199L270.01 37.293V36.4336H272.578L272.725 38.0449C273.076 37.472 273.529 37.0293 274.082 36.7168C274.642 36.3978 275.299 36.2383 276.055 36.2383C276.908 36.2383 277.637 36.4694 278.242 36.9316C278.848 37.3874 279.31 38.0319 279.629 38.8652C279.954 39.6986 280.117 40.6784 280.117 41.8047V42.0098C280.117 43.5853 279.759 44.8451 279.043 45.7891C278.327 46.7331 277.34 47.2051 276.084 47.2051C275.335 47.2051 274.681 47.0651 274.121 46.7852C273.568 46.5052 273.118 46.1146 272.773 45.6133V50.0762L274.404 50.2031V51.0625H270.049ZM275.811 46.2285C276.833 46.2285 277.607 45.8444 278.135 45.0762C278.669 44.3014 278.936 43.2793 278.936 42.0098V41.8047C278.936 40.457 278.669 39.36 278.135 38.5137C277.601 37.6673 276.82 37.2441 275.791 37.2441C274.99 37.2441 274.346 37.4395 273.857 37.8301C273.376 38.2207 273.014 38.7155 272.773 39.3145V44.3535C273.021 44.9329 273.398 45.3919 273.906 45.7305C274.414 46.0625 275.049 46.2285 275.811 46.2285ZM285.312 47.2051C284.31 47.2051 283.525 46.9382 282.959 46.4043C282.393 45.8704 282.109 45.1478 282.109 44.2363C282.109 43.2598 282.523 42.472 283.35 41.873C284.183 41.2676 285.316 40.9648 286.748 40.9648H288.936V39.7539C288.936 38.9857 288.708 38.3704 288.252 37.9082C287.796 37.446 287.116 37.2148 286.211 37.2148C285.697 37.2148 285.234 37.2995 284.824 37.4688C284.421 37.6315 284.069 37.8398 283.77 38.0938L283.672 39.7051H282.705V37.498C283.161 37.1009 283.678 36.7917 284.258 36.5703C284.837 36.349 285.495 36.2383 286.23 36.2383C287.474 36.2383 288.431 36.5508 289.102 37.1758C289.772 37.8008 290.107 38.6667 290.107 39.7734V44.8711C290.107 45.0794 290.114 45.2878 290.127 45.4961C290.14 45.6979 290.163 45.8997 290.195 46.1016L291.455 46.1504V47H289.15C289.079 46.6159 289.027 46.3066 288.994 46.0723C288.962 45.8379 288.942 45.5742 288.936 45.2812C288.551 45.8477 288.044 46.3099 287.412 46.668C286.781 47.026 286.081 47.2051 285.312 47.2051ZM285.449 46.1797C286.172 46.1797 286.855 45.9909 287.5 45.6133C288.151 45.2292 288.63 44.7214 288.936 44.0898V41.8633H286.738C285.658 41.8633 284.811 42.0977 284.199 42.5664C283.587 43.0286 283.281 43.5983 283.281 44.2754C283.281 44.8418 283.473 45.3008 283.857 45.6523C284.248 46.0039 284.779 46.1797 285.449 46.1797ZM297.08 47.1758C296.351 47.1758 295.677 47.0553 295.059 46.8145C294.44 46.5671 293.945 46.2122 293.574 45.75C293.21 45.2812 293.037 44.7083 293.057 44.0312L293.076 43.9727H294.16C294.16 44.6042 294.434 45.1348 294.98 45.5645C295.534 45.9941 296.234 46.209 297.08 46.209C297.992 46.209 298.691 46.0202 299.18 45.6426C299.674 45.2585 299.922 44.7507 299.922 44.1191C299.922 43.4225 299.691 42.9147 299.229 42.5957C298.773 42.2702 298.07 42.1074 297.119 42.1074H295.508V41.1016H297.119C298.044 41.1016 298.711 40.9421 299.121 40.623C299.531 40.2975 299.736 39.832 299.736 39.2266C299.736 38.6406 299.518 38.1621 299.082 37.791C298.652 37.4199 297.985 37.2344 297.08 37.2344C296.318 37.2344 295.671 37.4297 295.137 37.8203C294.603 38.2044 294.336 38.6927 294.336 39.2852H293.252L293.232 39.2266C293.206 38.6471 293.363 38.1361 293.701 37.6934C294.046 37.2441 294.512 36.8958 295.098 36.6484C295.69 36.3945 296.351 36.2676 297.08 36.2676C298.285 36.2676 299.225 36.5247 299.902 37.0391C300.579 37.5534 300.918 38.2858 300.918 39.2363C300.918 39.7572 300.755 40.2259 300.43 40.6426C300.111 41.0527 299.655 41.3652 299.062 41.5801C300.43 41.9642 301.113 42.804 301.113 44.0996C301.113 45.0632 300.742 45.8184 300 46.3652C299.264 46.9056 298.291 47.1758 297.08 47.1758ZM303.057 50.1055L302.969 46.0234H303.73C304.115 45.5417 304.437 45.0632 304.697 44.5879C304.964 44.1061 305.176 43.5299 305.332 42.8594C305.495 42.1888 305.609 41.3164 305.674 40.2422L305.811 37.4102L304.258 37.293V36.4336H313.682V37.293L312.09 37.4199V46.0234H313.193L313.105 50.1055H312.021V47H304.082V50.1055H303.057ZM305.107 46.0234H310.918V37.5078H306.973L306.846 40.2422C306.768 41.6289 306.576 42.7878 306.27 43.7188C305.97 44.6497 305.583 45.418 305.107 46.0234ZM320.391 47.2051C319.447 47.2051 318.623 46.9805 317.92 46.5312C317.217 46.0755 316.67 45.4473 316.279 44.6465C315.895 43.8457 315.703 42.9245 315.703 41.8828V41.5605C315.703 40.5254 315.895 39.6074 316.279 38.8066C316.67 38.0059 317.214 37.3776 317.91 36.9219C318.613 36.4661 319.434 36.2383 320.371 36.2383C321.309 36.2383 322.129 36.4661 322.832 36.9219C323.535 37.3776 324.079 38.0059 324.463 38.8066C324.854 39.6074 325.049 40.5254 325.049 41.5605V41.8828C325.049 42.9245 324.854 43.8457 324.463 44.6465C324.079 45.4473 323.535 46.0755 322.832 46.5312C322.135 46.9805 321.322 47.2051 320.391 47.2051ZM320.391 46.2285C321.113 46.2285 321.735 46.0365 322.256 45.6523C322.777 45.2682 323.177 44.7507 323.457 44.0996C323.737 43.4421 323.877 42.7031 323.877 41.8828V41.5605C323.877 40.7533 323.734 40.0241 323.447 39.373C323.167 38.7155 322.764 38.1947 322.236 37.8105C321.715 37.4199 321.094 37.2246 320.371 37.2246C319.635 37.2246 319.007 37.4199 318.486 37.8105C317.965 38.1947 317.565 38.7155 317.285 39.373C317.012 40.0241 316.875 40.7533 316.875 41.5605V41.8828C316.875 42.7031 317.012 43.4421 317.285 44.0996C317.565 44.7507 317.965 45.2682 318.486 45.6523C319.014 46.0365 319.648 46.2285 320.391 46.2285ZM0.947266 79V78.1504L2.53906 78.0234V69.4199L0.947266 69.293V68.4336H4.07227L8.22266 77.3691L8.27148 77.4082L12.4512 68.4336H15.498V69.293L13.9062 69.4199V78.0234L15.498 78.1504V79H11.1426V78.1504L12.7344 78.0234V70.543L12.6758 70.5234L8.68164 79H7.8418L3.76953 70.3281L3.71094 70.3379V78.0234L5.30273 78.1504V79H0.947266ZM22.1387 79.2051C21.2337 79.2051 20.4362 78.987 19.7461 78.5508C19.056 78.1081 18.5156 77.4993 18.125 76.7246C17.7344 75.9434 17.5391 75.0449 17.5391 74.0293V73.4922C17.5391 72.4831 17.7344 71.5846 18.125 70.7969C18.5156 70.0026 19.043 69.3776 19.707 68.9219C20.3776 68.4661 21.123 68.2383 21.9434 68.2383C23.2389 68.2383 24.2513 68.6484 24.9805 69.4688C25.7096 70.2826 26.0742 71.373 26.0742 72.7402V73.7363H18.75L18.7305 74.166C18.737 74.9473 18.8802 75.6439 19.1602 76.2559C19.4466 76.8678 19.8438 77.3496 20.3516 77.7012C20.8659 78.0527 21.4616 78.2285 22.1387 78.2285C22.8027 78.2285 23.3854 78.1243 23.8867 77.916C24.3945 77.7077 24.8405 77.418 25.2246 77.0469L25.7227 77.8477C25.319 78.2448 24.8242 78.5703 24.2383 78.8242C23.6523 79.0781 22.9525 79.2051 22.1387 79.2051ZM18.8281 72.7598H24.9023V72.4668C24.9023 71.5358 24.6387 70.7643 24.1113 70.1523C23.5905 69.5339 22.8678 69.2246 21.9434 69.2246C21.3835 69.2246 20.8789 69.3776 20.4297 69.6836C19.9805 69.9831 19.6126 70.3965 19.3262 70.9238C19.0462 71.4447 18.8737 72.0371 18.8086 72.7012L18.8281 72.7598ZM28.0371 79V78.1504L29.6289 78.0234V69.4199L28.0371 69.293V68.4336H32.3926V69.293L30.8008 69.4199V73.1699H36.4844V69.4199L34.8926 69.293V68.4336H39.2578V69.293L37.666 69.4199V78.0234L39.2578 78.1504V79H34.8926V78.1504L36.4844 78.0234V74.1465H30.8008V78.0234L32.3926 78.1504V79H28.0371ZM47.2168 72.2812C48.4342 72.2812 49.3815 72.5905 50.0586 73.209C50.7422 73.8275 51.084 74.6315 51.084 75.6211C51.084 76.6172 50.7422 77.431 50.0586 78.0625C49.3815 78.6875 48.4342 79 47.2168 79H41.4355V78.1504L43.0273 78.0234V69.4199L41.4355 69.293V68.4336H45.791V69.293L44.1992 69.4199V72.2812H47.2168ZM47.2168 78.0234C48.1217 78.0234 48.7956 77.7988 49.2383 77.3496C49.6875 76.8939 49.9121 76.3242 49.9121 75.6406C49.9121 74.9831 49.6875 74.4232 49.2383 73.9609C48.7891 73.4922 48.1152 73.2578 47.2168 73.2578H44.1992V78.0234H47.2168ZM53.0762 79V78.1504L54.668 78.0234V69.4199L53.0762 69.293V68.4336H57.4316V69.293L55.8398 69.4199V78.0234H60.5371V68.4336H61.709V78.0234H66.3672V69.4199L64.7754 69.293V68.4336H69.1309V69.293L67.5391 69.4199V78.0234L69.1309 78.1504V79H53.0762ZM75.7715 79.2051C74.8665 79.2051 74.069 78.987 73.3789 78.5508C72.6888 78.1081 72.1484 77.4993 71.7578 76.7246C71.3672 75.9434 71.1719 75.0449 71.1719 74.0293V73.4922C71.1719 72.4831 71.3672 71.5846 71.7578 70.7969C72.1484 70.0026 72.6758 69.3776 73.3398 68.9219C74.0104 68.4661 74.7559 68.2383 75.5762 68.2383C76.8717 68.2383 77.8841 68.6484 78.6133 69.4688C79.3424 70.2826 79.707 71.373 79.707 72.7402V73.7363H72.3828L72.3633 74.166C72.3698 74.9473 72.513 75.6439 72.793 76.2559C73.0794 76.8678 73.4766 77.3496 73.9844 77.7012C74.4987 78.0527 75.0944 78.2285 75.7715 78.2285C76.4355 78.2285 77.0182 78.1243 77.5195 77.916C78.0273 77.7077 78.4733 77.418 78.8574 77.0469L79.3555 77.8477C78.9518 78.2448 78.457 78.5703 77.8711 78.8242C77.2852 79.0781 76.5853 79.2051 75.7715 79.2051ZM72.4609 72.7598H78.5352V72.4668C78.5352 71.5358 78.2715 70.7643 77.7441 70.1523C77.2233 69.5339 76.5007 69.2246 75.5762 69.2246C75.0163 69.2246 74.5117 69.3776 74.0625 69.6836C73.6133 69.9831 73.2454 70.3965 72.959 70.9238C72.679 71.4447 72.5065 72.0371 72.4414 72.7012L72.4609 72.7598ZM82.1387 79V77.4082H83.4766V79H82.1387ZM90.9277 79V78.1504L92.5195 78.0234V65.7676L90.9277 65.6406V64.7812H95.2832V65.6406L93.6914 65.7676V75.4453L93.75 75.4648L101.826 66.9004V65.7676L100.234 65.6406V64.7812H104.59V65.6406L102.998 65.7676V78.0234L104.59 78.1504V79H100.234V78.1504L101.826 78.0234V68.4434L101.768 68.4238L93.6914 76.998V78.0234L95.2832 78.1504V79H90.9277ZM111.26 79V78.1504L112.852 78.0234V69.4199L111.26 69.293V68.4336H116.729C118.05 68.4336 119.072 68.668 119.795 69.1367C120.524 69.6055 120.889 70.3086 120.889 71.2461C120.889 71.793 120.719 72.2747 120.381 72.6914C120.049 73.1016 119.58 73.3945 118.975 73.5703C119.671 73.6875 120.234 73.9805 120.664 74.4492C121.1 74.918 121.318 75.4583 121.318 76.0703C121.318 77.0273 120.967 77.7565 120.264 78.2578C119.567 78.7526 118.613 79 117.402 79H111.26ZM114.023 73.1602H116.836C118.757 73.1602 119.717 72.5319 119.717 71.2754C119.717 70.0319 118.721 69.4102 116.729 69.4102H114.023V73.1602ZM114.023 78.0332H117.402C118.275 78.0332 118.949 77.8639 119.424 77.5254C119.906 77.1803 120.146 76.6888 120.146 76.0508C120.146 75.4648 119.902 74.9993 119.414 74.6543C118.932 74.3027 118.262 74.127 117.402 74.127H114.023V78.0332ZM133.633 79V78.1504L135.225 78.0234V69.4199L133.633 69.293V68.4336H136.396V78.0234L137.988 78.1504V79H133.633ZM129.248 72.2812C130.465 72.2812 131.413 72.5905 132.09 73.209C132.773 73.8275 133.115 74.6315 133.115 75.6211C133.115 76.6172 132.773 77.431 132.09 78.0625C131.413 78.6875 130.465 79 129.248 79H123.467V78.1504L125.059 78.0234V69.4199L123.467 69.293V68.4336H127.822V69.293L126.23 69.4199V72.2812H129.248ZM126.23 78.0234H129.248C130.153 78.0234 130.827 77.7988 131.27 77.3496C131.719 76.8939 131.943 76.3242 131.943 75.6406C131.943 74.9831 131.719 74.4232 131.27 73.9609C130.82 73.4922 130.146 73.2578 129.248 73.2578H126.23V78.0234ZM148.662 79.2051C147.783 79.2051 147.005 78.9837 146.328 78.541C145.658 78.0983 145.13 77.4798 144.746 76.6855C144.368 75.8913 144.18 74.9701 144.18 73.9219V73.5117C144.18 72.4831 144.365 71.5716 144.736 70.7773C145.107 69.9831 145.625 69.3613 146.289 68.9121C146.96 68.4629 147.747 68.2383 148.652 68.2383C149.473 68.2383 150.202 68.3945 150.84 68.707C151.478 69.013 152.012 69.4102 152.441 69.8984L152.461 72.291H151.484L151.328 70.3184C151.003 69.9733 150.622 69.7064 150.186 69.5176C149.749 69.3223 149.248 69.2246 148.682 69.2246C148.018 69.2246 147.435 69.4102 146.934 69.7812C146.432 70.1523 146.042 70.6634 145.762 71.3145C145.488 71.959 145.352 72.6914 145.352 73.5117V73.9219C145.352 75.2109 145.651 76.2526 146.25 77.0469C146.849 77.8346 147.656 78.2285 148.672 78.2285C149.46 78.2285 150.117 78.0234 150.645 77.6133C151.172 77.1966 151.491 76.5846 151.602 75.7773H152.646L152.666 75.8359C152.575 76.8385 152.181 77.6523 151.484 78.2773C150.788 78.8958 149.847 79.2051 148.662 79.2051ZM156.67 83.2676C156.533 83.2676 156.367 83.2513 156.172 83.2188C155.983 83.1927 155.84 83.1667 155.742 83.1406L155.879 82.1738C155.97 82.1868 156.097 82.1999 156.26 82.2129C156.429 82.2324 156.553 82.2422 156.631 82.2422C157.139 82.2422 157.542 82.0729 157.842 81.7344C158.141 81.4023 158.415 80.9271 158.662 80.3086L159.209 78.873L155.332 69.3613L154.189 69.293V68.4336H157.91V69.293L156.572 69.3809L159.287 76.1973L159.727 77.3984H159.785L162.803 69.3809L161.426 69.293V68.4336H165.117V69.293L163.994 69.3613L159.658 80.6992C159.365 81.4479 159.004 82.0632 158.574 82.5449C158.145 83.0267 157.51 83.2676 156.67 83.2676ZM181.221 82.1348V79H166.279V78.1504L167.871 78.0234V69.4199L166.279 69.293V68.4336H170.635V69.293L169.043 69.4199V78.0234H173.74V68.4336H174.922V78.0234H179.57V69.4199L177.979 69.293V68.4336H182.334V69.293L180.742 69.4199V78.0137H182.383L182.295 82.1348H181.221ZM189.17 79.2051C188.265 79.2051 187.467 78.987 186.777 78.5508C186.087 78.1081 185.547 77.4993 185.156 76.7246C184.766 75.9434 184.57 75.0449 184.57 74.0293V73.4922C184.57 72.4831 184.766 71.5846 185.156 70.7969C185.547 70.0026 186.074 69.3776 186.738 68.9219C187.409 68.4661 188.154 68.2383 188.975 68.2383C190.27 68.2383 191.283 68.6484 192.012 69.4688C192.741 70.2826 193.105 71.373 193.105 72.7402V73.7363H185.781L185.762 74.166C185.768 74.9473 185.911 75.6439 186.191 76.2559C186.478 76.8678 186.875 77.3496 187.383 77.7012C187.897 78.0527 188.493 78.2285 189.17 78.2285C189.834 78.2285 190.417 78.1243 190.918 77.916C191.426 77.7077 191.872 77.418 192.256 77.0469L192.754 77.8477C192.35 78.2448 191.855 78.5703 191.27 78.8242C190.684 79.0781 189.984 79.2051 189.17 79.2051ZM185.859 72.7598H191.934V72.4668C191.934 71.5358 191.67 70.7643 191.143 70.1523C190.622 69.5339 189.899 69.2246 188.975 69.2246C188.415 69.2246 187.91 69.3776 187.461 69.6836C187.012 69.9831 186.644 70.3965 186.357 70.9238C186.077 71.4447 185.905 72.0371 185.84 72.7012L185.859 72.7598ZM199.678 79.2051C198.799 79.2051 198.021 78.9837 197.344 78.541C196.673 78.0983 196.146 77.4798 195.762 76.6855C195.384 75.8913 195.195 74.9701 195.195 73.9219V73.5117C195.195 72.4831 195.381 71.5716 195.752 70.7773C196.123 69.9831 196.641 69.3613 197.305 68.9121C197.975 68.4629 198.763 68.2383 199.668 68.2383C200.488 68.2383 201.217 68.3945 201.855 68.707C202.493 69.013 203.027 69.4102 203.457 69.8984L203.477 72.291H202.5L202.344 70.3184C202.018 69.9733 201.637 69.7064 201.201 69.5176C200.765 69.3223 200.264 69.2246 199.697 69.2246C199.033 69.2246 198.451 69.4102 197.949 69.7812C197.448 70.1523 197.057 70.6634 196.777 71.3145C196.504 71.959 196.367 72.6914 196.367 73.5117V73.9219C196.367 75.2109 196.667 76.2526 197.266 77.0469C197.865 77.8346 198.672 78.2285 199.688 78.2285C200.475 78.2285 201.133 78.0234 201.66 77.6133C202.188 77.1966 202.507 76.5846 202.617 75.7773H203.662L203.682 75.8359C203.59 76.8385 203.197 77.6523 202.5 78.2773C201.803 78.8958 200.863 79.2051 199.678 79.2051ZM208.008 79V78.1504L209.6 78.0234V69.4102H206.738L206.67 71.4219H205.625V68.4336H214.883V71.4219H213.838L213.77 69.4102H210.771V78.0234L212.363 78.1504V79H208.008ZM216.807 79V78.1504L218.398 78.0234V69.4199L216.807 69.293V68.4336H222.275C223.597 68.4336 224.619 68.668 225.342 69.1367C226.071 69.6055 226.436 70.3086 226.436 71.2461C226.436 71.793 226.266 72.2747 225.928 72.6914C225.596 73.1016 225.127 73.3945 224.521 73.5703C225.218 73.6875 225.781 73.9805 226.211 74.4492C226.647 74.918 226.865 75.4583 226.865 76.0703C226.865 77.0273 226.514 77.7565 225.811 78.2578C225.114 78.7526 224.16 79 222.949 79H216.807ZM219.57 73.1602H222.383C224.303 73.1602 225.264 72.5319 225.264 71.2754C225.264 70.0319 224.268 69.4102 222.275 69.4102H219.57V73.1602ZM219.57 78.0332H222.949C223.822 78.0332 224.495 77.8639 224.971 77.5254C225.452 77.1803 225.693 76.6888 225.693 76.0508C225.693 75.4648 225.449 74.9993 224.961 74.6543C224.479 74.3027 223.809 74.127 222.949 74.127H219.57V78.0332ZM233.584 79.2051C232.679 79.2051 231.882 78.987 231.191 78.5508C230.501 78.1081 229.961 77.4993 229.57 76.7246C229.18 75.9434 228.984 75.0449 228.984 74.0293V73.4922C228.984 72.4831 229.18 71.5846 229.57 70.7969C229.961 70.0026 230.488 69.3776 231.152 68.9219C231.823 68.4661 232.568 68.2383 233.389 68.2383C234.684 68.2383 235.697 68.6484 236.426 69.4688C237.155 70.2826 237.52 71.373 237.52 72.7402V73.7363H230.195L230.176 74.166C230.182 74.9473 230.326 75.6439 230.605 76.2559C230.892 76.8678 231.289 77.3496 231.797 77.7012C232.311 78.0527 232.907 78.2285 233.584 78.2285C234.248 78.2285 234.831 78.1243 235.332 77.916C235.84 77.7077 236.286 77.418 236.67 77.0469L237.168 77.8477C236.764 78.2448 236.27 78.5703 235.684 78.8242C235.098 79.0781 234.398 79.2051 233.584 79.2051ZM230.273 72.7598H236.348V72.4668C236.348 71.5358 236.084 70.7643 235.557 70.1523C235.036 69.5339 234.313 69.2246 233.389 69.2246C232.829 69.2246 232.324 69.3776 231.875 69.6836C231.426 69.9831 231.058 70.3965 230.771 70.9238C230.492 71.4447 230.319 72.0371 230.254 72.7012L230.273 72.7598ZM239.482 79V78.1504L241.074 78.0234V69.4199L239.482 69.293V68.4336H243.838V69.293L242.246 69.4199V73.1699H247.93V69.4199L246.338 69.293V68.4336H250.703V69.293L249.111 69.4199V78.0234L250.703 78.1504V79H246.338V78.1504L247.93 78.0234V74.1465H242.246V78.0234L243.838 78.1504V79H239.482ZM252.881 79V78.1504L254.473 78.0234V69.4199L252.881 69.293V68.4336H257.236V69.293L255.645 69.4199V73.1699H261.328V69.4199L259.736 69.293V68.4336H264.102V69.293L262.51 69.4199V78.0234L264.102 78.1504V79H259.736V78.1504L261.328 78.0234V74.1465H255.645V78.0234L257.236 78.1504V79H252.881ZM270.918 79.2051C269.974 79.2051 269.15 78.9805 268.447 78.5312C267.744 78.0755 267.197 77.4473 266.807 76.6465C266.423 75.8457 266.23 74.9245 266.23 73.8828V73.5605C266.23 72.5254 266.423 71.6074 266.807 70.8066C267.197 70.0059 267.741 69.3776 268.438 68.9219C269.141 68.4661 269.961 68.2383 270.898 68.2383C271.836 68.2383 272.656 68.4661 273.359 68.9219C274.062 69.3776 274.606 70.0059 274.99 70.8066C275.381 71.6074 275.576 72.5254 275.576 73.5605V73.8828C275.576 74.9245 275.381 75.8457 274.99 76.6465C274.606 77.4473 274.062 78.0755 273.359 78.5312C272.663 78.9805 271.849 79.2051 270.918 79.2051ZM270.918 78.2285C271.641 78.2285 272.262 78.0365 272.783 77.6523C273.304 77.2682 273.704 76.7507 273.984 76.0996C274.264 75.4421 274.404 74.7031 274.404 73.8828V73.5605C274.404 72.7533 274.261 72.0241 273.975 71.373C273.695 70.7155 273.291 70.1947 272.764 69.8105C272.243 69.4199 271.621 69.2246 270.898 69.2246C270.163 69.2246 269.535 69.4199 269.014 69.8105C268.493 70.1947 268.092 70.7155 267.812 71.373C267.539 72.0241 267.402 72.7533 267.402 73.5605V73.8828C267.402 74.7031 267.539 75.4421 267.812 76.0996C268.092 76.7507 268.493 77.2682 269.014 77.6523C269.541 78.0365 270.176 78.2285 270.918 78.2285ZM5.17578 111.205C4.45964 111.205 3.79232 111.055 3.17383 110.756C2.55534 110.45 2.06055 110.04 1.68945 109.525C1.32487 109.005 1.15234 108.419 1.17188 107.768L1.19141 107.709H2.23633C2.23633 108.236 2.37305 108.689 2.64648 109.066C2.91992 109.438 3.27799 109.724 3.7207 109.926C4.16992 110.128 4.65495 110.229 5.17578 110.229C6.27604 110.229 7.09635 109.851 7.63672 109.096C8.18359 108.334 8.45703 107.367 8.45703 106.195L8.4375 106.146H3.63281V105.17H8.42773L8.45703 105.121C8.43099 103.995 8.14453 103.064 7.59766 102.328C7.05729 101.592 6.25326 101.225 5.18555 101.225C4.58659 101.225 4.05273 101.329 3.58398 101.537C3.12174 101.745 2.73763 102.022 2.43164 102.367L2.24609 104.252H1.25L1.28906 101.947C1.71224 101.42 2.25911 101.003 2.92969 100.697C3.60677 100.391 4.35872 100.238 5.18555 100.238C6.13607 100.238 6.94661 100.463 7.61719 100.912C8.28776 101.361 8.79883 101.983 9.15039 102.777C9.50846 103.572 9.6875 104.483 9.6875 105.512V105.922C9.6875 106.957 9.50846 107.872 9.15039 108.666C8.79883 109.46 8.28451 110.082 7.60742 110.531C6.93685 110.98 6.1263 111.205 5.17578 111.205ZM11.4746 111V110.15L13.0664 110.023V101.42L11.4746 101.293V100.434H15.8398V101.293L14.248 101.42V105.121H15.8105L18.3887 101.83C18.8184 101.264 19.2057 100.867 19.5508 100.639C19.9023 100.404 20.2897 100.287 20.7129 100.287C20.9212 100.287 21.11 100.316 21.2793 100.375C21.4551 100.434 21.6341 100.521 21.8164 100.639L21.5625 101.488C21.3867 101.436 21.263 101.4 21.1914 101.381C21.1198 101.361 21.0221 101.352 20.8984 101.352C20.6055 101.352 20.3418 101.433 20.1074 101.596C19.873 101.758 19.6029 102.032 19.2969 102.416L16.8359 105.541L20.8496 110.033L22.207 110.15V111H20.1367L15.8594 106.146H14.248V110.023L15.8398 110.15V111H11.4746ZM27.7734 111.205C26.8294 111.205 26.0059 110.98 25.3027 110.531C24.5996 110.076 24.0527 109.447 23.6621 108.646C23.278 107.846 23.0859 106.924 23.0859 105.883V105.561C23.0859 104.525 23.278 103.607 23.6621 102.807C24.0527 102.006 24.5964 101.378 25.293 100.922C25.9961 100.466 26.8164 100.238 27.7539 100.238C28.6914 100.238 29.5117 100.466 30.2148 100.922C30.918 101.378 31.4616 102.006 31.8457 102.807C32.2363 103.607 32.4316 104.525 32.4316 105.561V105.883C32.4316 106.924 32.2363 107.846 31.8457 108.646C31.4616 109.447 30.918 110.076 30.2148 110.531C29.5182 110.98 28.7044 111.205 27.7734 111.205ZM27.7734 110.229C28.4961 110.229 29.1178 110.036 29.6387 109.652C30.1595 109.268 30.5599 108.751 30.8398 108.1C31.1198 107.442 31.2598 106.703 31.2598 105.883V105.561C31.2598 104.753 31.1165 104.024 30.8301 103.373C30.5501 102.715 30.1465 102.195 29.6191 101.811C29.0983 101.42 28.4766 101.225 27.7539 101.225C27.0182 101.225 26.39 101.42 25.8691 101.811C25.3483 102.195 24.9479 102.715 24.668 103.373C24.3945 104.024 24.2578 104.753 24.2578 105.561V105.883C24.2578 106.703 24.3945 107.442 24.668 108.1C24.9479 108.751 25.3483 109.268 25.8691 109.652C26.3965 110.036 27.0312 110.229 27.7734 110.229ZM34.3848 111V110.15L35.9766 110.023V101.42L34.3848 101.293V100.434H38.7402V101.293L37.1484 101.42V105.17H42.832V101.42L41.2402 101.293V100.434H45.6055V101.293L44.0137 101.42V110.023L45.6055 110.15V111H41.2402V110.15L42.832 110.023V106.146H37.1484V110.023L38.7402 110.15V111H34.3848ZM52.4219 111.205C51.4779 111.205 50.6543 110.98 49.9512 110.531C49.248 110.076 48.7012 109.447 48.3105 108.646C47.9264 107.846 47.7344 106.924 47.7344 105.883V105.561C47.7344 104.525 47.9264 103.607 48.3105 102.807C48.7012 102.006 49.2448 101.378 49.9414 100.922C50.6445 100.466 51.4648 100.238 52.4023 100.238C53.3398 100.238 54.1602 100.466 54.8633 100.922C55.5664 101.378 56.11 102.006 56.4941 102.807C56.8848 103.607 57.0801 104.525 57.0801 105.561V105.883C57.0801 106.924 56.8848 107.846 56.4941 108.646C56.11 109.447 55.5664 110.076 54.8633 110.531C54.1667 110.98 53.3529 111.205 52.4219 111.205ZM52.4219 110.229C53.1445 110.229 53.7663 110.036 54.2871 109.652C54.8079 109.268 55.2083 108.751 55.4883 108.1C55.7682 107.442 55.9082 106.703 55.9082 105.883V105.561C55.9082 104.753 55.765 104.024 55.4785 103.373C55.1986 102.715 54.7949 102.195 54.2676 101.811C53.7467 101.42 53.125 101.225 52.4023 101.225C51.6667 101.225 51.0384 101.42 50.5176 101.811C49.9967 102.195 49.5964 102.715 49.3164 103.373C49.043 104.024 48.9062 104.753 48.9062 105.561V105.883C48.9062 106.703 49.043 107.442 49.3164 108.1C49.5964 108.751 49.9967 109.268 50.5176 109.652C51.0449 110.036 51.6797 110.229 52.4219 110.229ZM59.0332 111V110.15L60.625 110.023V101.42L59.0332 101.293V100.434H62.1582L66.3086 109.369L66.3574 109.408L70.5371 100.434H73.584V101.293L71.9922 101.42V110.023L73.584 110.15V111H69.2285V110.15L70.8203 110.023V102.543L70.7617 102.523L66.7676 111H65.9277L61.8555 102.328L61.7969 102.338V110.023L63.3887 110.15V111H59.0332ZM75.6543 111V110.15L77.2461 110.023V101.42L75.6543 101.293V100.434H80.0098V101.293L78.418 101.42V109.018L78.4766 109.037L84.1113 100.434H86.875V101.293L85.2832 101.42V110.023L86.875 110.15V111H82.5195V110.15L84.1113 110.023V102.416L84.0527 102.396L78.418 111H75.6543ZM91.3086 111V110.15L92.9004 110.023V101.41H90.0391L89.9707 103.422H88.9258V100.434H98.1836V103.422H97.1387L97.0703 101.41H94.0723V110.023L95.6641 110.15V111H91.3086ZM103.896 111.205C102.992 111.205 102.194 110.987 101.504 110.551C100.814 110.108 100.273 109.499 99.8828 108.725C99.4922 107.943 99.2969 107.045 99.2969 106.029V105.492C99.2969 104.483 99.4922 103.585 99.8828 102.797C100.273 102.003 100.801 101.378 101.465 100.922C102.135 100.466 102.881 100.238 103.701 100.238C104.997 100.238 106.009 100.648 106.738 101.469C107.467 102.283 107.832 103.373 107.832 104.74V105.736H100.508L100.488 106.166C100.495 106.947 100.638 107.644 100.918 108.256C101.204 108.868 101.602 109.35 102.109 109.701C102.624 110.053 103.219 110.229 103.896 110.229C104.561 110.229 105.143 110.124 105.645 109.916C106.152 109.708 106.598 109.418 106.982 109.047L107.48 109.848C107.077 110.245 106.582 110.57 105.996 110.824C105.41 111.078 104.71 111.205 103.896 111.205ZM100.586 104.76H106.66V104.467C106.66 103.536 106.396 102.764 105.869 102.152C105.348 101.534 104.626 101.225 103.701 101.225C103.141 101.225 102.637 101.378 102.188 101.684C101.738 101.983 101.37 102.396 101.084 102.924C100.804 103.445 100.632 104.037 100.566 104.701L100.586 104.76ZM114.678 111V110.15L116.27 110.023V101.42L114.678 101.293V100.434H119.033V101.293L117.441 101.42V105.17H123.125V101.42L121.533 101.293V100.434H125.898V101.293L124.307 101.42V110.023L125.898 110.15V111H121.533V110.15L123.125 110.023V106.146H117.441V110.023L119.033 110.15V111H114.678ZM131.23 111.205C130.228 111.205 129.443 110.938 128.877 110.404C128.311 109.87 128.027 109.148 128.027 108.236C128.027 107.26 128.441 106.472 129.268 105.873C130.101 105.268 131.234 104.965 132.666 104.965H134.854V103.754C134.854 102.986 134.626 102.37 134.17 101.908C133.714 101.446 133.034 101.215 132.129 101.215C131.615 101.215 131.152 101.299 130.742 101.469C130.339 101.632 129.987 101.84 129.688 102.094L129.59 103.705H128.623V101.498C129.079 101.101 129.596 100.792 130.176 100.57C130.755 100.349 131.413 100.238 132.148 100.238C133.392 100.238 134.349 100.551 135.02 101.176C135.69 101.801 136.025 102.667 136.025 103.773V108.871C136.025 109.079 136.032 109.288 136.045 109.496C136.058 109.698 136.081 109.9 136.113 110.102L137.373 110.15V111H135.068C134.997 110.616 134.945 110.307 134.912 110.072C134.88 109.838 134.86 109.574 134.854 109.281C134.469 109.848 133.962 110.31 133.33 110.668C132.699 111.026 131.999 111.205 131.23 111.205ZM131.367 110.18C132.09 110.18 132.773 109.991 133.418 109.613C134.069 109.229 134.548 108.721 134.854 108.09V105.863H132.656C131.576 105.863 130.729 106.098 130.117 106.566C129.505 107.029 129.199 107.598 129.199 108.275C129.199 108.842 129.391 109.301 129.775 109.652C130.166 110.004 130.697 110.18 131.367 110.18ZM143.936 111V110.15L145.527 110.023V101.42L143.936 101.293V100.434H147.061L151.211 109.369L151.26 109.408L155.439 100.434H158.486V101.293L156.895 101.42V110.023L158.486 110.15V111H154.131V110.15L155.723 110.023V102.543L155.664 102.523L151.67 111H150.83L146.758 102.328L146.699 102.338V110.023L148.291 110.15V111H143.936ZM165.195 111.205C164.251 111.205 163.428 110.98 162.725 110.531C162.021 110.076 161.475 109.447 161.084 108.646C160.7 107.846 160.508 106.924 160.508 105.883V105.561C160.508 104.525 160.7 103.607 161.084 102.807C161.475 102.006 162.018 101.378 162.715 100.922C163.418 100.466 164.238 100.238 165.176 100.238C166.113 100.238 166.934 100.466 167.637 100.922C168.34 101.378 168.883 102.006 169.268 102.807C169.658 103.607 169.854 104.525 169.854 105.561V105.883C169.854 106.924 169.658 107.846 169.268 108.646C168.883 109.447 168.34 110.076 167.637 110.531C166.94 110.98 166.126 111.205 165.195 111.205ZM165.195 110.229C165.918 110.229 166.54 110.036 167.061 109.652C167.581 109.268 167.982 108.751 168.262 108.1C168.542 107.442 168.682 106.703 168.682 105.883V105.561C168.682 104.753 168.538 104.024 168.252 103.373C167.972 102.715 167.568 102.195 167.041 101.811C166.52 101.42 165.898 101.225 165.176 101.225C164.44 101.225 163.812 101.42 163.291 101.811C162.77 102.195 162.37 102.715 162.09 103.373C161.816 104.024 161.68 104.753 161.68 105.561V105.883C161.68 106.703 161.816 107.442 162.09 108.1C162.37 108.751 162.77 109.268 163.291 109.652C163.818 110.036 164.453 110.229 165.195 110.229ZM186.689 114.135V111H171.748V110.15L173.34 110.023V101.42L171.748 101.293V100.434H176.104V101.293L174.512 101.42V110.023H179.209V100.434H180.391V110.023H185.039V101.42L183.447 101.293V100.434H187.803V101.293L186.211 101.42V110.014H187.852L187.764 114.135H186.689ZM189.951 111V110.15L191.543 110.023V101.42L189.951 101.293V100.434H194.307V101.293L192.715 101.42V105.17H198.398V101.42L196.807 101.293V100.434H201.172V101.293L199.58 101.42V110.023L201.172 110.15V111H196.807V110.15L198.398 110.023V106.146H192.715V110.023L194.307 110.15V111H189.951ZM207.988 111.205C207.044 111.205 206.221 110.98 205.518 110.531C204.814 110.076 204.268 109.447 203.877 108.646C203.493 107.846 203.301 106.924 203.301 105.883V105.561C203.301 104.525 203.493 103.607 203.877 102.807C204.268 102.006 204.811 101.378 205.508 100.922C206.211 100.466 207.031 100.238 207.969 100.238C208.906 100.238 209.727 100.466 210.43 100.922C211.133 101.378 211.676 102.006 212.061 102.807C212.451 103.607 212.646 104.525 212.646 105.561V105.883C212.646 106.924 212.451 107.846 212.061 108.646C211.676 109.447 211.133 110.076 210.43 110.531C209.733 110.98 208.919 111.205 207.988 111.205ZM207.988 110.229C208.711 110.229 209.333 110.036 209.854 109.652C210.374 109.268 210.775 108.751 211.055 108.1C211.335 107.442 211.475 106.703 211.475 105.883V105.561C211.475 104.753 211.331 104.024 211.045 103.373C210.765 102.715 210.361 102.195 209.834 101.811C209.313 101.42 208.691 101.225 207.969 101.225C207.233 101.225 206.605 101.42 206.084 101.811C205.563 102.195 205.163 102.715 204.883 103.373C204.609 104.024 204.473 104.753 204.473 105.561V105.883C204.473 106.703 204.609 107.442 204.883 108.1C205.163 108.751 205.563 109.268 206.084 109.652C206.611 110.036 207.246 110.229 207.988 110.229ZM214.6 111V110.15L216.191 110.023V101.42L214.6 101.293V100.434H217.725L221.875 109.369L221.924 109.408L226.104 100.434H229.15V101.293L227.559 101.42V110.023L229.15 110.15V111H224.795V110.15L226.387 110.023V102.543L226.328 102.523L222.334 111H221.494L217.422 102.328L217.363 102.338V110.023L218.955 110.15V111H214.6ZM236.104 111V110.15L237.695 110.023V101.42L236.104 101.293V100.434H240.469V101.293L238.877 101.42V105.121H240.439L243.018 101.83C243.447 101.264 243.835 100.867 244.18 100.639C244.531 100.404 244.919 100.287 245.342 100.287C245.55 100.287 245.739 100.316 245.908 100.375C246.084 100.434 246.263 100.521 246.445 100.639L246.191 101.488C246.016 101.436 245.892 101.4 245.82 101.381C245.749 101.361 245.651 101.352 245.527 101.352C245.234 101.352 244.971 101.433 244.736 101.596C244.502 101.758 244.232 102.032 243.926 102.416L241.465 105.541L245.479 110.033L246.836 110.15V111H244.766L240.488 106.146H238.877V110.023L240.469 110.15V111H236.104ZM252.402 111.205C251.458 111.205 250.635 110.98 249.932 110.531C249.229 110.076 248.682 109.447 248.291 108.646C247.907 107.846 247.715 106.924 247.715 105.883V105.561C247.715 104.525 247.907 103.607 248.291 102.807C248.682 102.006 249.225 101.378 249.922 100.922C250.625 100.466 251.445 100.238 252.383 100.238C253.32 100.238 254.141 100.466 254.844 100.922C255.547 101.378 256.09 102.006 256.475 102.807C256.865 103.607 257.061 104.525 257.061 105.561V105.883C257.061 106.924 256.865 107.846 256.475 108.646C256.09 109.447 255.547 110.076 254.844 110.531C254.147 110.98 253.333 111.205 252.402 111.205ZM252.402 110.229C253.125 110.229 253.747 110.036 254.268 109.652C254.788 109.268 255.189 108.751 255.469 108.1C255.749 107.442 255.889 106.703 255.889 105.883V105.561C255.889 104.753 255.745 104.024 255.459 103.373C255.179 102.715 254.775 102.195 254.248 101.811C253.727 101.42 253.105 101.225 252.383 101.225C251.647 101.225 251.019 101.42 250.498 101.811C249.977 102.195 249.577 102.715 249.297 103.373C249.023 104.024 248.887 104.753 248.887 105.561V105.883C248.887 106.703 249.023 107.442 249.297 108.1C249.577 108.751 249.977 109.268 250.498 109.652C251.025 110.036 251.66 110.229 252.402 110.229ZM259.014 111V110.15L260.605 110.023V101.42L259.014 101.293V100.434H262.139L266.289 109.369L266.338 109.408L270.518 100.434H273.564V101.293L271.973 101.42V110.023L273.564 110.15V111H269.209V110.15L270.801 110.023V102.543L270.742 102.523L266.748 111H265.908L261.836 102.328L261.777 102.338V110.023L263.369 110.15V111H259.014ZM275.635 111V110.15L277.227 110.023V101.42L275.635 101.293V100.434H286.855V101.293L285.264 101.42V110.023L286.855 110.15V111H282.5V110.15L284.092 110.023V101.43H278.398V110.023L279.99 110.15V111H275.635ZM294.814 104.281C296.032 104.281 296.979 104.59 297.656 105.209C298.34 105.827 298.682 106.632 298.682 107.621C298.682 108.617 298.34 109.431 297.656 110.062C296.979 110.688 296.032 111 294.814 111H289.033V110.15L290.625 110.023V101.42L289.033 101.293V100.434H293.389V101.293L291.797 101.42V104.281H294.814ZM294.814 110.023C295.719 110.023 296.393 109.799 296.836 109.35C297.285 108.894 297.51 108.324 297.51 107.641C297.51 106.983 297.285 106.423 296.836 105.961C296.387 105.492 295.713 105.258 294.814 105.258H291.797V110.023H294.814ZM310.732 111.205C309.827 111.205 309.03 110.997 308.34 110.58C307.656 110.157 307.116 109.571 306.719 108.822C306.322 108.074 306.1 107.211 306.055 106.234H303.271V110.023L304.863 110.15V111H300.508V110.15L302.1 110.023V101.42L300.508 101.293V100.434H303.271V105.258H306.064C306.104 104.262 306.322 103.389 306.719 102.641C307.116 101.885 307.656 101.296 308.34 100.873C309.023 100.45 309.814 100.238 310.713 100.238C311.657 100.238 312.477 100.466 313.174 100.922C313.877 101.378 314.421 102.006 314.805 102.807C315.195 103.601 315.391 104.519 315.391 105.561V105.883C315.391 106.924 315.195 107.846 314.805 108.646C314.421 109.447 313.88 110.076 313.184 110.531C312.487 110.98 311.67 111.205 310.732 111.205ZM310.732 110.229C311.455 110.229 312.077 110.036 312.598 109.652C313.118 109.268 313.519 108.751 313.799 108.1C314.079 107.442 314.219 106.703 314.219 105.883V105.561C314.219 104.753 314.079 104.024 313.799 103.373C313.519 102.715 313.115 102.195 312.588 101.811C312.067 101.42 311.442 101.225 310.713 101.225C309.984 101.225 309.359 101.42 308.838 101.811C308.317 102.195 307.917 102.715 307.637 103.373C307.357 104.024 307.217 104.753 307.217 105.561V105.883C307.217 106.703 307.357 107.442 307.637 108.1C307.917 108.751 308.317 109.268 308.838 109.652C309.365 110.036 309.997 110.229 310.732 110.229ZM319.883 111V110.15L321.475 110.023V101.41H318.613L318.545 103.422H317.5V100.434H326.758V103.422H325.713L325.645 101.41H322.646V110.023L324.238 110.15V111H319.883ZM332.471 111.205C331.566 111.205 330.768 110.987 330.078 110.551C329.388 110.108 328.848 109.499 328.457 108.725C328.066 107.943 327.871 107.045 327.871 106.029V105.492C327.871 104.483 328.066 103.585 328.457 102.797C328.848 102.003 329.375 101.378 330.039 100.922C330.71 100.466 331.455 100.238 332.275 100.238C333.571 100.238 334.583 100.648 335.312 101.469C336.042 102.283 336.406 103.373 336.406 104.74V105.736H329.082L329.062 106.166C329.069 106.947 329.212 107.644 329.492 108.256C329.779 108.868 330.176 109.35 330.684 109.701C331.198 110.053 331.794 110.229 332.471 110.229C333.135 110.229 333.717 110.124 334.219 109.916C334.727 109.708 335.173 109.418 335.557 109.047L336.055 109.848C335.651 110.245 335.156 110.57 334.57 110.824C333.984 111.078 333.285 111.205 332.471 111.205ZM329.16 104.76H335.234V104.467C335.234 103.536 334.971 102.764 334.443 102.152C333.923 101.534 333.2 101.225 332.275 101.225C331.715 101.225 331.211 101.378 330.762 101.684C330.312 101.983 329.945 102.396 329.658 102.924C329.378 103.445 329.206 104.037 329.141 104.701L329.16 104.76ZM337.959 115.062V114.203L339.512 114.076V101.42L337.92 101.293V100.434H340.488L340.635 102.045C340.986 101.472 341.439 101.029 341.992 100.717C342.552 100.398 343.21 100.238 343.965 100.238C344.818 100.238 345.547 100.469 346.152 100.932C346.758 101.387 347.22 102.032 347.539 102.865C347.865 103.699 348.027 104.678 348.027 105.805V106.01C348.027 107.585 347.669 108.845 346.953 109.789C346.237 110.733 345.251 111.205 343.994 111.205C343.245 111.205 342.591 111.065 342.031 110.785C341.478 110.505 341.029 110.115 340.684 109.613V114.076L342.314 114.203V115.062H337.959ZM343.721 110.229C344.743 110.229 345.518 109.844 346.045 109.076C346.579 108.301 346.846 107.279 346.846 106.01V105.805C346.846 104.457 346.579 103.36 346.045 102.514C345.511 101.667 344.73 101.244 343.701 101.244C342.9 101.244 342.256 101.439 341.768 101.83C341.286 102.221 340.924 102.715 340.684 103.314V108.354C340.931 108.933 341.309 109.392 341.816 109.73C342.324 110.062 342.959 110.229 343.721 110.229ZM354.814 111.205C353.91 111.205 353.112 110.987 352.422 110.551C351.732 110.108 351.191 109.499 350.801 108.725C350.41 107.943 350.215 107.045 350.215 106.029V105.492C350.215 104.483 350.41 103.585 350.801 102.797C351.191 102.003 351.719 101.378 352.383 100.922C353.053 100.466 353.799 100.238 354.619 100.238C355.915 100.238 356.927 100.648 357.656 101.469C358.385 102.283 358.75 103.373 358.75 104.74V105.736H351.426L351.406 106.166C351.413 106.947 351.556 107.644 351.836 108.256C352.122 108.868 352.52 109.35 353.027 109.701C353.542 110.053 354.137 110.229 354.814 110.229C355.479 110.229 356.061 110.124 356.562 109.916C357.07 109.708 357.516 109.418 357.9 109.047L358.398 109.848C357.995 110.245 357.5 110.57 356.914 110.824C356.328 111.078 355.628 111.205 354.814 111.205ZM351.504 104.76H357.578V104.467C357.578 103.536 357.314 102.764 356.787 102.152C356.266 101.534 355.544 101.225 354.619 101.225C354.059 101.225 353.555 101.378 353.105 101.684C352.656 101.983 352.288 102.396 352.002 102.924C351.722 103.445 351.549 104.037 351.484 104.701L351.504 104.76ZM361.182 111V109.408H362.52V111H361.182Z" fill="black"/>
</svg>
