<svg width="241" height="30" viewBox="0 0 241 30" fill="none" xmlns="http://www.w3.org/2000/svg">
<path d="M9.88 16.09C12.82 16.09 12.85 20.2 9.88 20.2C8.62 20.2 7.27 20.2 6.04 20.2V16.09H9.88ZM6.04 11.35V8.8H15.76V4H0.67V25H9.91C19.96 24.97 19.96 11.35 9.91 11.35H6.04ZM34.6101 4C29.6901 4 26.3601 4 21.5001 4C21.5001 10.96 21.5001 17.98 21.5001 25C26.3601 25 29.9601 25 34.8801 25C34.8801 23.41 34.8801 21.79 34.8801 20.23C31.7301 20.23 29.9301 20.23 26.8401 20.23C26.8401 18.97 26.8401 17.77 26.8401 16.54H33.9801C33.9801 14.95 33.9801 13.36 33.9801 11.77H26.8401V8.8C29.9301 8.8 31.4901 8.8 34.6101 8.8C34.6101 7.18 34.6101 5.56 34.6101 4ZM43.4784 9.28C43.4784 8.5 44.1684 8.05 45.3384 8.05C47.8584 8.05 47.9184 11.71 45.2784 11.71H43.8684V16.09H45.3384C48.9384 16.09 48.9384 20.86 45.3384 20.86C43.7784 20.86 42.6984 19.81 42.6984 18.16H37.9884C37.9884 22.87 40.7784 25.39 45.3384 25.39C50.7384 25.39 53.4384 22.51 53.4384 18.79C53.4384 16.42 52.5384 14.74 50.4084 13.6C51.6384 12.67 52.2384 11.08 52.2384 9.7C52.2384 6.64 49.9284 3.61 45.3384 3.61C41.6784 3.61 38.5284 5.41 38.7084 9.28H43.4784ZM83.1698 4C69.3698 4 67.5098 4 65.7098 4V25C67.5098 25 69.3698 25 71.1998 25V8.95H77.6798V25C79.5098 25 81.3398 25 83.1698 25V4ZM93.9013 25V19.63H97.7713C107.821 19.63 107.821 4.03 97.7713 4C94.6813 4 91.5613 4 88.5313 4C88.5313 11.02 88.5313 18.01 88.5313 25C90.3013 25 92.1013 25 93.9013 25ZM97.7413 14.8H93.9013C93.9013 13.09 93.9013 10.51 93.9013 8.8C95.1313 8.8 96.4813 8.77 97.7413 8.8C100.861 8.83 100.681 14.8 97.7413 14.8ZM129.611 14.53C129.611 0.00999808 108.071 0.00999808 108.071 14.53C108.071 29.08 129.611 29.08 129.611 14.53ZM113.591 14.53C113.591 6.97 124.121 6.97 124.121 14.53C124.121 22.15 113.591 22.15 113.591 14.53ZM149.159 10.45C149.159 6.82 146.249 4 142.619 4H133.649V25H143.489C147.779 25 149.999 22.03 150.029 18.37C150.029 16.51 149.219 14.95 147.509 14.08C148.529 13.24 149.159 11.71 149.159 10.45ZM143.099 16.66C145.259 16.66 145.289 20.23 143.129 20.23H138.839V16.66H143.099ZM142.199 8.8C144.359 8.8 144.359 12.19 142.229 12.19H138.839V8.8H142.199ZM174.465 14.53C174.465 0.00999808 152.925 0.00999808 152.925 14.53C152.925 29.08 174.465 29.08 174.465 14.53ZM158.445 14.53C158.445 6.97 168.975 6.97 168.975 14.53C168.975 22.15 158.445 22.15 158.445 14.53ZM180.332 25.06H192.752V27.37H197.162V20.35H194.972L187.532 3.73H185.222L178.022 20.35H175.892V27.37H180.332V25.06ZM186.362 12.7L189.392 20.29H183.452L186.362 12.7ZM220.109 14.53C220.109 0.00999808 198.569 0.00999808 198.569 14.53C198.569 29.08 220.109 29.08 220.109 14.53ZM204.089 14.53C204.089 6.97 214.619 6.97 214.619 14.53C214.619 22.15 204.089 22.15 204.089 14.53ZM239.657 10.45C239.657 6.82 236.747 4 233.117 4H224.147V25H233.987C238.277 25 240.497 22.03 240.527 18.37C240.527 16.51 239.717 14.95 238.007 14.08C239.027 13.24 239.657 11.71 239.657 10.45ZM233.597 16.66C235.757 16.66 235.787 20.23 233.627 20.23H229.337V16.66H233.597ZM232.697 8.8C234.857 8.8 234.857 12.19 232.727 12.19H229.337V8.8H232.697Z" fill="black"/>
</svg>
