<svg width="288" height="31" viewBox="0 0 288 31" fill="none" xmlns="http://www.w3.org/2000/svg">
<path d="M9.88 17.09C12.82 17.09 12.85 21.2 9.88 21.2C8.62 21.2 7.27 21.2 6.04 21.2V17.09H9.88ZM6.04 12.35V9.8H15.76V5H0.67V26H9.91C19.96 25.97 19.96 12.35 9.91 12.35H6.04ZM34.6101 5C29.6901 5 26.3601 5 21.5001 5C21.5001 11.96 21.5001 18.98 21.5001 26C26.3601 26 29.9601 26 34.8801 26C34.8801 24.41 34.8801 22.79 34.8801 21.23C31.7301 21.23 29.9301 21.23 26.8401 21.23C26.8401 19.97 26.8401 18.77 26.8401 17.54H33.9801C33.9801 15.95 33.9801 14.36 33.9801 12.77H26.8401V9.8C29.9301 9.8 31.4901 9.8 34.6101 9.8C34.6101 8.18 34.6101 6.56 34.6101 5ZM43.4784 10.28C43.4784 9.5 44.1684 9.05 45.3384 9.05C47.8584 9.05 47.9184 12.71 45.2784 12.71H43.8684V17.09H45.3384C48.9384 17.09 48.9384 21.86 45.3384 21.86C43.7784 21.86 42.6984 20.81 42.6984 19.16H37.9884C37.9884 23.87 40.7784 26.39 45.3384 26.39C50.7384 26.39 53.4384 23.51 53.4384 19.79C53.4384 17.42 52.5384 15.74 50.4084 14.6C51.6384 13.67 52.2384 12.08 52.2384 10.7C52.2384 7.64 49.9284 4.61 45.3384 4.61C41.6784 4.61 38.5284 6.41 38.7084 10.28H43.4784ZM71.1698 26V17.99C71.8598 17.99 72.5198 17.99 73.2398 17.87L77.8598 26H83.8298V25.16L78.1298 15.92C82.2998 13.25 82.1798 9.29 82.1798 5C80.3198 5 78.4898 5 76.6598 5C76.6598 8.93 76.9298 12.95 71.5598 12.95H71.1698V5C69.3098 5 67.5098 5 65.7098 5V26C67.5098 26 69.3098 26 71.1698 26ZM107.17 15.53C107.17 1.01 85.63 1.01 85.63 15.53C85.63 30.08 107.17 30.08 107.17 15.53ZM91.15 15.53C91.15 7.97 101.68 7.97 101.68 15.53C101.68 23.15 91.15 23.15 91.15 15.53ZM121.377 14.06L113.157 4.94H111.177V26C113.007 26 114.837 26 116.667 26V16.64L121.107 21.32H121.707L126.177 16.64V26C128.007 26 129.837 26 131.667 26V4.94H129.747L121.377 14.06ZM154.508 5C140.708 5 138.848 5 137.048 5V26C138.848 26 140.708 26 142.538 26V9.95H149.018V26C150.848 26 152.678 26 154.508 26V5ZM165.239 5C163.439 5 161.639 5 159.869 5C159.869 11.99 159.869 18.98 159.869 26C162.899 26 166.019 26 169.109 26C179.159 25.97 179.159 11.27 169.109 11.27H165.239V5ZM169.079 16.1C172.019 16.1 172.199 21.17 169.079 21.2C167.819 21.23 166.469 21.2 165.239 21.2C165.239 19.49 165.239 17.81 165.239 16.1H169.079ZM210.099 15.53C210.099 2 191.499 0.979998 188.919 12.62H186.189V5H180.699V26H186.189V17.57H188.769C190.689 30.02 210.099 29.36 210.099 15.53ZM194.079 15.53C194.079 7.97 204.609 7.97 204.609 15.53C204.609 23.15 194.079 23.15 194.079 15.53ZM217.246 9.8V26C219.016 26 220.786 26 222.556 26V9.8H227.686C227.686 8.18 227.686 6.59 227.686 5H212.086C212.086 6.59 212.086 8.18 212.086 9.8H217.246ZM244.112 5C239.192 5 235.862 5 231.002 5C231.002 11.96 231.002 18.98 231.002 26C235.862 26 239.462 26 244.382 26C244.382 24.41 244.382 22.79 244.382 21.23C241.232 21.23 239.432 21.23 236.342 21.23C236.342 19.97 236.342 18.77 236.342 17.54H243.482C243.482 15.95 243.482 14.36 243.482 12.77H236.342V9.8C239.432 9.8 240.992 9.8 244.112 9.8C244.112 8.18 244.112 6.56 244.112 5ZM254.36 26V20.63H258.23C268.28 20.63 268.28 5.03 258.23 5C255.14 5 252.02 5 248.99 5C248.99 12.02 248.99 19.01 248.99 26C250.76 26 252.56 26 254.36 26ZM258.2 15.8H254.36C254.36 14.09 254.36 11.51 254.36 9.8C255.59 9.8 256.94 9.77 258.2 9.8C261.32 9.83 261.14 15.8 258.2 15.8ZM281.911 26H287.161V25.22L277.681 4.73H275.371L265.921 25.22V26H271.171L272.401 23.36H280.681L281.911 26ZM278.941 18.77H274.141L276.511 13.25L278.941 18.77Z" fill="black"/>
</svg>
