<svg width="497" height="59" viewBox="0 0 497 59" fill="none" xmlns="http://www.w3.org/2000/svg">
<path d="M31.36 20.9C31.36 13.64 25.54 8 18.28 8H0.34V50H20.02C28.6 50 33.04 44.06 33.1 36.74C33.1 33.02 31.48 29.9 28.06 28.16C30.1 26.48 31.36 23.42 31.36 20.9ZM19.24 33.32C23.56 33.32 23.62 40.46 19.3 40.46H10.72V33.32H19.24ZM17.44 17.6C21.76 17.6 21.76 24.38 17.5 24.38H10.72V17.6H17.44ZM81.9728 29.06C81.9728 0.0199962 38.8928 0.0199962 38.8928 29.06C38.8928 58.16 81.9728 58.16 81.9728 29.06ZM49.9328 29.06C49.9328 13.94 70.9928 13.94 70.9928 29.06C70.9928 44.3 49.9328 44.3 49.9328 29.06ZM98.027 18.56C98.027 17 99.407 16.1 101.747 16.1C106.787 16.1 106.907 23.42 101.627 23.42H98.807V32.18H101.747C108.947 32.18 108.947 41.72 101.747 41.72C98.627 41.72 96.467 39.62 96.467 36.32H87.047C87.047 45.74 92.627 50.78 101.747 50.78C112.547 50.78 117.947 45.02 117.947 37.58C117.947 32.84 116.147 29.48 111.887 27.2C114.347 25.34 115.547 22.16 115.547 19.4C115.547 13.28 110.927 7.22 101.747 7.22C94.427 7.22 88.127 10.82 88.487 18.56H98.027ZM146.246 26.12L129.806 7.88H125.846V50C129.506 50 133.166 50 136.826 50V31.28L145.706 40.64H146.906L155.846 31.28V50C159.506 50 163.166 50 166.826 50V7.88H162.986L146.246 26.12ZM218.028 29.06C218.028 0.0199962 174.948 0.0199962 174.948 29.06C174.948 58.16 218.028 58.16 218.028 29.06ZM185.988 29.06C185.988 13.94 207.048 13.94 207.048 29.06C207.048 44.3 185.988 44.3 185.988 29.06ZM244.642 50H255.562V33.98C256.222 33.98 257.002 33.86 257.782 33.74L266.962 50H278.842V48.32L267.562 29.84C275.902 24.5 275.602 16.58 275.602 8H264.622C264.622 15.56 265.162 23.3 255.562 23.84V8H244.642V23.84C235.042 23.3 235.582 15.56 235.582 8H224.602C224.602 16.58 224.302 24.5 232.642 29.84L221.362 48.32V50H233.242L242.422 33.74C243.202 33.86 243.982 33.98 244.642 33.98V50ZM320.027 8C316.367 8 312.707 8 309.047 8V23.24H296.087V8C292.427 8 288.707 8 285.107 8V50C288.707 50 292.427 50 296.087 50V33.14H309.047V50C312.707 50 316.367 50 320.027 50V8ZM371.25 29.06C371.25 0.0199962 328.17 0.0199962 328.17 29.06C328.17 58.16 371.25 58.16 371.25 29.06ZM339.21 29.06C339.21 13.94 360.27 13.94 360.27 29.06C360.27 44.3 339.21 44.3 339.21 29.06ZM376.804 29C376.864 43.28 387.664 50.48 398.344 50.42C407.284 50.42 416.704 45.74 418.264 33.86C414.604 33.86 411.304 33.86 407.704 33.86C406.564 38.36 402.904 40.64 398.344 40.64C391.984 40.58 387.904 35.18 387.904 29C387.904 22.04 392.044 17.3 398.344 17.3C402.844 17.3 406.024 19.22 407.524 23.48C411.184 23.48 414.424 23.48 418.084 23.48C416.464 12.26 407.044 7.52 398.344 7.52C387.664 7.52 376.864 14.72 376.804 29ZM432.672 17.6V50C436.212 50 439.752 50 443.292 50V17.6H453.552C453.552 14.36 453.552 11.18 453.552 8H422.352C422.352 11.18 422.352 14.36 422.352 17.6H432.672ZM485.264 29.36V50C488.984 50 492.704 50 496.364 50V7.82H492.464L471.224 28.58V8C467.564 8 463.904 8 460.244 8V50.06H464.084L485.264 29.36Z" fill="black"/>
</svg>
