<svg width="152" height="30" viewBox="0 0 152 30" fill="none" xmlns="http://www.w3.org/2000/svg">
<path d="M18.16 4C16.33 4 14.5 4 12.67 4V11.62H6.19V4C4.36 4 2.5 4 0.7 4V25C2.5 25 4.36 25 6.19 25V16.57H12.67V25C14.5 25 16.33 25 18.16 25V4ZM43.7716 14.53C43.7716 0.00999808 22.2316 0.00999808 22.2316 14.53C22.2316 29.08 43.7716 29.08 43.7716 14.53ZM27.7516 14.53C27.7516 6.97 38.2816 6.97 38.2816 14.53C38.2816 22.15 27.7516 22.15 27.7516 14.53ZM63.3187 10.45C63.3187 6.82 60.4087 4 56.7787 4H47.8087V25H57.6487C61.9387 25 64.1587 22.03 64.1887 18.37C64.1887 16.51 63.3787 14.95 61.6687 14.08C62.6887 13.24 63.3187 11.71 63.3187 10.45ZM57.2587 16.66C59.4187 16.66 59.4487 20.23 57.2887 20.23H52.9987V16.66H57.2587ZM56.3587 8.8C58.5187 8.8 58.5187 12.19 56.3887 12.19H52.9987V8.8H56.3587ZM88.6251 14.53C88.6251 0.00999808 67.0851 0.00999808 67.0851 14.53C67.0851 29.08 88.6251 29.08 88.6251 14.53ZM72.6051 14.53C72.6051 6.97 83.1351 6.97 83.1351 14.53C83.1351 22.15 72.6051 22.15 72.6051 14.53ZM91.4022 14.5C91.4322 21.64 96.8322 25.24 102.172 25.21C106.642 25.21 111.352 22.87 112.132 16.93C110.302 16.93 108.652 16.93 106.852 16.93C106.282 19.18 104.452 20.32 102.172 20.32C98.9922 20.29 96.9522 17.59 96.9522 14.5C96.9522 11.02 99.0222 8.65 102.172 8.65C104.422 8.65 106.012 9.61 106.762 11.74C108.592 11.74 110.212 11.74 112.042 11.74C111.232 6.13 106.522 3.76 102.172 3.76C96.8322 3.76 91.4322 7.36 91.4022 14.5ZM119.336 8.8V25C121.106 25 122.876 25 124.646 25V8.8H129.776C129.776 7.18 129.776 5.59 129.776 4H114.176C114.176 5.59 114.176 7.18 114.176 8.8H119.336ZM145.632 14.68V25C147.492 25 149.352 25 151.182 25V3.91H149.232L138.612 14.29V4C136.782 4 134.952 4 133.122 4V25.03H135.042L145.632 14.68Z" fill="white"/>
</svg>
