<svg width="227" height="30" viewBox="0 0 227 30" fill="none" xmlns="http://www.w3.org/2000/svg">
<path d="M18.16 4C4.36 4 2.5 4 0.7 4V25C2.5 25 4.36 25 6.19 25V8.95H12.67V25C14.5 25 16.33 25 18.16 25V4ZM43.7716 14.53C43.7716 0.00999808 22.2316 0.00999808 22.2316 14.53C22.2316 29.08 43.7716 29.08 43.7716 14.53ZM27.7516 14.53C27.7516 6.97 38.2816 6.97 38.2816 14.53C38.2816 22.15 27.7516 22.15 27.7516 14.53ZM63.3787 25V4H57.9187V12.58H56.8687C52.6987 12.58 52.4287 10.15 52.4287 6.58V4H46.9087V6.58C46.9087 13.96 49.5487 17.68 56.8387 17.68H57.9187V25H63.3787ZM71.8166 8.8V25C73.5866 25 75.3566 25 77.1266 25V8.8H82.2566C82.2566 7.18 82.2566 5.59 82.2566 4H66.6566C66.6566 5.59 66.6566 7.18 66.6566 8.8H71.8166ZM98.1123 14.68V25C99.9723 25 101.832 25 103.662 25V3.91H101.712L91.0923 14.29V4C89.2623 4 87.4323 4 85.6023 4V25.03H87.5223L98.1123 14.68ZM119.131 25.06H131.551V27.37H135.961V20.35H133.771L126.331 3.73H124.021L116.821 20.35H114.691V27.37H119.131V25.06ZM125.161 12.7L128.191 20.29H122.251L125.161 12.7ZM153.268 25H158.518V24.22L149.038 3.73H146.728L137.278 24.22V25H142.528L143.758 22.36H152.038L153.268 25ZM150.298 17.77H145.498L147.868 12.25L150.298 17.77ZM166.645 25V19.63H170.515C180.565 19.63 180.565 4.03 170.515 4C167.425 4 164.305 4 161.275 4C161.275 11.02 161.275 18.01 161.275 25C163.045 25 164.845 25 166.645 25ZM170.485 14.8H166.645C166.645 13.09 166.645 10.51 166.645 8.8C167.875 8.8 169.225 8.77 170.485 8.8C173.605 8.83 173.425 14.8 170.485 14.8ZM202.356 14.53C202.356 0.00999808 180.816 0.00999808 180.816 14.53C180.816 29.08 202.356 29.08 202.356 14.53ZM186.336 14.53C186.336 6.97 196.866 6.97 196.866 14.53C196.866 22.15 186.336 22.15 186.336 14.53ZM216.563 13.06L208.343 3.94H206.363V25C208.193 25 210.023 25 211.853 25V15.64L216.293 20.32H216.893L221.363 15.64V25C223.193 25 225.023 25 226.853 25V3.94H224.933L216.563 13.06Z" fill="black"/>
</svg>
