<svg width="181" height="30" viewBox="0 0 181 30" fill="none" xmlns="http://www.w3.org/2000/svg">
<path d="M0.41 14.5C0.44 21.64 5.84 25.24 11.18 25.21C15.65 25.21 20.36 22.87 21.14 16.93C19.31 16.93 17.66 16.93 15.86 16.93C15.29 19.18 13.46 20.32 11.18 20.32C8 20.29 5.96 17.59 5.96 14.5C5.96 11.02 8.03 8.65 11.18 8.65C13.43 8.65 15.02 9.61 15.77 11.74C17.6 11.74 19.22 11.74 21.05 11.74C20.24 6.13 15.53 3.76 11.18 3.76C5.84 3.76 0.44 7.36 0.41 14.5ZM45.504 14.53C45.504 0.00999808 23.964 0.00999808 23.964 14.53C23.964 29.08 45.504 29.08 45.504 14.53ZM29.484 14.53C29.484 6.97 40.014 6.97 40.014 14.53C40.014 22.15 29.484 22.15 29.484 14.53ZM52.6311 8.8V25C54.4011 25 56.1711 25 57.9411 25V8.8H63.0711C63.0711 7.18 63.0711 5.59 63.0711 4H47.4711C47.4711 5.59 47.4711 7.18 47.4711 8.8H52.6311ZM83.8768 4C82.0468 4 80.2168 4 78.3868 4V11.62H71.9068V4C70.0768 4 68.2168 4 66.4168 4V25C68.2168 25 70.0768 25 71.9068 25V16.57H78.3868V25C80.2168 25 82.0468 25 83.8768 25V4ZM101.778 14.68V25C103.638 25 105.498 25 107.328 25V3.91H105.378L94.7584 14.29V4C92.9284 4 91.0984 4 89.2684 4V25.03H91.1884L101.778 14.68ZM133.507 14.68V25C135.367 25 137.227 25 139.057 25V3.91H137.107L126.487 14.29V4C124.657 4 122.827 4 120.997 4V25.03H122.917L133.507 14.68ZM149.894 8.8H157.514C157.514 7 157.514 5.77 157.514 4C153.224 4 148.724 4 144.434 4V25C146.264 25 148.094 25 149.894 25V8.8ZM166.62 25V19.63H170.49C180.54 19.63 180.54 4.03 170.49 4C167.4 4 164.28 4 161.25 4C161.25 11.02 161.25 18.01 161.25 25C163.02 25 164.82 25 166.62 25ZM170.46 14.8H166.62C166.62 13.09 166.62 10.51 166.62 8.8C167.85 8.8 169.2 8.77 170.46 8.8C173.58 8.83 173.4 14.8 170.46 14.8Z" fill="black"/>
</svg>
