<svg width="467" height="84" viewBox="0 0 467 84" fill="none" xmlns="http://www.w3.org/2000/svg">
<path d="M0.556641 15V14.0234H0.917969C1.55599 14.0234 2.0638 13.8249 2.44141 13.4277C2.81901 13.0241 3.10547 12.3275 3.30078 11.3379C3.49609 10.3483 3.63607 8.97135 3.7207 7.20703L4.0332 1.75781L2.49023 1.64062V0.78125H13.9551V1.64062L12.3633 1.76758V14.0234L13.9551 14.1504V15H9.59961V14.1504L11.1914 14.0234V1.76758H5.19531L4.89258 7.20703C4.79492 9.13411 4.61589 10.6673 4.35547 11.8066C4.10156 12.9395 3.70443 13.7565 3.16406 14.2578C2.63021 14.7526 1.89453 15 0.957031 15H0.556641ZM17.6074 19.2676C17.4707 19.2676 17.3047 19.2513 17.1094 19.2188C16.9206 19.1927 16.7773 19.1667 16.6797 19.1406L16.8164 18.1738C16.9076 18.1868 17.0345 18.1999 17.1973 18.2129C17.3665 18.2324 17.4902 18.2422 17.5684 18.2422C18.0762 18.2422 18.4798 18.0729 18.7793 17.7344C19.0788 17.4023 19.3522 16.9271 19.5996 16.3086L20.1465 14.873L16.2695 5.36133L15.127 5.29297V4.43359H18.8477V5.29297L17.5098 5.38086L20.2246 12.1973L20.6641 13.3984H20.7227L23.7402 5.38086L22.3633 5.29297V4.43359H26.0547V5.29297L24.9316 5.36133L20.5957 16.6992C20.3027 17.4479 19.9414 18.0632 19.5117 18.5449C19.082 19.0267 18.4473 19.2676 17.6074 19.2676ZM33.7598 15V14.1504L35.3516 14.0234V10.5176C34.9479 10.6738 34.4954 10.804 33.9941 10.9082C33.4993 11.0124 33.0306 11.0645 32.5879 11.0645C31.2272 11.0645 30.2148 10.7617 29.5508 10.1562C28.8867 9.55078 28.5547 8.52865 28.5547 7.08984V5.41016L26.9629 5.2832V4.43359H31.3184V5.2832L29.7266 5.41016V7.08984C29.7266 8.20312 29.9479 8.98112 30.3906 9.42383C30.8398 9.86003 31.5723 10.0781 32.5879 10.0781C33.0632 10.0716 33.5482 10.0163 34.043 9.91211C34.5443 9.80794 34.9805 9.68424 35.3516 9.54102V5.41992L33.7598 5.29297V4.43359H38.1152V5.29297L36.5234 5.41992V14.0234L38.1152 14.1504V15H33.7598ZM40.3223 15V14.1504L41.9141 14.0234V5.41992L40.3223 5.29297V4.43359H44.6777V5.29297L43.0859 5.41992V14.0234H47.7832V4.43359H48.9551V14.0234H53.6133V5.41992L52.0215 5.29297V4.43359H56.377V5.29297L54.7852 5.41992V14.0234L56.377 14.1504V15H40.3223ZM63.0176 15.2051C62.1126 15.2051 61.3151 14.987 60.625 14.5508C59.9349 14.1081 59.3945 13.4993 59.0039 12.7246C58.6133 11.9434 58.418 11.0449 58.418 10.0293V9.49219C58.418 8.48307 58.6133 7.58464 59.0039 6.79688C59.3945 6.0026 59.9219 5.3776 60.5859 4.92188C61.2565 4.46615 62.002 4.23828 62.8223 4.23828C64.1178 4.23828 65.1302 4.64844 65.8594 5.46875C66.5885 6.28255 66.9531 7.37305 66.9531 8.74023V9.73633H59.6289L59.6094 10.166C59.6159 10.9473 59.7591 11.6439 60.0391 12.2559C60.3255 12.8678 60.7227 13.3496 61.2305 13.7012C61.7448 14.0527 62.3405 14.2285 63.0176 14.2285C63.6816 14.2285 64.2643 14.1243 64.7656 13.916C65.2734 13.7077 65.7194 13.418 66.1035 13.0469L66.6016 13.8477C66.1979 14.2448 65.7031 14.5703 65.1172 14.8242C64.5312 15.0781 63.8314 15.2051 63.0176 15.2051ZM59.707 8.75977H65.7812V8.4668C65.7812 7.53581 65.5176 6.76432 64.9902 6.15234C64.4694 5.53385 63.7467 5.22461 62.8223 5.22461C62.2624 5.22461 61.7578 5.3776 61.3086 5.68359C60.8594 5.98307 60.4915 6.39648 60.2051 6.92383C59.9251 7.44466 59.7526 8.03711 59.6875 8.70117L59.707 8.75977ZM73.6621 15.2051C72.7572 15.2051 71.9596 14.987 71.2695 14.5508C70.5794 14.1081 70.0391 13.4993 69.6484 12.7246C69.2578 11.9434 69.0625 11.0449 69.0625 10.0293V9.49219C69.0625 8.48307 69.2578 7.58464 69.6484 6.79688C70.0391 6.0026 70.5664 5.3776 71.2305 4.92188C71.901 4.46615 72.6465 4.23828 73.4668 4.23828C74.7624 4.23828 75.7747 4.64844 76.5039 5.46875C77.2331 6.28255 77.5977 7.37305 77.5977 8.74023V9.73633H70.2734L70.2539 10.166C70.2604 10.9473 70.4036 11.6439 70.6836 12.2559C70.9701 12.8678 71.3672 13.3496 71.875 13.7012C72.3893 14.0527 72.985 14.2285 73.6621 14.2285C74.3262 14.2285 74.9089 14.1243 75.4102 13.916C75.918 13.7077 76.3639 13.418 76.748 13.0469L77.2461 13.8477C76.8424 14.2448 76.3477 14.5703 75.7617 14.8242C75.1758 15.0781 74.4759 15.2051 73.6621 15.2051ZM70.3516 8.75977H76.4258V8.4668C76.4258 7.53581 76.1621 6.76432 75.6348 6.15234C75.1139 5.53385 74.3913 5.22461 73.4668 5.22461C72.9069 5.22461 72.4023 5.3776 71.9531 5.68359C71.5039 5.98307 71.1361 6.39648 70.8496 6.92383C70.5697 7.44466 70.3971 8.03711 70.332 8.70117L70.3516 8.75977ZM79.8926 17.7441L79.1992 17.2363C79.5052 16.8066 79.7298 16.3802 79.873 15.957C80.0228 15.5339 80.0977 15.0684 80.0977 14.5605V13.1641H81.2695V14.5312C81.2695 15.1367 81.1458 15.7227 80.8984 16.2891C80.6576 16.8555 80.3223 17.3405 79.8926 17.7441ZM94.7754 15V14.1504L96.3672 14.0234V10.5176C95.9635 10.6738 95.5111 10.804 95.0098 10.9082C94.515 11.0124 94.0462 11.0645 93.6035 11.0645C92.2428 11.0645 91.2305 10.7617 90.5664 10.1562C89.9023 9.55078 89.5703 8.52865 89.5703 7.08984V5.41016L87.9785 5.2832V4.43359H92.334V5.2832L90.7422 5.41016V7.08984C90.7422 8.20312 90.9635 8.98112 91.4062 9.42383C91.8555 9.86003 92.5879 10.0781 93.6035 10.0781C94.0788 10.0716 94.5638 10.0163 95.0586 9.91211C95.5599 9.80794 95.9961 9.68424 96.3672 9.54102V5.41992L94.7754 5.29297V4.43359H99.1309V5.29297L97.5391 5.41992V14.0234L99.1309 14.1504V15H94.7754ZM103.594 15V14.1504L105.186 14.0234V5.41016H102.324L102.256 7.42188H101.211V4.43359H110.469V7.42188H109.424L109.355 5.41016H106.357V14.0234L107.949 14.1504V15H103.594ZM116.621 15.2051C115.677 15.2051 114.854 14.9805 114.15 14.5312C113.447 14.0755 112.9 13.4473 112.51 12.6465C112.126 11.8457 111.934 10.9245 111.934 9.88281V9.56055C111.934 8.52539 112.126 7.60742 112.51 6.80664C112.9 6.00586 113.444 5.3776 114.141 4.92188C114.844 4.46615 115.664 4.23828 116.602 4.23828C117.539 4.23828 118.359 4.46615 119.062 4.92188C119.766 5.3776 120.309 6.00586 120.693 6.80664C121.084 7.60742 121.279 8.52539 121.279 9.56055V9.88281C121.279 10.9245 121.084 11.8457 120.693 12.6465C120.309 13.4473 119.766 14.0755 119.062 14.5312C118.366 14.9805 117.552 15.2051 116.621 15.2051ZM116.621 14.2285C117.344 14.2285 117.965 14.0365 118.486 13.6523C119.007 13.2682 119.408 12.7507 119.688 12.0996C119.967 11.4421 120.107 10.7031 120.107 9.88281V9.56055C120.107 8.75326 119.964 8.02409 119.678 7.37305C119.398 6.71549 118.994 6.19466 118.467 5.81055C117.946 5.41992 117.324 5.22461 116.602 5.22461C115.866 5.22461 115.238 5.41992 114.717 5.81055C114.196 6.19466 113.796 6.71549 113.516 7.37305C113.242 8.02409 113.105 8.75326 113.105 9.56055V9.88281C113.105 10.7031 113.242 11.4421 113.516 12.0996C113.796 12.7507 114.196 13.2682 114.717 13.6523C115.244 14.0365 115.879 14.2285 116.621 14.2285ZM132.549 15.2051C131.67 15.2051 130.892 14.9837 130.215 14.541C129.544 14.0983 129.017 13.4798 128.633 12.6855C128.255 11.8913 128.066 10.9701 128.066 9.92188V9.51172C128.066 8.48307 128.252 7.57161 128.623 6.77734C128.994 5.98307 129.512 5.36133 130.176 4.91211C130.846 4.46289 131.634 4.23828 132.539 4.23828C133.359 4.23828 134.089 4.39453 134.727 4.70703C135.365 5.01302 135.898 5.41016 136.328 5.89844L136.348 8.29102H135.371L135.215 6.31836C134.889 5.97331 134.508 5.70638 134.072 5.51758C133.636 5.32227 133.135 5.22461 132.568 5.22461C131.904 5.22461 131.322 5.41016 130.82 5.78125C130.319 6.15234 129.928 6.66341 129.648 7.31445C129.375 7.95898 129.238 8.69141 129.238 9.51172V9.92188C129.238 11.2109 129.538 12.2526 130.137 13.0469C130.736 13.8346 131.543 14.2285 132.559 14.2285C133.346 14.2285 134.004 14.0234 134.531 13.6133C135.059 13.1966 135.378 12.5846 135.488 11.7773H136.533L136.553 11.8359C136.462 12.8385 136.068 13.6523 135.371 14.2773C134.674 14.8958 133.734 15.2051 132.549 15.2051ZM138.35 15L138.359 13.9648L138.73 13.9551C139.212 13.9551 139.603 13.8021 139.902 13.4961C140.202 13.1836 140.42 12.6725 140.557 11.9629C140.7 11.2533 140.771 10.2995 140.771 9.10156V5.41992L139.18 5.29297V4.43359H149.189V5.29297L147.598 5.41992V14.0234L149.189 14.1504V15H144.824V14.1504L146.416 14.0234V5.42969H141.943V9.10156C141.943 11.1784 141.702 12.6823 141.221 13.6133C140.739 14.5378 139.922 15 138.77 15H138.35ZM153.213 19.2676C153.076 19.2676 152.91 19.2513 152.715 19.2188C152.526 19.1927 152.383 19.1667 152.285 19.1406L152.422 18.1738C152.513 18.1868 152.64 18.1999 152.803 18.2129C152.972 18.2324 153.096 18.2422 153.174 18.2422C153.682 18.2422 154.085 18.0729 154.385 17.7344C154.684 17.4023 154.958 16.9271 155.205 16.3086L155.752 14.873L151.875 5.36133L150.732 5.29297V4.43359H154.453V5.29297L153.115 5.38086L155.83 12.1973L156.27 13.3984H156.328L159.346 5.38086L157.969 5.29297V4.43359H161.66V5.29297L160.537 5.36133L156.201 16.6992C155.908 17.4479 155.547 18.0632 155.117 18.5449C154.688 19.0267 154.053 19.2676 153.213 19.2676ZM169.365 15V14.1504L170.957 14.0234V10.5176C170.553 10.6738 170.101 10.804 169.6 10.9082C169.105 11.0124 168.636 11.0645 168.193 11.0645C166.833 11.0645 165.82 10.7617 165.156 10.1562C164.492 9.55078 164.16 8.52865 164.16 7.08984V5.41016L162.568 5.2832V4.43359H166.924V5.2832L165.332 5.41016V7.08984C165.332 8.20312 165.553 8.98112 165.996 9.42383C166.445 9.86003 167.178 10.0781 168.193 10.0781C168.669 10.0716 169.154 10.0163 169.648 9.91211C170.15 9.80794 170.586 9.68424 170.957 9.54102V5.41992L169.365 5.29297V4.43359H173.721V5.29297L172.129 5.41992V14.0234L173.721 14.1504V15H169.365ZM179.082 15.2051C178.079 15.2051 177.295 14.9382 176.729 14.4043C176.162 13.8704 175.879 13.1478 175.879 12.2363C175.879 11.2598 176.292 10.472 177.119 9.87305C177.952 9.26758 179.085 8.96484 180.518 8.96484H182.705V7.75391C182.705 6.98568 182.477 6.37044 182.021 5.9082C181.566 5.44596 180.885 5.21484 179.98 5.21484C179.466 5.21484 179.004 5.29948 178.594 5.46875C178.19 5.63151 177.839 5.83984 177.539 6.09375L177.441 7.70508H176.475V5.49805C176.93 5.10091 177.448 4.79167 178.027 4.57031C178.607 4.34896 179.264 4.23828 180 4.23828C181.243 4.23828 182.201 4.55078 182.871 5.17578C183.542 5.80078 183.877 6.66667 183.877 7.77344V12.8711C183.877 13.0794 183.883 13.2878 183.896 13.4961C183.91 13.6979 183.932 13.8997 183.965 14.1016L185.225 14.1504V15H182.92C182.848 14.6159 182.796 14.3066 182.764 14.0723C182.731 13.8379 182.712 13.5742 182.705 13.2812C182.321 13.8477 181.813 14.3099 181.182 14.668C180.55 15.026 179.85 15.2051 179.082 15.2051ZM179.219 14.1797C179.941 14.1797 180.625 13.9909 181.27 13.6133C181.921 13.2292 182.399 12.7214 182.705 12.0898V9.86328H180.508C179.427 9.86328 178.581 10.0977 177.969 10.5664C177.357 11.0286 177.051 11.5983 177.051 12.2754C177.051 12.8418 177.243 13.3008 177.627 13.6523C178.018 14.0039 178.548 14.1797 179.219 14.1797ZM186.631 15L186.641 13.9648L187.012 13.9551C187.493 13.9551 187.884 13.8021 188.184 13.4961C188.483 13.1836 188.701 12.6725 188.838 11.9629C188.981 11.2533 189.053 10.2995 189.053 9.10156V5.41992L187.461 5.29297V4.43359H197.471V5.29297L195.879 5.41992V14.0234L197.471 14.1504V15H193.105V14.1504L194.697 14.0234V5.42969H190.225V9.10156C190.225 11.1784 189.984 12.6823 189.502 13.6133C189.02 14.5378 188.203 15 187.051 15H186.631ZM204.199 15.2051C203.255 15.2051 202.432 14.9805 201.729 14.5312C201.025 14.0755 200.479 13.4473 200.088 12.6465C199.704 11.8457 199.512 10.9245 199.512 9.88281V9.56055C199.512 8.52539 199.704 7.60742 200.088 6.80664C200.479 6.00586 201.022 5.3776 201.719 4.92188C202.422 4.46615 203.242 4.23828 204.18 4.23828C205.117 4.23828 205.938 4.46615 206.641 4.92188C207.344 5.3776 207.887 6.00586 208.271 6.80664C208.662 7.60742 208.857 8.52539 208.857 9.56055V9.88281C208.857 10.9245 208.662 11.8457 208.271 12.6465C207.887 13.4473 207.344 14.0755 206.641 14.5312C205.944 14.9805 205.13 15.2051 204.199 15.2051ZM204.199 14.2285C204.922 14.2285 205.544 14.0365 206.064 13.6523C206.585 13.2682 206.986 12.7507 207.266 12.0996C207.546 11.4421 207.686 10.7031 207.686 9.88281V9.56055C207.686 8.75326 207.542 8.02409 207.256 7.37305C206.976 6.71549 206.572 6.19466 206.045 5.81055C205.524 5.41992 204.902 5.22461 204.18 5.22461C203.444 5.22461 202.816 5.41992 202.295 5.81055C201.774 6.19466 201.374 6.71549 201.094 7.37305C200.82 8.02409 200.684 8.75326 200.684 9.56055V9.88281C200.684 10.7031 200.82 11.4421 201.094 12.0996C201.374 12.7507 201.774 13.2682 202.295 13.6523C202.822 14.0365 203.457 14.2285 204.199 14.2285ZM215.4 15.2051C214.521 15.2051 213.743 14.9837 213.066 14.541C212.396 14.0983 211.868 13.4798 211.484 12.6855C211.107 11.8913 210.918 10.9701 210.918 9.92188V9.51172C210.918 8.48307 211.104 7.57161 211.475 6.77734C211.846 5.98307 212.363 5.36133 213.027 4.91211C213.698 4.46289 214.486 4.23828 215.391 4.23828C216.211 4.23828 216.94 4.39453 217.578 4.70703C218.216 5.01302 218.75 5.41016 219.18 5.89844L219.199 8.29102H218.223L218.066 6.31836C217.741 5.97331 217.36 5.70638 216.924 5.51758C216.488 5.32227 215.986 5.22461 215.42 5.22461C214.756 5.22461 214.173 5.41016 213.672 5.78125C213.171 6.15234 212.78 6.66341 212.5 7.31445C212.227 7.95898 212.09 8.69141 212.09 9.51172V9.92188C212.09 11.2109 212.389 12.2526 212.988 13.0469C213.587 13.8346 214.395 14.2285 215.41 14.2285C216.198 14.2285 216.855 14.0234 217.383 13.6133C217.91 13.1966 218.229 12.5846 218.34 11.7773H219.385L219.404 11.8359C219.313 12.8385 218.919 13.6523 218.223 14.2773C217.526 14.8958 216.585 15.2051 215.4 15.2051ZM227.256 8.28125C228.473 8.28125 229.421 8.59049 230.098 9.20898C230.781 9.82747 231.123 10.6315 231.123 11.6211C231.123 12.6172 230.781 13.431 230.098 14.0625C229.421 14.6875 228.473 15 227.256 15H221.475V14.1504L223.066 14.0234V5.41992L221.475 5.29297V4.43359H225.83V5.29297L224.238 5.41992V8.28125H227.256ZM227.256 14.0234C228.161 14.0234 228.835 13.7988 229.277 13.3496C229.727 12.8939 229.951 12.3242 229.951 11.6406C229.951 10.9831 229.727 10.4232 229.277 9.96094C228.828 9.49219 228.154 9.25781 227.256 9.25781H224.238V14.0234H227.256ZM242.432 15.2051C241.553 15.2051 240.775 14.9837 240.098 14.541C239.427 14.0983 238.9 13.4798 238.516 12.6855C238.138 11.8913 237.949 10.9701 237.949 9.92188V9.51172C237.949 8.48307 238.135 7.57161 238.506 6.77734C238.877 5.98307 239.395 5.36133 240.059 4.91211C240.729 4.46289 241.517 4.23828 242.422 4.23828C243.242 4.23828 243.971 4.39453 244.609 4.70703C245.247 5.01302 245.781 5.41016 246.211 5.89844L246.23 8.29102H245.254L245.098 6.31836C244.772 5.97331 244.391 5.70638 243.955 5.51758C243.519 5.32227 243.018 5.22461 242.451 5.22461C241.787 5.22461 241.204 5.41016 240.703 5.78125C240.202 6.15234 239.811 6.66341 239.531 7.31445C239.258 7.95898 239.121 8.69141 239.121 9.51172V9.92188C239.121 11.2109 239.421 12.2526 240.02 13.0469C240.618 13.8346 241.426 14.2285 242.441 14.2285C243.229 14.2285 243.887 14.0234 244.414 13.6133C244.941 13.1966 245.26 12.5846 245.371 11.7773H246.416L246.436 11.8359C246.344 12.8385 245.951 13.6523 245.254 14.2773C244.557 14.8958 243.617 15.2051 242.432 15.2051ZM253.389 15V14.1504L254.98 14.0234V5.41992L253.389 5.29297V4.43359H258.857C260.179 4.43359 261.201 4.66797 261.924 5.13672C262.653 5.60547 263.018 6.30859 263.018 7.24609C263.018 7.79297 262.848 8.27474 262.51 8.69141C262.178 9.10156 261.709 9.39453 261.104 9.57031C261.8 9.6875 262.363 9.98047 262.793 10.4492C263.229 10.918 263.447 11.4583 263.447 12.0703C263.447 13.0273 263.096 13.7565 262.393 14.2578C261.696 14.7526 260.742 15 259.531 15H253.389ZM256.152 9.16016H258.965C260.885 9.16016 261.846 8.5319 261.846 7.27539C261.846 6.0319 260.85 5.41016 258.857 5.41016H256.152V9.16016ZM256.152 14.0332H259.531C260.404 14.0332 261.077 13.8639 261.553 13.5254C262.035 13.1803 262.275 12.6888 262.275 12.0508C262.275 11.4648 262.031 10.9993 261.543 10.6543C261.061 10.3027 260.391 10.127 259.531 10.127H256.152V14.0332ZM265.596 15V14.1504L267.188 14.0234V5.41992L265.596 5.29297V4.43359H269.951V5.29297L268.359 5.41992V13.0176L268.418 13.0371L274.053 4.43359H276.816V5.29297L275.225 5.41992V14.0234L276.816 14.1504V15H272.461V14.1504L274.053 14.0234V6.41602L273.994 6.39648L268.359 15H265.596ZM278.584 19.0625V18.2031L280.137 18.0762V5.41992L278.545 5.29297V4.43359H281.113L281.26 6.04492C281.611 5.47201 282.064 5.0293 282.617 4.7168C283.177 4.39779 283.835 4.23828 284.59 4.23828C285.443 4.23828 286.172 4.4694 286.777 4.93164C287.383 5.38737 287.845 6.0319 288.164 6.86523C288.49 7.69857 288.652 8.67839 288.652 9.80469V10.0098C288.652 11.5853 288.294 12.8451 287.578 13.7891C286.862 14.7331 285.876 15.2051 284.619 15.2051C283.87 15.2051 283.216 15.0651 282.656 14.7852C282.103 14.5052 281.654 14.1146 281.309 13.6133V18.0762L282.939 18.2031V19.0625H278.584ZM284.346 14.2285C285.368 14.2285 286.143 13.8444 286.67 13.0762C287.204 12.3014 287.471 11.2793 287.471 10.0098V9.80469C287.471 8.45703 287.204 7.36003 286.67 6.51367C286.136 5.66732 285.355 5.24414 284.326 5.24414C283.525 5.24414 282.881 5.43945 282.393 5.83008C281.911 6.2207 281.549 6.71549 281.309 7.31445V12.3535C281.556 12.9329 281.934 13.3919 282.441 13.7305C282.949 14.0625 283.584 14.2285 284.346 14.2285ZM292.168 15V14.1504L293.76 14.0234V5.41016H290.898L290.83 7.42188H289.785V4.43359H299.043V7.42188H297.998L297.93 5.41016H294.932V14.0234L296.523 14.1504V15H292.168ZM303.018 19.2676C302.881 19.2676 302.715 19.2513 302.52 19.2188C302.331 19.1927 302.188 19.1667 302.09 19.1406L302.227 18.1738C302.318 18.1868 302.445 18.1999 302.607 18.2129C302.777 18.2324 302.9 18.2422 302.979 18.2422C303.486 18.2422 303.89 18.0729 304.189 17.7344C304.489 17.4023 304.762 16.9271 305.01 16.3086L305.557 14.873L301.68 5.36133L300.537 5.29297V4.43359H304.258V5.29297L302.92 5.38086L305.635 12.1973L306.074 13.3984H306.133L309.15 5.38086L307.773 5.29297V4.43359H311.465V5.29297L310.342 5.36133L306.006 16.6992C305.713 17.4479 305.352 18.0632 304.922 18.5449C304.492 19.0267 303.857 19.2676 303.018 19.2676ZM315.684 15.2051C314.681 15.2051 313.896 14.9382 313.33 14.4043C312.764 13.8704 312.48 13.1478 312.48 12.2363C312.48 11.2598 312.894 10.472 313.721 9.87305C314.554 9.26758 315.687 8.96484 317.119 8.96484H319.307V7.75391C319.307 6.98568 319.079 6.37044 318.623 5.9082C318.167 5.44596 317.487 5.21484 316.582 5.21484C316.068 5.21484 315.605 5.29948 315.195 5.46875C314.792 5.63151 314.44 5.83984 314.141 6.09375L314.043 7.70508H313.076V5.49805C313.532 5.10091 314.049 4.79167 314.629 4.57031C315.208 4.34896 315.866 4.23828 316.602 4.23828C317.845 4.23828 318.802 4.55078 319.473 5.17578C320.143 5.80078 320.479 6.66667 320.479 7.77344V12.8711C320.479 13.0794 320.485 13.2878 320.498 13.4961C320.511 13.6979 320.534 13.8997 320.566 14.1016L321.826 14.1504V15H319.521C319.45 14.6159 319.398 14.3066 319.365 14.0723C319.333 13.8379 319.313 13.5742 319.307 13.2812C318.923 13.8477 318.415 14.3099 317.783 14.668C317.152 15.026 316.452 15.2051 315.684 15.2051ZM315.82 14.1797C316.543 14.1797 317.227 13.9909 317.871 13.6133C318.522 13.2292 319.001 12.7214 319.307 12.0898V9.86328H317.109C316.029 9.86328 315.182 10.0977 314.57 10.5664C313.958 11.0286 313.652 11.5983 313.652 12.2754C313.652 12.8418 313.844 13.3008 314.229 13.6523C314.619 14.0039 315.15 14.1797 315.82 14.1797ZM323.232 15L323.242 13.9648L323.613 13.9551C324.095 13.9551 324.486 13.8021 324.785 13.4961C325.085 13.1836 325.303 12.6725 325.439 11.9629C325.583 11.2533 325.654 10.2995 325.654 9.10156V5.41992L324.062 5.29297V4.43359H334.072V5.29297L332.48 5.41992V14.0234L334.072 14.1504V15H329.707V14.1504L331.299 14.0234V5.42969H326.826V9.10156C326.826 11.1784 326.585 12.6823 326.104 13.6133C325.622 14.5378 324.805 15 323.652 15H323.232ZM341.943 8.28125C343.161 8.28125 344.108 8.59049 344.785 9.20898C345.469 9.82747 345.811 10.6315 345.811 11.6211C345.811 12.6172 345.469 13.431 344.785 14.0625C344.108 14.6875 343.161 15 341.943 15H336.162V14.1504L337.754 14.0234V5.41992L336.162 5.29297V4.43359H340.518V5.29297L338.926 5.41992V8.28125H341.943ZM341.943 14.0234C342.848 14.0234 343.522 13.7988 343.965 13.3496C344.414 12.8939 344.639 12.3242 344.639 11.6406C344.639 10.9831 344.414 10.4232 343.965 9.96094C343.516 9.49219 342.842 9.25781 341.943 9.25781H338.926V14.0234H341.943ZM347.803 15V14.1504L349.395 14.0234V5.41992L347.803 5.29297V4.43359H352.158V5.29297L350.566 5.41992V9.16992H356.25V5.41992L354.658 5.29297V4.43359H359.023V5.29297L357.432 5.41992V14.0234L359.023 14.1504V15H354.658V14.1504L356.25 14.0234V10.1465H350.566V14.0234L352.158 14.1504V15H347.803ZM371.367 15V14.1504L372.959 14.0234V5.41992L371.367 5.29297V4.43359H374.131V14.0234L375.723 14.1504V15H371.367ZM366.982 8.28125C368.2 8.28125 369.147 8.59049 369.824 9.20898C370.508 9.82747 370.85 10.6315 370.85 11.6211C370.85 12.6172 370.508 13.431 369.824 14.0625C369.147 14.6875 368.2 15 366.982 15H361.201V14.1504L362.793 14.0234V5.41992L361.201 5.29297V4.43359H365.557V5.29297L363.965 5.41992V8.28125H366.982ZM363.965 14.0234H366.982C367.887 14.0234 368.561 13.7988 369.004 13.3496C369.453 12.8939 369.678 12.3242 369.678 11.6406C369.678 10.9831 369.453 10.4232 369.004 9.96094C368.555 9.49219 367.881 9.25781 366.982 9.25781H363.965V14.0234ZM377.08 15V14.1504L378.672 14.0234V5.41992L377.08 5.29297V4.43359H380.205L384.355 13.3691L384.404 13.4082L388.584 4.43359H391.631V5.29297L390.039 5.41992V14.0234L391.631 14.1504V15H387.275V14.1504L388.867 14.0234V6.54297L388.809 6.52344L384.814 15H383.975L379.902 6.32812L379.844 6.33789V14.0234L381.436 14.1504V15H377.08ZM398.584 15V14.1504L400.176 14.0234V5.41992L398.584 5.29297V4.43359H401.709L405.859 13.3691L405.908 13.4082L410.088 4.43359H413.135V5.29297L411.543 5.41992V14.0234L413.135 14.1504V15H408.779V14.1504L410.371 14.0234V6.54297L410.312 6.52344L406.318 15H405.479L401.406 6.32812L401.348 6.33789V14.0234L402.939 14.1504V15H398.584ZM415.205 15V14.1504L416.797 14.0234V5.41992L415.205 5.29297V4.43359H419.561V5.29297L417.969 5.41992V13.0176L418.027 13.0371L423.662 4.43359H426.426V5.29297L424.834 5.41992V14.0234L426.426 14.1504V15H422.07V14.1504L423.662 14.0234V6.41602L423.604 6.39648L417.969 15H415.205ZM428.193 19.0625V18.2031L429.746 18.0762V5.41992L428.154 5.29297V4.43359H430.723L430.869 6.04492C431.221 5.47201 431.673 5.0293 432.227 4.7168C432.786 4.39779 433.444 4.23828 434.199 4.23828C435.052 4.23828 435.781 4.4694 436.387 4.93164C436.992 5.38737 437.454 6.0319 437.773 6.86523C438.099 7.69857 438.262 8.67839 438.262 9.80469V10.0098C438.262 11.5853 437.904 12.8451 437.188 13.7891C436.471 14.7331 435.485 15.2051 434.229 15.2051C433.48 15.2051 432.826 15.0651 432.266 14.7852C431.712 14.5052 431.263 14.1146 430.918 13.6133V18.0762L432.549 18.2031V19.0625H428.193ZM433.955 14.2285C434.977 14.2285 435.752 13.8444 436.279 13.0762C436.813 12.3014 437.08 11.2793 437.08 10.0098V9.80469C437.08 8.45703 436.813 7.36003 436.279 6.51367C435.745 5.66732 434.964 5.24414 433.936 5.24414C433.135 5.24414 432.49 5.43945 432.002 5.83008C431.52 6.2207 431.159 6.71549 430.918 7.31445V12.3535C431.165 12.9329 431.543 13.3919 432.051 13.7305C432.559 14.0625 433.193 14.2285 433.955 14.2285ZM445.117 15.2051C444.173 15.2051 443.35 14.9805 442.646 14.5312C441.943 14.0755 441.396 13.4473 441.006 12.6465C440.622 11.8457 440.43 10.9245 440.43 9.88281V9.56055C440.43 8.52539 440.622 7.60742 441.006 6.80664C441.396 6.00586 441.94 5.3776 442.637 4.92188C443.34 4.46615 444.16 4.23828 445.098 4.23828C446.035 4.23828 446.855 4.46615 447.559 4.92188C448.262 5.3776 448.805 6.00586 449.189 6.80664C449.58 7.60742 449.775 8.52539 449.775 9.56055V9.88281C449.775 10.9245 449.58 11.8457 449.189 12.6465C448.805 13.4473 448.262 14.0755 447.559 14.5312C446.862 14.9805 446.048 15.2051 445.117 15.2051ZM445.117 14.2285C445.84 14.2285 446.462 14.0365 446.982 13.6523C447.503 13.2682 447.904 12.7507 448.184 12.0996C448.464 11.4421 448.604 10.7031 448.604 9.88281V9.56055C448.604 8.75326 448.46 8.02409 448.174 7.37305C447.894 6.71549 447.49 6.19466 446.963 5.81055C446.442 5.41992 445.82 5.22461 445.098 5.22461C444.362 5.22461 443.734 5.41992 443.213 5.81055C442.692 6.19466 442.292 6.71549 442.012 7.37305C441.738 8.02409 441.602 8.75326 441.602 9.56055V9.88281C441.602 10.7031 441.738 11.4421 442.012 12.0996C442.292 12.7507 442.692 13.2682 443.213 13.6523C443.74 14.0365 444.375 14.2285 445.117 14.2285ZM451.729 15V14.1504L453.32 14.0234V5.41992L451.729 5.29297V4.43359H454.854L459.004 13.3691L459.053 13.4082L463.232 4.43359H466.279V5.29297L464.688 5.41992V14.0234L466.279 14.1504V15H461.924V14.1504L463.516 14.0234V6.54297L463.457 6.52344L459.463 15H458.623L454.551 6.32812L454.492 6.33789V14.0234L456.084 14.1504V15H451.729ZM0.947266 47V46.1504L2.53906 46.0234V37.4199L0.947266 37.293V36.4336H6.41602C7.73763 36.4336 8.75977 36.668 9.48242 37.1367C10.2116 37.6055 10.5762 38.3086 10.5762 39.2461C10.5762 39.793 10.4069 40.2747 10.0684 40.6914C9.73633 41.1016 9.26758 41.3945 8.66211 41.5703C9.35872 41.6875 9.92188 41.9805 10.3516 42.4492C10.7878 42.918 11.0059 43.4583 11.0059 44.0703C11.0059 45.0273 10.6543 45.7565 9.95117 46.2578C9.25456 46.7526 8.30078 47 7.08984 47H0.947266ZM3.71094 41.1602H6.52344C8.44401 41.1602 9.4043 40.5319 9.4043 39.2754C9.4043 38.0319 8.4082 37.4102 6.41602 37.4102H3.71094V41.1602ZM3.71094 46.0332H7.08984C7.96224 46.0332 8.63607 45.8639 9.11133 45.5254C9.5931 45.1803 9.83398 44.6888 9.83398 44.0508C9.83398 43.4648 9.58984 42.9993 9.10156 42.6543C8.61979 42.3027 7.94922 42.127 7.08984 42.127H3.71094V46.0332ZM17.627 51.0625V50.2031L19.1797 50.0762V37.4199L17.5879 37.293V36.4336H20.1562L20.3027 38.0449C20.6543 37.472 21.1068 37.0293 21.6602 36.7168C22.2201 36.3978 22.8776 36.2383 23.6328 36.2383C24.4857 36.2383 25.2148 36.4694 25.8203 36.9316C26.4258 37.3874 26.888 38.0319 27.207 38.8652C27.5326 39.6986 27.6953 40.6784 27.6953 41.8047V42.0098C27.6953 43.5853 27.3372 44.8451 26.6211 45.7891C25.9049 46.7331 24.9186 47.2051 23.6621 47.2051C22.9134 47.2051 22.2591 47.0651 21.6992 46.7852C21.1458 46.5052 20.6966 46.1146 20.3516 45.6133V50.0762L21.9824 50.2031V51.0625H17.627ZM23.3887 46.2285C24.4108 46.2285 25.1855 45.8444 25.7129 45.0762C26.2467 44.3014 26.5137 43.2793 26.5137 42.0098V41.8047C26.5137 40.457 26.2467 39.36 25.7129 38.5137C25.179 37.6673 24.3978 37.2441 23.3691 37.2441C22.5684 37.2441 21.9238 37.4395 21.4355 37.8301C20.9538 38.2207 20.5924 38.7155 20.3516 39.3145V44.3535C20.599 44.9329 20.9766 45.3919 21.4844 45.7305C21.9922 46.0625 22.627 46.2285 23.3887 46.2285ZM34.4824 47.2051C33.5775 47.2051 32.7799 46.987 32.0898 46.5508C31.3997 46.1081 30.8594 45.4993 30.4688 44.7246C30.0781 43.9434 29.8828 43.0449 29.8828 42.0293V41.4922C29.8828 40.4831 30.0781 39.5846 30.4688 38.7969C30.8594 38.0026 31.3867 37.3776 32.0508 36.9219C32.7214 36.4661 33.4668 36.2383 34.2871 36.2383C35.5827 36.2383 36.5951 36.6484 37.3242 37.4688C38.0534 38.2826 38.418 39.373 38.418 40.7402V41.7363H31.0938L31.0742 42.166C31.0807 42.9473 31.224 43.6439 31.5039 44.2559C31.7904 44.8678 32.1875 45.3496 32.6953 45.7012C33.2096 46.0527 33.8053 46.2285 34.4824 46.2285C35.1465 46.2285 35.7292 46.1243 36.2305 45.916C36.7383 45.7077 37.1842 45.418 37.5684 45.0469L38.0664 45.8477C37.6628 46.2448 37.168 46.5703 36.582 46.8242C35.9961 47.0781 35.2962 47.2051 34.4824 47.2051ZM31.1719 40.7598H37.2461V40.4668C37.2461 39.5358 36.9824 38.7643 36.4551 38.1523C35.9342 37.5339 35.2116 37.2246 34.2871 37.2246C33.7272 37.2246 33.2227 37.3776 32.7734 37.6836C32.3242 37.9831 31.9564 38.3965 31.6699 38.9238C31.39 39.4447 31.2174 40.0371 31.1523 40.7012L31.1719 40.7598ZM43.6133 47.2051C42.6107 47.2051 41.8262 46.9382 41.2598 46.4043C40.6934 45.8704 40.4102 45.1478 40.4102 44.2363C40.4102 43.2598 40.8236 42.472 41.6504 41.873C42.4837 41.2676 43.6165 40.9648 45.0488 40.9648H47.2363V39.7539C47.2363 38.9857 47.0085 38.3704 46.5527 37.9082C46.097 37.446 45.4167 37.2148 44.5117 37.2148C43.9974 37.2148 43.5352 37.2995 43.125 37.4688C42.7214 37.6315 42.3698 37.8398 42.0703 38.0938L41.9727 39.7051H41.0059V37.498C41.4616 37.1009 41.9792 36.7917 42.5586 36.5703C43.138 36.349 43.7956 36.2383 44.5312 36.2383C45.7747 36.2383 46.7318 36.5508 47.4023 37.1758C48.0729 37.8008 48.4082 38.6667 48.4082 39.7734V44.8711C48.4082 45.0794 48.4147 45.2878 48.4277 45.4961C48.4408 45.6979 48.4635 45.8997 48.4961 46.1016L49.7559 46.1504V47H47.4512C47.3796 46.6159 47.3275 46.3066 47.2949 46.0723C47.2624 45.8379 47.2428 45.5742 47.2363 45.2812C46.8522 45.8477 46.3444 46.3099 45.7129 46.668C45.0814 47.026 44.3815 47.2051 43.6133 47.2051ZM43.75 46.1797C44.4727 46.1797 45.1562 45.9909 45.8008 45.6133C46.4518 45.2292 46.9303 44.7214 47.2363 44.0898V41.8633H45.0391C43.9583 41.8633 43.112 42.0977 42.5 42.5664C41.888 43.0286 41.582 43.5983 41.582 44.2754C41.582 44.8418 41.7741 45.3008 42.1582 45.6523C42.5488 46.0039 43.0794 46.1797 43.75 46.1797ZM51.1621 47L51.1719 45.9648L51.543 45.9551C52.0247 45.9551 52.4154 45.8021 52.7148 45.4961C53.0143 45.1836 53.2324 44.6725 53.3691 43.9629C53.5124 43.2533 53.584 42.2995 53.584 41.1016V37.4199L51.9922 37.293V36.4336H62.002V37.293L60.4102 37.4199V46.0234L62.002 46.1504V47H57.6367V46.1504L59.2285 46.0234V37.4297H54.7559V41.1016C54.7559 43.1784 54.515 44.6823 54.0332 45.6133C53.5514 46.5378 52.7344 47 51.582 47H51.1621ZM69.873 40.2812C71.0905 40.2812 72.0378 40.5905 72.7148 41.209C73.3984 41.8275 73.7402 42.6315 73.7402 43.6211C73.7402 44.6172 73.3984 45.431 72.7148 46.0625C72.0378 46.6875 71.0905 47 69.873 47H64.0918V46.1504L65.6836 46.0234V37.4199L64.0918 37.293V36.4336H68.4473V37.293L66.8555 37.4199V40.2812H69.873ZM69.873 46.0234C70.778 46.0234 71.4518 45.7988 71.8945 45.3496C72.3438 44.8939 72.5684 44.3242 72.5684 43.6406C72.5684 42.9831 72.3438 42.4232 71.8945 41.9609C71.4453 41.4922 70.7715 41.2578 69.873 41.2578H66.8555V46.0234H69.873ZM75.7324 47V46.1504L77.3242 46.0234V37.4199L75.7324 37.293V36.4336H80.0879V37.293L78.4961 37.4199V41.1699H84.1797V37.4199L82.5879 37.293V36.4336H86.9531V37.293L85.3613 37.4199V46.0234L86.9531 46.1504V47H82.5879V46.1504L84.1797 46.0234V42.1465H78.4961V46.0234L80.0879 46.1504V47H75.7324ZM93.7695 47.2051C92.8255 47.2051 92.002 46.9805 91.2988 46.5312C90.5957 46.0755 90.0488 45.4473 89.6582 44.6465C89.2741 43.8457 89.082 42.9245 89.082 41.8828V41.5605C89.082 40.5254 89.2741 39.6074 89.6582 38.8066C90.0488 38.0059 90.5924 37.3776 91.2891 36.9219C91.9922 36.4661 92.8125 36.2383 93.75 36.2383C94.6875 36.2383 95.5078 36.4661 96.2109 36.9219C96.9141 37.3776 97.4577 38.0059 97.8418 38.8066C98.2324 39.6074 98.4277 40.5254 98.4277 41.5605V41.8828C98.4277 42.9245 98.2324 43.8457 97.8418 44.6465C97.4577 45.4473 96.9141 46.0755 96.2109 46.5312C95.5143 46.9805 94.7005 47.2051 93.7695 47.2051ZM93.7695 46.2285C94.4922 46.2285 95.1139 46.0365 95.6348 45.6523C96.1556 45.2682 96.556 44.7507 96.8359 44.0996C97.1159 43.4421 97.2559 42.7031 97.2559 41.8828V41.5605C97.2559 40.7533 97.1126 40.0241 96.8262 39.373C96.5462 38.7155 96.1426 38.1947 95.6152 37.8105C95.0944 37.4199 94.4727 37.2246 93.75 37.2246C93.0143 37.2246 92.3861 37.4199 91.8652 37.8105C91.3444 38.1947 90.944 38.7155 90.6641 39.373C90.3906 40.0241 90.2539 40.7533 90.2539 41.5605V41.8828C90.2539 42.7031 90.3906 43.4421 90.6641 44.0996C90.944 44.7507 91.3444 45.2682 91.8652 45.6523C92.3926 46.0365 93.0273 46.2285 93.7695 46.2285ZM104.971 47.2051C104.092 47.2051 103.314 46.9837 102.637 46.541C101.966 46.0983 101.439 45.4798 101.055 44.6855C100.677 43.8913 100.488 42.9701 100.488 41.9219V41.5117C100.488 40.4831 100.674 39.5716 101.045 38.7773C101.416 37.9831 101.934 37.3613 102.598 36.9121C103.268 36.4629 104.056 36.2383 104.961 36.2383C105.781 36.2383 106.51 36.3945 107.148 36.707C107.786 37.013 108.32 37.4102 108.75 37.8984L108.77 40.291H107.793L107.637 38.3184C107.311 37.9733 106.93 37.7064 106.494 37.5176C106.058 37.3223 105.557 37.2246 104.99 37.2246C104.326 37.2246 103.743 37.4102 103.242 37.7812C102.741 38.1523 102.35 38.6634 102.07 39.3145C101.797 39.959 101.66 40.6914 101.66 41.5117V41.9219C101.66 43.2109 101.96 44.2526 102.559 45.0469C103.158 45.8346 103.965 46.2285 104.98 46.2285C105.768 46.2285 106.426 46.0234 106.953 45.6133C107.48 45.1966 107.799 44.5846 107.91 43.7773H108.955L108.975 43.8359C108.883 44.8385 108.49 45.6523 107.793 46.2773C107.096 46.8958 106.156 47.2051 104.971 47.2051ZM113.301 47V46.1504L114.893 46.0234V37.4102H112.031L111.963 39.4219H110.918V36.4336H120.176V39.4219H119.131L119.062 37.4102H116.064V46.0234L117.656 46.1504V47H113.301ZM122.1 47V46.1504L123.691 46.0234V37.4199L122.1 37.293V36.4336H126.455V37.293L124.863 37.4199V45.0176L124.922 45.0371L130.557 36.4336H133.32V37.293L131.729 37.4199V46.0234L133.32 46.1504V47H128.965V46.1504L130.557 46.0234V38.416L130.498 38.3965L124.863 47H122.1ZM135.967 47V45.4082H137.305V47H135.967ZM144.746 47V46.1504L146.338 46.0234V33.7676L144.746 33.6406V32.7812H149.102V33.6406L147.51 33.7676V39.4609H155.537V33.7676L153.945 33.6406V32.7812H158.301V33.6406L156.709 33.7676V46.0234L158.301 46.1504V47H153.945V46.1504L155.537 46.0234V40.4473H147.51V46.0234L149.102 46.1504V47H144.746ZM164.629 47.2051C163.685 47.2051 162.861 46.9805 162.158 46.5312C161.455 46.0755 160.908 45.4473 160.518 44.6465C160.133 43.8457 159.941 42.9245 159.941 41.8828V41.5605C159.941 40.5254 160.133 39.6074 160.518 38.8066C160.908 38.0059 161.452 37.3776 162.148 36.9219C162.852 36.4661 163.672 36.2383 164.609 36.2383C165.547 36.2383 166.367 36.4661 167.07 36.9219C167.773 37.3776 168.317 38.0059 168.701 38.8066C169.092 39.6074 169.287 40.5254 169.287 41.5605V41.8828C169.287 42.9245 169.092 43.8457 168.701 44.6465C168.317 45.4473 167.773 46.0755 167.07 46.5312C166.374 46.9805 165.56 47.2051 164.629 47.2051ZM164.629 46.2285C165.352 46.2285 165.973 46.0365 166.494 45.6523C167.015 45.2682 167.415 44.7507 167.695 44.0996C167.975 43.4421 168.115 42.7031 168.115 41.8828V41.5605C168.115 40.7533 167.972 40.0241 167.686 39.373C167.406 38.7155 167.002 38.1947 166.475 37.8105C165.954 37.4199 165.332 37.2246 164.609 37.2246C163.874 37.2246 163.245 37.4199 162.725 37.8105C162.204 38.1947 161.803 38.7155 161.523 39.373C161.25 40.0241 161.113 40.7533 161.113 41.5605V41.8828C161.113 42.7031 161.25 43.4421 161.523 44.0996C161.803 44.7507 162.204 45.2682 162.725 45.6523C163.252 46.0365 163.887 46.2285 164.629 46.2285ZM171.24 47V46.1504L172.832 46.0234V37.4199L171.24 37.293V36.4336H176.709C178.031 36.4336 179.053 36.668 179.775 37.1367C180.505 37.6055 180.869 38.3086 180.869 39.2461C180.869 39.793 180.7 40.2747 180.361 40.6914C180.029 41.1016 179.561 41.3945 178.955 41.5703C179.652 41.6875 180.215 41.9805 180.645 42.4492C181.081 42.918 181.299 43.4583 181.299 44.0703C181.299 45.0273 180.947 45.7565 180.244 46.2578C179.548 46.7526 178.594 47 177.383 47H171.24ZM174.004 41.1602H176.816C178.737 41.1602 179.697 40.5319 179.697 39.2754C179.697 38.0319 178.701 37.4102 176.709 37.4102H174.004V41.1602ZM174.004 46.0332H177.383C178.255 46.0332 178.929 45.8639 179.404 45.5254C179.886 45.1803 180.127 44.6888 180.127 44.0508C180.127 43.4648 179.883 42.9993 179.395 42.6543C178.913 42.3027 178.242 42.127 177.383 42.127H174.004V46.0332ZM193.613 47V46.1504L195.205 46.0234V37.4199L193.613 37.293V36.4336H196.377V46.0234L197.969 46.1504V47H193.613ZM189.229 40.2812C190.446 40.2812 191.393 40.5905 192.07 41.209C192.754 41.8275 193.096 42.6315 193.096 43.6211C193.096 44.6172 192.754 45.431 192.07 46.0625C191.393 46.6875 190.446 47 189.229 47H183.447V46.1504L185.039 46.0234V37.4199L183.447 37.293V36.4336H187.803V37.293L186.211 37.4199V40.2812H189.229ZM186.211 46.0234H189.229C190.133 46.0234 190.807 45.7988 191.25 45.3496C191.699 44.8939 191.924 44.3242 191.924 43.6406C191.924 42.9831 191.699 42.4232 191.25 41.9609C190.801 41.4922 190.127 41.2578 189.229 41.2578H186.211V46.0234ZM199.326 47V46.1504L200.918 46.0234V37.4199L199.326 37.293V36.4336H203.682V37.293L202.09 37.4199V45.0176L202.148 45.0371L207.783 36.4336H210.547V37.293L208.955 37.4199V46.0234L210.547 46.1504V47H206.191V46.1504L207.783 46.0234V38.416L207.725 38.3965L202.09 47H199.326ZM204.99 34.334C204.098 34.334 203.398 34.1029 202.891 33.6406C202.383 33.1719 202.132 32.5664 202.139 31.8242L202.158 31.7656H203.105C203.105 32.2734 203.255 32.6868 203.555 33.0059C203.861 33.3249 204.339 33.4844 204.99 33.4844C205.615 33.4844 206.081 33.3249 206.387 33.0059C206.699 32.6868 206.855 32.2734 206.855 31.7656H207.812L207.832 31.8242C207.826 32.5664 207.568 33.1719 207.061 33.6406C206.559 34.1029 205.869 34.334 204.99 34.334ZM217.607 47V46.1504L219.199 46.0234V37.4199L217.607 37.293V36.4336H221.973V37.293L220.381 37.4199V41.1211H221.943L224.521 37.8301C224.951 37.2637 225.339 36.8665 225.684 36.6387C226.035 36.4043 226.423 36.2871 226.846 36.2871C227.054 36.2871 227.243 36.3164 227.412 36.375C227.588 36.4336 227.767 36.5215 227.949 36.6387L227.695 37.4883C227.52 37.4362 227.396 37.4004 227.324 37.3809C227.253 37.3613 227.155 37.3516 227.031 37.3516C226.738 37.3516 226.475 37.4329 226.24 37.5957C226.006 37.7585 225.736 38.0319 225.43 38.416L222.969 41.541L226.982 46.0332L228.34 46.1504V47H226.27L221.992 42.1465H220.381V46.0234L221.973 46.1504V47H217.607ZM233.906 47.2051C232.962 47.2051 232.139 46.9805 231.436 46.5312C230.732 46.0755 230.186 45.4473 229.795 44.6465C229.411 43.8457 229.219 42.9245 229.219 41.8828V41.5605C229.219 40.5254 229.411 39.6074 229.795 38.8066C230.186 38.0059 230.729 37.3776 231.426 36.9219C232.129 36.4661 232.949 36.2383 233.887 36.2383C234.824 36.2383 235.645 36.4661 236.348 36.9219C237.051 37.3776 237.594 38.0059 237.979 38.8066C238.369 39.6074 238.564 40.5254 238.564 41.5605V41.8828C238.564 42.9245 238.369 43.8457 237.979 44.6465C237.594 45.4473 237.051 46.0755 236.348 46.5312C235.651 46.9805 234.837 47.2051 233.906 47.2051ZM233.906 46.2285C234.629 46.2285 235.251 46.0365 235.771 45.6523C236.292 45.2682 236.693 44.7507 236.973 44.0996C237.253 43.4421 237.393 42.7031 237.393 41.8828V41.5605C237.393 40.7533 237.249 40.0241 236.963 39.373C236.683 38.7155 236.279 38.1947 235.752 37.8105C235.231 37.4199 234.609 37.2246 233.887 37.2246C233.151 37.2246 232.523 37.4199 232.002 37.8105C231.481 38.1947 231.081 38.7155 230.801 39.373C230.527 40.0241 230.391 40.7533 230.391 41.5605V41.8828C230.391 42.7031 230.527 43.4421 230.801 44.0996C231.081 44.7507 231.481 45.2682 232.002 45.6523C232.529 46.0365 233.164 46.2285 233.906 46.2285ZM240.518 47V46.1504L242.109 46.0234V37.4199L240.518 37.293V36.4336H243.643L247.793 45.3691L247.842 45.4082L252.021 36.4336H255.068V37.293L253.477 37.4199V46.0234L255.068 46.1504V47H250.713V46.1504L252.305 46.0234V38.543L252.246 38.5234L248.252 47H247.412L243.34 38.3281L243.281 38.3379V46.0234L244.873 46.1504V47H240.518ZM257.139 47V46.1504L258.73 46.0234V37.4199L257.139 37.293V36.4336H268.359V37.293L266.768 37.4199V46.0234L268.359 46.1504V47H264.004V46.1504L265.596 46.0234V37.4297H259.902V46.0234L261.494 46.1504V47H257.139ZM273.691 47.2051C272.689 47.2051 271.904 46.9382 271.338 46.4043C270.771 45.8704 270.488 45.1478 270.488 44.2363C270.488 43.2598 270.902 42.472 271.729 41.873C272.562 41.2676 273.695 40.9648 275.127 40.9648H277.314V39.7539C277.314 38.9857 277.087 38.3704 276.631 37.9082C276.175 37.446 275.495 37.2148 274.59 37.2148C274.076 37.2148 273.613 37.2995 273.203 37.4688C272.799 37.6315 272.448 37.8398 272.148 38.0938L272.051 39.7051H271.084V37.498C271.54 37.1009 272.057 36.7917 272.637 36.5703C273.216 36.349 273.874 36.2383 274.609 36.2383C275.853 36.2383 276.81 36.5508 277.48 37.1758C278.151 37.8008 278.486 38.6667 278.486 39.7734V44.8711C278.486 45.0794 278.493 45.2878 278.506 45.4961C278.519 45.6979 278.542 45.8997 278.574 46.1016L279.834 46.1504V47H277.529C277.458 46.6159 277.406 46.3066 277.373 46.0723C277.34 45.8379 277.321 45.5742 277.314 45.2812C276.93 45.8477 276.423 46.3099 275.791 46.668C275.16 47.026 274.46 47.2051 273.691 47.2051ZM273.828 46.1797C274.551 46.1797 275.234 45.9909 275.879 45.6133C276.53 45.2292 277.008 44.7214 277.314 44.0898V41.8633H275.117C274.036 41.8633 273.19 42.0977 272.578 42.5664C271.966 43.0286 271.66 43.5983 271.66 44.2754C271.66 44.8418 271.852 45.3008 272.236 45.6523C272.627 46.0039 273.158 46.1797 273.828 46.1797ZM281.514 47V46.1504L283.105 46.0234V37.4199L281.514 37.293V36.4336H285.879V37.293L284.287 37.4199V41.1211H285.85L288.428 37.8301C288.857 37.2637 289.245 36.8665 289.59 36.6387C289.941 36.4043 290.329 36.2871 290.752 36.2871C290.96 36.2871 291.149 36.3164 291.318 36.375C291.494 36.4336 291.673 36.5215 291.855 36.6387L291.602 37.4883C291.426 37.4362 291.302 37.4004 291.23 37.3809C291.159 37.3613 291.061 37.3516 290.938 37.3516C290.645 37.3516 290.381 37.4329 290.146 37.5957C289.912 37.7585 289.642 38.0319 289.336 38.416L286.875 41.541L290.889 46.0332L292.246 46.1504V47H290.176L285.898 42.1465H284.287V46.0234L285.879 46.1504V47H281.514ZM295.938 47V46.1504L297.529 46.0234V37.4102H294.668L294.6 39.4219H293.555V36.4336H302.812V39.4219H301.768L301.699 37.4102H298.701V46.0234L300.293 46.1504V47H295.938ZM304.736 47V46.1504L306.328 46.0234V37.4199L304.736 37.293V36.4336H309.092V37.293L307.5 37.4199V41.1699H313.184V37.4199L311.592 37.293V36.4336H315.957V37.293L314.365 37.4199V46.0234L315.957 46.1504V47H311.592V46.1504L313.184 46.0234V42.1465H307.5V46.0234L309.092 46.1504V47H304.736ZM328.301 47V46.1504L329.893 46.0234V37.4199L328.301 37.293V36.4336H331.064V46.0234L332.656 46.1504V47H328.301ZM323.916 40.2812C325.133 40.2812 326.081 40.5905 326.758 41.209C327.441 41.8275 327.783 42.6315 327.783 43.6211C327.783 44.6172 327.441 45.431 326.758 46.0625C326.081 46.6875 325.133 47 323.916 47H318.135V46.1504L319.727 46.0234V37.4199L318.135 37.293V36.4336H322.49V37.293L320.898 37.4199V40.2812H323.916ZM320.898 46.0234H323.916C324.821 46.0234 325.495 45.7988 325.938 45.3496C326.387 44.8939 326.611 44.3242 326.611 43.6406C326.611 42.9831 326.387 42.4232 325.938 41.9609C325.488 41.4922 324.814 41.2578 323.916 41.2578H320.898V46.0234ZM334.014 47V46.1504L335.605 46.0234V37.4199L334.014 37.293V36.4336H338.369V37.293L336.777 37.4199V45.0176L336.836 45.0371L342.471 36.4336H345.234V37.293L343.643 37.4199V46.0234L345.234 46.1504V47H340.879V46.1504L342.471 46.0234V38.416L342.412 38.3965L336.777 47H334.014ZM339.678 34.334C338.786 34.334 338.086 34.1029 337.578 33.6406C337.07 33.1719 336.82 32.5664 336.826 31.8242L336.846 31.7656H337.793C337.793 32.2734 337.943 32.6868 338.242 33.0059C338.548 33.3249 339.027 33.4844 339.678 33.4844C340.303 33.4844 340.768 33.3249 341.074 33.0059C341.387 32.6868 341.543 32.2734 341.543 31.7656H342.5L342.52 31.8242C342.513 32.5664 342.256 33.1719 341.748 33.6406C341.247 34.1029 340.557 34.334 339.678 34.334ZM352.295 47V46.1504L353.887 46.0234V37.4199L352.295 37.293V36.4336H356.65V37.293L355.059 37.4199V46.0234H359.756V36.4336H360.928V46.0234H365.586V37.4199L363.994 37.293V36.4336H368.35V37.293L366.758 37.4199V46.0234L368.35 46.1504V47H352.295ZM370.146 47L370.156 45.9648L370.527 45.9551C371.009 45.9551 371.4 45.8021 371.699 45.4961C371.999 45.1836 372.217 44.6725 372.354 43.9629C372.497 43.2533 372.568 42.2995 372.568 41.1016V37.4199L370.977 37.293V36.4336H380.986V37.293L379.395 37.4199V46.0234L380.986 46.1504V47H376.621V46.1504L378.213 46.0234V37.4297H373.74V41.1016C373.74 43.1784 373.499 44.6823 373.018 45.6133C372.536 46.5378 371.719 47 370.566 47H370.146ZM387.646 47.2051C386.742 47.2051 385.944 46.987 385.254 46.5508C384.564 46.1081 384.023 45.4993 383.633 44.7246C383.242 43.9434 383.047 43.0449 383.047 42.0293V41.4922C383.047 40.4831 383.242 39.5846 383.633 38.7969C384.023 38.0026 384.551 37.3776 385.215 36.9219C385.885 36.4661 386.631 36.2383 387.451 36.2383C388.747 36.2383 389.759 36.6484 390.488 37.4688C391.217 38.2826 391.582 39.373 391.582 40.7402V41.7363H384.258L384.238 42.166C384.245 42.9473 384.388 43.6439 384.668 44.2559C384.954 44.8678 385.352 45.3496 385.859 45.7012C386.374 46.0527 386.969 46.2285 387.646 46.2285C388.311 46.2285 388.893 46.1243 389.395 45.916C389.902 45.7077 390.348 45.418 390.732 45.0469L391.23 45.8477C390.827 46.2448 390.332 46.5703 389.746 46.8242C389.16 47.0781 388.46 47.2051 387.646 47.2051ZM384.336 40.7598H390.41V40.4668C390.41 39.5358 390.146 38.7643 389.619 38.1523C389.098 37.5339 388.376 37.2246 387.451 37.2246C386.891 37.2246 386.387 37.3776 385.938 37.6836C385.488 37.9831 385.12 38.3965 384.834 38.9238C384.554 39.4447 384.382 40.0371 384.316 40.7012L384.336 40.7598ZM393.545 47V46.1504L395.137 46.0234V37.4199L393.545 37.293V36.4336H396.67L400.82 45.3691L400.869 45.4082L405.049 36.4336H408.096V37.293L406.504 37.4199V46.0234L408.096 46.1504V47H403.74V46.1504L405.332 46.0234V38.543L405.273 38.5234L401.279 47H400.439L396.367 38.3281L396.309 38.3379V46.0234L397.9 46.1504V47H393.545ZM5.71289 79.2051C4.76888 79.2051 3.94531 78.9935 3.24219 78.5703C2.54557 78.1406 2.00195 77.5482 1.61133 76.793C1.22721 76.0378 1.03516 75.1686 1.03516 74.1855V72.6523C1.03516 70.6081 1.45833 68.9674 2.30469 67.7305C3.15755 66.487 4.31315 65.748 5.77148 65.5137C6.76758 65.3574 7.46745 65.1556 7.87109 64.9082C8.27474 64.6608 8.47656 64.3027 8.47656 63.834H9.38477L9.4043 63.8926C9.43034 64.7715 9.16341 65.3932 8.60352 65.7578C8.04362 66.1224 7.18424 66.3828 6.02539 66.5391C4.98372 66.6693 4.11784 67.112 3.42773 67.8672C2.74414 68.6159 2.33724 69.625 2.20703 70.8945L2.24609 70.9434C2.59115 70.3965 3.08268 69.9603 3.7207 69.6348C4.36523 69.3027 5.08464 69.1367 5.87891 69.1367C6.78385 69.1367 7.57161 69.3385 8.24219 69.7422C8.91927 70.1458 9.44336 70.7025 9.81445 71.4121C10.1921 72.1217 10.3809 72.9388 10.3809 73.8633V74.1855C10.3809 75.1686 10.1855 76.0378 9.79492 76.793C9.41081 77.5482 8.86719 78.1406 8.16406 78.5703C7.46745 78.9935 6.65039 79.2051 5.71289 79.2051ZM5.71289 78.2285C6.44206 78.2285 7.06706 78.0495 7.58789 77.6914C8.10872 77.3333 8.50911 76.8516 8.78906 76.2461C9.06901 75.6341 9.20898 74.9473 9.20898 74.1855V73.8633C9.20898 73.1667 9.06576 72.5352 8.7793 71.9688C8.49935 71.4023 8.0957 70.9531 7.56836 70.6211C7.04753 70.2826 6.42253 70.1133 5.69336 70.1133C4.96419 70.1133 4.33919 70.2826 3.81836 70.6211C3.29753 70.9531 2.89714 71.4023 2.61719 71.9688C2.34375 72.5352 2.20703 73.1667 2.20703 73.8633V74.1855C2.20703 74.9473 2.34375 75.6341 2.61719 76.2461C2.89714 76.8581 3.29753 77.3431 3.81836 77.7012C4.3457 78.0527 4.97721 78.2285 5.71289 78.2285ZM16.8652 79.2051C15.9603 79.2051 15.1628 78.987 14.4727 78.5508C13.7826 78.1081 13.2422 77.4993 12.8516 76.7246C12.4609 75.9434 12.2656 75.0449 12.2656 74.0293V73.4922C12.2656 72.4831 12.4609 71.5846 12.8516 70.7969C13.2422 70.0026 13.7695 69.3776 14.4336 68.9219C15.1042 68.4661 15.8496 68.2383 16.6699 68.2383C17.9655 68.2383 18.9779 68.6484 19.707 69.4688C20.4362 70.2826 20.8008 71.373 20.8008 72.7402V73.7363H13.4766L13.457 74.166C13.4635 74.9473 13.6068 75.6439 13.8867 76.2559C14.1732 76.8678 14.5703 77.3496 15.0781 77.7012C15.5924 78.0527 16.1882 78.2285 16.8652 78.2285C17.5293 78.2285 18.112 78.1243 18.6133 77.916C19.1211 77.7077 19.5671 77.418 19.9512 77.0469L20.4492 77.8477C20.0456 78.2448 19.5508 78.5703 18.9648 78.8242C18.3789 79.0781 17.679 79.2051 16.8652 79.2051ZM13.5547 72.7598H19.6289V72.4668C19.6289 71.5358 19.3652 70.7643 18.8379 70.1523C18.3171 69.5339 17.5944 69.2246 16.6699 69.2246C16.11 69.2246 15.6055 69.3776 15.1562 69.6836C14.707 69.9831 14.3392 70.3965 14.0527 70.9238C13.7728 71.4447 13.6003 72.0371 13.5352 72.7012L13.5547 72.7598ZM26.709 79.1758C25.9798 79.1758 25.306 79.0553 24.6875 78.8145C24.069 78.5671 23.5742 78.2122 23.2031 77.75C22.8385 77.2812 22.666 76.7083 22.6855 76.0312L22.7051 75.9727H23.7891C23.7891 76.6042 24.0625 77.1348 24.6094 77.5645C25.1628 77.9941 25.8626 78.209 26.709 78.209C27.6204 78.209 28.3203 78.0202 28.8086 77.6426C29.3034 77.2585 29.5508 76.7507 29.5508 76.1191C29.5508 75.4225 29.3197 74.9147 28.8574 74.5957C28.4017 74.2702 27.6986 74.1074 26.748 74.1074H25.1367V73.1016H26.748C27.6725 73.1016 28.3398 72.9421 28.75 72.623C29.1602 72.2975 29.3652 71.832 29.3652 71.2266C29.3652 70.6406 29.1471 70.1621 28.7109 69.791C28.2812 69.4199 27.6139 69.2344 26.709 69.2344C25.9473 69.2344 25.2995 69.4297 24.7656 69.8203C24.2318 70.2044 23.9648 70.6927 23.9648 71.2852H22.8809L22.8613 71.2266C22.8353 70.6471 22.9915 70.1361 23.3301 69.6934C23.6751 69.2441 24.1406 68.8958 24.7266 68.6484C25.319 68.3945 25.9798 68.2676 26.709 68.2676C27.9134 68.2676 28.8542 68.5247 29.5312 69.0391C30.2083 69.5534 30.5469 70.2858 30.5469 71.2363C30.5469 71.7572 30.3841 72.2259 30.0586 72.6426C29.7396 73.0527 29.2839 73.3652 28.6914 73.5801C30.0586 73.9642 30.7422 74.804 30.7422 76.0996C30.7422 77.0632 30.3711 77.8184 29.6289 78.3652C28.8932 78.9056 27.9199 79.1758 26.709 79.1758ZM37.7832 79V78.1504L39.375 78.0234V69.4199L37.7832 69.293V68.4336H49.0039V69.293L47.4121 69.4199V78.0234L49.0039 78.1504V79H44.6484V78.1504L46.2402 78.0234V69.4297H40.5469V78.0234L42.1387 78.1504V79H37.7832ZM50.7715 83.0625V82.2031L52.3242 82.0762V69.4199L50.7324 69.293V68.4336H53.3008L53.4473 70.0449C53.7988 69.472 54.2513 69.0293 54.8047 68.7168C55.3646 68.3978 56.0221 68.2383 56.7773 68.2383C57.6302 68.2383 58.3594 68.4694 58.9648 68.9316C59.5703 69.3874 60.0326 70.0319 60.3516 70.8652C60.6771 71.6986 60.8398 72.6784 60.8398 73.8047V74.0098C60.8398 75.5853 60.4818 76.8451 59.7656 77.7891C59.0495 78.7331 58.0632 79.2051 56.8066 79.2051C56.0579 79.2051 55.4036 79.0651 54.8438 78.7852C54.2904 78.5052 53.8411 78.1146 53.4961 77.6133V82.0762L55.127 82.2031V83.0625H50.7715ZM56.5332 78.2285C57.5553 78.2285 58.3301 77.8444 58.8574 77.0762C59.3913 76.3014 59.6582 75.2793 59.6582 74.0098V73.8047C59.6582 72.457 59.3913 71.36 58.8574 70.5137C58.3236 69.6673 57.5423 69.2441 56.5137 69.2441C55.7129 69.2441 55.0684 69.4395 54.5801 69.8301C54.0983 70.2207 53.737 70.7155 53.4961 71.3145V76.3535C53.7435 76.9329 54.1211 77.3919 54.6289 77.7305C55.1367 78.0625 55.7715 78.2285 56.5332 78.2285ZM67.6953 79.2051C66.7513 79.2051 65.9277 78.9805 65.2246 78.5312C64.5215 78.0755 63.9746 77.4473 63.584 76.6465C63.1999 75.8457 63.0078 74.9245 63.0078 73.8828V73.5605C63.0078 72.5254 63.1999 71.6074 63.584 70.8066C63.9746 70.0059 64.5182 69.3776 65.2148 68.9219C65.918 68.4661 66.7383 68.2383 67.6758 68.2383C68.6133 68.2383 69.4336 68.4661 70.1367 68.9219C70.8398 69.3776 71.3835 70.0059 71.7676 70.8066C72.1582 71.6074 72.3535 72.5254 72.3535 73.5605V73.8828C72.3535 74.9245 72.1582 75.8457 71.7676 76.6465C71.3835 77.4473 70.8398 78.0755 70.1367 78.5312C69.4401 78.9805 68.6263 79.2051 67.6953 79.2051ZM67.6953 78.2285C68.418 78.2285 69.0397 78.0365 69.5605 77.6523C70.0814 77.2682 70.4818 76.7507 70.7617 76.0996C71.0417 75.4421 71.1816 74.7031 71.1816 73.8828V73.5605C71.1816 72.7533 71.0384 72.0241 70.752 71.373C70.472 70.7155 70.0684 70.1947 69.541 69.8105C69.0202 69.4199 68.3984 69.2246 67.6758 69.2246C66.9401 69.2246 66.3118 69.4199 65.791 69.8105C65.2702 70.1947 64.8698 70.7155 64.5898 71.373C64.3164 72.0241 64.1797 72.7533 64.1797 73.5605V73.8828C64.1797 74.7031 64.3164 75.4421 64.5898 76.0996C64.8698 76.7507 65.2702 77.2682 65.791 77.6523C66.3184 78.0365 66.9531 78.2285 67.6953 78.2285ZM74.3066 79V78.1504L75.8984 78.0234V69.4199L74.3066 69.293V68.4336H79.7754C81.097 68.4336 82.1191 68.668 82.8418 69.1367C83.571 69.6055 83.9355 70.3086 83.9355 71.2461C83.9355 71.793 83.7663 72.2747 83.4277 72.6914C83.0957 73.1016 82.627 73.3945 82.0215 73.5703C82.7181 73.6875 83.2812 73.9805 83.7109 74.4492C84.1471 74.918 84.3652 75.4583 84.3652 76.0703C84.3652 77.0273 84.0137 77.7565 83.3105 78.2578C82.6139 78.7526 81.6602 79 80.4492 79H74.3066ZM77.0703 73.1602H79.8828C81.8034 73.1602 82.7637 72.5319 82.7637 71.2754C82.7637 70.0319 81.7676 69.4102 79.7754 69.4102H77.0703V73.1602ZM77.0703 78.0332H80.4492C81.3216 78.0332 81.9954 77.8639 82.4707 77.5254C82.9525 77.1803 83.1934 76.6888 83.1934 76.0508C83.1934 75.4648 82.9492 74.9993 82.4609 74.6543C81.9792 74.3027 81.3086 74.127 80.4492 74.127H77.0703V78.0332ZM91.1523 79.2051C90.2083 79.2051 89.3848 78.9805 88.6816 78.5312C87.9785 78.0755 87.4316 77.4473 87.041 76.6465C86.6569 75.8457 86.4648 74.9245 86.4648 73.8828V73.5605C86.4648 72.5254 86.6569 71.6074 87.041 70.8066C87.4316 70.0059 87.9753 69.3776 88.6719 68.9219C89.375 68.4661 90.1953 68.2383 91.1328 68.2383C92.0703 68.2383 92.8906 68.4661 93.5938 68.9219C94.2969 69.3776 94.8405 70.0059 95.2246 70.8066C95.6152 71.6074 95.8105 72.5254 95.8105 73.5605V73.8828C95.8105 74.9245 95.6152 75.8457 95.2246 76.6465C94.8405 77.4473 94.2969 78.0755 93.5938 78.5312C92.8971 78.9805 92.0833 79.2051 91.1523 79.2051ZM91.1523 78.2285C91.875 78.2285 92.4967 78.0365 93.0176 77.6523C93.5384 77.2682 93.9388 76.7507 94.2188 76.0996C94.4987 75.4421 94.6387 74.7031 94.6387 73.8828V73.5605C94.6387 72.7533 94.4954 72.0241 94.209 71.373C93.929 70.7155 93.5254 70.1947 92.998 69.8105C92.4772 69.4199 91.8555 69.2246 91.1328 69.2246C90.3971 69.2246 89.7689 69.4199 89.248 69.8105C88.7272 70.1947 88.3268 70.7155 88.0469 71.373C87.7734 72.0241 87.6367 72.7533 87.6367 73.5605V73.8828C87.6367 74.7031 87.7734 75.4421 88.0469 76.0996C88.3268 76.7507 88.7272 77.2682 89.248 77.6523C89.7754 78.0365 90.4102 78.2285 91.1523 78.2285ZM96.8457 82.1055L96.7578 78.0234H97.5195C97.9036 77.5417 98.2259 77.0632 98.4863 76.5879C98.7533 76.1061 98.9648 75.5299 99.1211 74.8594C99.2839 74.1888 99.3978 73.3164 99.4629 72.2422L99.5996 69.4102L98.0469 69.293V68.4336H107.471V69.293L105.879 69.4199V78.0234H106.982L106.895 82.1055H105.811V79H97.8711V82.1055H96.8457ZM98.8965 78.0234H104.707V69.5078H100.762L100.635 72.2422C100.557 73.6289 100.365 74.7878 100.059 75.7188C99.7591 76.6497 99.3717 77.418 98.8965 78.0234ZM114.18 79.2051C113.236 79.2051 112.412 78.9805 111.709 78.5312C111.006 78.0755 110.459 77.4473 110.068 76.6465C109.684 75.8457 109.492 74.9245 109.492 73.8828V73.5605C109.492 72.5254 109.684 71.6074 110.068 70.8066C110.459 70.0059 111.003 69.3776 111.699 68.9219C112.402 68.4661 113.223 68.2383 114.16 68.2383C115.098 68.2383 115.918 68.4661 116.621 68.9219C117.324 69.3776 117.868 70.0059 118.252 70.8066C118.643 71.6074 118.838 72.5254 118.838 73.5605V73.8828C118.838 74.9245 118.643 75.8457 118.252 76.6465C117.868 77.4473 117.324 78.0755 116.621 78.5312C115.924 78.9805 115.111 79.2051 114.18 79.2051ZM114.18 78.2285C114.902 78.2285 115.524 78.0365 116.045 77.6523C116.566 77.2682 116.966 76.7507 117.246 76.0996C117.526 75.4421 117.666 74.7031 117.666 73.8828V73.5605C117.666 72.7533 117.523 72.0241 117.236 71.373C116.956 70.7155 116.553 70.1947 116.025 69.8105C115.505 69.4199 114.883 69.2246 114.16 69.2246C113.424 69.2246 112.796 69.4199 112.275 69.8105C111.755 70.1947 111.354 70.7155 111.074 71.373C110.801 72.0241 110.664 72.7533 110.664 73.5605V73.8828C110.664 74.7031 110.801 75.4421 111.074 76.0996C111.354 76.7507 111.755 77.2682 112.275 77.6523C112.803 78.0365 113.438 78.2285 114.18 78.2285ZM120.791 79V78.1504L122.383 78.0234V69.4199L120.791 69.293V68.4336H126.26C127.581 68.4336 128.604 68.668 129.326 69.1367C130.055 69.6055 130.42 70.3086 130.42 71.2461C130.42 71.793 130.251 72.2747 129.912 72.6914C129.58 73.1016 129.111 73.3945 128.506 73.5703C129.202 73.6875 129.766 73.9805 130.195 74.4492C130.632 74.918 130.85 75.4583 130.85 76.0703C130.85 77.0273 130.498 77.7565 129.795 78.2578C129.098 78.7526 128.145 79 126.934 79H120.791ZM123.555 73.1602H126.367C128.288 73.1602 129.248 72.5319 129.248 71.2754C129.248 70.0319 128.252 69.4102 126.26 69.4102H123.555V73.1602ZM123.555 78.0332H126.934C127.806 78.0332 128.48 77.8639 128.955 77.5254C129.437 77.1803 129.678 76.6888 129.678 76.0508C129.678 75.4648 129.434 74.9993 128.945 74.6543C128.464 74.3027 127.793 74.127 126.934 74.127H123.555V78.0332ZM137.881 79V78.1504L139.473 78.0234V69.4199L137.881 69.293V68.4336H142.236V69.293L140.645 69.4199V77.0176L140.703 77.0371L146.338 68.4336H149.102V69.293L147.51 69.4199V78.0234L149.102 78.1504V79H144.746V78.1504L146.338 78.0234V70.416L146.279 70.3965L140.645 79H137.881ZM155.947 82.1055L155.859 78.0234H156.621C157.005 77.5417 157.327 77.0632 157.588 76.5879C157.855 76.1061 158.066 75.5299 158.223 74.8594C158.385 74.1888 158.499 73.3164 158.564 72.2422L158.701 69.4102L157.148 69.293V68.4336H166.572V69.293L164.98 69.4199V78.0234H166.084L165.996 82.1055H164.912V79H156.973V82.1055H155.947ZM157.998 78.0234H163.809V69.5078H159.863L159.736 72.2422C159.658 73.6289 159.466 74.7878 159.16 75.7188C158.861 76.6497 158.473 77.418 157.998 78.0234ZM173.281 79.2051C172.337 79.2051 171.514 78.9805 170.811 78.5312C170.107 78.0755 169.561 77.4473 169.17 76.6465C168.786 75.8457 168.594 74.9245 168.594 73.8828V73.5605C168.594 72.5254 168.786 71.6074 169.17 70.8066C169.561 70.0059 170.104 69.3776 170.801 68.9219C171.504 68.4661 172.324 68.2383 173.262 68.2383C174.199 68.2383 175.02 68.4661 175.723 68.9219C176.426 69.3776 176.969 70.0059 177.354 70.8066C177.744 71.6074 177.939 72.5254 177.939 73.5605V73.8828C177.939 74.9245 177.744 75.8457 177.354 76.6465C176.969 77.4473 176.426 78.0755 175.723 78.5312C175.026 78.9805 174.212 79.2051 173.281 79.2051ZM173.281 78.2285C174.004 78.2285 174.626 78.0365 175.146 77.6523C175.667 77.2682 176.068 76.7507 176.348 76.0996C176.628 75.4421 176.768 74.7031 176.768 73.8828V73.5605C176.768 72.7533 176.624 72.0241 176.338 71.373C176.058 70.7155 175.654 70.1947 175.127 69.8105C174.606 69.4199 173.984 69.2246 173.262 69.2246C172.526 69.2246 171.898 69.4199 171.377 69.8105C170.856 70.1947 170.456 70.7155 170.176 71.373C169.902 72.0241 169.766 72.7533 169.766 73.5605V73.8828C169.766 74.7031 169.902 75.4421 170.176 76.0996C170.456 76.7507 170.856 77.2682 171.377 77.6523C171.904 78.0365 172.539 78.2285 173.281 78.2285ZM179.482 83.0625V82.2031L181.035 82.0762V69.4199L179.443 69.293V68.4336H182.012L182.158 70.0449C182.51 69.472 182.962 69.0293 183.516 68.7168C184.076 68.3978 184.733 68.2383 185.488 68.2383C186.341 68.2383 187.07 68.4694 187.676 68.9316C188.281 69.3874 188.743 70.0319 189.062 70.8652C189.388 71.6986 189.551 72.6784 189.551 73.8047V74.0098C189.551 75.5853 189.193 76.8451 188.477 77.7891C187.76 78.7331 186.774 79.2051 185.518 79.2051C184.769 79.2051 184.115 79.0651 183.555 78.7852C183.001 78.5052 182.552 78.1146 182.207 77.6133V82.0762L183.838 82.2031V83.0625H179.482ZM185.244 78.2285C186.266 78.2285 187.041 77.8444 187.568 77.0762C188.102 76.3014 188.369 75.2793 188.369 74.0098V73.8047C188.369 72.457 188.102 71.36 187.568 70.5137C187.035 69.6673 186.253 69.2441 185.225 69.2441C184.424 69.2441 183.779 69.4395 183.291 69.8301C182.809 70.2207 182.448 70.7155 182.207 71.3145V76.3535C182.454 76.9329 182.832 77.3919 183.34 77.7305C183.848 78.0625 184.482 78.2285 185.244 78.2285ZM196.406 79.2051C195.462 79.2051 194.639 78.9805 193.936 78.5312C193.232 78.0755 192.686 77.4473 192.295 76.6465C191.911 75.8457 191.719 74.9245 191.719 73.8828V73.5605C191.719 72.5254 191.911 71.6074 192.295 70.8066C192.686 70.0059 193.229 69.3776 193.926 68.9219C194.629 68.4661 195.449 68.2383 196.387 68.2383C197.324 68.2383 198.145 68.4661 198.848 68.9219C199.551 69.3776 200.094 70.0059 200.479 70.8066C200.869 71.6074 201.064 72.5254 201.064 73.5605V73.8828C201.064 74.9245 200.869 75.8457 200.479 76.6465C200.094 77.4473 199.551 78.0755 198.848 78.5312C198.151 78.9805 197.337 79.2051 196.406 79.2051ZM196.406 78.2285C197.129 78.2285 197.751 78.0365 198.271 77.6523C198.792 77.2682 199.193 76.7507 199.473 76.0996C199.753 75.4421 199.893 74.7031 199.893 73.8828V73.5605C199.893 72.7533 199.749 72.0241 199.463 71.373C199.183 70.7155 198.779 70.1947 198.252 69.8105C197.731 69.4199 197.109 69.2246 196.387 69.2246C195.651 69.2246 195.023 69.4199 194.502 69.8105C193.981 70.1947 193.581 70.7155 193.301 71.373C193.027 72.0241 192.891 72.7533 192.891 73.5605V73.8828C192.891 74.7031 193.027 75.4421 193.301 76.0996C193.581 76.7507 193.981 77.2682 194.502 77.6523C195.029 78.0365 195.664 78.2285 196.406 78.2285ZM202.773 79V78.1504L204.365 78.0234V69.4199L202.773 69.293V68.4336H211.025V70.6992H210.166L210.107 69.4297H205.537V78.0234L207.129 78.1504V79H202.773ZM213.291 79V78.1504L214.883 78.0234V69.4199L213.291 69.293V68.4336H217.646V69.293L216.055 69.4199V77.0176L216.113 77.0371L221.748 68.4336H224.512V69.293L222.92 69.4199V78.0234L224.512 78.1504V79H220.156V78.1504L221.748 78.0234V70.416L221.689 70.3965L216.055 79H213.291ZM226.367 79V78.1504L227.568 78.043L230.918 73.6191L227.705 69.3906L226.562 69.293V68.4336H230.137V69.293L229.004 69.3418L231.621 72.8281L234.199 69.3418L233.027 69.293V68.4336H236.572V69.293L235.42 69.3906L232.305 73.5996L235.723 78.043L236.885 78.1504V79H233.154V78.1504L234.395 78.1016L231.602 74.4102L228.838 78.1016L230.02 78.1504V79H226.367ZM243.271 79V78.1504L244.863 78.0234V69.4199L243.271 69.293V68.4336H247.637V69.293L246.045 69.4199V73.1211H247.607L250.186 69.8301C250.615 69.2637 251.003 68.8665 251.348 68.6387C251.699 68.4043 252.087 68.2871 252.51 68.2871C252.718 68.2871 252.907 68.3164 253.076 68.375C253.252 68.4336 253.431 68.5215 253.613 68.6387L253.359 69.4883C253.184 69.4362 253.06 69.4004 252.988 69.3809C252.917 69.3613 252.819 69.3516 252.695 69.3516C252.402 69.3516 252.139 69.4329 251.904 69.5957C251.67 69.7585 251.4 70.0319 251.094 70.416L248.633 73.541L252.646 78.0332L254.004 78.1504V79H251.934L247.656 74.1465H246.045V78.0234L247.637 78.1504V79H243.271ZM259.57 79.2051C258.626 79.2051 257.803 78.9805 257.1 78.5312C256.396 78.0755 255.85 77.4473 255.459 76.6465C255.075 75.8457 254.883 74.9245 254.883 73.8828V73.5605C254.883 72.5254 255.075 71.6074 255.459 70.8066C255.85 70.0059 256.393 69.3776 257.09 68.9219C257.793 68.4661 258.613 68.2383 259.551 68.2383C260.488 68.2383 261.309 68.4661 262.012 68.9219C262.715 69.3776 263.258 70.0059 263.643 70.8066C264.033 71.6074 264.229 72.5254 264.229 73.5605V73.8828C264.229 74.9245 264.033 75.8457 263.643 76.6465C263.258 77.4473 262.715 78.0755 262.012 78.5312C261.315 78.9805 260.501 79.2051 259.57 79.2051ZM259.57 78.2285C260.293 78.2285 260.915 78.0365 261.436 77.6523C261.956 77.2682 262.357 76.7507 262.637 76.0996C262.917 75.4421 263.057 74.7031 263.057 73.8828V73.5605C263.057 72.7533 262.913 72.0241 262.627 71.373C262.347 70.7155 261.943 70.1947 261.416 69.8105C260.895 69.4199 260.273 69.2246 259.551 69.2246C258.815 69.2246 258.187 69.4199 257.666 69.8105C257.145 70.1947 256.745 70.7155 256.465 71.373C256.191 72.0241 256.055 72.7533 256.055 73.5605V73.8828C256.055 74.7031 256.191 75.4421 256.465 76.0996C256.745 76.7507 257.145 77.2682 257.666 77.6523C258.193 78.0365 258.828 78.2285 259.57 78.2285ZM266.182 79V78.1504L267.773 78.0234V69.4199L266.182 69.293V68.4336H269.307L273.457 77.3691L273.506 77.4082L277.686 68.4336H280.732V69.293L279.141 69.4199V78.0234L280.732 78.1504V79H276.377V78.1504L277.969 78.0234V70.543L277.91 70.5234L273.916 79H273.076L269.004 70.3281L268.945 70.3379V78.0234L270.537 78.1504V79H266.182ZM288.584 72.2812C289.801 72.2812 290.749 72.5905 291.426 73.209C292.109 73.8275 292.451 74.6315 292.451 75.6211C292.451 76.6172 292.109 77.431 291.426 78.0625C290.749 78.6875 289.801 79 288.584 79H282.803V78.1504L284.395 78.0234V69.4199L282.803 69.293V68.4336H287.158V69.293L285.566 69.4199V72.2812H288.584ZM288.584 78.0234C289.489 78.0234 290.163 77.7988 290.605 77.3496C291.055 76.8939 291.279 76.3242 291.279 75.6406C291.279 74.9831 291.055 74.4232 290.605 73.9609C290.156 73.4922 289.482 73.2578 288.584 73.2578H285.566V78.0234H288.584ZM304.502 79.2051C303.597 79.2051 302.799 78.9967 302.109 78.5801C301.426 78.1569 300.885 77.571 300.488 76.8223C300.091 76.0736 299.87 75.2109 299.824 74.2344H297.041V78.0234L298.633 78.1504V79H294.277V78.1504L295.869 78.0234V69.4199L294.277 69.293V68.4336H297.041V73.2578H299.834C299.873 72.2617 300.091 71.3893 300.488 70.6406C300.885 69.8854 301.426 69.2962 302.109 68.873C302.793 68.4499 303.584 68.2383 304.482 68.2383C305.426 68.2383 306.247 68.4661 306.943 68.9219C307.646 69.3776 308.19 70.0059 308.574 70.8066C308.965 71.6009 309.16 72.5189 309.16 73.5605V73.8828C309.16 74.9245 308.965 75.8457 308.574 76.6465C308.19 77.4473 307.65 78.0755 306.953 78.5312C306.257 78.9805 305.439 79.2051 304.502 79.2051ZM304.502 78.2285C305.225 78.2285 305.846 78.0365 306.367 77.6523C306.888 77.2682 307.288 76.7507 307.568 76.0996C307.848 75.4421 307.988 74.7031 307.988 73.8828V73.5605C307.988 72.7533 307.848 72.0241 307.568 71.373C307.288 70.7155 306.885 70.1947 306.357 69.8105C305.837 69.4199 305.212 69.2246 304.482 69.2246C303.753 69.2246 303.128 69.4199 302.607 69.8105C302.087 70.1947 301.686 70.7155 301.406 71.373C301.126 72.0241 300.986 72.7533 300.986 73.5605V73.8828C300.986 74.7031 301.126 75.4421 301.406 76.0996C301.686 76.7507 302.087 77.2682 302.607 77.6523C303.135 78.0365 303.766 78.2285 304.502 78.2285ZM313.652 79V78.1504L315.244 78.0234V69.4102H312.383L312.314 71.4219H311.27V68.4336H320.527V71.4219H319.482L319.414 69.4102H316.416V78.0234L318.008 78.1504V79H313.652ZM326.24 79.2051C325.335 79.2051 324.538 78.987 323.848 78.5508C323.158 78.1081 322.617 77.4993 322.227 76.7246C321.836 75.9434 321.641 75.0449 321.641 74.0293V73.4922C321.641 72.4831 321.836 71.5846 322.227 70.7969C322.617 70.0026 323.145 69.3776 323.809 68.9219C324.479 68.4661 325.225 68.2383 326.045 68.2383C327.34 68.2383 328.353 68.6484 329.082 69.4688C329.811 70.2826 330.176 71.373 330.176 72.7402V73.7363H322.852L322.832 74.166C322.839 74.9473 322.982 75.6439 323.262 76.2559C323.548 76.8678 323.945 77.3496 324.453 77.7012C324.967 78.0527 325.563 78.2285 326.24 78.2285C326.904 78.2285 327.487 78.1243 327.988 77.916C328.496 77.7077 328.942 77.418 329.326 77.0469L329.824 77.8477C329.421 78.2448 328.926 78.5703 328.34 78.8242C327.754 79.0781 327.054 79.2051 326.24 79.2051ZM322.93 72.7598H329.004V72.4668C329.004 71.5358 328.74 70.7643 328.213 70.1523C327.692 69.5339 326.969 69.2246 326.045 69.2246C325.485 69.2246 324.98 69.3776 324.531 69.6836C324.082 69.9831 323.714 70.3965 323.428 70.9238C323.148 71.4447 322.975 72.0371 322.91 72.7012L322.93 72.7598ZM331.729 83.0625V82.2031L333.281 82.0762V69.4199L331.689 69.293V68.4336H334.258L334.404 70.0449C334.756 69.472 335.208 69.0293 335.762 68.7168C336.322 68.3978 336.979 68.2383 337.734 68.2383C338.587 68.2383 339.316 68.4694 339.922 68.9316C340.527 69.3874 340.99 70.0319 341.309 70.8652C341.634 71.6986 341.797 72.6784 341.797 73.8047V74.0098C341.797 75.5853 341.439 76.8451 340.723 77.7891C340.007 78.7331 339.02 79.2051 337.764 79.2051C337.015 79.2051 336.361 79.0651 335.801 78.7852C335.247 78.5052 334.798 78.1146 334.453 77.6133V82.0762L336.084 82.2031V83.0625H331.729ZM337.49 78.2285C338.512 78.2285 339.287 77.8444 339.814 77.0762C340.348 76.3014 340.615 75.2793 340.615 74.0098V73.8047C340.615 72.457 340.348 71.36 339.814 70.5137C339.281 69.6673 338.499 69.2441 337.471 69.2441C336.67 69.2441 336.025 69.4395 335.537 69.8301C335.055 70.2207 334.694 70.7155 334.453 71.3145V76.3535C334.701 76.9329 335.078 77.3919 335.586 77.7305C336.094 78.0625 336.729 78.2285 337.49 78.2285ZM348.652 79.2051C347.708 79.2051 346.885 78.9805 346.182 78.5312C345.479 78.0755 344.932 77.4473 344.541 76.6465C344.157 75.8457 343.965 74.9245 343.965 73.8828V73.5605C343.965 72.5254 344.157 71.6074 344.541 70.8066C344.932 70.0059 345.475 69.3776 346.172 68.9219C346.875 68.4661 347.695 68.2383 348.633 68.2383C349.57 68.2383 350.391 68.4661 351.094 68.9219C351.797 69.3776 352.34 70.0059 352.725 70.8066C353.115 71.6074 353.311 72.5254 353.311 73.5605V73.8828C353.311 74.9245 353.115 75.8457 352.725 76.6465C352.34 77.4473 351.797 78.0755 351.094 78.5312C350.397 78.9805 349.583 79.2051 348.652 79.2051ZM348.652 78.2285C349.375 78.2285 349.997 78.0365 350.518 77.6523C351.038 77.2682 351.439 76.7507 351.719 76.0996C351.999 75.4421 352.139 74.7031 352.139 73.8828V73.5605C352.139 72.7533 351.995 72.0241 351.709 71.373C351.429 70.7155 351.025 70.1947 350.498 69.8105C349.977 69.4199 349.355 69.2246 348.633 69.2246C347.897 69.2246 347.269 69.4199 346.748 69.8105C346.227 70.1947 345.827 70.7155 345.547 71.373C345.273 72.0241 345.137 72.7533 345.137 73.5605V73.8828C345.137 74.7031 345.273 75.4421 345.547 76.0996C345.827 76.7507 346.227 77.2682 346.748 77.6523C347.275 78.0365 347.91 78.2285 348.652 78.2285ZM355.264 79V78.1504L356.855 78.0234V69.4199L355.264 69.293V68.4336H360.732C362.054 68.4336 363.076 68.668 363.799 69.1367C364.528 69.6055 364.893 70.3086 364.893 71.2461C364.893 71.793 364.723 72.2747 364.385 72.6914C364.053 73.1016 363.584 73.3945 362.979 73.5703C363.675 73.6875 364.238 73.9805 364.668 74.4492C365.104 74.918 365.322 75.4583 365.322 76.0703C365.322 77.0273 364.971 77.7565 364.268 78.2578C363.571 78.7526 362.617 79 361.406 79H355.264ZM358.027 73.1602H360.84C362.76 73.1602 363.721 72.5319 363.721 71.2754C363.721 70.0319 362.725 69.4102 360.732 69.4102H358.027V73.1602ZM358.027 78.0332H361.406C362.279 78.0332 362.952 77.8639 363.428 77.5254C363.91 77.1803 364.15 76.6888 364.15 76.0508C364.15 75.4648 363.906 74.9993 363.418 74.6543C362.936 74.3027 362.266 74.127 361.406 74.127H358.027V78.0332ZM367.939 79V77.4082H369.277V79H367.939Z" fill="black"/>
</svg>
