<svg width="481" height="196" viewBox="0 0 481 196" fill="none" xmlns="http://www.w3.org/2000/svg">
<path d="M31.36 13.9C31.36 6.64 25.54 0.999997 18.28 0.999997H0.34V43H20.02C28.6 43 33.04 37.06 33.1 29.74C33.1 26.02 31.48 22.9 28.06 21.16C30.1 19.48 31.36 16.42 31.36 13.9ZM19.24 26.32C23.56 26.32 23.62 33.46 19.3 33.46H10.72V26.32H19.24ZM17.44 10.6C21.76 10.6 21.76 17.38 17.5 17.38H10.72V10.6H17.44ZM66.5528 22.36V43C70.2728 43 73.9928 43 77.6528 43V0.819999H73.7528L52.5128 21.58V0.999997C48.8528 0.999997 45.1928 0.999997 41.5328 0.999997V43.06H45.3728L66.5528 22.36ZM99.1464 43V32.26H106.886C126.986 32.26 126.986 1.06 106.886 0.999997C100.706 0.999997 94.4664 0.999997 88.4064 0.999997C88.4064 15.04 88.4064 29.02 88.4064 43C91.9464 43 95.5464 43 99.1464 43ZM106.826 22.6H99.1464C99.1464 19.18 99.1464 14.02 99.1464 10.6C101.606 10.6 104.306 10.54 106.826 10.6C113.066 10.66 112.706 22.6 106.826 22.6ZM136.247 10.6V43C139.787 43 143.327 43 146.867 43V10.6H157.127C157.127 7.36 157.127 4.18 157.127 0.999997H125.927C125.927 4.18 125.927 7.36 125.927 10.6H136.247ZM168.272 43H179.852L199.772 2.62V0.999997H188.132L180.932 16.48H180.632L172.712 0.999997H160.712V2.62L174.872 28.3L168.272 41.86V43ZM227.899 43H238.399V41.44L219.439 0.459997H214.819L195.919 41.44V43H206.419L208.879 37.72H225.439L227.899 43ZM221.959 28.54H212.359L217.099 17.5L221.959 28.54ZM262.275 18.4L273.075 43H283.575V41.44L264.615 0.459997H259.995L241.095 41.44V43H251.595L262.275 18.4ZM299.83 0.999997C296.23 0.999997 292.63 0.999997 289.09 0.999997C289.09 14.98 289.09 28.96 289.09 43C295.15 43 301.39 43 307.57 43C327.67 42.94 327.67 13.54 307.57 13.54H299.83V0.999997ZM307.51 23.2C313.39 23.2 313.75 33.34 307.51 33.4C304.99 33.46 302.29 33.4 299.83 33.4C299.83 29.98 299.83 26.62 299.83 23.2H307.51ZM365.73 0.999997C362.07 0.999997 358.41 0.999997 354.75 0.999997V16.24H341.79V0.999997C338.13 0.999997 334.41 0.999997 330.81 0.999997V43C334.41 43 338.13 43 341.79 43V26.14H354.75V43C358.41 43 362.07 43 365.73 43V0.999997ZM403.153 43H413.653V41.44L394.693 0.459997H390.073L371.173 41.44V43H381.673L384.133 37.72H400.693L403.153 43ZM397.213 28.54H387.613L392.353 17.5L397.213 28.54ZM416.317 41.44V43H428.317L435.517 30.64H441.097V43C444.697 43 448.357 43 451.837 43C451.837 29.02 451.837 15.04 451.837 0.999997C445.777 0.999997 439.537 0.999997 433.417 0.999997C416.917 1.06 413.917 20.92 424.537 28.12L416.317 41.44ZM433.417 20.98C427.597 20.98 427.297 10.66 433.417 10.6C435.937 10.54 438.577 10.6 441.097 10.6C441.097 14.02 441.097 17.62 441.097 20.98H433.417ZM11.08 115V104.26H18.82C38.92 104.26 38.92 73.06 18.82 73C12.64 73 6.4 73 0.34 73C0.34 87.04 0.34 101.02 0.34 115C3.88 115 7.48 115 11.08 115ZM18.76 94.6H11.08C11.08 91.18 11.08 86.02 11.08 82.6C13.54 82.6 16.24 82.54 18.76 82.6C25 82.66 24.64 94.6 18.76 94.6ZM68.2202 73C58.3802 73 51.7202 73 42.0002 73C42.0002 86.92 42.0002 100.96 42.0002 115C51.7202 115 58.9202 115 68.7602 115C68.7602 111.82 68.7602 108.58 68.7602 105.46C62.4602 105.46 58.8602 105.46 52.6802 105.46C52.6802 102.94 52.6802 100.54 52.6802 98.08H66.9602C66.9602 94.9 66.9602 91.72 66.9602 88.54H52.6802V82.6C58.8602 82.6 61.9802 82.6 68.2202 82.6C68.2202 79.36 68.2202 76.12 68.2202 73ZM104.677 115H115.177V113.44L96.2167 72.46H91.5967L72.6967 113.44V115H83.1967L85.6567 109.72H102.217L104.677 115ZM98.7367 100.54H89.1367L93.8767 89.5L98.7367 100.54ZM139.053 90.4L149.853 115H160.353V113.44L141.393 72.46H136.773L117.873 113.44V115H128.373L139.053 90.4ZM176.607 73C173.007 73 169.407 73 165.867 73C165.867 86.98 165.867 100.96 165.867 115C171.927 115 178.167 115 184.347 115C204.447 114.94 204.447 85.54 184.347 85.54H176.607V73ZM184.287 95.2C190.167 95.2 190.527 105.34 184.287 105.4C181.767 105.46 179.067 105.4 176.607 105.4C176.607 101.98 176.607 98.62 176.607 95.2H184.287ZM242.508 73C238.848 73 235.188 73 231.528 73V88.24H218.568V73C214.908 73 211.188 73 207.588 73V115C211.188 115 214.908 115 218.568 115V98.14H231.528V115C235.188 115 238.848 115 242.508 115V73ZM293.731 94.06C293.731 65.02 250.651 65.02 250.651 94.06C250.651 123.16 293.731 123.16 293.731 94.06ZM261.691 94.06C261.691 78.94 282.751 78.94 282.751 94.06C282.751 109.3 261.691 109.3 261.691 94.06ZM299.285 94C299.345 108.28 310.145 115.48 320.825 115.42C329.765 115.42 339.185 110.74 340.745 98.86C337.085 98.86 333.785 98.86 330.185 98.86C329.045 103.36 325.385 105.64 320.825 105.64C314.465 105.58 310.385 100.18 310.385 94C310.385 87.04 314.525 82.3 320.825 82.3C325.325 82.3 328.505 84.22 330.005 88.48C333.665 88.48 336.905 88.48 340.565 88.48C338.945 77.26 329.525 72.52 320.825 72.52C310.145 72.52 299.345 79.72 299.285 94ZM355.153 82.6V115C358.693 115 362.233 115 365.773 115V82.6H376.033C376.033 79.36 376.033 76.18 376.033 73H344.833C344.833 76.18 344.833 79.36 344.833 82.6H355.153ZM393.404 73C389.804 73 386.204 73 382.664 73C382.664 86.98 382.664 100.96 382.664 115C388.724 115 394.964 115 401.144 115C421.244 114.94 421.244 85.54 401.144 85.54H393.404V73ZM401.084 95.2C406.964 95.2 407.324 105.34 401.084 105.4C398.564 105.46 395.864 105.4 393.404 105.4C393.404 101.98 393.404 98.62 393.404 95.2H401.084ZM18.76 169.18C24.64 169.18 24.7 177.4 18.76 177.4C16.24 177.4 13.54 177.4 11.08 177.4V169.18H18.76ZM11.08 159.7V154.6H30.52V145H0.34V187H18.82C38.92 186.94 38.92 159.7 18.82 159.7H11.08ZM68.2202 145C58.3802 145 51.7202 145 42.0002 145C42.0002 158.92 42.0002 172.96 42.0002 187C51.7202 187 58.9202 187 68.7602 187C68.7602 183.82 68.7602 180.58 68.7602 177.46C62.4602 177.46 58.8602 177.46 52.6802 177.46C52.6802 174.94 52.6802 172.54 52.6802 170.08H66.9602C66.9602 166.9 66.9602 163.72 66.9602 160.54H52.6802V154.6C58.8602 154.6 61.9802 154.6 68.2202 154.6C68.2202 151.36 68.2202 148.12 68.2202 145ZM85.9567 155.56C85.9567 154 87.3367 153.1 89.6767 153.1C94.7167 153.1 94.8367 160.42 89.5567 160.42H86.7367V169.18H89.6767C96.8767 169.18 96.8767 178.72 89.6767 178.72C86.5567 178.72 84.3967 176.62 84.3967 173.32H74.9767C74.9767 182.74 80.5567 187.78 89.6767 187.78C100.477 187.78 105.877 182.02 105.877 174.58C105.877 169.84 104.077 166.48 99.8167 164.2C102.277 162.34 103.477 159.16 103.477 156.4C103.477 150.28 98.8567 144.22 89.6767 144.22C82.3567 144.22 76.0567 147.82 76.4167 155.56H85.9567ZM165.34 145C137.74 145 134.02 145 130.42 145V187C134.02 187 137.74 187 141.4 187V154.9H154.36V187C158.02 187 161.68 187 165.34 187V145ZM186.803 187V176.26H194.543C214.643 176.26 214.643 145.06 194.543 145C188.363 145 182.123 145 176.063 145C176.063 159.04 176.063 173.02 176.063 187C179.603 187 183.203 187 186.803 187ZM194.483 166.6H186.803C186.803 163.18 186.803 158.02 186.803 154.6C189.263 154.6 191.963 154.54 194.483 154.6C200.723 154.66 200.363 166.6 194.483 166.6ZM258.223 166.06C258.223 137.02 215.143 137.02 215.143 166.06C215.143 195.16 258.223 195.16 258.223 166.06ZM226.183 166.06C226.183 150.94 247.243 150.94 247.243 166.06C247.243 181.3 226.183 181.3 226.183 166.06ZM297.317 157.9C297.317 150.64 291.497 145 284.237 145H266.297V187H285.977C294.557 187 298.997 181.06 299.057 173.74C299.057 170.02 297.437 166.9 294.017 165.16C296.057 163.48 297.317 160.42 297.317 157.9ZM285.197 170.32C289.517 170.32 289.577 177.46 285.257 177.46H276.677V170.32H285.197ZM283.397 154.6C287.717 154.6 287.717 161.38 283.457 161.38H276.677V154.6H283.397ZM347.93 166.06C347.93 137.02 304.85 137.02 304.85 166.06C304.85 195.16 347.93 195.16 347.93 166.06ZM315.89 166.06C315.89 150.94 336.95 150.94 336.95 166.06C336.95 181.3 315.89 181.3 315.89 166.06ZM359.664 187.12H384.504V191.74H393.324V177.7H388.944L374.064 144.46H369.444L355.044 177.7H350.784V191.74H359.664V187.12ZM371.724 162.4L377.784 177.58H365.904L371.724 162.4ZM439.219 166.06C439.219 137.02 396.139 137.02 396.139 166.06C396.139 195.16 439.219 195.16 439.219 166.06ZM407.179 166.06C407.179 150.94 428.239 150.94 428.239 166.06C428.239 181.3 407.179 181.3 407.179 166.06ZM478.313 157.9C478.313 150.64 472.493 145 465.233 145H447.293V187H466.973C475.553 187 479.993 181.06 480.053 173.74C480.053 170.02 478.433 166.9 475.013 165.16C477.053 163.48 478.313 160.42 478.313 157.9ZM466.193 170.32C470.513 170.32 470.573 177.46 466.253 177.46H457.673V170.32H466.193ZM464.393 154.6C468.713 154.6 468.713 161.38 464.453 161.38H457.673V154.6H464.393Z" fill="black"/>
</svg>
